<svg width="80" height="60" viewBox="0 0 80 60" fill="none" xmlns="http://www.w3.org/2000/svg">
<g clip-path="url(#clip0_13_1939)">
<path fill-rule="evenodd" clip-rule="evenodd" d="M0 0H80V60H0V0Z" fill="black"/>
<path fill-rule="evenodd" clip-rule="evenodd" d="M53.3375 0H80V60H53.3375V0Z" fill="#009900"/>
<path fill-rule="evenodd" clip-rule="evenodd" d="M26.6625 0H53.3375V60H26.6625V0Z" fill="#BF0000"/>
<path fill-rule="evenodd" clip-rule="evenodd" d="M42.597 33.4286H43.7004C43.7004 33.854 43.9662 34.306 44.2986 34.5586H42.1716C42.504 34.2661 42.597 33.8939 42.597 33.4286Z" fill="white" stroke="#BD6B00" stroke-width="0.0664662"/>
<path fill-rule="evenodd" clip-rule="evenodd" d="M35.5781 27.141L36.1896 27.8056L43.7668 27.8322L44.3783 27.1675L42.4374 27.1277L41.5069 26.463H38.4495L37.5721 27.141H35.5781Z" fill="white"/>
<path fill-rule="evenodd" clip-rule="evenodd" d="M38.6755 26.3699H41.2942C41.6399 26.1838 41.7595 25.5856 41.7595 25.2533C41.7595 24.2696 41.055 23.7911 40.3637 23.7645C40.2574 23.7645 40.1377 23.6847 40.1111 23.5917C40.0447 23.379 40.058 23.2327 39.9782 23.246C39.925 23.246 39.9383 23.379 39.8852 23.5651C39.8453 23.6714 39.7389 23.7645 39.6193 23.7778C38.7685 23.8176 38.2102 24.4424 38.2235 25.2533C38.2368 25.785 38.3033 26.1041 38.6755 26.3699Z" fill="white" stroke="#BD6B00" stroke-width="0.0664662"/>
<path fill-rule="evenodd" clip-rule="evenodd" d="M34.3817 35.6885H45.5879L44.5909 34.8776H35.3654L34.3684 35.6885H34.3817Z" fill="white"/>
<path fill-rule="evenodd" clip-rule="evenodd" d="M39.5262 32.6178L39.7256 33.2293H40.1909L39.8187 32.6178H39.5262ZM39.2604 33.2293L39.3933 33.8408H39.925L39.7256 33.2293H39.2604ZM40.1909 33.2293L40.5631 33.8408H41.3474L40.7359 33.2293H40.1909ZM35.6047 34.6118C36.0168 34.2263 36.2827 33.9072 36.2827 33.442H37.293C37.293 33.7078 37.386 33.854 37.5323 33.8408H38.5558V33.2426H37.8114V29.9591C37.7848 28.7893 39.2205 28.1247 39.8054 28.1247H36.3093V28.0183H43.6604V28.1247H40.1377C41.1879 28.1247 42.1982 29.1216 42.2115 29.9591V30.8897H42.0786L42.0653 29.9724C42.0653 29.0552 40.9087 28.2044 39.9782 28.231C39.1806 28.2443 37.9311 29.0153 37.9443 29.9591V30.2516L39.8453 30.2649L39.832 30.5972L40.1244 30.7833L40.7226 30.9694V31.4746L41.148 31.5942V32.086L41.6532 32.312V32.8172L41.9855 33.0166L41.9722 33.535L42.4109 33.8408H41.374L42.0254 34.5719H41.055L40.5764 33.8408H39.9516L40.2308 34.5586H39.5661L39.3933 33.8408H38.5691V34.6118H35.618H35.6047ZM38.5558 32.6178V33.2293H39.2604L39.1274 32.6178H38.5425H38.5558Z" fill="white"/>
<path d="M39.7256 33.2293L39.5262 32.6178H39.8187L40.1909 33.2293M39.7256 33.2293H40.1909M39.7256 33.2293L39.925 33.8408H39.3933M39.7256 33.2293H39.2604M40.1909 33.2293L40.5631 33.8408H41.3474L40.7359 33.2293H40.1909ZM39.2604 33.2293L39.3933 33.8408M39.2604 33.2293H38.5558V32.6178H38.5425H39.1274L39.2604 33.2293ZM39.3933 33.8408L39.5661 34.5586H40.2308L39.9516 33.8408H40.5764L41.055 34.5719H42.0254L41.374 33.8408H42.4109L41.9722 33.535L41.9855 33.0166L41.6532 32.8172V32.312L41.148 32.086V31.5942L40.7226 31.4746V30.9694L40.1244 30.7833L39.832 30.5972L39.8453 30.2649L37.9443 30.2516V29.9591C37.9311 29.0153 39.1806 28.2443 39.9782 28.231C40.9087 28.2044 42.0653 29.0552 42.0653 29.9724L42.0786 30.8897H42.2115V29.9591C42.1982 29.1216 41.1879 28.1247 40.1377 28.1247H43.6604V28.0183H36.3093V28.1247H39.8054C39.2205 28.1247 37.7848 28.7893 37.8114 29.9591V33.2426H38.5558V33.8408H37.5323C37.386 33.854 37.293 33.7078 37.293 33.442H36.2827C36.2827 33.9072 36.0168 34.2263 35.6047 34.6118H35.618H38.5691V33.8408H39.3933Z" stroke="#BD6B00" stroke-width="0.0664662"/>
<path fill-rule="evenodd" clip-rule="evenodd" d="M38.5957 31.5543H39.0344V32.5646H38.5957V31.5543Z" stroke="#BD6B00" stroke-width="0.0664662"/>
<path fill-rule="evenodd" clip-rule="evenodd" d="M37.9709 32.6311H38.3963V31.8866C38.3963 31.5676 38.6888 31.2353 38.8217 31.222C38.9812 31.222 39.2072 31.5277 39.2205 31.86V32.6311H39.6725V30.7168H37.9709V32.6311ZM41.374 33.0697H41.9057V33.4951H41.374V33.0697ZM41.055 32.3652H41.5867V32.7773H41.055V32.3652ZM40.5365 31.6474H41.0683V32.0594H40.5365V31.6474ZM40.0979 31.0492H40.6296V31.4613H40.0979V31.0492Z" stroke="#BD6B00" stroke-width="0.0664662"/>
<path fill-rule="evenodd" clip-rule="evenodd" d="M39.7389 32.6311L40.2972 32.6577L41.2676 33.5084V33.0033L40.9353 32.764V32.3652L40.4567 32.0993V31.6607L39.9915 31.5011V30.9295L39.7655 30.7301L39.7522 32.6444L39.7389 32.6311Z" stroke="#BD6B00" stroke-width="0.0664662"/>
<path fill-rule="evenodd" clip-rule="evenodd" d="M42.052 31.3682H42.1849V32.312H42.052V31.3682Z" fill="white" stroke="#BD6B00" stroke-width="0.0664662"/>
<path fill-rule="evenodd" clip-rule="evenodd" d="M34.3285 28.2044C34.169 27.9385 33.9696 28.5766 33.2917 29.0419C32.9859 29.2546 32.7599 29.8262 32.7599 30.1984C32.7599 30.4643 32.7865 30.7168 32.7599 30.9694C32.7466 31.1156 32.5738 31.4745 32.6935 31.5676C32.9859 31.7803 33.3714 32.2854 33.5442 32.4582C33.7037 32.5912 33.8367 31.7537 33.943 31.3948C34.076 30.996 34.0228 30.5041 34.3684 30.1452C34.6077 29.8794 35.2192 29.6401 35.166 29.5337L34.3285 28.2044Z" fill="white" stroke="#BD6B00" stroke-width="0.0664662"/>
<path fill-rule="evenodd" clip-rule="evenodd" d="M34.2886 30.2516C34.2359 30.1261 34.1641 30.0096 34.076 29.9059C33.9912 29.8009 33.8815 29.7186 33.7569 29.6667C33.6345 29.6303 33.5242 29.5614 33.4379 29.4673C33.387 29.4102 33.3506 29.3419 33.3315 29.2679C33.3164 29.1799 33.3164 29.09 33.3315 29.002L33.2917 29.0419C32.9859 29.2546 32.7599 29.8262 32.7599 30.1984C32.7558 30.3003 32.7558 30.4023 32.7599 30.5041C32.7865 30.5706 32.7998 30.6371 32.8397 30.6769L32.9859 30.7833L33.3448 30.8763C33.4792 30.9368 33.5976 31.0278 33.6904 31.1422C33.7872 31.2447 33.8679 31.3612 33.9297 31.4878L33.9563 31.3815C34.0627 31.0226 34.0494 30.5972 34.3019 30.2516H34.2886Z" fill="#BF0000" stroke="#BD6B00" stroke-width="0.0664662"/>
<path d="M33.3316 28.9887C33.2651 29.4274 33.5177 29.5869 33.757 29.6667C33.9963 29.7597 34.1957 30.0123 34.2887 30.2516M32.7334 30.451C32.8397 30.8498 33.1056 30.7966 33.3449 30.8764C33.5842 30.9694 33.8367 31.2751 33.9431 31.5144" stroke="#BD6B00" stroke-width="0.0664662"/>
<path fill-rule="evenodd" clip-rule="evenodd" d="M34.1025 27.9385L34.2355 27.8588L36.5884 31.8335L36.4554 31.9132L34.1025 27.9252V27.9385Z" fill="white" stroke="#BD6B00" stroke-width="0.0664662"/>
<path fill-rule="evenodd" clip-rule="evenodd" d="M34.3551 27.779C34.3551 27.8495 34.3271 27.9172 34.2772 27.967C34.2274 28.0169 34.1597 28.0449 34.0892 28.0449C34.0187 28.0449 33.9511 28.0169 33.9012 27.967C33.8514 27.9172 33.8234 27.8495 33.8234 27.779C33.8234 27.7085 33.8514 27.6409 33.9012 27.591C33.9511 27.5412 34.0187 27.5132 34.0892 27.5132C34.1597 27.5132 34.2274 27.5412 34.2772 27.591C34.3271 27.6409 34.3551 27.7085 34.3551 27.779ZM36.3757 24.5886H37.3328V24.8013H36.3757V24.5886ZM36.3757 25.0007H37.3328V26.8352H36.3757V25.0007ZM36.3225 24.3361H37.386C37.4125 23.9771 37.0536 23.5916 36.8542 23.5916C36.6415 23.6049 36.3092 23.9904 36.3225 24.3361Z" fill="white" stroke="#BD6B00" stroke-width="0.0664662"/>
<path fill-rule="evenodd" clip-rule="evenodd" d="M39.021 24.1234C38.8216 24.2031 38.6621 24.4291 38.569 24.695C38.476 24.9609 38.4361 25.2666 38.4893 25.5059C38.4893 25.5989 38.5291 25.6521 38.5557 25.7053C38.5823 25.7452 38.6089 25.7717 38.6355 25.7717C38.6754 25.7717 38.7153 25.7717 38.7285 25.7319L38.7551 25.6255C38.7418 25.3597 38.7418 25.1204 38.795 24.9077C38.8541 24.6715 38.9955 24.4641 39.1938 24.3228C39.2337 24.2962 39.247 24.2563 39.2603 24.2297C39.2598 24.1947 39.2454 24.1612 39.2204 24.1367C39.1672 24.0968 39.0875 24.0835 39.021 24.1234ZM39.0476 24.1766C39.1008 24.15 39.1539 24.1766 39.1805 24.1899L39.1938 24.2164C39.1938 24.2297 39.1938 24.243 39.1539 24.2696C38.9497 24.4194 38.804 24.6356 38.7418 24.8811C38.6867 25.1252 38.6732 25.3769 38.702 25.6255C38.702 25.6543 38.6926 25.6823 38.6754 25.7053C38.6754 25.7053 38.6754 25.7186 38.6488 25.7053C38.6488 25.7053 38.6222 25.7053 38.5956 25.6654C38.5693 25.6155 38.5514 25.5616 38.5424 25.5059C38.5026 25.2666 38.5424 24.9742 38.6355 24.7083C38.7285 24.469 38.8748 24.2563 39.0343 24.1766H39.0476Z" fill="#BD6B00"/>
<path fill-rule="evenodd" clip-rule="evenodd" d="M39.3666 24.376C39.1672 24.469 39.0343 24.6817 38.9678 24.9343C38.8972 25.1896 38.8836 25.4574 38.928 25.7186C38.9545 25.8914 39.0609 25.9844 39.1407 25.9844C39.1805 25.9977 39.2204 25.9844 39.247 25.9446C39.2736 25.9047 39.2869 25.8648 39.2736 25.8116C39.2204 25.5989 39.2071 25.3597 39.2337 25.1337C39.2736 24.9077 39.3666 24.7083 39.5262 24.5886C39.566 24.5488 39.5926 24.5222 39.5926 24.4823C39.5938 24.4679 39.5921 24.4534 39.5875 24.4397C39.583 24.426 39.5757 24.4133 39.566 24.4025C39.5129 24.3627 39.4331 24.3494 39.3666 24.376ZM39.3932 24.4424C39.4464 24.4158 39.4996 24.4291 39.5262 24.4424L39.5394 24.4823L39.4996 24.5355C39.4103 24.607 39.3362 24.6955 39.2814 24.7959C39.2266 24.8963 39.1924 25.0066 39.1805 25.1204C39.1406 25.3597 39.1672 25.6122 39.2071 25.8116C39.2204 25.8648 39.2071 25.8914 39.2071 25.918L39.1407 25.9313C39.1008 25.9313 39.0077 25.8648 38.9811 25.7053C38.9413 25.4793 38.9545 25.1868 39.021 24.9476C39.0875 24.7083 39.2204 24.5089 39.3932 24.4424Z" fill="#BD6B00"/>
<path fill-rule="evenodd" clip-rule="evenodd" d="M36.3226 28.3241H37.386V29.7863H36.3226V28.3241ZM36.389 30.6371H37.4126V30.9561H36.389V30.6371ZM36.3625 31.1821H37.4259V32.3386H36.3625V31.1821ZM36.2827 32.5779H37.4392V33.2293H36.2827V32.5779ZM36.4289 30.3712H37.3595L37.5456 30.0522H36.2694L36.4289 30.3712ZM37.6785 29.228L37.6918 28.4304H38.3299C38.0556 28.6439 37.8329 28.9166 37.6785 29.228Z" fill="white" stroke="#BD6B00" stroke-width="0.0664662"/>
<path fill-rule="evenodd" clip-rule="evenodd" d="M36.4954 29.5603C36.4954 29.7331 36.6948 29.6667 36.6948 29.5736V28.8292C36.6948 28.6963 37.0138 28.7228 37.0138 28.8159V29.6135C37.0138 29.7464 37.2398 29.7331 37.2265 29.6135V28.683C37.2265 28.3905 36.4954 28.4038 36.4954 28.6697V29.5603ZM36.4954 31.3283H37.2531V32.2588H36.4954V31.3283Z" stroke="#BD6B00" stroke-width="0.0664662"/>
<path fill-rule="evenodd" clip-rule="evenodd" d="M36.9738 31.7271H37.2397V31.8601H36.9738V31.7271ZM36.5086 31.7271H36.7744V31.8601H36.5086V31.7271ZM36.7744 31.3283H36.9738V31.7271H36.7744V31.3283ZM36.7744 31.8601H36.9738V32.2721H36.7744V31.8601ZM32.5605 21.8901C32.6137 22.6212 32.3744 23.0333 31.9889 22.9669C31.8825 22.5681 32.1218 22.2889 32.5605 21.8901ZM31.6964 23.5252C31.3508 23.3524 31.6034 21.9965 31.7363 21.4249C31.8294 22.156 32.0022 23.1929 31.6964 23.5252Z" fill="white"/>
<path d="M36.9738 31.7271H37.2397V31.8601H36.9738M36.9738 31.7271V31.8601M36.9738 31.7271V31.3283H36.7744V31.7271M36.9738 31.7271H36.7744M36.9738 31.8601H36.7744M36.9738 31.8601V32.2721H36.7744V31.8601M36.7744 31.7271H36.5086V31.8601H36.7744M36.7744 31.7271V31.8601M32.5605 21.8901C32.6137 22.6212 32.3744 23.0333 31.9889 22.9669C31.8825 22.5681 32.1218 22.2889 32.5605 21.8901ZM31.6964 23.5252C31.3508 23.3524 31.6034 21.9965 31.7363 21.4249C31.8294 22.156 32.0022 23.1929 31.6964 23.5252Z" stroke="#BD6B00" stroke-width="0.0664662"/>
<path fill-rule="evenodd" clip-rule="evenodd" d="M31.8161 23.5917C32.401 23.791 32.8796 23.1663 33.0258 22.4351C32.5472 23.0998 31.7629 23.0998 31.8294 23.5917H31.8161ZM31.3774 24.2696C30.9254 24.15 31.1913 22.7143 31.2844 22.1427C31.3774 22.7409 31.6965 24.0702 31.3774 24.2696ZM31.5369 24.2297C31.5635 23.7379 32.0554 23.8708 32.401 23.6049C32.3345 23.8708 32.1351 24.2962 31.5369 24.2297ZM30.9786 24.8944C30.5266 24.7615 30.7925 23.2194 30.7659 22.5814C30.8989 23.1397 31.3242 24.7482 30.9786 24.8944ZM31.1913 24.8279C31.5635 24.9476 32.0554 24.695 32.0953 24.2563C31.7629 24.4823 31.2578 24.3095 31.1913 24.8279Z" fill="white" stroke="#BD6B00" stroke-width="0.0664662"/>
<path fill-rule="evenodd" clip-rule="evenodd" d="M30.6331 25.5723C30.2077 25.6122 30.3938 24.2962 30.3938 23.0732C30.5533 24.2164 30.992 25.2666 30.6331 25.5723Z" fill="white" stroke="#BD6B00" stroke-width="0.0664662"/>
<path fill-rule="evenodd" clip-rule="evenodd" d="M30.7925 25.5192C31.0849 25.6521 31.6034 25.4261 31.7496 24.9343C31.2179 25.1603 30.8722 24.9343 30.7925 25.5192ZM34.1956 22.5681C34.1158 23.2194 33.8499 23.5916 33.4644 23.5252C33.3581 23.1264 33.6771 22.8605 34.1956 22.5681ZM33.1587 24.2164C33.81 24.3095 34.036 23.8176 34.488 23.1663C33.8632 23.6182 33.1321 23.698 33.1587 24.2297V24.2164Z" fill="white" stroke="#BD6B00" stroke-width="0.0664662"/>
<path fill-rule="evenodd" clip-rule="evenodd" d="M32.9593 24.15C32.6137 23.7246 32.9593 23.1796 33.2252 22.7276C33.172 23.4055 33.398 23.791 32.9593 24.15ZM32.8264 24.8545C32.7732 24.4291 33.4911 24.3361 33.8101 24.1101C33.6905 24.3494 33.5442 25.0007 32.8131 24.8545H32.8264Z" fill="white" stroke="#BD6B00" stroke-width="0.0664662"/>
<path fill-rule="evenodd" clip-rule="evenodd" d="M32.6669 24.8545C32.175 24.8013 32.3744 23.9639 32.7334 23.5119C32.5871 24.15 32.9992 24.5886 32.6669 24.8545Z" fill="white" stroke="#BD6B00" stroke-width="0.0664662"/>
<path fill-rule="evenodd" clip-rule="evenodd" d="M32.2947 25.5591C31.7364 25.2932 32.0953 24.6019 32.2947 24.1898C32.215 24.7349 32.6669 25.147 32.2947 25.5458V25.5591Z" fill="white" stroke="#BD6B00" stroke-width="0.0664662"/>
<path fill-rule="evenodd" clip-rule="evenodd" d="M32.401 25.4793C32.6935 25.8781 33.2651 25.3729 33.3847 24.788C32.8929 25.2001 32.5207 25.1337 32.401 25.4926V25.4793ZM31.1249 28.1778C31.0717 27.6062 31.4971 26.5826 31.1914 26.0243C31.1515 25.9446 31.2844 25.7452 31.3775 25.8648C31.5104 26.0642 31.6433 26.6225 31.7098 26.4098C31.763 26.1838 31.7763 25.7983 31.9757 25.7186C32.1086 25.6787 32.2814 25.6388 32.2282 25.8515C32.1751 26.0376 32.0687 26.3035 32.1883 26.3168C32.2548 26.3168 32.4542 26.0509 32.627 25.918C32.76 25.8116 32.9727 25.9977 32.76 26.1572C32.1219 26.689 31.4971 26.9415 31.1249 28.1778ZM29.9684 36.752C29.8886 36.752 29.7956 36.7121 29.8886 36.8317C30.6463 37.7623 30.859 38.0281 31.9624 37.8952C33.0657 37.749 33.3316 37.4432 34.1159 37.0045C34.3429 36.8851 34.5914 36.8118 34.847 36.789C35.1025 36.7662 35.3601 36.7943 35.6047 36.8716C35.8174 36.9381 35.9503 36.9381 35.7908 36.7786C35.6313 36.6323 35.4585 36.4196 35.2591 36.2734C34.7632 35.9417 34.1588 35.8132 33.5708 35.9145C32.7733 36.0474 32.0953 36.5659 31.2844 36.7653C30.8501 36.853 30.4027 36.853 29.9684 36.7653V36.752ZM36.3225 38.4136C36.4555 38.4402 36.5485 38.7061 36.6283 38.5333C36.7346 38.2275 36.6549 38.0015 36.5219 38.0148C36.3624 38.0547 36.1099 38.4136 36.3225 38.4136Z" fill="white" stroke="#BD6B00" stroke-width="0.0664662"/>
<path fill-rule="evenodd" clip-rule="evenodd" d="M29.4499 27.7391C29.2903 27.553 29.3302 27.4999 29.5828 27.4866C29.7689 27.4866 30.1411 27.6195 30.2873 27.4999C30.4203 27.4068 30.3538 27.008 30.4203 26.8352C30.4468 26.7156 30.5133 26.5693 30.6861 26.8086C31.1647 27.5796 31.7496 28.5102 32.0155 29.4141C32.1484 29.9192 32.0155 30.7168 31.5635 31.2486C31.5635 30.7966 31.404 30.4908 31.2046 30.1053C30.9387 29.6135 29.9949 28.2443 29.4499 27.7258V27.7391Z" fill="white"/>
<path fill-rule="evenodd" clip-rule="evenodd" d="M31.4306 31.7803C31.9624 31.7803 32.0554 31.0758 32.0554 30.8764C31.7896 30.9295 31.3376 31.3682 31.4306 31.7803ZM36.0168 38.6795C36.389 38.7593 36.3757 37.8553 35.9902 37.4698C36.163 38.0547 35.7244 38.5864 36.0035 38.6662L36.0168 38.6795ZM35.8573 38.6662C35.8839 39.0916 34.7938 38.613 34.528 38.2674C35.166 38.5466 35.8307 38.3206 35.8573 38.6662ZM35.392 38.0547C35.4319 38.4668 34.4615 38.0946 34.1558 37.7756C34.8071 37.9882 35.3522 37.7091 35.392 38.0414V38.0547ZM35.5648 38.1079C35.9503 38.2009 35.8839 37.2571 35.5117 36.9381C35.6978 37.5629 35.2724 38.0148 35.5648 38.1079ZM35.166 37.5363C35.5516 37.6293 35.3256 36.8184 35.0464 36.4994C35.0996 37.0843 34.9135 37.4964 35.1793 37.5363H35.166ZM34.9666 37.5363C35.0065 37.9617 34.2488 37.6426 33.9564 37.2305C34.5944 37.4299 34.9268 37.1907 34.9666 37.5363ZM34.7673 37.2039C35.0065 37.0311 34.754 36.5659 34.2754 36.5925C34.3286 36.8716 34.4881 37.3768 34.7673 37.2039ZM36.6283 39.1581C36.6416 39.5834 35.5648 39.3707 35.2192 38.9188C35.9105 39.0517 36.5884 38.8124 36.615 39.1581H36.6283ZM32.3213 38.387C32.3612 38.8124 31.1781 38.3339 30.8856 37.9351C31.5104 38.1478 32.2814 38.0414 32.3213 38.387ZM33.0391 38.5599C33.2917 38.387 32.7866 37.9351 32.3745 37.8287C32.4276 38.1079 32.7733 38.7327 33.0391 38.5731V38.5599ZM33.1189 38.8656C33.1455 39.2511 31.856 39.0384 31.5237 38.6795C32.627 38.8789 33.079 38.5333 33.1189 38.8656Z" fill="white" stroke="#BD6B00" stroke-width="0.0664662"/>
<path fill-rule="evenodd" clip-rule="evenodd" d="M33.7304 39.1182C33.8633 39.4771 32.627 39.384 32.1884 39.1846C32.8929 39.1846 33.624 38.8656 33.7304 39.1182Z" fill="white" stroke="#BD6B00" stroke-width="0.0664662"/>
<path fill-rule="evenodd" clip-rule="evenodd" d="M34.302 39.384C34.4349 39.7031 33.2917 39.7031 32.7334 39.517C33.4778 39.517 34.1691 39.065 34.302 39.384ZM35.1395 39.5568C35.3522 39.9424 34.1292 39.9689 33.7437 39.7828C34.4349 39.6898 34.9667 39.2511 35.1395 39.5568ZM33.7171 38.9055C33.3316 39.1448 33.3582 38.4269 33.0524 37.9351C33.531 38.3738 33.983 38.6795 33.7171 38.9055Z" fill="white" stroke="#BD6B00" stroke-width="0.0664662"/>
<path fill-rule="evenodd" clip-rule="evenodd" d="M34.4083 39.1713C34.0893 39.4505 33.8234 38.4668 33.5309 37.9085C34.0095 38.4402 34.7007 38.9321 34.4083 39.158V39.1713ZM35.3122 39.4372C35.0464 39.7562 34.2488 38.5067 33.9563 37.842C34.395 38.3605 35.5249 39.1713 35.3122 39.4372ZM34.5412 40.3943C34.4083 40.8729 32.3877 39.9423 32.1484 39.4505C33.3182 40.062 34.5678 39.9291 34.5412 40.381V40.3943ZM28.0674 30.5839C28.0142 30.5174 27.8813 30.5839 27.9079 30.7301C27.9478 30.9295 28.2402 31.9531 28.7454 32.2987C29.1043 32.5646 31.0052 32.9767 31.856 33.1628C32.3345 33.2558 32.7201 33.4951 33.0391 33.8673C32.9298 33.4262 32.7967 32.9913 32.6403 32.5646C32.4808 32.1658 32.0554 31.7404 31.6034 31.7271C30.7925 31.6872 29.7291 31.6208 28.9448 31.2884C28.5895 31.1387 28.2817 30.8951 28.0541 30.5839H28.0674Z" fill="white" stroke="#BD6B00" stroke-width="0.0664662"/>
<path fill-rule="evenodd" clip-rule="evenodd" d="M32.7599 34.6383C33.0258 34.8244 33.3049 34.1465 32.9859 33.4951C32.9726 34.1199 32.4808 34.3326 32.7599 34.6383Z" fill="white" stroke="#BD6B00" stroke-width="0.0664662"/>
<path fill-rule="evenodd" clip-rule="evenodd" d="M33.0125 35.2631C33.3714 35.3695 33.4778 34.7314 33.2518 34.2263C33.2917 34.7713 32.6802 35.1036 33.0125 35.2631Z" fill="white" stroke="#BD6B00" stroke-width="0.0664662"/>
<path fill-rule="evenodd" clip-rule="evenodd" d="M33.2917 35.7683C33.6373 35.9411 33.7569 35.2897 33.5176 34.8244C33.5442 35.4226 33.0258 35.6087 33.2917 35.755V35.7683Z" fill="white" stroke="#BD6B00" stroke-width="0.0664662"/>
<path fill-rule="evenodd" clip-rule="evenodd" d="M33.1455 35.8081C33.0126 36.2069 32.215 35.4492 32.082 35.0371C32.5739 35.529 33.2385 35.4625 33.1455 35.7949V35.8081Z" fill="white" stroke="#BD6B00" stroke-width="0.0664662"/>
<path fill-rule="evenodd" clip-rule="evenodd" d="M32.7865 35.1834C32.627 35.5822 31.63 34.5187 31.4041 34.0269C31.8959 34.5187 32.8929 34.8909 32.7865 35.1701V35.1834Z" fill="white" stroke="#BD6B00" stroke-width="0.0664662"/>
<path fill-rule="evenodd" clip-rule="evenodd" d="M32.5872 34.5586C32.4277 35.0238 31.3509 33.7876 31.0319 33.3489C31.5636 33.8275 32.7068 34.2263 32.5872 34.5586ZM32.5473 34.1066C32.9461 34.0269 32.534 33.7078 32.0554 33.1894C32.0421 33.7344 32.1219 34.1199 32.5473 34.1066Z" fill="white" stroke="#BD6B00" stroke-width="0.0664662"/>
<path fill-rule="evenodd" clip-rule="evenodd" d="M31.8959 33.7876C32.0687 33.6148 31.7497 33.535 31.3509 33.083C31.2844 33.3888 31.7231 33.9471 31.9092 33.7876H31.8959ZM33.757 35.8082C33.9697 35.9411 34.1026 35.5024 33.85 35.1169C33.7835 35.5423 33.5709 35.6486 33.757 35.8082ZM29.2107 33.1096C28.772 33.3755 28.0675 32.312 27.8813 31.8734C28.2669 32.3785 29.2904 32.8305 29.2107 33.1096Z" fill="white" stroke="#BD6B00" stroke-width="0.0664662"/>
<path fill-rule="evenodd" clip-rule="evenodd" d="M29.5961 33.7211C29.3435 33.987 28.5725 33.2558 28.3066 32.8836C28.7054 33.2426 29.7024 33.2824 29.5961 33.7211Z" fill="white" stroke="#BD6B00" stroke-width="0.0664662"/>
<path fill-rule="evenodd" clip-rule="evenodd" d="M30.0083 34.2794C29.9285 34.6516 28.8119 33.8142 28.546 33.4154C29.0246 33.8806 30.088 33.8407 30.0083 34.2794Z" fill="white" stroke="#BD6B00" stroke-width="0.0664662"/>
<path fill-rule="evenodd" clip-rule="evenodd" d="M29.8354 34.6915C29.6626 35.0238 28.7454 34.1864 28.5194 33.761C29.091 34.2395 29.9817 34.3592 29.8487 34.6915H29.8354ZM29.3702 33.0564C29.6493 32.7507 29.5297 32.6045 29.317 32.1259C29.2107 32.6178 29.0378 32.8172 29.3702 33.0564ZM29.7557 33.6281C30.2874 33.6546 29.7557 33.0166 29.6227 32.4715C29.6759 33.083 29.4898 33.5749 29.7557 33.6281Z" fill="white" stroke="#BD6B00" stroke-width="0.0664662"/>
<path fill-rule="evenodd" clip-rule="evenodd" d="M30.088 34.1332C30.4469 34.0534 30.3539 33.535 30.0614 32.9102C30.1279 33.5882 29.7557 33.9737 30.088 34.1332ZM29.9551 35.1568C29.8221 35.5556 28.7853 34.625 28.6257 34.2528C29.1575 34.7048 30.0481 34.851 29.9551 35.1568Z" fill="white" stroke="#BD6B00" stroke-width="0.0664662"/>
<path fill-rule="evenodd" clip-rule="evenodd" d="M30.5798 35.7949C30.4336 36.1936 29.3436 35.3695 29.0112 34.9175C29.6626 35.4492 30.6596 35.3961 30.5798 35.7949Z" fill="white" stroke="#BD6B00" stroke-width="0.0664662"/>
<path fill-rule="evenodd" clip-rule="evenodd" d="M31.2179 36.4462C31.0451 37.0178 29.9019 36.1006 29.5696 35.6486C30.2874 36.2069 31.2977 36.0474 31.2179 36.4462ZM30.1545 34.984C30.4602 35.1302 30.5799 34.2661 30.4071 33.6413C30.4071 34.306 29.7823 34.8111 30.1412 34.9707L30.1545 34.984Z" fill="white" stroke="#BD6B00" stroke-width="0.0664662"/>
<path fill-rule="evenodd" clip-rule="evenodd" d="M30.6729 35.6752C31.0451 35.7816 30.9388 34.8377 30.6064 34.213C30.5666 34.8377 30.3007 35.4093 30.6729 35.6752ZM31.3376 36.3266C31.7364 36.3399 31.4705 35.5157 31.1249 35.0504C31.178 35.6486 30.9919 36.2468 31.3376 36.3266ZM30.6064 36.6722C30.4735 36.8849 30.181 36.4994 29.6759 36.2069C30.1279 36.3399 30.6596 36.4728 30.6064 36.6722ZM30.3672 29.6667C30.7659 29.3742 30.4602 28.8425 30.3672 28.3373C30.2342 28.8159 29.9152 29.454 30.3672 29.6667ZM30.3672 30.3712C29.769 30.3047 29.862 29.5603 29.8354 29.0818C30.0215 29.7331 30.5001 29.8395 30.3672 30.3845V30.3712ZM30.4469 30.2782C30.9388 30.2516 30.9122 29.6933 30.9388 29.1349C30.6862 29.6534 30.407 29.7331 30.4469 30.2782Z" fill="white" stroke="#BD6B00" stroke-width="0.0664662"/>
<path fill-rule="evenodd" clip-rule="evenodd" d="M30.4336 30.9694C30.0348 31.0093 29.8487 30.6238 29.7689 30.0389C30.1278 30.5839 30.4469 30.4111 30.4336 30.9694ZM30.5665 30.9295C31.0584 30.996 30.9653 30.4244 30.9653 29.999C30.8058 30.3978 30.407 30.5307 30.5665 30.9295Z" fill="white" stroke="#BD6B00" stroke-width="0.0664662"/>
<path fill-rule="evenodd" clip-rule="evenodd" d="M29.7955 30.6902C29.8354 31.0625 30.0747 31.7005 30.4602 31.5543C30.6064 31.1023 30.1146 31.0093 29.7955 30.6902Z" fill="white" stroke="#BD6B00" stroke-width="0.0664662"/>
<path fill-rule="evenodd" clip-rule="evenodd" d="M30.5666 31.5942C30.407 31.2751 30.9654 31.1023 31.0717 30.6769C31.1382 31.2884 31.085 31.6872 30.5666 31.6075V31.5942ZM28.9847 27.7126C29.2904 27.3935 29.0245 26.8618 28.9315 26.3566C28.7986 26.8352 28.5992 27.4733 28.9847 27.7126ZM28.9847 28.324C28.4529 28.3905 28.32 27.3005 28.2535 26.8219C28.4396 27.4733 29.0511 27.7524 28.9847 28.3373V28.324ZM29.091 28.324C29.4632 28.1246 29.3835 27.6993 29.4898 27.3935C29.2505 27.779 29.0113 27.8322 29.091 28.324Z" fill="white" stroke="#BD6B00" stroke-width="0.0664662"/>
<path fill-rule="evenodd" clip-rule="evenodd" d="M28.9713 29.0419C28.4263 29.0818 28.094 27.8721 28.0674 27.3935C28.2402 28.0449 29.0511 28.3905 28.9846 29.0419H28.9713ZM29.091 29.0153C29.6227 28.8957 29.5562 28.55 29.4765 28.005C29.3037 28.5633 29.0112 28.4437 29.091 29.0153Z" fill="white" stroke="#BD6B00" stroke-width="0.0664662"/>
<path fill-rule="evenodd" clip-rule="evenodd" d="M28.9714 29.7331C28.3599 29.8395 28.3998 28.8558 27.908 28.1512C28.3333 28.683 29.1044 29.3476 28.9714 29.7331ZM29.1044 29.6932C29.5829 29.7198 29.6361 29.0153 29.6095 28.7228C29.4899 29.0153 28.9448 29.2812 29.1176 29.7065L29.1044 29.6932Z" fill="white" stroke="#BD6B00" stroke-width="0.0664662"/>
<path fill-rule="evenodd" clip-rule="evenodd" d="M28.0143 28.9754C28.2403 29.7331 28.5726 30.4908 28.9714 30.4377C29.1708 29.999 28.5859 29.9458 28.0143 28.9754Z" fill="white" stroke="#BD6B00" stroke-width="0.0664662"/>
<path fill-rule="evenodd" clip-rule="evenodd" d="M29.1176 30.318C28.9581 29.9857 29.5164 29.8262 29.6228 29.4008C29.6893 30.0123 29.6361 30.4111 29.1176 30.318ZM28.1738 29.8395C28.5062 30.5174 28.6524 31.3017 29.1044 31.1821C29.2772 30.6504 28.5992 30.544 28.1738 29.8395Z" fill="white" stroke="#BD6B00" stroke-width="0.0664662"/>
<path fill-rule="evenodd" clip-rule="evenodd" d="M29.1973 31.0625C28.9979 30.6902 29.5563 30.5706 29.7025 30.0788C29.769 30.7168 29.7025 31.1821 29.1973 31.0492V31.0625ZM30.1545 26.4763C30.4735 26.556 30.8191 26.1971 30.6995 25.6521C30.3273 25.7319 30.1678 26.0775 30.1545 26.4763ZM29.1043 26.1971C29.1309 26.3566 29.3303 26.3699 29.2638 26.144C29.2142 25.9974 29.2142 25.8386 29.2638 25.692C29.3279 25.4932 29.3279 25.2793 29.2638 25.0805C29.2106 24.9476 29.0245 25.0273 29.1043 25.1337C29.1841 25.2533 29.1973 25.5059 29.1309 25.6255C29.0511 25.7983 29.0777 26.0243 29.1043 26.1971ZM32.1484 28.324C32.0155 28.4969 31.7629 28.3772 31.9623 28.1246C32.1219 27.9253 32.3611 27.7524 32.3611 27.5397C32.3877 27.2739 32.534 26.8751 32.6802 26.7289C32.8264 26.5826 32.9992 26.782 32.8397 26.8884C32.6669 26.9947 32.5472 27.4733 32.5605 27.6594C32.5472 27.9253 32.2947 28.1246 32.1484 28.324ZM31.7496 28.0183C31.6167 28.2044 31.4306 28.0848 31.537 27.7923C31.63 27.5929 31.6433 27.3271 31.7496 27.1808C31.9092 26.9548 32.1484 26.7687 32.2947 26.6225C32.4542 26.4896 32.5605 26.6225 32.4276 26.7554C32.2647 26.9182 32.1178 27.0963 31.9889 27.2872C31.8028 27.5796 31.8826 27.8189 31.7496 28.0183ZM29.6626 27.0612C29.6493 27.3271 29.862 27.3802 29.8487 27.008C29.8487 26.6092 29.5563 26.237 29.7158 25.6388C29.8221 25.3464 29.8221 24.8013 29.769 24.5222C29.7158 24.2297 29.5031 24.4158 29.5961 24.6418C29.6759 24.9077 29.5829 25.3862 29.5164 25.6388C29.317 26.3566 29.6759 26.7023 29.6493 27.0612H29.6626ZM30.2342 25.5989C30.2076 25.8515 29.9949 25.8648 30.0614 25.5325C30.1146 25.2666 30.1146 25.0539 30.0614 24.8279C29.9816 24.5488 30.0082 24.0702 30.0614 23.8708C30.1279 23.6581 30.3273 23.7778 30.2475 23.9373C30.1547 24.1886 30.1408 24.4622 30.2076 24.7216C30.2874 24.9874 30.2741 25.3597 30.2342 25.6122V25.5989ZM28.1605 30.5307C28.2668 30.6504 28.4263 30.5706 28.2934 30.3978C28.1605 30.2649 28.2004 30.2383 28.1206 30.0788C28.0408 29.8927 28.0541 29.7996 27.9611 29.68C27.868 29.547 27.7484 29.68 27.8281 29.773C27.9345 29.9059 27.9079 29.9857 27.9611 30.1053C28.094 30.3047 28.0541 30.4111 28.1605 30.5307ZM30.8723 33.8009C31.0348 33.8907 31.1729 34.0187 31.2749 34.1739C31.3768 34.3291 31.4393 34.5067 31.4572 34.6915C31.4711 35.0225 31.5621 35.3457 31.7231 35.6353C31.4572 35.5689 31.3243 35.1435 31.2844 34.7314C31.2445 34.306 31.0185 34.1332 30.8856 33.8009H30.8723ZM31.5503 34.5852C31.7762 34.9973 32.082 35.1568 32.1086 35.4625C32.1352 35.8214 32.1617 35.8347 32.2548 36.1804C31.9889 36.1139 31.9225 36.0873 31.856 35.5556C31.8161 35.1834 31.5104 34.9308 31.5503 34.5852Z" fill="white" stroke="#BD6B00" stroke-width="0.0664662"/>
<path fill-rule="evenodd" clip-rule="evenodd" d="M38.5424 38.4136C38.6754 38.6529 38.8083 39.0118 39.0742 38.9454C39.0742 38.7725 38.795 38.6396 38.5424 38.4136ZM38.9412 38.4934C39.4331 38.7061 39.8718 38.6529 39.9382 38.9719C39.4597 39.0251 39.2736 38.839 38.9279 38.4934H38.9412ZM36.801 36.8051C37.1313 37.0619 37.3655 37.4225 37.4657 37.8287C37.5728 38.1962 37.7341 38.5457 37.9442 38.8656C37.5985 38.6333 37.3483 38.284 37.2397 37.8819C37.1467 37.4831 37.027 37.1774 36.801 36.8184V36.8051ZM37.2131 36.8051C37.5853 37.0976 37.931 37.4432 38.0373 37.8553C38.1436 38.2408 38.2101 38.5333 38.4627 38.9188C38.0639 38.6662 37.9177 38.294 37.798 37.8819C37.705 37.4831 37.4657 37.1907 37.2131 36.8184V36.8051ZM38.4361 37.7756C38.4309 37.7423 38.4373 37.7083 38.4543 37.6792C38.4712 37.6502 38.4977 37.6279 38.5291 37.616C38.6429 37.5759 38.7582 37.5404 38.8748 37.5097C39.0077 37.4698 39.0875 37.5629 39.0875 37.6293V37.8952C39.0875 37.9882 39.0609 38.0015 38.9944 38.0148C38.9014 38.0281 38.7684 38.0414 38.6754 38.1079C38.5956 38.1611 38.5159 38.1212 38.476 38.0414L38.4361 37.7756ZM39.8452 37.7756C39.8452 37.6958 39.8186 37.6293 39.7654 37.616C39.6645 37.5743 39.5554 37.5561 39.4464 37.5629C39.3134 37.5629 39.3002 37.5894 39.3002 37.6426V37.9218C39.3002 38.0281 39.3002 38.0281 39.3533 38.0547C39.4464 38.0547 39.5926 38.0547 39.6857 38.1345C39.7521 38.1744 39.8186 38.1345 39.8319 38.0547L39.8452 37.7756Z" fill="white"/>
<path fill-rule="evenodd" clip-rule="evenodd" d="M43.7934 41.511C43.7934 41.6705 43.8199 41.8034 43.9263 41.923C43.3182 41.7394 42.6632 41.7916 42.0918 42.0693C41.8525 42.1756 41.5601 41.9363 41.8392 41.7104C42.238 41.4046 43.1287 41.5774 43.7934 41.511ZM36.1497 41.511C36.1613 41.6462 36.1432 41.7823 36.0966 41.9098C36.6815 41.6838 37.3062 41.8832 37.9044 42.1224C38.3032 42.2953 38.3431 41.9895 38.2767 41.8965C38.2031 41.7853 38.1048 41.6926 37.9895 41.6258C37.8742 41.5589 37.745 41.5196 37.612 41.511H36.1497ZM36.6549 38.6263C36.4821 38.5598 36.296 38.6263 36.1231 38.8124C35.5515 39.3707 34.8736 39.9158 34.3286 40.3544C34.1292 40.5273 33.9298 40.8463 34.7805 41.152C34.8204 41.1786 35.4452 41.4179 35.844 41.4179C36.0168 41.4179 36.0168 41.6572 35.9769 41.7236C35.9105 41.8566 35.9636 41.9097 35.8307 42.0294C35.6845 42.1623 35.8307 42.3085 35.9636 42.2022C36.4422 41.7768 37.2398 42.056 37.9975 42.2953C38.1836 42.3484 38.5026 42.3351 38.5026 42.0826C38.5026 41.8167 38.702 41.6306 38.8217 41.6173C39.1407 41.6705 40.6827 41.6838 41.148 41.6306C41.4139 41.5907 41.4404 42.0161 41.5867 42.1623C41.693 42.282 42.0785 42.3085 42.3577 42.1889C42.8894 41.9496 43.687 41.9496 44.0193 42.1889C44.1523 42.282 44.2719 42.1889 44.1922 42.0959C44.0858 41.9629 44.0991 41.8832 44.0459 41.7768C43.913 41.511 44.0193 41.4578 44.1523 41.4445C45.6145 41.2451 46.0931 40.7532 45.6411 40.3411C45.0562 39.836 44.4181 39.3176 43.8598 38.7194C43.7003 38.5599 43.594 38.4934 43.2882 38.6263C42.2296 39.1063 41.0867 39.3728 39.925 39.4106C38.7996 39.3379 37.6942 39.0773 36.6549 38.6396V38.6263Z" fill="white"/>
<path fill-rule="evenodd" clip-rule="evenodd" d="M43.5407 38.7061L43.328 38.7592C42.1316 39.1846 41.0416 39.4771 39.9116 39.4771C38.8083 39.4771 37.6518 39.158 36.6016 38.7327C36.537 38.7104 36.4668 38.7104 36.4022 38.7327C36.3358 38.746 36.2693 38.7858 36.2294 38.8257C35.7381 39.3171 35.2141 39.7745 34.6608 40.1949C34.5678 40.2614 34.5811 40.4342 34.7273 40.4874C35.8306 40.8862 36.9074 41.6173 39.9914 41.5907C43.1153 41.5641 44.2187 40.8463 45.2024 40.514C45.2688 40.4874 45.3353 40.4475 45.3752 40.381C45.3846 40.3652 45.3907 40.3476 45.393 40.3292C45.3953 40.3109 45.3938 40.2923 45.3885 40.2747C45.3713 40.233 45.3439 40.1965 45.3087 40.1683C44.7371 39.7031 44.1389 39.3309 43.7401 38.7858C43.7002 38.7194 43.6205 38.7061 43.5407 38.7194V38.7061ZM43.5407 38.7725C43.6072 38.7725 43.6736 38.7725 43.6869 38.8124C44.0857 39.384 44.7105 39.7429 45.2688 40.2082L45.322 40.3013C45.3257 40.3096 45.3275 40.3187 45.3275 40.3278C45.3275 40.337 45.3257 40.346 45.322 40.3544C45.3087 40.3943 45.2422 40.4342 45.1891 40.4475C44.1788 40.7931 43.102 41.5109 40.0047 41.5375C36.9207 41.5641 35.8572 40.833 34.7539 40.4342C34.6475 40.381 34.6608 40.2747 34.7007 40.2481C35.259 39.8227 35.7907 39.3441 36.2693 38.8656C36.3105 38.827 36.3608 38.7996 36.4155 38.7858H36.575C37.6256 39.2423 38.7534 39.4949 39.8984 39.5303C41.0549 39.5303 42.1582 39.2378 43.3546 38.8257C43.4188 38.8003 43.4857 38.7825 43.554 38.7725H43.5407Z" fill="#BD6B00"/>
<path fill-rule="evenodd" clip-rule="evenodd" d="M35.9769 18.6466C35.9769 18.4605 36.2428 18.4472 36.2162 18.6997C36.1763 19.0055 36.8144 19.8031 36.8676 20.2949C36.9074 20.6273 36.6682 20.9064 36.4422 21.0925C36.3118 21.1848 36.1588 21.2398 35.9995 21.2515C35.8402 21.2632 35.6807 21.2312 35.5382 21.159C35.4186 21.0526 35.3123 20.7203 35.4053 20.5874C35.4319 20.5475 35.5781 21.0792 35.8972 21.0792C36.3358 21.0792 36.6948 20.7469 36.6948 20.4544C36.7213 19.9493 35.9902 19.1517 35.9769 18.6466ZM37.2398 19.8961C37.3195 19.843 37.4259 20.0689 37.3461 20.1221C37.2797 20.162 37.1467 19.9493 37.2398 19.8828V19.8961ZM37.4392 19.4309C37.3993 19.4575 37.3328 19.4309 37.3461 19.4043C37.4739 19.2268 37.6368 19.0775 37.8247 18.9656C37.8779 18.939 37.9576 19.0188 37.931 19.0587C37.7954 19.2163 37.6277 19.3432 37.4392 19.4309ZM39.1141 18.1015C39.154 18.0218 39.3933 17.9287 39.4597 17.8756C39.5129 17.8091 39.5395 17.9287 39.5129 17.9686C39.473 18.0617 39.2604 18.1946 39.1673 18.2079C39.1274 18.2079 39.0875 18.1547 39.1141 18.1148V18.1015ZM39.6857 18.1414C39.7557 17.9646 39.8702 17.809 40.0181 17.6894C40.0845 17.6496 40.1909 17.6894 40.1643 17.7426C40.074 17.9184 39.9415 18.0692 39.7788 18.1813C39.7389 18.2212 39.6724 18.1813 39.6857 18.1414ZM39.1939 18.5003C39.154 18.5269 39.1806 18.5934 39.2072 18.6067C39.2869 18.6333 39.4066 18.6333 39.473 18.6067C39.5528 18.5535 39.5129 18.2212 39.4066 18.394C39.3268 18.5003 39.2736 18.4738 39.1939 18.5003ZM38.2235 19.2448C38.0507 19.1118 38.2766 18.9257 38.4495 19.0587C38.8084 19.3245 37.9177 20.3614 37.4392 20.8399C37.3461 20.933 37.2664 20.707 37.386 20.5874C37.7321 20.2974 38.0324 19.9568 38.2766 19.5771C38.3298 19.5106 38.3697 19.3644 38.2235 19.2448ZM40.2573 18.3674C40.2706 18.2345 40.0446 18.3674 40.0446 18.1946C40.0446 18.1015 40.2972 18.0351 40.4036 18.1414C40.5764 18.3275 40.4434 18.6333 40.1377 18.6599C39.8984 18.6599 39.473 19.0188 39.5395 19.0852C39.606 19.1783 40.2573 19.2315 40.6428 19.1783C40.8821 19.1384 40.829 19.3511 40.5897 19.3777C40.3504 19.4043 40.1643 19.3777 39.9516 19.4575C39.6857 19.5239 39.5794 19.8562 39.4332 19.9892C39.4066 20.0158 39.3268 19.8828 39.3534 19.8297C39.4597 19.6701 39.6193 19.4309 39.8054 19.3511C39.9117 19.3112 39.4863 19.2979 39.3534 19.2581C39.2471 19.2315 39.2736 19.0852 39.3135 19.0055C39.3667 18.8991 39.7655 18.487 39.9383 18.5003C40.0845 18.5003 40.244 18.4605 40.2573 18.3674ZM40.922 18.394C41.0018 18.3275 41.0549 18.2212 41.1214 18.1547C41.1613 18.1148 41.241 18.1547 41.2278 18.2611C41.2145 18.3541 41.0948 18.4206 41.0284 18.487C40.9619 18.5269 40.8954 18.4339 40.9353 18.394H40.922ZM41.7861 18.0882C41.9057 18.0882 41.919 18.3009 41.8127 18.3275C41.7329 18.3541 41.6797 18.1015 41.7861 18.0882ZM41.5069 18.7529C41.5069 18.9523 41.6 18.939 41.7728 18.9257C41.9456 18.9257 42.0918 18.9257 42.0918 18.7662C42.0918 18.5934 41.9988 18.4339 41.9589 18.5535C41.9456 18.6599 41.919 18.846 41.8525 18.7662C41.7994 18.6997 41.8259 18.6864 41.7196 18.7928C41.6531 18.8593 41.6531 18.7662 41.6133 18.713C41.5867 18.6731 41.5069 18.7396 41.5069 18.7662V18.7529ZM40.2839 19.71C40.2441 19.9626 40.2839 20.3082 40.4036 20.3082C40.5631 20.3082 40.8821 19.7765 41.0416 19.484C41.1347 19.3245 41.2809 19.2979 41.2145 19.4707C41.1214 19.7233 41.1347 20.2683 41.2145 20.4279C41.2676 20.5076 41.6133 20.3481 41.6664 20.2285C41.7728 20.0025 41.6797 19.5904 41.7196 19.3378C41.7329 19.1783 41.8924 19.1384 41.8791 19.2979C41.8582 19.6298 41.8538 19.9626 41.8658 20.2949C41.8658 20.4279 42.2513 20.614 42.3045 20.2152C42.3311 19.9759 42.464 19.7233 42.3045 19.4575C42.1982 19.2846 42.4507 19.2979 42.5837 19.5372C42.6767 19.6967 42.5039 19.9626 42.5172 20.162C42.5172 20.481 42.2779 20.6671 42.1051 20.6671C41.9456 20.6671 41.8392 20.4677 41.7063 20.4677C41.5734 20.4677 41.4139 20.6937 41.3075 20.6804C40.829 20.6538 41.0815 19.9759 40.9353 19.9626C40.7758 19.9626 40.603 20.6273 40.4036 20.614C40.2175 20.5874 40.0048 20.0556 40.0978 19.843C40.1643 19.6303 40.2972 19.5771 40.2839 19.71ZM42.5305 18.6466C42.3045 18.5136 42.5305 18.1547 42.6501 18.2744C42.8628 18.5402 43.0755 19.1384 43.235 19.1916C43.3281 19.2182 43.3148 18.7396 43.3813 18.5269C43.4344 18.3541 43.6205 18.4073 43.5939 18.62C43.5807 18.6864 43.3281 19.4707 43.3547 19.4973C43.5317 19.8291 43.6786 20.1761 43.7933 20.5342C43.8332 20.6937 43.6471 20.5874 43.6205 20.5608C43.5009 20.3747 43.3015 19.6967 43.3015 19.7366L43.0755 20.7602C43.0489 20.8931 42.8495 20.8665 42.9027 20.6273C42.9426 20.4412 43.2084 19.5239 43.1952 19.484C43.0429 19.1563 42.8151 18.8693 42.5305 18.6466Z" fill="white"/>
<path fill-rule="evenodd" clip-rule="evenodd" d="M42.9292 20.8532C42.876 20.8532 42.7697 20.9862 43.0887 21.0526C43.5008 21.1324 43.9661 20.9862 44.099 20.5741C44.2718 20.0822 44.3649 19.617 44.4579 19.4442C44.5643 19.2448 44.6972 19.258 44.5909 18.9656C44.5244 18.7396 44.3915 18.8061 44.3649 18.9257C44.2984 19.2315 44.0193 20.255 43.9262 20.4279C43.7667 20.7735 43.4344 20.9064 42.9292 20.8532Z" fill="white"/>
<path fill-rule="evenodd" clip-rule="evenodd" d="M43.7801 19.2315C43.7269 19.1384 43.6206 19.2315 43.6471 19.3245C43.6535 19.3621 43.6731 19.3961 43.7023 19.4205C43.7316 19.4449 43.7686 19.458 43.8067 19.4575C43.8997 19.4575 44.0991 19.4707 44.0991 19.3245C44.0991 19.2182 44.0061 19.1251 43.9529 19.2448C43.8864 19.3511 43.82 19.3378 43.7801 19.2448V19.2315ZM43.8731 18.8327C43.8465 18.8593 43.8731 18.9789 43.913 18.9656C44.0657 18.9667 44.2164 18.9302 44.3517 18.8593C44.3783 18.8327 44.365 18.7662 44.3251 18.7662C44.1922 18.7662 43.9795 18.7662 43.8731 18.8327ZM45.0429 19.1384C45.1493 18.9789 45.4151 18.9656 45.3088 19.1916C45.0358 19.7397 44.7566 20.2848 44.4713 20.8267C44.365 21.0128 44.2852 20.9197 44.365 20.7735C44.458 20.5874 45.0163 19.1783 45.0429 19.1384Z" fill="white"/>
<path fill-rule="evenodd" clip-rule="evenodd" d="M44.0193 21.0925C43.9927 20.9862 43.8199 20.8267 43.8465 21.1191C43.8731 21.6243 44.5776 21.4647 44.777 21.2919C44.9764 21.1191 44.8169 21.8635 45.0695 21.9433C45.2024 21.9832 45.4683 21.7971 45.6012 21.6243C45.9601 21.159 46.1994 20.481 46.5318 20.0291C46.6647 19.843 46.4653 19.71 46.3988 19.8562C46.0798 20.3614 45.7076 21.3983 45.2955 21.6641C44.9632 21.8768 45.0695 21.3983 45.0562 21.2387C45.0429 21.1324 44.91 20.9729 44.7372 21.1191C44.5981 21.2304 44.4232 21.2871 44.2453 21.2786C44.1523 21.2786 44.0592 21.2786 44.0193 21.0925Z" fill="white"/>
<path fill-rule="evenodd" clip-rule="evenodd" d="M45.2689 20.162C45.2689 20.1221 45.1227 20.1088 45.1359 20.255C45.1359 20.3614 45.2689 20.388 45.2822 20.388C45.4816 20.2285 45.2423 20.3082 45.2689 20.1487V20.162ZM44.9631 20.7469C44.9232 20.7469 44.8834 20.8798 44.9897 20.8931L45.5082 20.8665C45.5613 20.8665 45.5879 20.7469 45.455 20.7602C45.2955 20.7602 45.0961 20.7203 44.9631 20.7602V20.7469ZM36.7213 18.5402C36.7878 18.5402 36.934 18.7263 36.9207 18.7928C36.9207 18.8194 36.7612 18.7928 36.7213 18.7529C36.6814 18.713 36.6947 18.5402 36.7213 18.5402ZM36.0168 19.9227C35.8838 20.0025 36.0434 20.1487 36.1497 20.0822C36.5219 19.8297 37.0802 19.5771 37.2132 19.0852C37.253 18.9257 37.3993 18.6732 37.5455 18.62C37.6784 18.5535 37.8911 18.8725 38.0241 18.62C38.1038 18.487 38.383 18.713 38.4494 18.5668C38.5292 18.394 38.4893 18.3009 38.4893 18.1148C38.4893 18.0085 38.3963 17.9819 38.3298 18.1547C38.3032 18.2345 38.3298 18.3142 38.3165 18.3674C38.2899 18.394 38.2367 18.4206 38.1836 18.394C38.157 18.3674 38.1836 18.3009 38.1038 18.2611C38.0772 18.2611 38.0241 18.2478 37.9975 18.2876C37.9044 18.4605 37.8645 18.62 37.7183 18.4206C37.5987 18.2876 37.5322 18.0085 37.4524 18.3807C37.4259 18.5136 37.2265 18.6997 37.1068 18.6997C36.9606 18.6997 37.0005 18.3009 36.6814 18.3674C36.5086 18.4073 36.5219 18.7263 36.5485 18.8327C36.5884 19.0055 37.0802 18.8858 37.0404 18.9922C36.9606 19.3511 36.4555 19.71 36.0168 19.9227ZM32.9992 21.6774C32.9859 21.7439 33.0657 21.9034 33.1454 21.9167C33.2252 21.9167 33.2784 21.7439 33.2518 21.6774C33.2252 21.6375 33.0125 21.6375 32.9992 21.6774ZM33.4379 22.3288C33.3847 22.2756 33.2252 22.4218 33.3581 22.5282C33.4246 22.5947 33.6905 22.6744 33.7569 22.5548C33.8633 22.3953 33.6639 21.8237 33.7569 21.7572C33.8234 21.6907 34.1291 22.1294 34.2887 22.156C34.6476 22.2092 34.5545 21.5445 34.9533 21.5977C35.2059 21.6243 35.2325 21.3052 35.1926 21.0925C35.166 20.8931 34.847 20.614 34.7007 20.481C34.5146 20.3215 34.4216 20.614 34.5412 20.6937C34.7007 20.8267 34.9799 21.0792 35.0198 21.2387C35.0331 21.3185 34.8337 21.478 34.7539 21.4381C34.5678 21.3318 34.4083 20.9064 34.2488 20.8134C34.1956 20.7868 34.0627 20.8532 34.1158 20.9862C34.1956 21.1324 34.5146 21.3451 34.5279 21.5046C34.5412 21.6375 34.395 21.93 34.2887 21.93C34.169 21.93 33.8899 21.5711 33.7968 21.3983C33.7436 21.3318 33.5974 21.3318 33.5708 21.4514C33.5622 21.697 33.5845 21.9426 33.6373 22.1826C33.6639 22.3953 33.5176 22.4086 33.4379 22.3288ZM32.9062 21.1856C32.853 21.2387 33.0125 21.3451 33.0391 21.3185C33.0923 21.2653 33.3182 21.0128 33.2784 20.9197C33.2385 20.8399 32.9327 20.6538 32.8796 20.7469C32.7865 20.8931 33.172 20.9729 33.1056 21.0128C33.0312 21.0606 32.9641 21.1188 32.9062 21.1856ZM33.4512 20.0689C33.4512 20.0689 33.5575 20.4013 33.6373 20.255C33.6905 20.162 33.4512 20.0689 33.4512 20.0689ZM33.6107 20.6007C33.5841 20.6007 33.4778 20.6937 33.5442 20.7336C33.6506 20.7868 33.9297 20.84 33.8633 20.6406C33.8234 20.5209 34.2887 20.6406 34.169 20.3215C34.1209 20.2231 34.0414 20.1436 33.943 20.0955C33.8899 20.0955 33.7436 20.162 33.8367 20.2152C33.9031 20.2418 34.1025 20.3614 34.0361 20.4412C33.943 20.5209 33.8899 20.4013 33.7835 20.4279C33.7303 20.4279 33.7702 20.5874 33.7303 20.6273C33.7303 20.6538 33.6373 20.5741 33.6107 20.5874V20.6007ZM34.3418 19.3378C34.2598 19.4056 34.2035 19.4994 34.1823 19.6037C34.1823 19.6303 34.2222 19.6834 34.2488 19.6701C34.3307 19.608 34.3874 19.5183 34.4083 19.4176C34.4083 19.3777 34.3817 19.3112 34.3418 19.3378ZM34.714 19.2979C34.6077 19.165 34.847 18.9523 34.94 19.2315C35.0065 19.4043 35.6711 20.2816 35.8041 20.5741C35.9104 20.7735 35.8041 20.8532 35.6844 20.707C35.3521 20.2816 35.073 19.7499 34.714 19.2979ZM35.4053 19.3112C35.5249 19.1783 35.7642 18.9124 35.6977 18.7795C35.6446 18.6466 35.4983 18.6466 35.4718 18.6864C35.3388 18.8593 35.5781 18.8194 35.5382 18.8725C35.4718 19.0055 35.4053 19.0852 35.3654 19.2182C35.3521 19.2581 35.3787 19.3378 35.4053 19.3112ZM45.7474 19.7366C45.6544 19.6701 45.8272 19.3378 45.9468 19.4707C46.2526 19.8297 46.3988 21.0128 46.4919 21.9034C46.4919 21.9034 46.3589 22.023 46.3589 21.9965C46.3589 21.5312 46.1595 20.0822 45.7474 19.7366ZM38.6887 18.5934C38.5824 18.3541 38.8349 18.2744 38.8748 18.4339C39.0476 19.2049 39.473 19.7898 39.8054 20.3082C39.8984 20.4677 39.8053 20.5741 39.5794 20.4146C39.4198 20.3082 39.247 19.8961 39.1806 19.8828C39.021 19.8562 38.6754 20.5475 37.9709 20.3481C37.7848 20.2949 37.7981 19.7499 37.7848 19.5106C37.7848 19.391 37.9177 19.3777 37.9177 19.5106C37.9177 19.7366 37.9177 20.2019 38.1969 20.2285C38.4361 20.2285 38.9413 19.9094 39.0476 19.6436C39.154 19.3777 38.7951 18.8593 38.6887 18.5801V18.5934Z" fill="white"/>
<path fill-rule="evenodd" clip-rule="evenodd" d="M45.9336 21.8103C45.9868 21.6508 46.7445 20.3747 46.8508 20.0955C46.904 19.9626 47.1167 20.3348 46.904 20.5342C46.7179 20.6937 46.1729 21.5977 46.0665 21.9167C46.0133 22.0496 45.8804 21.9832 45.9336 21.8103Z" fill="white"/>
<path fill-rule="evenodd" clip-rule="evenodd" d="M47.223 20.6007C47.3559 20.0689 47.7015 20.6804 47.3958 20.9729C46.9438 21.4249 46.7976 22.2889 46.0665 22.4218C45.8804 22.4617 45.5347 22.3288 45.4284 22.249C45.3885 22.2224 45.455 22.0363 45.5746 22.1294C45.7474 22.2623 46.1196 22.3022 46.319 22.1427C46.7534 21.7192 47.0657 21.1865 47.223 20.6007ZM39.6458 22.2889C39.6059 22.3288 39.5129 22.3288 39.4996 22.382C39.4597 22.5681 39.4996 22.6744 39.4597 22.8605C39.4198 23.0466 39.2869 23.0466 39.3002 22.9004C39.3002 22.7143 39.473 22.4351 39.3534 22.4218C39.2736 22.4086 39.2204 22.3022 39.3002 22.249C39.4464 22.156 39.5262 22.1693 39.6192 22.1959C39.6591 22.2092 39.6724 22.2623 39.6458 22.2889Z" fill="white"/>
<path fill-rule="evenodd" clip-rule="evenodd" d="M39.5395 22.023C39.3534 22.2092 39.1673 22.2756 38.9945 22.4883C38.9147 22.5681 38.928 22.6877 38.8749 22.8074C38.835 22.927 38.6888 22.9403 38.6489 22.927C38.5824 22.8738 38.5957 22.6611 38.5159 22.7675C38.4362 22.8871 38.3963 23.0333 38.29 23.0333C38.1969 23.0333 38.0241 22.8339 38.1171 22.8339C38.4229 22.7941 38.4096 22.5681 38.5159 22.5415C38.6489 22.5282 38.6489 22.7409 38.7419 22.701C38.7951 22.6744 38.835 22.4218 38.9015 22.3554C39.1009 22.1427 39.2604 22.0363 39.4731 21.8768C39.5661 21.7971 39.6459 21.9433 39.5395 22.0363V22.023ZM40.2441 22.6877C40.0845 22.7143 40.1111 22.9137 40.1643 22.927C40.2308 22.9669 40.3504 22.9802 40.3903 22.7542C40.4169 22.6611 40.4302 23.2194 40.6296 23.0067C40.7625 22.8738 41.0417 23.0333 41.1613 22.8738C41.2544 22.7542 41.2942 22.6744 41.2145 22.5149C41.1879 22.475 41.0815 22.4883 41.0815 22.608C41.0815 22.7143 41.0151 22.8339 40.9087 22.8206C40.8556 22.8074 40.9353 22.5681 40.8821 22.5016C40.8697 22.4894 40.853 22.4826 40.8356 22.4826C40.8182 22.4826 40.8015 22.4894 40.7891 22.5016C40.7492 22.5548 40.829 22.7941 40.7093 22.8206C40.5498 22.8472 40.6296 22.6611 40.5764 22.6345C40.3504 22.5282 40.3371 22.6611 40.2441 22.6744V22.6877ZM41.4405 22.2889C41.5601 22.2623 41.5202 22.2623 41.7063 22.1161C41.7728 22.0629 41.7861 22.2224 41.7728 22.2889C41.7728 22.382 41.6399 22.3155 41.6 22.4086C41.5468 22.5282 41.5734 22.8074 41.5468 22.9137C41.5468 22.9669 41.4405 22.9669 41.4405 22.9137C41.4139 22.7808 41.4538 22.6478 41.4405 22.475C41.4405 22.4218 41.374 22.3288 41.4405 22.3022V22.2889ZM40.7758 21.9566C40.7492 22.0762 40.7492 22.1693 40.7492 22.2623C40.7492 22.3288 40.8821 22.2889 40.8821 22.2756C40.8821 22.1693 40.9087 22.0098 40.8821 21.9699C40.8556 21.9566 40.7891 21.93 40.7758 21.9566Z" fill="white"/>
<path fill-rule="evenodd" clip-rule="evenodd" d="M39.9383 20.7203L39.7522 21.4647L39.4863 20.9596V21.478L38.9014 20.7868L39.1008 21.5312L38.5691 21.0792L38.8615 21.5844L37.931 20.9862L38.5159 21.6774L37.7715 21.3052L38.3032 21.7572L37.1068 21.3052L38.2633 21.8768C38.7887 21.6377 39.3611 21.5195 39.9383 21.5312C40.5896 21.5312 41.1745 21.6641 41.5999 21.8768L42.7697 21.3052L41.5733 21.7572L42.1051 21.3052L41.3739 21.6774L41.9456 20.9862L41.015 21.5844L41.3075 21.0792L40.7757 21.5179L40.9751 20.7868L40.4035 21.478V20.9596L40.1377 21.4647L39.9383 20.7203Z" fill="white"/>
<path d="M38.9125 36.875L38.875 37.2H38.825L38.8125 36.975C38.7977 36.9066 38.7768 36.8397 38.75 36.775C38.7344 36.719 38.7135 36.6646 38.6875 36.6125L38.5625 36.4375L38.6625 36.1625C38.746 36.2478 38.8099 36.3501 38.85 36.4625C38.8938 36.5912 38.915 36.7266 38.9125 36.8625M39.7875 36.3375C39.7875 36.425 39.7625 36.4875 39.725 36.525C39.7 36.5625 39.65 36.6 39.5625 36.6125L39.6125 36.8C39.625 36.8829 39.625 36.9671 39.6125 37.05C39.6099 37.1043 39.6057 37.1585 39.6 37.2125H39.55C39.5502 37.1581 39.546 37.1038 39.5375 37.05C39.5331 37.0077 39.5247 36.9658 39.5125 36.925L39.4625 36.8C39.4377 36.7396 39.4085 36.6811 39.375 36.625L39.25 36.4125L39.325 36.1625L39.45 36.2875C39.4875 36.3125 39.525 36.325 39.575 36.325C39.675 36.325 39.725 36.275 39.725 36.1625H39.775V36.3375M40.575 36.9375L40.5125 37.2C40.4625 37.2 40.4375 37.1625 40.4125 37.1125L40.3625 36.95C40.3535 36.8795 40.3493 36.8085 40.35 36.7375C40.3096 36.7511 40.2676 36.7595 40.225 36.7625C40.1667 36.7653 40.1092 36.7476 40.0625 36.7125C40.0434 36.6976 40.0279 36.6787 40.0171 36.6571C40.0063 36.6354 40.0005 36.6117 40 36.5875C40 36.475 40.0375 36.375 40.0875 36.3C40.15 36.2125 40.2125 36.175 40.275 36.1625C40.3375 36.1625 40.375 36.175 40.4 36.2125C40.4213 36.2465 40.4342 36.285 40.4375 36.325V36.575C40.4375 36.6875 40.45 36.7625 40.475 36.8125C40.475 36.85 40.5125 36.8875 40.575 36.9375ZM40.325 36.5C40.325 36.425 40.2875 36.4 40.225 36.4C40.1993 36.3963 40.1731 36.4007 40.15 36.4125C40.125 36.425 40.125 36.4375 40.125 36.45C40.125 36.4875 40.1625 36.5125 40.25 36.5125L40.325 36.5ZM41.4125 36.875L41.375 37.2C41.3125 37.15 41.25 37.075 41.2 36.95C41.1314 36.7841 41.0771 36.6126 41.0375 36.4375C40.9751 36.6706 40.9 36.9001 40.8125 37.125C40.7848 37.1601 40.7509 37.1898 40.7125 37.2125V36.9C40.7875 36.8125 40.825 36.7625 40.8375 36.7125C40.8795 36.6461 40.9131 36.5747 40.9375 36.5L41 36.1625H41.05L41.1625 36.5C41.1875 36.575 41.225 36.65 41.275 36.7L41.4 36.875" fill="white"/>
<path d="M43.85 39.925C43.9 39.975 43.925 40.025 43.9375 40.075L43.9875 40.275L43.8875 40.2875C43.8532 40.2204 43.8113 40.1575 43.7625 40.1C43.7189 40.048 43.673 39.998 43.625 39.95C43.5557 39.8858 43.4849 39.8232 43.4125 39.7625C43.3319 39.6885 43.2485 39.6176 43.1625 39.55C43.1125 39.525 43.0875 39.5 43.0875 39.4875C43.0676 39.4574 43.0548 39.4232 43.05 39.3875C43.0369 39.3215 43.0285 39.2547 43.025 39.1875L43.3625 39.4625C43.4701 39.5502 43.5743 39.6419 43.675 39.7375L43.85 39.925ZM42.6625 39.2L42.6375 39.45H42.25L42.2875 39.2H42.6625ZM43.7125 40.3125L42.7625 40.6L42.6 40.35L43.4125 40.1L43.325 40C43.2928 39.9679 43.2545 39.9424 43.2125 39.925C43.2129 39.9481 43.2086 39.971 43.2 39.9925C43.1914 40.014 43.1787 40.0335 43.1625 40.05C43.1292 40.0869 43.0857 40.113 43.0375 40.125C42.9639 40.1452 42.8862 40.1452 42.8125 40.125C42.7492 40.1176 42.6911 40.0863 42.65 40.0375C42.5945 39.9564 42.564 39.8608 42.5625 39.7625C42.5625 39.6375 42.6 39.5625 42.675 39.5375C42.7625 39.5125 42.9 39.5375 43.05 39.625C43.1973 39.6935 43.3259 39.7964 43.425 39.925L43.7125 40.3125ZM42.9875 39.8125C42.9557 39.7963 42.9222 39.7837 42.8875 39.775C42.863 39.7681 42.837 39.7681 42.8125 39.775C42.8 39.7764 42.788 39.7805 42.7772 39.7869C42.7664 39.7934 42.7571 39.8021 42.75 39.8125C42.7419 39.8233 42.7375 39.8365 42.7375 39.85C42.7375 39.8635 42.7419 39.8767 42.75 39.8875L42.8125 39.9125H42.8875L42.9375 39.875L42.9875 39.8125ZM41.9875 39.6125L41.925 39.8625L41.525 39.825L41.5875 39.575L41.975 39.6125M42.9125 40.575L42.7 40.625C42.6297 40.6364 42.5579 40.6364 42.4875 40.625C42.4221 40.6222 42.3581 40.6051 42.3 40.575C42.2625 40.6375 42.2 40.7 42.1125 40.725C42.049 40.7576 41.9819 40.7828 41.9125 40.8L41.7625 40.8375L41.6375 40.5875L41.775 40.55C41.8304 40.5374 41.8847 40.5207 41.9375 40.5L42.05 40.4375L41.925 40.375H41.8375C41.8293 40.3729 41.8207 40.3729 41.8125 40.375C41.8005 40.3846 41.7918 40.3977 41.7875 40.4125H41.725C41.6625 40.3125 41.65 40.225 41.6875 40.1625C41.725 40.1 41.8 40.0625 41.9375 40.0375C42.0432 40.0083 42.1536 39.9998 42.2625 40.0125C42.3625 40.025 42.425 40.0625 42.45 40.125C42.475 40.15 42.475 40.1875 42.475 40.2125L42.425 40.3625H42.4875C42.5124 40.3663 42.5377 40.3663 42.5625 40.3625L42.775 40.325L42.9 40.575M41.9 40.8L41.7 40.8375C41.6053 40.8569 41.5068 40.839 41.425 40.7875C41.3244 40.7018 41.2507 40.589 41.2125 40.4625L41.1125 40.1875C41.0938 40.136 41.0587 40.0921 41.0125 40.0625C40.9775 40.0375 40.9397 40.0166 40.9 40L40.975 39.7375C41.05 39.775 41.1 39.8125 41.15 39.8625L41.275 40.075L41.3375 40.2625L41.475 40.5375C41.5125 40.575 41.5625 40.5875 41.6 40.575L41.8125 40.55L41.9 40.8ZM41.025 39.8625L40.9 40.1L40.525 40.0125L40.65 39.775L41.025 39.8625ZM41.25 40.9125L40.3125 41L40.2625 40.75L41.0375 40.6625C41.0202 40.6241 40.9946 40.5899 40.9625 40.5625C40.9227 40.5346 40.8809 40.5095 40.8375 40.4875L40.9 40.2375C40.9875 40.2875 41.05 40.35 41.1 40.4C41.1375 40.4625 41.175 40.55 41.2 40.6625L41.25 40.9125ZM40.5 41.0375C40.4079 41.0351 40.3161 41.0268 40.225 41.0125C40.1526 40.9977 40.0815 40.9768 40.0125 40.95C39.9606 40.9732 39.906 40.99 39.85 41C39.7793 41.0061 39.7082 41.0061 39.6375 41H39.3875C39.3352 41.0003 39.2836 40.9874 39.2375 40.9625C39.2 40.9375 39.175 40.9 39.1375 40.8375C39.0851 40.8926 39.021 40.9353 38.95 40.9625L38.7375 40.975H38.525L38.55 40.7125H38.7625C38.8625 40.7125 38.95 40.7125 39.025 40.6625C39.0713 40.6452 39.1114 40.6147 39.1404 40.5746C39.1693 40.5346 39.1857 40.4869 39.1875 40.4375L39.275 40.45C39.2697 40.5041 39.2655 40.5582 39.2625 40.6125C39.2625 40.65 39.2625 40.675 39.3 40.7C39.3375 40.725 39.375 40.7375 39.425 40.7375H39.6125C39.7375 40.7375 39.8125 40.7375 39.8625 40.7125C39.9375 40.6875 39.975 40.65 39.9875 40.575L40 40.525C40 40.525 40.0375 40.525 40.0625 40.5L40.125 40.475V40.525C40.1252 40.5375 40.1252 40.55 40.125 40.5625L40.0875 40.7C40.169 40.7277 40.2526 40.7486 40.3375 40.7625C40.35 40.7375 40.3375 40.7125 40.325 40.675L40.2875 40.6C40.2875 40.5865 40.2919 40.5733 40.3 40.5625L40.3375 40.5375L40.4625 40.425L40.525 40.55V40.675L40.5 41.0375ZM39.0875 39.95L38.8375 40.1125L38.675 40L38.5 40.125L38.2625 40L38.4875 39.8375L38.675 39.9375L38.8625 39.8125L39.0875 39.9375M38.7125 40.9625L37.8 40.8125L37.9 40.5625L38.675 40.6875C38.675 40.6375 38.675 40.6 38.65 40.5625C38.6323 40.5273 38.6113 40.4939 38.5875 40.4625L38.7875 40.25C38.8375 40.325 38.8625 40.375 38.875 40.45C38.875 40.5125 38.85 40.6 38.8125 40.7125L38.7125 40.9625ZM37.95 40.8375L37.75 40.8C37.6375 40.775 37.575 40.725 37.5625 40.65C37.5375 40.575 37.575 40.4625 37.6625 40.3L37.8125 40.05C37.85 39.9875 37.8625 39.9375 37.85 39.9C37.8427 39.8689 37.83 39.8393 37.8125 39.8125L38.0875 39.6125C38.125 39.675 38.125 39.7375 38.125 39.7875C38.125 39.85 38.0875 39.925 38.0375 40.0125L37.9375 40.1875C37.8814 40.2704 37.8431 40.3641 37.825 40.4625C37.825 40.5125 37.85 40.5375 37.8875 40.55L38.0875 40.6L37.95 40.85M37.475 39.85L37.1625 39.9875L36.9375 39.775L37.2625 39.65L37.475 39.8625M37.35 40.6875C37.2929 40.756 37.2255 40.815 37.15 40.8625C37.0855 40.9026 37.013 40.9282 36.9375 40.9375L36.6375 40.925C36.5183 40.9073 36.4011 40.878 36.2875 40.8375C36.1266 40.7925 35.9801 40.7063 35.8625 40.5875C35.7875 40.4875 35.7875 40.4 35.8625 40.3125C35.9328 40.231 36.0176 40.1632 36.1125 40.1125C36.2125 40.05 36.3625 39.9875 36.5875 39.9125L36.6375 39.975L36.2875 40.125C36.225 40.1625 36.1625 40.2 36.125 40.25C36.075 40.3 36.0875 40.375 36.15 40.45C36.3756 40.6249 36.6521 40.7214 36.9375 40.725C37.0875 40.725 37.1875 40.6875 37.225 40.6375C37.2625 40.6 37.275 40.5625 37.2875 40.5125L37.3125 40.3125L37.625 40.125C37.6268 40.1878 37.6226 40.2505 37.6125 40.3125C37.5858 40.3874 37.5432 40.4557 37.4875 40.5125L37.3375 40.6875" fill="#BF0000"/>
</g>
<defs>
<clipPath id="clip0_13_1939">
<rect width="80" height="60" fill="white"/>
</clipPath>
</defs>
</svg>
