<svg width="80" height="60" viewBox="0 0 80 60" fill="none" xmlns="http://www.w3.org/2000/svg">
<g clip-path="url(#clip0_13_2072)">
<path d="M0 0H80V60H0V0Z" fill="#E41E20"/>
<path d="M34 11.6625C33.425 11.6625 32.4625 11.85 32.475 12.2875C30.85 12.025 30.6875 12.6875 30.7875 13.2875C30.9375 13.05 31.125 12.9125 31.275 12.9C31.4875 12.8625 31.7125 12.9375 31.95 13.075C32.174 13.2155 32.3762 13.3882 32.55 13.5875C31.975 13.725 31.525 13.6375 31.075 13.5625C30.8207 13.5083 30.5789 13.4065 30.3625 13.2625C30.175 13.1375 30.1125 13.0125 29.825 12.725C29.4875 12.375 29.125 12.475 29.2375 13.0125C29.5 13.5125 29.9375 13.7375 30.4875 13.8375C30.75 13.875 31.15 13.9625 31.6 13.9625C32.05 13.9625 32.55 13.9 32.825 13.9625C32.6625 14.0625 32.475 14.25 32.1 14.3125C31.725 14.3875 31.1625 14.0875 30.8125 14.0125C30.85 14.3 31.225 14.575 31.95 14.725C33.15 14.975 34.1375 15.175 34.8 15.5375C35.3239 15.8296 35.7865 16.2201 36.1625 16.6875C36.75 17.375 36.7875 17.9125 36.8125 18.0375C36.9375 19.1375 36.55 19.7625 35.825 19.9625C35.475 20.05 34.825 19.875 34.6 19.6C34.35 19.325 34.1375 18.85 34.2 18.1C34.2625 17.825 34.5875 17.0625 34.3125 16.9125C33.0091 16.1963 31.6604 15.5657 30.275 15.025C29.9625 14.9 29.7125 15.325 29.6125 15.5C28.6895 15.3713 27.8067 15.0387 27.0284 14.5263C26.25 14.0138 25.5955 13.3345 25.1125 12.5375C24.5875 11.5875 23.7 12.5375 23.85 13.45C24.0875 14.45 24.85 15.175 25.775 15.7C26.7125 16.2125 27.9 16.725 29.0875 16.7C29.7375 16.825 29.725 17.65 28.9625 17.8125C27.45 17.8125 26.2375 17.7875 25.1 16.6875C24.2375 15.9 23.7625 16.8375 24 17.3625C24.425 19 26.7625 19.4625 29.125 18.9375C30.05 18.7875 29.5 19.7625 29.25 19.775C28.25 20.4875 26.4875 21.175 24.925 19.775C24.2125 19.225 23.725 19.675 24 20.4625C24.6875 22.525 27.3375 22.0875 29.15 21.0875C29.6125 20.825 30.0375 21.425 29.475 21.8875C27.2125 23.4625 26.0875 23.4875 25.0625 22.8875C23.7875 22.375 23.6875 23.7875 24.4375 24.2625C25.275 24.7625 27.4125 24.3875 28.9875 23.3875C29.6625 22.8875 29.6875 23.675 29.2625 23.9875C27.4 25.6 26.6625 26.025 24.725 25.7625C23.7625 25.6875 23.775 26.875 24.525 27.3375C25.5625 27.975 27.5875 26.925 29.15 25.6125C29.8125 25.2625 29.925 25.8375 29.6 26.525C28.908 27.5041 27.9673 28.2808 26.875 28.775C26 29.1125 25.175 29.0625 24.5875 28.8625C23.8625 28.6125 23.775 29.3625 24.175 30.0375C24.4125 30.45 25.4 30.575 26.475 30.2C27.55 29.825 28.7 28.925 29.4875 27.8875C30.175 27.275 30.1 28.0875 29.775 28.6625C28.2 31.1625 26.75 32.0875 24.8375 31.9375C24 31.7875 23.8 32.4375 24.3375 33.0625C25.2875 33.8375 26.4625 33.8125 27.5125 33.0375C28.425 32.1625 30.1875 30.2375 31.1125 29.2125C31.7625 28.7 31.975 29.2125 31.775 30.2625C31.6 30.8625 31.175 31.5125 29.9875 31.9625C29.175 32.425 29.7875 33.0625 30.3875 33.0875C30.725 33.0875 31.4 32.6875 31.925 32.1125C32.6 31.3375 32.65 30.825 33.025 29.625C33.375 29.05 34.0125 29.325 34.0125 29.925C33.7 31.125 33.45 31.3375 32.825 31.825C32.2375 32.3875 33.2375 32.575 33.575 32.3375C34.55 31.6875 34.9 30.8375 35.225 30.0625C35.475 29.5125 36.15 29.775 35.825 30.6875C35.075 32.8625 33.825 33.7125 31.6625 34.1625C31.45 34.2 31.3125 34.325 31.3875 34.575L32.2625 35.45C30.925 35.85 29.8375 36.075 28.4875 36.45L26.6375 35.225C26.475 34.825 26.3875 34.2 25.4125 34.6375C24.7625 34.3375 24.45 34.45 24.0875 34.7625C24.6125 34.7625 24.8375 34.9125 25.05 35.15C25.325 35.8625 25.95 35.9375 26.5875 35.7375C27 36.075 27.2125 36.35 27.6375 36.7L25.55 36.6375C24.8 35.85 24.225 35.8875 23.7 36.5125C23.2875 36.575 23.125 36.575 22.85 37.0625C23.275 36.8875 23.55 36.8375 23.7375 37.025C24.525 37.4875 25.0375 37.3875 25.425 37.025L27.6125 37.1625C27.3375 37.4125 26.9625 37.5375 26.675 37.7625C25.55 37.4375 24.95 37.8875 24.75 38.8C24.592 39.1658 24.54 39.5686 24.6 39.9625C24.7 39.5875 24.8875 39.275 25.2125 39.0875C26.2125 39.3375 26.5875 38.925 26.65 38.325C27.15 37.925 27.875 37.8375 28.3625 37.4375C28.9375 37.6125 29.2125 37.725 29.7875 37.9125C29.9875 38.5375 30.45 38.775 31.2 38.6125C32.075 38.6375 31.925 39.0125 32 39.3C32.25 38.8875 32.2375 38.475 31.6875 38.1C31.4875 37.5625 31.0375 37.3125 30.4625 37.625C29.9125 37.475 29.775 37.25 29.225 37.0875C30.6 36.65 31.575 36.55 32.95 36.1125L33.9125 36.9625C34.1 37.075 34.275 37.1 34.3875 36.9625C35.25 35.7125 35.6375 34.625 36.425 33.8C36.7375 33.45 37.125 33 37.55 32.8875C37.7625 32.825 38.025 32.8625 38.2 33.05C38.3625 33.225 38.5 33.5625 38.45 34.075C38.3625 34.7875 38.1875 35.025 37.9875 35.45C37.775 35.8875 37.5375 36.15 37.275 36.4875C36.775 37.15 36.1 37.5375 35.7 37.8C34.9 38.3125 34.575 38.0875 33.95 38.05C33.15 38.1375 32.95 38.525 33.6 39.0625C34.2 39.3875 34.75 39.425 35.2 39.3375C35.575 39.2625 36.025 38.775 36.35 38.5125C36.7 38.1 37.3 38.5875 36.8875 39.075C36.15 39.95 35.425 40.525 34.5125 40.5125C33.55 40.6375 33.7375 41.175 34.3625 41.4375C35.5125 41.9 36.5375 41.025 37.0625 40.4375C37.4625 40 37.75 39.9875 37.6875 40.675C37.275 41.9125 36.7375 42.3875 35.8375 42.45C35.1125 42.375 35.1 42.95 35.6375 43.325C36.8375 44.15 37.7125 42.725 38.125 41.875C38.4125 41.1 38.8625 41.4625 38.9125 42.1C38.9125 42.9625 38.5375 43.65 37.5 44.525C38.2875 45.7875 39.2125 47.075 40 48.3375L42.4 21.5875L40 17.375C39.75 17.15 38.9 16.15 38.6875 16C38.6 15.925 38.5625 15.875 38.675 15.825C38.7875 15.775 39.05 15.725 39.2375 15.7C38.7375 15.1875 38.2875 15.025 37.325 14.75C37.5625 14.65 37.7875 14.7 38.4875 14.675C38.058 14.0979 37.4725 13.6555 36.8 13.4C37.325 13.025 37.425 13 37.95 12.5625C37.1219 12.4985 36.304 12.3391 35.5125 12.0875C35.0398 11.8629 34.5327 11.7192 34.0125 11.6625H34ZM34.1 12.7125C34.575 12.7125 34.8625 12.875 34.8625 13.075C34.8625 13.275 34.575 13.4375 34.1 13.4375C33.625 13.4375 33.325 13.25 33.325 13.0625C33.325 12.8625 33.625 12.7125 34.1 12.7125Z" fill="black"/>
<path d="M46 11.6625C46.575 11.6625 47.5375 11.85 47.525 12.2875C49.15 12.025 49.3125 12.6875 49.2125 13.2875C49.0625 13.05 48.875 12.9125 48.725 12.9C48.5125 12.8625 48.2875 12.9375 48.05 13.075C47.826 13.2155 47.6238 13.3882 47.45 13.5875C48.025 13.725 48.475 13.6375 48.925 13.5625C49.1793 13.5083 49.4211 13.4065 49.6375 13.2625C49.825 13.1375 49.8875 13.0125 50.175 12.725C50.5125 12.375 50.875 12.475 50.7625 13.0125C50.5 13.5125 50.0625 13.7375 49.5125 13.8375C49.25 13.875 48.85 13.9625 48.4 13.9625C47.95 13.9625 47.45 13.9 47.175 13.9625C47.3375 14.0625 47.525 14.25 47.9 14.3125C48.275 14.3875 48.8375 14.0875 49.1875 14.0125C49.15 14.3 48.775 14.575 48.05 14.725C46.85 14.975 45.8625 15.175 45.2 15.5375C44.6761 15.8296 44.2135 16.2201 43.8375 16.6875C43.25 17.375 43.2125 17.9125 43.1875 18.0375C43.0625 19.1375 43.45 19.7625 44.175 19.9625C44.525 20.05 45.175 19.875 45.4 19.6C45.65 19.325 45.8625 18.85 45.8 18.1C45.7375 17.825 45.4125 17.0625 45.6875 16.9125C46.9909 16.1963 48.3396 15.5657 49.725 15.025C50.0375 14.9 50.2875 15.325 50.3875 15.5C51.3105 15.3713 52.1933 15.0387 52.9716 14.5263C53.75 14.0138 54.4045 13.3345 54.8875 12.5375C55.4125 11.5875 56.3 12.5375 56.15 13.45C55.9125 14.45 55.15 15.175 54.225 15.7C53.2875 16.2125 52.1 16.725 50.9125 16.7C50.2625 16.825 50.275 17.65 51.0375 17.8125C52.55 17.8125 53.7625 17.7875 54.9 16.6875C55.7625 15.9 56.2375 16.8375 56 17.3625C55.575 19 53.2375 19.4625 50.875 18.9375C49.95 18.7875 50.5 19.7625 50.75 19.775C51.75 20.4875 53.5125 21.175 55.075 19.775C55.7875 19.225 56.275 19.675 56 20.4625C55.3125 22.525 52.6625 22.0875 50.85 21.0875C50.3875 20.825 49.9625 21.425 50.525 21.8875C52.7875 23.4625 53.9125 23.4875 54.9375 22.8875C56.2125 22.375 56.3125 23.7875 55.5625 24.2625C54.725 24.7625 52.5875 24.3875 51.0125 23.3875C50.3375 22.8875 50.3125 23.675 50.7375 23.9875C52.6 25.6 53.3375 26.025 55.275 25.7625C56.2375 25.6875 56.225 26.875 55.475 27.3375C54.4375 27.975 52.4125 26.925 50.85 25.6125C50.1875 25.2625 50.075 25.8375 50.4 26.525C51.092 27.5041 52.0327 28.2808 53.125 28.775C54 29.1125 54.825 29.0625 55.4125 28.8625C56.1375 28.6125 56.225 29.3625 55.825 30.0375C55.5875 30.45 54.6 30.575 53.525 30.2C52.45 29.825 51.3 28.925 50.5125 27.8875C49.825 27.275 49.9 28.0875 50.225 28.6625C51.8 31.1625 53.25 32.0875 55.1625 31.9375C56 31.7875 56.2 32.4375 55.6625 33.0625C54.7125 33.8375 53.5375 33.8125 52.4875 33.0375C51.575 32.1625 49.8125 30.2375 48.8875 29.2125C48.2375 28.7 48.025 29.2125 48.225 30.2625C48.4 30.8625 48.825 31.5125 50.0125 31.9625C50.825 32.425 50.2125 33.0625 49.6125 33.0875C49.275 33.0875 48.6 32.6875 48.075 32.1125C47.4 31.3375 47.35 30.825 46.975 29.625C46.625 29.05 45.9875 29.325 45.9875 29.925C46.3 31.125 46.55 31.3375 47.175 31.825C47.7625 32.3875 46.7625 32.575 46.425 32.3375C45.45 31.6875 45.1 30.8375 44.775 30.0625C44.525 29.5125 43.85 29.775 44.175 30.6875C44.925 32.8625 46.175 33.7125 48.3375 34.1625C48.55 34.2 48.6875 34.325 48.6125 34.575L47.7375 35.45C49.075 35.85 50.1625 36.075 51.5125 36.45L53.3625 35.225C53.525 34.825 53.6125 34.2 54.5875 34.6375C55.2375 34.3375 55.55 34.45 55.9125 34.7625C55.3875 34.7625 55.1625 34.9125 54.95 35.15C54.675 35.8625 54.05 35.9375 53.4125 35.7375C53 36.075 52.7875 36.35 52.3625 36.7L54.45 36.6375C55.2 35.85 55.775 35.8875 56.3 36.5125C56.7125 36.575 56.875 36.575 57.15 37.0625C56.725 36.8875 56.45 36.8375 56.2625 37.025C55.475 37.4875 54.9625 37.3875 54.575 37.025L52.3875 37.1625C52.6625 37.4125 53.0375 37.5375 53.325 37.7625C54.45 37.4375 55.05 37.8875 55.25 38.8C55.408 39.1658 55.46 39.5686 55.4 39.9625C55.3 39.5875 55.1125 39.275 54.7875 39.0875C53.7875 39.3375 53.4125 38.925 53.35 38.325C52.85 37.925 52.125 37.8375 51.6375 37.4375C51.0625 37.6125 50.7875 37.725 50.2125 37.9125C50.0125 38.5375 49.55 38.775 48.8 38.6125C47.925 38.6375 48.075 39.0125 48 39.3C47.75 38.8875 47.7625 38.475 48.3125 38.1C48.5125 37.5625 48.9625 37.3125 49.5375 37.625C50.0875 37.475 50.225 37.25 50.775 37.0875C49.4 36.65 48.425 36.55 47.05 36.1125L46.0875 36.9625C45.9 37.075 45.725 37.1 45.6125 36.9625C44.75 35.7125 44.3625 34.625 43.575 33.8C43.2625 33.45 42.875 33 42.45 32.8875C42.2375 32.825 41.975 32.8625 41.8 33.05C41.6375 33.225 41.5 33.5625 41.55 34.075C41.6375 34.7875 41.8125 35.025 42.0125 35.45C42.225 35.8875 42.4625 36.15 42.725 36.4875C43.225 37.15 43.9 37.5375 44.3 37.8C45.1 38.3125 45.425 38.0875 46.05 38.05C46.85 38.1375 47.05 38.525 46.4 39.0625C45.8 39.3875 45.25 39.425 44.8 39.3375C44.425 39.2625 43.975 38.775 43.65 38.5125C43.3 38.1 42.7 38.5875 43.1125 39.075C43.85 39.95 44.575 40.525 45.4875 40.5125C46.45 40.6375 46.2625 41.175 45.6375 41.4375C44.4875 41.9 43.4625 41.025 42.9375 40.4375C42.5375 40 42.25 39.9875 42.3125 40.675C42.725 41.9125 43.2625 42.3875 44.1625 42.45C44.8875 42.375 44.9 42.95 44.3625 43.325C43.1625 44.15 42.2875 42.725 41.875 41.875C41.5875 41.1 41.1375 41.4625 41.0875 42.1C41.0875 42.9625 41.4625 43.65 42.5 44.525C41.7125 45.7875 40.7875 47.075 40 48.3375L37.6 21.5875L40 17.375C40.25 17.15 41.1 16.15 41.3125 16C41.4 15.925 41.4375 15.875 41.325 15.825C41.2125 15.775 40.95 15.725 40.7625 15.7C41.2625 15.1875 41.7125 15.025 42.675 14.75C42.4375 14.65 42.2125 14.7 41.5125 14.675C41.942 14.0979 42.5275 13.6555 43.2 13.4C42.675 13.025 42.575 13 42.05 12.5625C42.8781 12.4985 43.696 12.3391 44.4875 12.0875C44.9602 11.8629 45.4673 11.7192 45.9875 11.6625H46ZM45.9 12.7125C45.425 12.7125 45.1375 12.875 45.1375 13.075C45.1375 13.275 45.425 13.4375 45.9 13.4375C46.375 13.4375 46.675 13.25 46.675 13.0625C46.675 12.8625 46.375 12.7125 45.9 12.7125Z" fill="black"/>
</g>
<defs>
<clipPath id="clip0_13_2072">
<rect width="80" height="60" fill="white"/>
</clipPath>
</defs>
</svg>
