<svg width="81" height="61" viewBox="0 0 81 61" fill="none" xmlns="http://www.w3.org/2000/svg">
<g clip-path="url(#clip0_21_204)">
<path d="M40.5 0.5H80.5V60.5H40.5V0.5Z" fill="white"/>
<path d="M0.5 0.5H40.5V60.5H0.5V0.5Z" fill="#006233"/>
<path d="M53.5 23C51.849 20.1404 49.3006 17.9054 46.2499 16.6418C43.1992 15.3782 39.8169 15.1565 36.6274 16.0111C33.4379 16.8657 30.6195 18.7489 28.6093 21.3686C26.5992 23.9882 25.5096 27.198 25.5096 30.5C25.5096 33.802 26.5992 37.0118 28.6093 39.6314C30.6195 42.2511 33.4379 44.1343 36.6274 44.9889C39.8169 45.8435 43.1992 45.6218 46.2499 44.3582C49.3006 43.0946 51.849 40.8596 53.5 38C51.9462 39.9408 49.8278 41.351 47.4378 42.0358C45.0478 42.7206 42.5041 42.6462 40.1582 41.8228C37.8124 40.9994 35.7801 39.4677 34.3424 37.4393C32.9047 35.411 32.1325 32.9862 32.1325 30.5C32.1325 28.0138 32.9047 25.589 34.3424 23.5607C35.7801 21.5323 37.8124 20.0006 40.1582 19.1772C42.5041 18.3538 45.0478 18.2794 47.4378 18.9642C49.8278 19.649 51.9462 21.0592 53.5 23ZM54 30.5L40.5 26.1L48.9 37.6V23.4L40.5 34.9L54 30.5Z" fill="#D21034"/>
</g>
<defs>
<clipPath id="clip0_21_204">
<rect width="80" height="60" fill="white" transform="translate(0.5 0.5)"/>
</clipPath>
</defs>
</svg>
