<svg width="81" height="61" viewBox="0 0 81 61" fill="none" xmlns="http://www.w3.org/2000/svg">
<g clip-path="url(#clip0_21_14)">
<path d="M0.5 0.5H80.5V60.5H0.5V0.5Z" fill="#D0103A"/>
<path d="M0.5 0.5H54.9V60.5H0.5V0.5Z" fill="#FEDF00"/>
<path d="M0.5 0.5H26.1V60.5H0.5V0.5Z" fill="#0018A8"/>
<path d="M38.05 17.575C39.0125 17.575 39.4125 18.4 40.375 18.4C40.9625 18.4 41.3125 18.2125 41.8375 17.9125C42.2 17.7125 42.425 17.6 42.8375 17.6C43.2625 17.6 43.525 17.725 43.75 18.1C43.875 18.3 43.975 18.7125 43.9125 18.9375C43.8382 19.2946 43.725 19.6425 43.575 19.975C43.4875 20.175 43.4125 20.2875 43.4125 20.5C43.4125 21.0125 44.1125 21.1875 44.5875 21.2C44.6875 21.2 45.55 21.2 46.0875 20.675C45.8 20.6625 45.475 20.425 45.475 20.1375C45.475 19.8125 45.7 19.6 46.0125 19.5C46.075 19.4875 46.175 19.5375 46.225 19.5C46.3125 19.4625 46.275 19.375 46.35 19.325C46.5 19.2 46.6 19.125 46.8 19.125C46.925 19.125 47 19.1375 47.1125 19.2125C47.1625 19.2625 47.1875 19.3125 47.2375 19.3125C47.3875 19.3125 47.4625 19.2125 47.6125 19.2125C47.713 19.214 47.8116 19.2397 47.9 19.2875C47.975 19.325 47.975 19.475 48.075 19.475C48.125 19.475 48.375 19.3625 48.5125 19.3625C48.7875 19.3625 48.9375 19.4625 49.1125 19.675C49.1625 19.7375 49.1875 19.85 49.2375 19.85C49.3601 19.8604 49.4785 19.8998 49.5828 19.965C49.6872 20.0302 49.7745 20.1194 49.8375 20.225C49.875 20.275 49.925 20.4 49.975 20.4125C50.05 20.45 50.1 20.4375 50.1875 20.5C50.2899 20.5644 50.3752 20.6526 50.4362 20.757C50.4971 20.8615 50.5319 20.9792 50.5375 21.1C50.5375 21.1875 50.5 21.3 50.475 21.375C50.25 22.1875 49.6875 22.45 49.125 23.1625C48.875 23.4625 48.6875 23.7 48.6875 24.0875C48.6875 24.175 48.8125 24.35 48.85 24.425C48.825 24.25 48.9125 24.025 49.1 24.0125C49.2244 24.0119 49.3446 24.0576 49.437 24.1408C49.5295 24.2241 49.5876 24.3387 49.6 24.4625C49.603 24.5393 49.5903 24.6158 49.5625 24.6875C49.7141 24.5926 49.8849 24.5329 50.0625 24.5125H50.3C50.7125 24.5125 51.175 24.75 51.4625 24.9875C51.7634 25.2459 52.0018 25.569 52.1598 25.9328C52.3179 26.2965 52.3914 26.6913 52.375 27.0875C52.275 27.7375 52.3375 28.9375 50.65 29.4125C50.9625 29.5375 51.175 29.7875 51.175 30.0625C51.1784 30.1374 51.1667 30.2122 51.1407 30.2826C51.1148 30.3529 51.075 30.4173 51.0237 30.472C50.9725 30.5268 50.9108 30.5707 50.8424 30.6013C50.7739 30.6318 50.7 30.6484 50.625 30.65C50.5437 30.6551 50.4623 30.642 50.3866 30.6117C50.3109 30.5815 50.2429 30.5348 50.1875 30.475C49.8375 30.825 49.775 31.1875 49.775 31.6875C49.775 31.9875 49.825 32.1625 49.95 32.4375C50.075 32.7125 50.175 32.875 50.4125 33.075C50.5375 32.8875 50.675 32.75 50.9125 32.75C51.125 32.75 51.3125 32.825 51.4 33.025C51.425 33.0875 51.4 33.1375 51.4375 33.2C51.475 33.275 51.5375 33.2875 51.575 33.3625C51.6375 33.4875 51.575 33.5875 51.6375 33.7C51.675 33.7875 51.75 33.8 51.7875 33.875C51.8375 34 51.85 34.075 51.85 34.2125C51.85 34.5875 51.5125 34.8625 51.1375 34.8625C51.0125 34.8625 50.9625 34.8125 50.85 34.825C51.0625 35.0375 51.225 35.1375 51.3875 35.3875C51.6427 35.7675 51.7737 36.2174 51.7625 36.675C51.7726 37.1645 51.6517 37.6478 51.4125 38.075C51.226 38.5041 50.9229 38.8722 50.5375 39.1375C49.948 39.5667 49.2605 39.8417 48.5375 39.9375C48.0842 40.03 47.6246 40.0884 47.1625 40.1125L45.4 40.2125C44.5 40.2625 43.875 40.4 43.2375 41.0375C43.5375 41.25 43.7375 41.475 43.7375 41.8375C43.7375 42.2125 43.5125 42.5 43.15 42.6125C43.0625 42.6375 43 42.6125 42.9125 42.6625C42.825 42.7125 42.825 42.825 42.7375 42.875C42.5969 42.9671 42.4302 43.0109 42.2625 43C42.1143 43.0106 41.9657 42.9881 41.8273 42.934C41.6889 42.8799 41.5643 42.7957 41.4625 42.6875C41.1875 42.9125 41.0875 43.1125 40.775 43.3C40.675 43.35 40.625 43.425 40.5125 43.425C40.325 43.425 40.2375 43.3 40.0875 43.2C39.8833 43.0578 39.6985 42.8898 39.5375 42.7C39.25 42.8625 39.0875 43 38.75 43C38.5746 43.0095 38.4004 42.9659 38.25 42.875C38.175 42.8125 38.15 42.725 38.0625 42.675C37.975 42.6125 37.9 42.6375 37.8 42.5875C37.425 42.425 37.175 42.15 37.175 41.7375C37.175 41.375 37.4 41.15 37.725 40.9875C37.1 40.3625 36.475 40.2625 35.6 40.2125L33.85 40.1125C33.3 40.075 33 40.025 32.475 39.9375C32.0625 39.875 31.825 39.85 31.45 39.675C30.175 39.075 29.35 38.2625 29.2 36.8625C29.175 36.7375 29.175 36.675 29.175 36.55C29.175 35.825 29.4625 35.375 29.975 34.8625C29.85 34.825 29.7625 34.8625 29.625 34.825C29.3125 34.7 29.075 34.4875 29.075 34.1375C29.075 34.0125 29.075 33.925 29.1375 33.8125C29.1875 33.7375 29.2625 33.725 29.2875 33.6375C29.3125 33.5125 29.2875 33.4375 29.3375 33.325C29.375 33.2625 29.4375 33.25 29.4625 33.175C29.5875 32.9375 29.7125 32.75 29.975 32.75C30.2 32.75 30.35 32.875 30.45 33.0625C30.675 32.9625 30.725 32.8 30.85 32.6C31.0015 32.3535 31.0958 32.0763 31.1261 31.7886C31.1563 31.5009 31.1218 31.2101 31.025 30.9375C30.975 30.75 30.95 30.625 30.8 30.475C30.675 30.6 30.55 30.65 30.375 30.65C30.0125 30.65 29.75 30.3375 29.75 29.9875C29.7462 29.8648 29.7801 29.7439 29.8472 29.6411C29.9142 29.5382 30.0112 29.4585 30.125 29.4125C29.925 29.2375 29.75 29.225 29.5375 29.0875C29.2125 28.8875 29.1 28.6625 28.8875 28.3375C28.7375 28.1375 28.7 27.9875 28.6375 27.75C28.5283 27.4373 28.4858 27.1052 28.5125 26.775C28.5875 26.15 28.7 25.775 29.0875 25.2875C29.3125 25 29.4625 24.825 29.8125 24.675C30.1 24.55 30.275 24.4625 30.5875 24.4625L30.8375 24.475C30.96 24.4831 31.0793 24.5171 31.1875 24.575C31.2375 24.6 31.325 24.6875 31.325 24.625C31.325 24.5625 31.2875 24.525 31.2875 24.4625C31.2875 24.2125 31.475 23.9625 31.7375 23.9625C31.925 23.9625 32 24.1375 32.1 24.3C32.15 24.2 32.1875 24.125 32.1875 24.0125C32.1875 23.5875 31.95 23.3625 31.6875 23.025C31.1 22.3 30.375 21.9625 30.375 21.025C30.375 20.75 30.5 20.5625 30.75 20.4125C30.8125 20.375 30.9125 20.4125 30.975 20.375C31.0375 20.3375 31.025 20.25 31.0625 20.2C31.125 20.1125 31.1875 20.075 31.2625 20C31.3875 19.875 31.5125 19.925 31.65 19.8125C31.725 19.7625 31.75 19.6875 31.8 19.6375C31.9625 19.4375 32.1125 19.3375 32.375 19.3375C32.5 19.3375 32.575 19.3375 32.6875 19.3875L32.8125 19.45C32.85 19.425 32.9125 19.35 33 19.3125C33.0825 19.2613 33.178 19.2353 33.275 19.2375C33.4125 19.2375 33.5 19.3125 33.65 19.3125C33.6875 19.3125 33.7 19.2625 33.75 19.2375C33.875 19.15 33.9375 19.1125 34.0875 19.1125C34.2375 19.1125 34.3125 19.15 34.4375 19.2375C34.5625 19.3 34.5625 19.4 34.6875 19.4625C34.75 19.5 34.8125 19.4875 34.875 19.5125C35.2 19.625 35.4375 19.8375 35.4375 20.175C35.4375 20.3625 35.4 20.4875 35.2625 20.6125C35.15 20.7 35.05 20.6875 34.9125 20.7375C35.3102 21.0584 35.8156 21.215 36.325 21.175C36.85 21.175 37.4875 20.9625 37.4875 20.4375C37.4875 20.1875 37.3625 20.0625 37.2625 19.8375C37.0926 19.5089 37.0027 19.1449 37 18.775C37 18.425 37.0375 18.2125 37.2375 17.9375C37.4375 17.65 37.6875 17.575 38.05 17.575Z" fill="#C7B37F"/>
<path d="M34.5499 20.375C34.5714 20.4458 34.61 20.5103 34.6624 20.5626C34.7147 20.6149 34.7791 20.6535 34.8499 20.675C34.9499 20.7125 35.1874 20.7 35.3249 20.5C35.4499 20.35 35.4499 20.15 35.3999 20C35.3584 19.889 35.2844 19.7931 35.1874 19.725L34.5499 20.375Z" stroke="#703D29" stroke-width="0.0875" stroke-linejoin="round"/>
<path d="M50.6249 30.0125C50.4749 29.65 50.0874 29.8125 50.0749 30.0125C50.0124 30.475 50.4124 30.6125 50.6999 30.5375C50.7664 30.5196 50.8285 30.4882 50.8823 30.4451C50.936 30.4021 50.9804 30.3484 51.0124 30.2875C51.0874 30.1625 51.1124 29.9875 51.0624 29.825C51.0416 29.7528 51.0077 29.685 50.9624 29.625C50.9176 29.5657 50.8626 29.5149 50.7999 29.475C50.6874 29.4 50.5624 29.4 50.3749 29.4C49.6874 29.4 49.0749 30.2125 48.8749 31.075C48.7999 31.35 48.7124 31.9875 48.8374 32.575C48.9413 33.1073 49.1975 33.598 49.5749 33.9875C49.9275 34.3193 50.3506 34.5672 50.8124 34.7125C50.9753 34.7595 51.1474 34.7638 51.3124 34.725C51.7124 34.6375 51.8999 34.25 51.6874 33.85C51.5249 33.5375 51.0249 33.35 50.7874 33.775C50.7749 33.8125 50.7374 33.8875 50.7374 33.9625C50.7374 34.075 50.7874 34.2125 50.8624 34.2625C51.0499 34.375 51.3374 34.3375 51.3249 34.0125" stroke="#703D29" stroke-width="0.0875" stroke-linecap="round"/>
<path d="M48.4749 34.75C48.6886 34.5056 48.9799 34.3423 49.2999 34.2875C49.6749 34.2375 49.9999 34.35 50.3249 34.5375C50.7312 34.7234 51.0749 35.0231 51.3144 35.4002C51.554 35.7773 51.6792 36.2157 51.6749 36.6625C51.6749 37.1125 51.5499 37.6 51.4249 37.8375C51.3249 38.05 51.0499 38.9625 49.5124 39.5875C48.6249 39.9625 47.2624 40.0375 46.2999 40.0875C44.9999 40.125 43.7999 40.175 43.1124 41.0375" stroke="#703D29" stroke-width="0.1"/>
<path d="M48.7999 36.2125C48.7624 36.0875 48.7999 35.95 48.8999 35.8C49.0499 35.6 49.3624 35.5375 49.6499 35.675C49.7736 35.7417 49.8805 35.8358 49.9624 35.95L50.0999 36.15C50.1874 36.2875 50.2249 36.4 50.2249 36.4625C50.5374 37.3375 50.0499 38.275 49.4124 38.6625C48.9124 38.9625 48.3249 39.0875 47.6124 39.1625C47.2999 39.2125 47.1124 39.2 46.7999 39.225H45.5999C45.3001 39.2096 44.9997 39.2096 44.6999 39.225C44.3374 39.2625 44.0749 39.275 43.7499 39.325C43.5499 39.35 43.3249 39.3875 43.0749 39.45C42.9999 39.45 42.9249 39.475 42.8499 39.5L42.6999 39.5375C42.2499 39.675 41.8249 39.8375 41.4749 40.0625C41.3749 40.125 41.2499 40.1875 41.1624 40.275L40.9999 40.425C40.7499 40.675 40.5124 40.925 40.4499 41.2625V41.4625C40.4499 41.6875 40.6249 42 41.1249 42.0875M41.8124 20.8375C41.9124 21.0125 41.9749 21.125 41.9124 21.325C41.8374 21.5375 41.6874 21.675 41.4624 21.675C40.9624 21.675 40.6749 21.075 40.8999 20.7C41.2999 20.0375 42.0624 20.4125 42.7749 20.7375C42.7374 20.575 42.6749 20.5125 42.6874 20.3C42.6999 19.775 43.0874 19.55 43.2499 19.05C43.3374 18.7625 43.3749 18.5125 43.1624 18.3C42.9749 18.1375 42.7624 18.1375 42.5249 18.225C42.0499 18.4125 41.4624 18.9625 40.4499 18.975C39.4249 18.9625 38.8499 18.4125 38.3624 18.225C38.1124 18.1375 37.9124 18.1375 37.7249 18.3125C37.5124 18.5125 37.5499 18.7625 37.6374 19.0625C37.7999 19.5375 38.1874 19.775 38.1999 20.3125C38.1999 20.5125 38.1499 20.5625 38.1124 20.7375C38.8249 20.4125 39.6124 20 39.9874 20.7C40.1999 21.1 39.9249 21.6625 39.4249 21.6625C39.1999 21.6625 39.0499 21.5375 38.9749 21.325C38.9249 21.1375 38.9749 20.975 39.0749 20.825" stroke="#703D29" stroke-width="0.0875"/>
<path d="M39.8249 20.4875C39.9278 20.5538 40.0102 20.6473 40.0632 20.7576C40.1161 20.868 40.1375 20.9908 40.1249 21.1125C40.0999 21.425 40.0249 21.5 39.7749 21.675M40.0749 21.2C40.0624 21.3875 39.9874 21.5125 39.7874 21.5875" stroke="#703D29" stroke-width="0.0875" stroke-linecap="round"/>
<path d="M35.0874 19.6625L35.1749 19.725L35.2749 19.825L35.3374 19.95L35.3624 20.05V20.2875L35.3374 20.3875L35.2749 20.4625L35.1999 20.5375L35.0874 20.6L34.9624 20.625L34.8374 20.65L34.7124 20.5875L34.5999 20.5125L34.5374 20.4125L34.4874 20.2875V20.2375L35.0874 19.6625Z" fill="#C7B37F"/>
<path d="M34.9 20.15C34.8625 19.9375 34.625 19.9 34.525 20.025C34.3875 20.2125 34.4875 20.525 34.775 20.6125C34.8645 20.6306 34.9573 20.6239 35.0432 20.5931C35.1291 20.5622 35.205 20.5084 35.2625 20.4375C35.3875 20.275 35.375 20.0875 35.325 19.9375C35.285 19.8257 35.2106 19.7294 35.1125 19.6625C34.775 19.4125 34.225 19.4625 34.0375 19.9125C33.8125 20.4625 34.3125 20.8875 34.7875 21.2C35.3625 21.6 36.0375 21.675 36.5375 21.675C37.6875 21.6625 38.5625 21.1125 39.125 20.8C39.25 20.725 39.3875 20.7375 39.4625 20.825C39.4999 20.8756 39.5168 20.9385 39.5099 21.0011C39.5029 21.0637 39.4726 21.1213 39.425 21.1625" stroke="#703D29" stroke-width="0.0875" stroke-linecap="round"/>
<path d="M31.5 35.65L31.25 35.7375L31 35.9375L30.875 36.1L30.7375 36.35L30.675 36.5375L30.625 36.7625L30.6 36.9375M32.975 35.675L32.9625 35.9L32.925 36.05L32.8 36.325L32.6375 36.55L32.45 36.7L32.3125 36.7625L32.1125 36.8125" stroke="#703D29" stroke-width="0.0875"/>
<path d="M40.4625 41.6375C40.425 41.85 40.225 42.0875 39.8 42.1625L39.725 42.1875" stroke="#703D29" stroke-width="0.1"/>
<path d="M51.025 35.025C51.2514 35.2431 51.4303 35.5055 51.5508 35.7958C51.6712 36.0862 51.7305 36.3982 51.725 36.7125C51.725 37.1625 51.6 37.65 51.475 37.8875C51.375 38.1 51.1 39.0125 49.5625 39.6375C48.5277 39.9667 47.4484 40.1354 46.3625 40.1375C45.075 40.175 43.8875 40.225 43.1875 41.05" stroke="#703D29" stroke-width="0.1125"/>
<path d="M48.9375 35.8625C49.0375 35.7375 49.375 35.5625 49.6625 35.725C49.7776 35.7831 49.8765 35.869 49.95 35.975" stroke="#703D29" stroke-width="0.075"/>
<path d="M50.7 34.725L50.875 34.7875C51.0381 34.8361 51.2118 34.8361 51.375 34.7875C51.725 34.6875 51.95 34.3625 51.775 33.925C51.7214 33.8212 51.6444 33.7313 51.5499 33.6625" stroke="#703D29" stroke-width="0.1125"/>
<path d="M30.5374 25.475C30.2874 25.6125 30.1249 25.65 29.9374 25.8625C29.7927 26.1305 29.6834 26.4163 29.6124 26.7125M35.3624 20.25C35.3624 20.475 35.2124 20.6 34.9874 20.65" stroke="#703D29" stroke-width="0.0875" stroke-linecap="round"/>
<path d="M50.1375 24.5C50.4537 24.5064 50.7655 24.5759 51.0545 24.7044C51.3436 24.8329 51.604 25.0179 51.8206 25.2484C52.0372 25.479 52.2055 25.7505 52.3157 26.0469C52.4259 26.3434 52.4758 26.659 52.4625 26.975C52.4625 28.975 51.2249 29.2875 50.7374 29.425" stroke="#703D29" stroke-width="0.075"/>
<path d="M50.2999 24.5C51.3124 24.4625 52.3624 25.2125 52.4124 27.0875C52.4499 28.55 51.4124 29.2125 50.9124 29.3375" stroke="#703D29" stroke-width="0.0875"/>
<path d="M49.7249 31.55L49.7374 31.35L49.8125 31.0375L49.9 30.7875L50.0125 30.5875L50.1375 30.425M51.1124 30V30.1875L51.0499 30.3125L50.9625 30.45L50.8624 30.525L50.7125 30.5875H50.575L50.4749 30.575M48.6875 23.975L48.7249 23.7625L48.825 23.5625L48.95 23.375L49.15 23.1L49.325 22.925L49.575 22.65L49.825 22.4125L49.9625 22.25L50.15 22.0125L50.325 21.7625L50.4249 21.55L50.4874 21.275L50.5 20.9375L50.4749 20.8375M48.9375 36.8625L49.1375 36.8125L49.2874 36.7375L49.375 36.65L49.4375 36.55L49.4749 36.4V36.2875M29.7 34.775H30.0375L30.2374 34.7M30.8624 30.1375L30.8375 30.3125L30.7875 30.3875L30.7374 30.4625L30.65 30.525L30.5625 30.5625L30.4375 30.575H30.3624M31.6 28.6375L31.5625 28.9L31.5 29.025L31.4 29.175L31.25 29.2875L31.1 29.3625L30.8125 29.425M32.7249 24.4625L32.6624 24.625L32.5999 24.75L32.5 24.875L32.375 25L32.225 25.0625L32.0875 25.1L32.0125 25.0875M32.0499 24.3125V24.4375" stroke="#703D29" stroke-width="0.075"/>
<path d="M32.2874 28.5C32.2114 28.574 32.1224 28.6333 32.0249 28.675M50.8374 34.275L50.8999 34.3C51.0749 34.4 51.4249 34.275 51.3249 34" stroke="#703D29" stroke-width="0.075" stroke-linecap="round"/>
<path d="M50.2249 30.45C50.3499 30.6125 50.5874 30.6625 50.7749 30.6125C50.8414 30.5946 50.9035 30.5632 50.9573 30.5201C51.011 30.4771 51.0553 30.4234 51.0874 30.3625C51.1624 30.2375 51.1874 30.0625 51.1374 29.9C51.1128 29.8268 51.0747 29.759 51.0249 29.7C50.9802 29.6299 50.9254 29.5667 50.8624 29.5125L50.8124 29.4875M51.6124 33.7375C51.6191 33.7088 51.6233 33.6795 51.6249 33.65C51.6258 33.5796 51.6117 33.5098 51.5837 33.4451C51.5557 33.3805 51.5144 33.3225 51.4624 33.275L51.3624 33.175M51.4124 33.2375C51.4124 33.0125 51.2249 32.8375 50.9874 32.8M50.4624 33.15L50.2999 33.025C49.9576 32.6635 49.7654 32.1854 49.7624 31.6875C49.7624 31.1625 49.9624 30.6375 50.2124 30.4375M43.1499 41L43.3749 40.8L43.5249 40.675L43.8124 40.5L44.0874 40.375L44.2874 40.3125L44.6624 40.2375L45.1124 40.1625M41.4249 42.5875C41.1894 42.9289 40.8592 43.194 40.4749 43.35C40.0931 43.1897 39.764 42.9256 39.5249 42.5875" stroke="#703D29" stroke-width="0.075"/>
<path d="M39.7999 42.075C39.7516 42.2695 39.6573 42.4496 39.5249 42.6" stroke="#703D29" stroke-width="0.075" stroke-linecap="round"/>
<path d="M39.8375 41.8125L39.7875 42.0875M39.5 42.625L39.375 42.75L39.1625 42.8625L38.9125 42.9375M38.2125 20.7125C38.25 20.6125 38.275 20.5375 38.275 20.3875C38.2625 19.8625 37.875 19.625 37.7125 19.1375M37.7125 19.1375C37.625 18.85 37.5875 18.6 37.8 18.3875C37.975 18.2125 38.2 18.2125 38.425 18.3125C38.925 18.5 39.5 19.0375 40.5125 19.0625C39.5 19.0375 38.9125 18.5 38.4375 18.3125C38.1875 18.2125 37.9625 18.1875 37.775 18.375C37.5625 18.575 37.625 18.85 37.7125 19.1375ZM37.7125 19.1375C37.875 19.625 38.2375 19.8625 38.25 20.3875C38.25 20.5375 38.2125 20.6125 38.1875 20.7125M40.5 19C41.5 18.95 42.3625 18.275 42.6375 18.2125C42.8875 18.1625 43.0125 18.1875 43.2 18.35C43.025 18.1875 42.825 18.2 42.575 18.2875C42.1 18.475 41.525 19.0125 40.5 19.0375M50.45 33.15C50.2093 32.9695 50.014 32.7355 49.8795 32.4665C49.745 32.1974 49.675 31.9008 49.675 31.6C49.675 31.0875 49.8875 30.55 50.125 30.35M41.375 42.55C41.2125 42.8 40.8375 43.175 40.425 43.325C40.0416 43.1613 39.7123 42.8927 39.475 42.55" stroke="#703D29" stroke-width="0.075"/>
<path d="M38.8374 20.9625L39.1249 20.8C39.2499 20.725 39.4124 20.7375 39.4874 20.825C39.5624 20.9125 39.5749 21.075 39.4624 21.175" stroke="#703D29" stroke-width="0.075" stroke-linecap="round"/>
<path d="M37.3375 21.6625C38.025 21.5125 38.5875 21.2125 39.0125 20.975M43.0374 41.5C43.0999 41.5375 43.1375 41.625 43.1375 41.625C43.15 41.65 43.1749 41.6875 43.1749 41.725C43.2124 41.9125 43.0874 42.025 42.9249 42.05C42.7124 42.075 42.5499 41.95 42.4874 41.8M37.2999 21.625C37.9874 21.4875 38.5499 21.175 38.9749 20.9375M51.1749 34.3C51.0499 34.35 50.9749 34.3375 50.7999 34.275L50.575 34.15C50.119 33.8902 49.7528 33.4978 49.525 33.025C49.4293 32.8434 49.3579 32.6501 49.3125 32.45C49.2725 32.3161 49.2515 32.1772 49.25 32.0375C49.2363 31.3536 49.4422 30.6833 49.8375 30.125C49.975 29.925 50.0999 29.8125 50.3624 29.8M32.4 24.8875C32.5073 24.9722 32.5936 25.0806 32.6522 25.2042C32.7107 25.3278 32.7399 25.4633 32.7374 25.6C32.7374 25.9875 32.4124 26.625 31.6124 26.85C31.3471 26.9224 31.0638 26.8864 30.825 26.75" stroke="#703D29" stroke-width="0.075"/>
<path d="M32.5374 26.2C32.6749 26.3 32.7374 26.4125 32.7374 26.6125C32.7374 26.7375 32.6499 26.9125 32.4999 27.075C32.3594 27.2278 32.1896 27.3507 32.0007 27.4366C31.8117 27.5225 31.6074 27.5696 31.3999 27.575C31.1499 27.575 30.8999 27.525 30.6499 27.3625C30.4118 27.2058 30.242 26.9646 30.1749 26.6875" stroke="#703D29" stroke-width="0.075"/>
<path d="M32.525 27.0375C32.6875 27.1875 32.7375 27.375 32.7375 27.6125C32.7375 27.95 32.6 28.2125 32.275 28.4875C32.2 28.5625 32.125 28.6125 32.025 28.675M48.2125 25.9125V26.35M48.175 25.8V26.425M48.2125 24.45V25.275M48.175 24.275V25.3875M47.9375 35.6375C47.8081 35.9018 47.63 36.1393 47.4125 36.3375C47.2041 36.5511 46.9584 36.7247 46.6875 36.85C46.4269 36.9803 46.1491 37.0729 45.8625 37.125C45.5838 37.1919 45.299 37.2296 45.0125 37.2375C44.7 37.2375 44.525 37.2375 44.2125 37.2125C43.8875 37.1875 43.7125 37.1375 43.375 37.1125C43.1 37.0875 42.95 37.0625 42.675 37.075C42.2063 37.0581 41.7389 37.1346 41.3 37.3C40.975 37.425 40.5875 37.675 40.5125 37.775C40.2747 37.5724 40.0042 37.4117 39.7125 37.3C39.5078 37.2162 39.2938 37.1575 39.075 37.125C38.7875 37.075 38.6375 37.075 38.35 37.075C38.075 37.075 37.925 37.0875 37.65 37.1125C37.325 37.15 37.15 37.1875 36.8125 37.2125C36.5 37.2375 36.325 37.25 36.0125 37.2375C35.434 37.2313 34.8634 37.1036 34.3375 36.8625C34.0322 36.7199 33.7598 36.5156 33.5375 36.2625M38.8 42.9375L39.025 42.9125M42.8125 42.6125L43.0375 42.6L43.25 42.5125L43.4 42.4125L43.6125 42.1625L43.65 42.0875L43.6875 41.875V41.775M49.5625 24.6875C49.65 24.3625 49.5375 24.0125 49.2125 24.025M32.7125 29.8375C32.644 30.0805 32.4882 30.2897 32.275 30.425M32.725 24.5875C32.69 24.6981 32.6318 24.8 32.5542 24.8863C32.4766 24.9725 32.3814 25.0411 32.275 25.0875C32.0375 25.1875 31.775 25.0875 31.625 24.9875" stroke="#703D29" stroke-width="0.075"/>
<path d="M30.975 25.8C31.1625 25.9 31.3625 25.75 31.325 25.5C31.3074 25.4276 31.268 25.3624 31.2121 25.3132C31.1562 25.264 31.0865 25.2332 31.0125 25.225" stroke="#703D29" stroke-width="0.075" stroke-linecap="round"/>
<path d="M31.775 36.325C31.8125 36.3625 31.825 36.4125 31.875 36.425C31.9625 36.45 32.025 36.475 32.1125 36.3625C32.2125 36.225 32.15 36.0125 32.05 35.875C31.9579 35.7802 31.8381 35.717 31.7078 35.6945C31.5775 35.6721 31.4435 35.6915 31.325 35.75C31.225 35.8125 31.1125 35.875 31 36.025L30.8625 36.225C30.775 36.3625 30.7375 36.475 30.725 36.525C30.475 37.2625 30.775 38.025 31.2375 38.4875" stroke="#703D29" stroke-width="0.075"/>
<path d="M43.025 41.475L43.1125 41.575L43.1375 41.6875C43.175 41.875 43.05 41.9875 42.8875 42.0125C42.6875 42.0375 42.5375 41.9125 42.475 41.7625" stroke="#703D29" stroke-width="0.075" stroke-linecap="round"/>
<path d="M49.1749 19.85C49.3873 19.8817 49.5821 19.9864 49.7258 20.1461C49.8695 20.3057 49.9531 20.5104 49.9624 20.725C49.9624 21.275 49.7749 21.475 49.4874 21.875C49.1749 22.3 48.1499 23.075 48.1499 23.9625C48.1499 24.5 48.2999 24.8375 48.6874 25.0125C48.9374 25.1375 49.2249 25.0125 49.3624 24.8875C49.6874 24.5875 49.5499 24.075 49.2124 24.0125C48.8124 23.9375 48.7249 24.5875 49.1249 24.55M51.3624 33.175C51.3422 33.0702 51.2864 32.9755 51.2043 32.9072C51.1223 32.8388 51.0192 32.801 50.9124 32.8C50.7897 32.8 50.6721 32.8487 50.5854 32.9355C50.4986 33.0222 50.4499 33.1398 50.4499 33.2625C50.4499 33.3875 50.4999 33.5125 50.5749 33.5875" stroke="#703D29" stroke-width="0.075"/>
<path d="M48.4874 24.8875C48.3801 24.9722 48.2938 25.0806 48.2352 25.2042C48.1767 25.3278 48.1475 25.4633 48.1499 25.6C48.1499 25.9875 48.4749 26.625 49.2749 26.85C49.5749 26.9375 49.8749 26.925 50.0499 26.8125M30.5499 25.525C30.3079 25.6021 30.0974 25.7556 29.9499 25.9625C29.6522 26.4346 29.5533 27.0053 29.6749 27.55C29.7248 27.7997 29.8224 28.0374 29.9624 28.25C29.9991 28.304 30.041 28.3542 30.0874 28.4L30.2374 28.525M38.2374 40.025C38.8499 40.2875 39.2874 40.4875 39.6624 41.0875C39.764 41.2755 39.8156 41.4864 39.8124 41.7C39.8124 42.0375 39.6874 42.4125 39.3999 42.65C39.2869 42.7501 39.1535 42.8243 39.0088 42.8675C38.8642 42.9107 38.7118 42.9218 38.5624 42.9C38.3249 42.875 38.0999 42.7 38.0624 42.575M32.2499 28.5125C32.5874 28.7875 32.7374 29.0375 32.7374 29.45C32.745 29.6366 32.7027 29.8219 32.6148 29.9867C32.5269 30.1515 32.3966 30.2898 32.2374 30.3875" stroke="#703D29" stroke-width="0.075"/>
<path d="M31.9375 30.05C32.4375 30.6875 32.725 31.0625 32.7375 31.8125C32.75 32.525 32.525 33.0125 32.1125 33.525" stroke="#703D29" stroke-width="0.075" stroke-linecap="round"/>
<path d="M41.725 21.6625C41.8163 21.5943 41.8823 21.4975 41.9125 21.3875C41.975 21.2 41.975 21.0375 41.8875 20.8875C42.0125 21.0625 42.0125 21.2 41.975 21.3875C41.9625 21.5125 41.875 21.575 41.775 21.675M48.2125 32.4375V34.4625L48.2 34.775C48.1893 34.8461 48.1768 34.917 48.1625 34.9875" stroke="#703D29" stroke-width="0.075"/>
<path d="M48.175 32.25V34.7375L48.1125 35.0625M48.175 29.6875V31.5125M48.2125 29.8375V31.3125M48.2125 27.9625V29.0625M48.175 27.825V29.2M48.2125 26.825V27.2625M48.175 26.7375V27.3625M47.95 35.5125L47.9 35.6C47.7757 35.8677 47.6018 36.1095 47.3875 36.3125C47.1743 36.5228 46.9243 36.6923 46.65 36.8125C46.3933 36.9417 46.1198 37.0342 45.8375 37.0875C45.5 37.1625 45.3125 37.1875 44.975 37.2C44.6625 37.2 44.4875 37.2 44.1875 37.175C43.85 37.15 43.675 37.1125 43.3375 37.075C43.0625 37.05 42.9125 37.0375 42.6375 37.0375C42.3625 37.0375 42.2 37.0375 41.925 37.0875C41.702 37.119 41.4837 37.1778 41.275 37.2625C40.9375 37.4 40.5625 37.6375 40.475 37.7375C40.4 37.6375 40.0125 37.4 39.6875 37.2625C39.4788 37.1778 39.2605 37.119 39.0375 37.0875C38.7625 37.0375 38.6 37.0375 38.3125 37.0375C38.0375 37.0375 37.8875 37.05 37.6125 37.075C37.2875 37.1125 37.1125 37.15 36.775 37.175C36.4625 37.2 36.2875 37.2125 35.9875 37.2C35.4048 37.1956 34.8297 37.0678 34.3 36.825C34.029 36.7 33.7832 36.5263 33.575 36.3125C33.461 36.205 33.3565 36.0879 33.2625 35.9625M33.0125 35.5625C33.033 35.7341 33.018 35.908 32.9686 36.0736C32.9191 36.2391 32.8362 36.3928 32.725 36.525C32.625 36.6375 32.4 36.85 32.1 36.85C31.6375 36.85 31.5 36.5375 31.475 36.45" stroke="#703D29" stroke-width="0.075"/>
<path d="M32.45 35.3625C32.5375 35.45 32.6125 35.55 32.6875 35.675C32.8125 35.9 32.7625 36.275 32.675 36.45C32.6634 36.4674 32.6509 36.4841 32.6375 36.5M30.1 38.75C30.3875 39.05 30.8125 39.375 31.4625 39.6375C32.35 40.0125 33.725 40.0875 34.675 40.1375C35.925 40.175 37.0875 40.225 37.8 41.0125M39.9625 40.5125C40.192 40.6887 40.3656 40.9274 40.4625 41.2M39.55 42.6375C39.5226 42.6684 39.4934 42.6976 39.4625 42.725C39.3509 42.8234 39.2195 42.8966 39.0772 42.9397C38.9348 42.9829 38.7849 42.9949 38.6375 42.975C38.3875 42.95 38.1625 42.775 38.1 42.65M37.425 42.2875L37.4625 42.3375C37.6287 42.5155 37.8569 42.6229 38.1 42.6375M41.475 42.6375C41.231 42.976 40.8978 43.24 40.5125 43.4C40.1307 43.2397 39.8016 42.9756 39.5625 42.6375L39.525 42.575M41.475 42.625L41.5625 42.7125C41.6755 42.8126 41.809 42.8868 41.9536 42.93C42.0983 42.9732 42.2506 42.9843 42.4 42.9625C42.5013 42.9508 42.5987 42.9166 42.6852 42.8626C42.7717 42.8085 42.845 42.7359 42.9 42.65L42.9625 42.5625" stroke="#703D29" stroke-width="0.075"/>
<path d="M42.8749 42.575L42.7874 42.725L42.6499 42.85L42.4374 42.9375H42.2374" stroke="#703D29" stroke-width="0.075"/>
<path d="M43.375 41.1625C43.5034 41.2567 43.6065 41.3812 43.6749 41.525C43.7124 41.6125 43.7249 41.7125 43.7374 41.8125C43.7424 41.9081 43.7284 42.0036 43.6962 42.0937C43.664 42.1838 43.6143 42.2667 43.5499 42.3375C43.4636 42.4306 43.3593 42.5052 43.2432 42.5568C43.1272 42.6084 43.0019 42.6358 42.875 42.6375C42.8583 42.6381 42.8416 42.6381 42.825 42.6375M42.8499 42.6125C42.7282 42.6159 42.6072 42.5931 42.4951 42.5457C42.3829 42.4982 42.2823 42.4272 42.2 42.3375M50.1624 33.85C49.9187 33.6191 49.7159 33.3486 49.5625 33.05C49.4678 32.8724 49.3964 32.6833 49.3499 32.4875C49.31 32.3536 49.289 32.2147 49.2874 32.075C49.2736 31.393 49.4748 30.7239 49.8624 30.1625C49.9499 30.0625 50.0375 29.9375 50.125 29.8875M49.9625 20.4C50.275 20.425 50.5625 20.775 50.5625 21.1125C50.5625 21.5875 50.4 21.8 50.0125 22.275C49.6875 22.675 48.6874 23.4 48.7249 24.0875C48.7249 24.2125 48.7874 24.3375 48.8624 24.4375M48.4625 24.875C48.5349 24.9475 48.6195 25.0068 48.7125 25.05C48.7992 25.0842 48.8924 25.0986 48.9855 25.0921C49.0785 25.0857 49.1688 25.0584 49.25 25.0125M46.625 19.625C46.7461 19.7045 46.8416 19.8174 46.9 19.95C47.125 20.5125 46.625 20.9375 46.15 21.25C45.8372 21.4593 45.4835 21.5999 45.1124 21.6625" stroke="#703D29" stroke-width="0.075"/>
<path d="M46.075 20.7C46.0008 20.6979 45.9279 20.6801 45.8611 20.6478C45.7943 20.6155 45.7351 20.5694 45.6875 20.5125C45.651 20.4765 45.6214 20.4341 45.6 20.3875M43.725 21C43.6682 20.9672 43.6175 20.9249 43.575 20.875C43.45 20.75 43.3875 20.5875 43.475 20.325C43.55 20.0875 43.9375 19.425 43.95 18.9625C43.975 18.2625 43.7 17.8375 43.2875 17.6875" stroke="#703D29" stroke-width="0.075"/>
<path d="M43.9124 18.8125L43.8999 19.0625L43.8249 19.3375L43.6999 19.7125L43.5749 19.95L43.4749 20.1875L43.4249 20.35L43.3999 20.475L43.4124 20.5875M48.1624 36.375L48.2374 36.475C48.3249 36.6 48.6374 36.85 48.9249 36.85C49.3874 36.85 49.4999 36.525 49.5124 36.45C49.5749 36.0875 49.4499 36 49.2624 35.8875C49.2624 35.8875 49.1624 35.8375 49.0249 35.8625" stroke="#703D29" stroke-width="0.075" stroke-linecap="round"/>
<path d="M30.125 34.8C29.9737 34.8421 29.8137 34.8421 29.6625 34.8C29.3 34.6875 29.0125 34.35 29.1625 33.925M30.8375 29.95C30.875 29.9875 30.8875 30.0375 30.8875 30.075C30.9375 30.55 30.5375 30.675 30.2625 30.6C30.1079 30.5505 29.9754 30.4489 29.8875 30.3125C29.8339 30.2259 29.8037 30.1268 29.8 30.025M32.55 27.075C32.625 27.1375 32.675 27.2 32.7125 27.2875M32.575 26.225C32.6375 26.275 32.6875 26.3375 32.7125 26.3875" stroke="#703D29" stroke-width="0.075"/>
<path d="M32.7375 26.8125C32.6884 26.9232 32.6208 27.0246 32.5375 27.1125C32.397 27.2652 32.2272 27.3882 32.0382 27.4741C31.8493 27.56 31.645 27.6071 31.4375 27.6125C31.1875 27.6125 30.9375 27.5625 30.6875 27.4C30.4392 27.2374 30.2608 26.9876 30.1875 26.7" stroke="#703D29" stroke-width="0.075" stroke-linecap="round"/>
<path d="M32.4249 24.9125C32.5616 25.0244 32.6653 25.1713 32.7249 25.3375" stroke="#703D29" stroke-width="0.075"/>
<path d="M32.7249 25.9C32.6124 26.275 32.2875 26.725 31.65 26.8875C31.35 26.9625 30.95 26.8625 30.825 26.7625" stroke="#703D29" stroke-width="0.075" stroke-linecap="round"/>
<path d="M30.5 25.825C30.5375 26.15 30.75 26.4 31.175 26.4C31.7625 26.4125 32.125 25.5625 31.6 24.9625" stroke="#703D29" stroke-width="0.075"/>
<path d="M29.1749 28.6875C29.2624 28.8 29.3624 28.9 29.4749 28.9875C29.694 29.175 29.9493 29.3155 30.2249 29.4M30.8749 29.4625C31.3999 29.4 31.6999 29 31.6249 28.55C31.5874 28.2 31.2749 27.925 31.0499 27.9125" stroke="#703D29" stroke-width="0.075" stroke-linecap="round"/>
<path d="M31.725 24.0125C31.9625 24.0125 32.1 24.2125 32.0875 24.3875" stroke="#703D29" stroke-width="0.075"/>
<path d="M31.6749 20.875C31.7919 21.1856 32.0127 21.4462 32.2999 21.6125M50.3249 25.4875C50.5374 25.775 50.3999 26.3625 49.8249 26.3625C49.7121 26.3637 49.6009 26.3355 49.5023 26.2807C49.4037 26.2259 49.321 26.1464 49.2624 26.05" stroke="#703D29" stroke-width="0.075" stroke-linecap="round"/>
<path d="M48.2124 21.6375V23.625" stroke="#703D29" stroke-width="0.075"/>
<path d="M30.975 25.7875C31.15 25.9125 31.3875 25.7 31.2875 25.4625C31.225 25.3125 31.0125 25.1375 30.7 25.35C30.35 25.5875 30.45 26.325 31.1 26.3375C31.6875 26.3375 32.05 25.4875 31.525 24.8875C31.025 24.3125 30.1125 24.4375 29.525 24.9125C29.0724 25.2878 28.7561 25.8018 28.625 26.375C28.5458 26.7542 28.5458 27.1458 28.625 27.525C28.6878 27.8589 28.8152 28.1774 29 28.4625L29.1625 28.675C29.2625 28.775 29.2875 28.825 29.4125 28.925C29.7712 29.2388 30.2361 29.4042 30.7125 29.3875C31.2875 29.3625 31.625 28.9625 31.5625 28.475C31.5125 28 31.0375 27.7625 30.725 27.9875C30.5125 28.1375 30.4375 28.6 30.8125 28.7125C31.0125 28.775 31.2 28.5 31.0625 28.3375M47.25 19.3625C47.5875 19.1875 47.85 19.2125 48.0375 19.4875C48.2176 19.7505 48.2892 20.0729 48.2375 20.3875C48.1891 20.676 48.0327 20.9353 47.8 21.1125" stroke="#703D29" stroke-width="0.075" stroke-linecap="round"/>
<path d="M48.0625 19.5C48.45 19.25 48.875 19.3625 49.1 19.7C49.2625 19.95 49.3125 20.15 49.3 20.4625C49.2881 20.6988 49.2165 20.9282 49.0919 21.1293C48.9673 21.3304 48.7938 21.4966 48.5875 21.6125" stroke="#703D29" stroke-width="0.075" stroke-linecap="round"/>
<path d="M49.875 20.4C50.2 20.425 50.45 20.7125 50.45 21.0375C50.45 21.5125 50.325 21.725 49.95 22.2C49.6125 22.6125 48.625 23.325 48.65 24.025C48.65 24.2875 48.875 24.525 49.0625 24.55" stroke="#703D29" stroke-width="0.075"/>
<path d="M49.9249 25.7875C49.7374 25.9125 49.5124 25.7125 49.6124 25.4875C49.6749 25.3375 49.8874 25.1375 50.1999 25.35C50.5374 25.5875 50.4499 26.325 49.7874 26.3375C49.1999 26.3375 48.7874 25.5125 49.3624 24.8875C49.8624 24.3125 50.8249 24.425 51.4249 24.9C51.6749 25.1 52.1874 25.65 52.2999 26.4C52.4249 27.275 52.4124 28.35 51.4999 29.025C51.1249 29.2875 50.6249 29.4125 50.1749 29.4C49.5999 29.375 49.2624 28.9625 49.3249 28.475C49.3874 28 49.8249 27.8 50.1624 27.9875C50.5124 28.175 50.4499 28.6625 50.0749 28.7125C49.8624 28.7375 49.6874 28.5 49.8249 28.3375" stroke="#703D29" stroke-width="0.075" stroke-linecap="round"/>
<path d="M49.6124 25.4875C49.7124 25.05 50.0749 25.0125 50.3874 25.0125C51.1999 25.025 51.7749 26.0125 51.7874 26.95C51.7874 28.1375 51.2874 28.85 50.4124 28.8875C50.1749 28.8875 49.7874 28.7875 49.7874 28.5125" stroke="#703D29" stroke-width="0.075"/>
<path d="M50.125 25.2875C50.9875 25.4875 51.2875 26.2625 51.2875 27.0125C51.2875 27.625 51.225 28.4625 50.0375 28.75" stroke="#703D29" stroke-width="0.075" stroke-linecap="square"/>
<path d="M51.55 33.6625C51.5639 33.5779 51.5552 33.4912 51.5249 33.411C51.4946 33.3308 51.4437 33.2601 51.3773 33.2058C51.3109 33.1516 51.2314 33.1158 51.1468 33.1021C51.0622 33.0884 50.9755 33.0973 50.8954 33.1278C50.8153 33.1583 50.7446 33.2094 50.6906 33.2759C50.6365 33.3425 50.601 33.4221 50.5875 33.5067C50.574 33.5914 50.5831 33.6781 50.6138 33.7581C50.6445 33.8381 50.6958 33.9086 50.7625 33.9625" stroke="#703D29" stroke-width="0.075"/>
<path d="M49.7999 32.925C49.9749 33.175 50.1749 33.4375 50.5874 33.675M50.4249 34.9875C50.0249 34.7125 49.2374 34.3625 48.5499 34.7125C48.4246 34.7602 48.3108 34.8338 48.216 34.9286C48.1212 35.0234 48.0476 35.1372 47.9999 35.2625C47.934 35.4633 47.92 35.6776 47.9594 35.8853C47.9987 36.0929 48.0901 36.2872 48.2249 36.45C48.3374 36.575 48.5624 36.775 48.8499 36.7875C49.3249 36.7875 49.4374 36.4625 49.4499 36.3875C49.4999 36.0375 49.2999 35.9 49.1999 35.875C49.1124 35.8375 48.8499 35.85 48.7999 36.0375C48.7749 36.1 48.7749 36.2 48.8249 36.2875" stroke="#703D29" stroke-width="0.075" stroke-linecap="round"/>
<path d="M43.0625 41.55C43.1875 41.825 43.0375 41.95 42.8625 41.975C42.5875 42.0125 42.45 41.8 42.4375 41.6C42.4324 41.5257 42.4425 41.4512 42.467 41.3809C42.4916 41.3106 42.5302 41.2461 42.5804 41.1911C42.6307 41.1362 42.6916 41.092 42.7594 41.0613C42.8272 41.0306 42.9006 41.014 42.975 41.0125C43.2625 41.0125 43.4875 41.2 43.6 41.45C43.6375 41.5375 43.6625 41.6375 43.6625 41.75C43.6726 41.937 43.6098 42.1207 43.4875 42.2625C43.4023 42.3579 43.2984 42.4348 43.1823 42.4886C43.0662 42.5423 42.9404 42.5717 42.8125 42.575C42.2875 42.5875 41.875 42.1 41.875 41.6C41.875 40.6375 43.3 40.1 43.875 39.975C44.6079 39.7949 45.3581 39.6943 46.1125 39.675C46.55 39.6625 46.8875 39.675 47.375 39.6125C47.8125 39.575 48.05 39.55 48.5 39.45C49.0863 39.3268 49.6297 39.0508 50.075 38.65C50.4375 38.3125 50.6375 38.0875 50.8125 37.625C50.9099 37.3404 50.9458 37.0383 50.9178 36.7388C50.8898 36.4393 50.7985 36.1491 50.65 35.8875C50.5125 35.6587 50.3255 35.4635 50.1027 35.3164C49.8799 35.1694 49.627 35.074 49.3625 35.0375C48.9 34.975 48.4875 35.175 48.2375 35.6375C48.1125 35.8625 48.1625 36.2375 48.25 36.4125C48.3114 36.5195 48.3983 36.6098 48.503 36.6752C48.6077 36.7406 48.7269 36.7792 48.85 36.7875C49.325 36.7875 49.4375 36.4625 49.45 36.3875C49.5 36.0375 49.3 35.9 49.2 35.8625C49.1125 35.8375 48.85 35.85 48.8 36.0375C48.775 36.1 48.775 36.2 48.825 36.2875" stroke="#703D29" stroke-width="0.075" stroke-linecap="round"/>
<path d="M42.65 40.025C42.05 40.2875 41.6 40.4875 41.225 41.0875C41.123 41.2753 41.0713 41.4863 41.075 41.7C41.075 42.0375 41.2125 42.4125 41.4875 42.65C41.6005 42.7501 41.734 42.8243 41.8787 42.8675C42.0233 42.9107 42.1756 42.9218 42.325 42.9C42.575 42.875 42.7875 42.7 42.825 42.575" stroke="#703D29" stroke-width="0.075" stroke-linecap="round"/>
<path d="M48.6374 28.5125C48.3499 28.6125 48.1499 29.0375 48.1499 29.45C48.1423 29.6366 48.1847 29.8219 48.2726 29.9867C48.3605 30.1515 48.4907 30.2898 48.6499 30.3875" stroke="#703D29" stroke-width="0.075"/>
<path d="M48.9499 30.05C48.4499 30.6875 48.1624 31.0625 48.1499 31.8125C48.1499 32.525 48.3624 33.0125 48.7874 33.525" stroke="#703D29" stroke-width="0.075" stroke-linecap="round"/>
<path d="M46.2374 19.5L46.2749 19.4375C46.4874 19.1375 46.8624 19.05 47.1374 19.25C47.4624 19.5 47.5499 19.925 47.4624 20.375C47.3999 20.65 47.2124 20.8875 46.9624 21.0625" stroke="#703D29" stroke-width="0.075"/>
<path d="M33.6375 19.35C33.3125 19.2 33.05 19.225 32.85 19.475C32.7528 19.6012 32.6845 19.7472 32.6499 19.9028C32.6154 20.0583 32.6154 20.2195 32.65 20.375C32.725 20.7125 32.825 20.85 33.0875 21.1" stroke="#703D29" stroke-width="0.075" stroke-linecap="round"/>
<path d="M32.8249 19.5C32.7447 19.442 32.6534 19.4011 32.5568 19.3797C32.4601 19.3583 32.3601 19.3569 32.2629 19.3756C32.1657 19.3944 32.0734 19.4328 31.9916 19.4886C31.9098 19.5444 31.8403 19.6163 31.7874 19.7C31.632 19.9222 31.5611 20.1926 31.5874 20.4625C31.6124 20.9875 31.9374 21.4125 32.3124 21.6125" stroke="#703D29" stroke-width="0.075"/>
<path d="M31.7124 19.85C31.509 19.8741 31.321 19.9708 31.1832 20.1224C31.0454 20.2739 30.967 20.4702 30.9624 20.675C30.9624 21.2375 31.0874 21.4625 31.3999 21.875C31.7124 22.3 32.7374 23.075 32.7374 23.9625C32.7374 24.5 32.5874 24.8375 32.1999 25.0125C31.9499 25.1375 31.6624 25.0125 31.5249 24.8875C31.1999 24.5875 31.3374 24.075 31.6749 24.0125C32.0874 23.9375 32.1624 24.5875 31.7624 24.55" stroke="#703D29" stroke-width="0.075"/>
<path d="M31 20.4C30.6875 20.425 30.375 20.6875 30.375 21.025C30.375 21.5 30.5625 21.725 30.95 22.2C31.275 22.6125 32.2125 23.325 32.1875 24.0125C32.1875 24.2625 32 24.5875 31.825 24.55" stroke="#703D29" stroke-width="0.075"/>
<path d="M30.25 30.0125C30.4125 29.65 30.8 29.8125 30.825 30.0125C30.875 30.475 30.475 30.6125 30.1875 30.5375C30.121 30.5196 30.0589 30.4882 30.0052 30.4451C29.9514 30.4021 29.9071 30.3484 29.875 30.2875C29.8363 30.2176 29.812 30.1407 29.8034 30.0613C29.7948 29.9819 29.8021 29.9015 29.825 29.825C29.8496 29.7518 29.8878 29.684 29.9375 29.625C29.9786 29.5668 30.0293 29.5161 30.0875 29.475C30.2125 29.4 30.325 29.4 30.5125 29.4C31.2 29.4 31.8125 30.2125 32.0125 31.075C32.0875 31.35 32.175 31.9875 32.05 32.575C31.9497 33.1059 31.6979 33.5965 31.325 33.9875C30.9686 34.3206 30.5412 34.5685 30.075 34.7125C29.917 34.7628 29.7479 34.7671 29.5875 34.725C29.2375 34.6125 29.0125 34.2875 29.1875 33.85C29.3375 33.525 29.8625 33.35 30.1 33.775C30.125 33.8125 30.15 33.8875 30.15 33.9625C30.15 34.075 30.1 34.2125 30.025 34.2625C29.85 34.375 29.5625 34.3375 29.575 34.0125" stroke="#703D29" stroke-width="0.075" stroke-linecap="round"/>
<path d="M29.725 34.3C29.85 34.35 29.925 34.3375 30.0875 34.275L30.3125 34.15C30.6375 33.9625 31.0125 33.675 31.3625 33.0125C31.4571 32.8349 31.5285 32.6458 31.575 32.45C31.6125 32.325 31.6375 32.175 31.65 32.0375C31.66 31.3522 31.4496 30.6818 31.05 30.125C30.9125 29.925 30.8 29.8125 30.525 29.8M29.3375 33.675C29.3216 33.5904 29.3284 33.5031 29.3571 33.422C29.3859 33.3408 29.4357 33.2688 29.5013 33.2131C29.567 33.1574 29.6462 33.1202 29.7309 33.105C29.8157 33.0899 29.9029 33.0975 29.9838 33.127C30.0646 33.1565 30.1362 33.2069 30.1913 33.2731C30.2464 33.3393 30.2829 33.4188 30.2973 33.5037C30.3116 33.5886 30.3032 33.6757 30.273 33.7563C30.2427 33.8369 30.1917 33.9081 30.125 33.9625" stroke="#703D29" stroke-width="0.075"/>
<path d="M29.5249 33.175C29.5455 33.068 29.6032 32.9718 29.6878 32.9032C29.7724 32.8346 29.8785 32.798 29.9874 32.8C30.1079 32.8033 30.2223 32.8534 30.3064 32.9398C30.3904 33.0262 30.4374 33.142 30.4374 33.2625C30.4384 33.3828 30.3937 33.4989 30.3124 33.5875" stroke="#703D29" stroke-width="0.075"/>
<path d="M30.4249 33.1625C30.6656 32.982 30.8609 32.748 30.9954 32.479C31.1299 32.2099 31.1999 31.9133 31.1999 31.6125C31.1999 31.1 30.9999 30.5625 30.7499 30.3625" stroke="#703D29" stroke-width="0.075"/>
<path d="M31.0874 32.925C30.8968 33.241 30.6248 33.5 30.2999 33.675" stroke="#703D29" stroke-width="0.075" stroke-linecap="round"/>
<path d="M32.3249 34.7125C32.1999 34.4375 31.9749 34.3125 31.5999 34.275C31.2249 34.2375 30.9124 34.3375 30.5749 34.5125C30.1696 34.6997 29.8268 34.9996 29.5874 35.3765C29.348 35.7533 29.2222 36.1911 29.2249 36.6375C29.2298 37.0459 29.3148 37.4493 29.4749 37.825C29.5874 38.025 29.8499 38.95 31.3874 39.575C32.4274 39.8991 33.5106 40.0635 34.5999 40.0625C35.8999 40.1125 37.0999 40.1625 37.7999 41.0125" stroke="#703D29" stroke-width="0.075"/>
<path d="M30.4624 34.9875C30.8749 34.7125 31.6499 34.3625 32.3499 34.7125C32.4714 34.7642 32.5814 34.8394 32.6736 34.9338C32.7659 35.0282 32.8385 35.1399 32.8874 35.2625C32.9534 35.4633 32.9673 35.6776 32.928 35.8853C32.8886 36.0929 32.7972 36.2872 32.6624 36.45C32.5499 36.575 32.3249 36.775 32.0374 36.7875C31.5624 36.7875 31.4499 36.4625 31.4374 36.3875C31.3874 36.0375 31.5874 35.9 31.6874 35.8625C31.7749 35.8375 32.0374 35.85 32.0874 36.0375C32.1124 36.1 32.1124 36.2 32.0624 36.2875" stroke="#703D29" stroke-width="0.075" stroke-linecap="round"/>
<path d="M32.0874 36.2125C32.1249 36.0875 32.1124 35.9375 31.9874 35.8C31.8924 35.7014 31.7682 35.636 31.6331 35.6135C31.498 35.5909 31.3593 35.6125 31.2374 35.675C31.1499 35.7375 31.0374 35.8 30.9374 35.95C30.8874 36 30.8124 36.0875 30.7874 36.15C30.6999 36.2875 30.6624 36.4 30.6624 36.4625C30.3499 37.3375 30.8499 38.2625 31.4749 38.6625C32.0249 39.0125 32.5749 39.1125 33.2749 39.1625C33.5874 39.2 33.7749 39.2 34.0874 39.225H35.2874C35.5872 39.2096 35.8876 39.2096 36.1874 39.225C36.5624 39.2625 36.8249 39.275 37.1374 39.325C37.3374 39.35 37.5749 39.3875 37.8124 39.45C37.8874 39.45 37.9624 39.475 38.0374 39.5L38.1874 39.5375C38.6374 39.675 39.0624 39.8375 39.4124 40.0625C39.5124 40.125 39.6374 40.1875 39.7249 40.275L39.8874 40.425C40.1374 40.675 40.3874 40.925 40.4374 41.2625V41.4625C40.4374 41.6875 40.2624 42 39.7749 42.0875" stroke="#703D29" stroke-width="0.075"/>
<path d="M37.8249 41.55C37.6999 41.825 37.8499 41.95 38.0249 41.975C38.2999 42.0125 38.4374 41.8 38.4624 41.6C38.4676 41.5247 38.4572 41.4491 38.4318 41.378C38.4065 41.3069 38.3668 41.2417 38.3152 41.1866C38.2636 41.1315 38.2012 41.0876 38.1319 41.0576C38.0627 41.0277 37.9879 41.0123 37.9124 41.0125C37.7767 41.0156 37.6449 41.0587 37.5337 41.1366C37.4225 41.2145 37.3368 41.3235 37.2874 41.45C37.2489 41.5455 37.2277 41.6471 37.2249 41.75C37.2149 41.937 37.2776 42.1207 37.3999 42.2625C37.4852 42.3579 37.589 42.4348 37.7051 42.4886C37.8212 42.5423 37.9471 42.5717 38.0749 42.575C38.5999 42.5875 39.0124 42.1 39.0124 41.6C39.0124 40.6375 37.5874 40.1 37.0124 39.975C36.2796 39.7949 35.5294 39.6943 34.7749 39.675C34.3374 39.6625 33.9999 39.675 33.5124 39.6125C33.0749 39.575 32.8374 39.55 32.3874 39.45C31.8056 39.3247 31.2668 39.0488 30.8249 38.65C30.4088 38.3419 30.1194 37.8924 30.0113 37.3861C29.9031 36.8797 29.9835 36.3513 30.2374 35.9C30.3736 35.6688 30.56 35.4713 30.7829 35.322C31.0057 35.1727 31.2594 35.0754 31.5249 35.0375C31.9999 34.975 32.3999 35.175 32.6499 35.6375C32.7749 35.8625 32.7249 36.2375 32.6374 36.4125C32.576 36.5195 32.4891 36.6098 32.3844 36.6752C32.2798 36.7406 32.1606 36.7792 32.0374 36.7875C31.5624 36.7875 31.4499 36.4625 31.4374 36.3875C31.3874 36.0375 31.5874 35.9 31.6874 35.8625C31.7749 35.8375 32.0374 35.85 32.0874 36.0375C32.1124 36.1 32.1124 36.2 32.0624 36.2875" stroke="#703D29" stroke-width="0.075"/>
<path d="M34.6624 19.5L34.6124 19.4375C34.3999 19.1375 34.0249 19.05 33.7499 19.25C33.4249 19.5 33.3374 19.925 33.4374 20.375C33.5078 20.6607 33.6872 20.9076 33.9374 21.0625" stroke="#703D29" stroke-width="0.075" stroke-linecap="round"/>
<path d="M46.3499 20.45C45.8499 21 45.3374 21.175 44.5874 21.2C44.3374 21.2 43.8999 21.125 43.6374 20.9375C43.4749 20.8125 43.2874 20.6125 43.3999 20.25C43.4749 20.0125 43.8624 19.35 43.8749 18.8875C43.9124 18.1875 43.6374 17.8 43.2124 17.65C42.4374 17.375 41.5874 18.15 41.0874 18.325C40.8249 18.4125 40.6874 18.425 40.4499 18.425C40.1999 18.425 40.0749 18.4125 39.7999 18.325C39.2999 18.15 38.4624 17.375 37.6749 17.65C37.2499 17.8 36.9874 18.1875 37.0124 18.9C37.0249 19.35 37.4124 20.025 37.4874 20.25C37.6124 20.6125 37.4249 20.8125 37.2499 20.9375C36.9999 21.125 36.5374 21.2 36.3124 21.1875C35.5624 21.175 35.0499 21 34.5499 20.45" stroke="#703D29" stroke-width="0.075"/>
<path d="M37.6625 39.8C37.7625 39.8375 37.6875 39.775 38.325 40.05C38.9072 40.2521 39.4046 40.6439 39.7375 41.1625C39.8838 41.4432 39.9237 41.7672 39.85 42.075" stroke="#703D29" stroke-width="0.075" stroke-linecap="round"/>
<path d="M37.7124 42.5C37.8364 42.5651 37.9727 42.6034 38.1124 42.6125C38.6374 42.625 39.0499 42.1375 39.0499 41.6375C39.0499 41.2875 38.8624 40.9875 38.5999 40.7625" stroke="#703D29" stroke-width="0.075"/>
<path d="M37.8249 41.55C37.6999 41.8375 37.8749 41.9875 38.0499 42.0125C38.3249 42.0375 38.4749 41.8375 38.4999 41.6375C38.5075 41.5331 38.4857 41.4286 38.4372 41.3358C38.3886 41.2431 38.3151 41.1657 38.2249 41.1125" stroke="#703D29" stroke-width="0.075" stroke-linecap="round"/>
<path d="M49.2625 19.85C49.6625 19.85 50.0125 20.3 50.0125 20.75C50.0125 21.2875 49.7375 21.6125 49.525 21.85C49.3625 22.05 49.1875 22.225 48.975 22.4375" stroke="#703D29" stroke-width="0.075"/>
<path d="M48.7875 19.425C48.9236 19.4998 49.0428 19.6019 49.1375 19.725C49.3 19.975 49.35 20.1875 49.3375 20.5C49.3125 21.025 48.9375 21.3875 48.5875 21.625M48 19.425L48.075 19.5125C48.3125 19.7875 48.325 20.1875 48.275 20.4125C48.2469 20.5518 48.1902 20.6837 48.1084 20.7999C48.0267 20.9161 47.9216 21.0141 47.8 21.0875M47.175 19.2875C47.5 19.5375 47.6 19.9625 47.4875 20.4125C47.4125 20.725 47.2125 20.9125 46.9625 21.0625M48.35 26.2C48.3875 26.325 48.4625 26.3625 48.5375 26.45C48.752 26.6626 49.0197 26.8136 49.3125 26.8875C49.6125 26.975 49.8875 26.9125 50.1 26.775M29.725 33.525C29.875 33.525 30.0375 33.6375 30.1375 33.8125C30.15 33.8375 30.1875 33.9125 30.1875 34C30.1875 34.1125 30.1375 34.225 30.0625 34.275C29.875 34.4 29.5625 34.3375 29.5625 34.025" stroke="#703D29" stroke-width="0.075" stroke-linecap="round"/>
<path d="M30.6874 29.4125C31.3124 29.5375 31.8999 30.275 32.0874 31.075C32.1624 31.3625 32.2499 31.9875 32.1249 32.575C32.0199 33.1132 31.7591 33.6087 31.3749 34C31.2944 34.0865 31.2066 34.166 31.1124 34.2375L30.9874 34.325M29.9874 32.8125C30.2374 32.8125 30.4624 33.05 30.4624 33.3125C30.4634 33.4328 30.4187 33.5489 30.3374 33.6375" stroke="#703D29" stroke-width="0.075"/>
<path d="M29.825 33.0875C30.0875 33.0875 30.3375 33.3375 30.3375 33.6125C30.3376 33.684 30.322 33.7547 30.2917 33.8195C30.2615 33.8843 30.2173 33.9417 30.1625 33.9875" stroke="#703D29" stroke-width="0.075"/>
<path d="M32.2499 30.4375C32.4836 30.7153 32.6465 31.0455 32.7249 31.4M32.7249 32.4625C32.6833 32.6363 32.6203 32.8042 32.5374 32.9625C32.4212 33.1821 32.2691 33.3807 32.0874 33.55" stroke="#703D29" stroke-width="0.075" stroke-linecap="round"/>
<path d="M32.2875 28.5375C32.5125 28.725 32.6625 28.9125 32.725 29.1375" stroke="#703D29" stroke-width="0.075"/>
<path d="M32.7375 27.9375C32.6548 28.1665 32.5071 28.3663 32.3125 28.5125M31.1625 26.3625L31.4375 26.2875L31.6 26.1625L31.7 26.025L31.7875 25.8L31.825 25.6125" stroke="#703D29" stroke-width="0.075" stroke-linecap="round"/>
<path d="M30.6249 25.4125C30.5374 25.4375 30.4249 25.4625 30.3124 25.5125C30.1365 25.5974 29.9857 25.7266 29.8749 25.8875C29.5784 26.3601 29.4796 26.9303 29.5999 27.475C29.6497 27.7247 29.7473 27.9624 29.8874 28.175L30.0124 28.35C30.1874 28.5125 30.3374 28.6 30.5874 28.5625" stroke="#703D29" stroke-width="0.075"/>
<path d="M32.125 24.225C32.0875 24.3875 32 24.5875 31.75 24.5625" stroke="#703D29" stroke-width="0.075" stroke-linecap="round"/>
<path d="M31.2125 25.3125C30.9625 25.075 30.4625 25.0125 29.95 25.3375L29.75 25.5C29.6838 25.5594 29.625 25.6265 29.575 25.7C29.4424 25.8911 29.3411 26.102 29.275 26.325C29.1875 26.7 29.1875 27.025 29.2 27.1125C29.2 27.2375 29.225 27.35 29.2375 27.45C29.3125 27.8 29.4125 28.05 29.525 28.225C29.6375 28.4125 29.9 28.85 30.4875 28.9C30.7125 28.9125 31.0875 28.8125 31.1125 28.525" stroke="#703D29" stroke-width="0.075"/>
<path d="M45.975 20.125C46.0125 19.925 46.2625 19.8875 46.35 20C46.5 20.2 46.4 20.525 46.1 20.6125C46.0124 20.6282 45.9222 20.6203 45.8387 20.5896C45.7552 20.5588 45.6814 20.5063 45.625 20.4375C45.5 20.275 45.5125 20.0875 45.5625 19.9375C45.5875 19.8375 45.675 19.75 45.775 19.6625C46.1125 19.4125 46.6625 19.4625 46.85 19.9125C47.075 20.4625 46.575 20.8875 46.1 21.2C45.525 21.6 44.85 21.675 44.35 21.6625C43.2 21.6625 42.3375 21.1125 41.7625 20.7875C41.6375 20.725 41.5 20.7375 41.425 20.825C41.3876 20.8756 41.3707 20.9385 41.3776 21.0011C41.3846 21.0637 41.4149 21.1213 41.4625 21.1625" stroke="#703D29" stroke-width="0.075" stroke-linecap="round"/>
<path d="M46.2 19.9375C46.325 19.9375 46.35 19.9875 46.3875 20.0375C46.5375 20.225 46.425 20.55 46.1375 20.65M48.3624 27.0875C47.9249 27.5625 48.3374 28.375 48.6624 28.5625C48.7749 28.65 48.8249 28.6 48.9124 28.65" stroke="#703D29" stroke-width="0.075" stroke-linecap="round"/>
<path d="M48.3874 26.175C48.2499 26.275 48.1999 26.3875 48.1874 26.5875C48.1806 26.6784 48.1927 26.7697 48.2228 26.8558C48.2529 26.9418 48.3004 27.0207 48.3624 27.0875C48.6797 27.3797 49.0937 27.5444 49.5249 27.55C49.7749 27.55 50.0249 27.5 50.2749 27.3375C50.5131 27.1808 50.6828 26.9396 50.7499 26.6625M48.1499 34.3875L48.1249 34.7C48.0991 35.0051 48.0142 35.3023 47.8749 35.575C47.7455 35.8393 47.5674 36.0768 47.3499 36.275C47.1367 36.4854 46.8868 36.6548 46.6124 36.775C46.3564 36.9085 46.0829 37.0053 45.7999 37.0625C45.2569 37.1708 44.7006 37.1961 44.1499 37.1375C43.8124 37.1125 43.6374 37.075 43.2999 37.0375C43.0249 37.025 42.8749 37 42.5999 37C42.1346 36.9888 41.6715 37.0695 41.2374 37.2375C40.8999 37.3625 40.5249 37.6125 40.4374 37.7125C40.3624 37.6 39.9749 37.3625 39.6499 37.2375C39.4418 37.1485 39.2235 37.0855 38.9999 37.05C38.7249 37 38.5624 37 38.2749 37C37.9999 37 37.8499 37.025 37.5749 37.05C37.2499 37.075 37.0749 37.125 36.7374 37.1375C36.4249 37.1625 36.2499 37.175 35.9499 37.1625C35.6555 37.1605 35.3622 37.127 35.0749 37.0625C34.7926 37.0092 34.5191 36.9167 34.2624 36.7875C33.9916 36.6623 33.7459 36.4886 33.5374 36.275C33.3187 36.0731 33.1405 35.8313 33.0124 35.5625C32.875 35.2935 32.7902 35.0008 32.7624 34.7C32.7374 34.575 32.7374 34.3875 32.7374 34.3875V21.6625H48.1374V34.3875H48.1499Z" stroke="#703D29" stroke-width="0.075"/>
<path d="M31.5 36.2C31.5 36.1171 31.5329 36.0376 31.5915 35.979C31.6501 35.9204 31.7296 35.8875 31.8125 35.8875C31.8954 35.8875 31.9749 35.9204 32.0335 35.979C32.0921 36.0376 32.125 36.1171 32.125 36.2C32.125 36.2829 32.0921 36.3624 32.0335 36.421C31.9749 36.4796 31.8954 36.5125 31.8125 36.5125C31.7296 36.5125 31.6501 36.4796 31.5915 36.421C31.5329 36.3624 31.5 36.2829 31.5 36.2ZM29.5625 34C29.5625 33.8375 29.6625 33.7125 29.7875 33.7125C29.9125 33.7125 30 33.8375 30 34C30 34.15 29.9 34.275 29.7875 34.275C29.6625 34.275 29.5625 34.15 29.5625 34Z" fill="#C7B37F" stroke="#C7B37F" stroke-width="0.0375"/>
<path d="M30.6625 28.45C30.6625 28.325 30.7625 28.225 30.875 28.225C31 28.225 31.0875 28.325 31.0875 28.45C31.0875 28.575 31 28.675 30.875 28.675C30.75 28.675 30.6625 28.575 30.6625 28.45ZM34.5 20.25C34.5 20.125 34.5625 20 34.675 20C34.7875 19.9875 34.8875 20.075 34.9 20.2C34.9 20.325 34.8375 20.45 34.725 20.45C34.6125 20.4625 34.525 20.375 34.5 20.25Z" fill="#C7B37F"/>
<path d="M30.4124 29.75C30.3624 29.7625 30.3374 29.775 30.3124 29.8125C30.2749 29.85 30.2624 29.8625 30.2374 29.925L30.2124 30.075M30.7999 33.4125L30.9249 33.2875L30.9999 33.1625L31.0624 33.0375L31.1499 32.875M30.9874 34.625L30.7999 34.7125L30.6624 34.7875C30.6068 34.8184 30.5526 34.8518 30.4999 34.8875L30.3499 35.0125M32.2249 30.275L32.1249 30.175L31.9999 30.075L31.8874 29.975" stroke="#C7B37F" stroke-width="0.075" stroke-linecap="round"/>
<path d="M32.2749 28.625L32.1249 28.6875C32.0646 28.7094 32.0014 28.722 31.9374 28.725" stroke="#C7B37F" stroke-width="0.075"/>
<path d="M30.1749 26.55C30.1999 26.625 30.1999 26.675 30.2374 26.7375C30.2624 26.825 30.2999 26.875 30.3499 26.95C30.4311 27.0858 30.5423 27.2013 30.6749 27.2875L30.8624 27.3875M30.7374 26.6625L30.8999 26.7375C31.0183 26.7883 31.1461 26.8139 31.2749 26.8125L31.4999 26.8M32.3999 21.7125L32.1499 21.5625C32.0374 21.5 31.9874 21.45 31.8999 21.375C31.8492 21.3252 31.8032 21.2708 31.7624 21.2125L31.6624 21.05M32.5999 20.475L32.6749 20.6875C32.7198 20.7795 32.7788 20.8639 32.8499 20.9375C32.9749 21.0625 33.0624 21.1 33.1999 21.2125M33.3749 20.4625C33.4124 20.55 33.4124 20.5875 33.4624 20.6625C33.4874 20.725 33.5124 20.7625 33.5624 20.8125L33.7249 20.975C33.8124 21.05 33.8749 21.0625 33.9749 21.1125" stroke="#C7B37F" stroke-width="0.075" stroke-linecap="round"/>
<path d="M42.1625 19.45C42.1625 19.2375 41.95 19.225 41.8625 19.225C41.6375 19.225 41.575 19.3625 41.2875 19.5125C41.0397 19.6778 40.7479 19.7649 40.45 19.7625C40.1522 19.7642 39.8606 19.6771 39.6125 19.5125C39.325 19.3625 39.275 19.225 39.0375 19.225C38.9997 19.2266 38.9626 19.2356 38.9284 19.2516C38.8941 19.2676 38.8633 19.2901 38.8378 19.318C38.8122 19.3458 38.7924 19.3785 38.7795 19.414C38.7666 19.4495 38.7608 19.4872 38.7625 19.525V19.6375L38.8 19.6625C38.8 19.5625 38.8125 19.5125 38.8625 19.45C38.887 19.4203 38.9174 19.396 38.9519 19.3788C38.9863 19.3615 39.024 19.3517 39.0625 19.35C39.2875 19.35 39.375 19.5 39.6625 19.65C40.0375 19.85 40.1875 19.8875 40.5 19.9C40.802 19.9042 41.0983 19.817 41.35 19.65C41.6375 19.5 41.725 19.3375 41.95 19.3375C42.025 19.3375 42.075 19.3875 42.1125 19.4625V19.575L42.1375 19.5875C42.1375 19.55 42.1625 19.5375 42.1625 19.4625V19.45Z" fill="#703D29" stroke="#703D29" stroke-width="0.025"/>
<path d="M33.55 37.25C33.6125 37.1875 33.6625 37.2125 33.675 37.175C33.675 37.15 33.6751 37.15 33.6376 37.1375L33.5251 37.1125L33.425 37.0625C33.4125 37.0625 33.375 37.0375 33.3625 37.0625C33.35 37.1125 33.4875 37.1125 33.4375 37.2375C33.4144 37.2936 33.3804 37.3445 33.3376 37.3875L33.0126 37.7625L32.9875 37.775V37.2375L33 37.0125C33.025 36.9625 33.1 37.0125 33.1125 36.9625C33.1125 36.95 33.1126 36.9375 33.0751 36.925C33.0501 36.925 33.0125 36.925 32.9375 36.8875L32.8125 36.825C32.7875 36.825 32.75 36.8 32.7375 36.825L32.75 36.8625C32.8 36.8875 32.8125 36.9125 32.8125 36.9875V37.9125C32.8125 37.975 32.8251 37.9875 32.8376 38C32.8501 38 32.8626 38 32.8876 37.9625L33.55 37.25Z" fill="#703D29"/>
<path d="M33.9375 37.4C33.975 37.2625 34.0625 37.35 34.0625 37.3C34.075 37.275 34.0625 37.275 34.0375 37.2625L33.875 37.2125C33.825 37.2125 33.775 37.175 33.725 37.1625C33.725 37.1625 33.6875 37.15 33.675 37.1625C33.6625 37.225 33.8126 37.225 33.7751 37.35L33.5625 38.0375C33.525 38.1625 33.4375 38.1125 33.425 38.1625V38.175L33.5751 38.225L33.7751 38.2875H33.8125C33.8375 38.2375 33.6625 38.25 33.725 38.075L33.9375 37.4ZM34.4001 37.525C34.4251 37.45 34.4626 37.4625 34.5126 37.475C34.6376 37.5125 34.6876 37.6375 34.6376 37.7875C34.6126 37.8625 34.5876 37.9375 34.3876 37.8875C34.3501 37.875 34.3 37.8625 34.3125 37.825L34.4001 37.5375V37.525ZM34.05 38.15C33.9875 38.325 33.9001 38.25 33.8876 38.3C33.8876 38.325 33.9125 38.325 33.925 38.3375L34.125 38.3875L34.225 38.425H34.2751C34.2876 38.3625 34.15 38.3875 34.1875 38.2375L34.2626 37.9875C34.2751 37.9375 34.2751 37.925 34.3376 37.95C34.4126 37.9625 34.425 37.9875 34.4375 38.05L34.475 38.3C34.5 38.4125 34.5125 38.5125 34.6 38.55C34.6625 38.55 34.7501 38.55 34.7751 38.5L34.75 38.475H34.7126C34.7126 38.475 34.675 38.475 34.675 38.4375L34.5876 37.9875C34.5876 37.9625 34.6375 37.9625 34.6875 37.95C34.7187 37.9333 34.7459 37.9102 34.7675 37.8822C34.789 37.8542 34.8044 37.8219 34.8125 37.7875C34.825 37.725 34.8626 37.5125 34.5876 37.425L34.3251 37.3625L34.175 37.3125H34.1376C34.1251 37.375 34.275 37.3625 34.225 37.525L34.0375 38.15H34.05ZM35.1 38.4625C35.05 38.6375 34.925 38.525 34.9125 38.5875C34.9125 38.6125 34.9251 38.625 34.9501 38.625L35.1376 38.6625L35.3125 38.7125C35.35 38.7125 35.3751 38.7375 35.3876 38.7C35.3876 38.6625 35.2251 38.6625 35.2626 38.475L35.425 37.825C35.425 37.75 35.45 37.75 35.5 37.7625L35.625 37.7875C35.7625 37.825 35.6875 37.975 35.75 37.9875C35.775 37.9875 35.7751 37.9375 35.7751 37.9125L35.7875 37.7875V37.7375L35.375 37.65L34.975 37.55C34.9625 37.55 34.9501 37.55 34.9501 37.575L34.8876 37.7625C34.8751 37.775 34.8626 37.8125 34.8876 37.8125C34.9501 37.825 34.95 37.625 35.1 37.6625L35.2126 37.6875C35.2626 37.7 35.2751 37.7125 35.2626 37.7875L35.1 38.4625ZM36.6875 38.05C36.7375 37.975 36.7875 37.9875 36.8 37.9625C36.8 37.9375 36.775 37.9375 36.75 37.925H36.6376L36.5251 37.8875C36.5126 37.8875 36.475 37.875 36.475 37.9C36.4625 37.95 36.6001 37.925 36.5751 38.0625C36.5751 38.0875 36.5625 38.1375 36.5 38.225L36.25 38.6375L36.2126 38.6625V38.6375L36.125 38.1375C36.1083 38.0637 36.1041 37.9877 36.1125 37.9125C36.1125 37.85 36.2001 37.8875 36.2001 37.85C36.2001 37.825 36.2001 37.825 36.1501 37.8125L36.0126 37.8C35.9626 37.8 35.9251 37.775 35.8876 37.7625C35.8626 37.7625 35.825 37.75 35.8125 37.775L35.8251 37.8C35.8876 37.825 35.9 37.85 35.9125 37.9125L36.0751 38.825C36.0876 38.8875 36.1 38.9125 36.1125 38.9125C36.125 38.9125 36.1375 38.9125 36.1625 38.875L36.6875 38.05ZM36.7626 38.9C36.7626 38.9375 36.7625 38.9375 36.7875 38.9625C36.8625 38.9875 36.9125 39.0375 37 39.05C37.175 39.075 37.325 38.9625 37.35 38.775C37.3875 38.5875 37.3125 38.5125 37.175 38.4125C37.0125 38.3 36.9501 38.275 36.9626 38.1625C36.9751 38.075 37.0501 38.0375 37.1376 38.0375C37.3626 38.075 37.3375 38.3625 37.3625 38.3625C37.4 38.3625 37.4001 38.35 37.4001 38.3125L37.425 38.1125V38.0625H37.35C37.3 38.0625 37.2626 38 37.1501 37.975C37.0001 37.95 36.8626 38.0625 36.8376 38.225C36.8126 38.375 36.8875 38.45 36.9875 38.525C37.1875 38.6625 37.2625 38.7 37.2375 38.825C37.225 38.95 37.1251 39 37.0251 38.9875C36.8751 38.9625 36.825 38.8125 36.8 38.6625C36.8 38.6375 36.8001 38.625 36.7751 38.625C36.7501 38.625 36.75 38.6625 36.75 38.6875V38.9H36.7626ZM38.7375 38.3375C38.775 38.25 38.8376 38.2625 38.8376 38.225C38.8376 38.2 38.825 38.2125 38.7875 38.2H38.675L38.5625 38.1875C38.55 38.1875 38.5126 38.1875 38.5126 38.2125C38.5126 38.2625 38.6376 38.2125 38.6376 38.35C38.6376 38.375 38.6251 38.425 38.5751 38.525L38.35 38.9625L38.3376 39L38.3251 38.9625L38.1875 38.4625C38.165 38.3981 38.1524 38.3307 38.1501 38.2625C38.1501 38.2 38.2375 38.225 38.2375 38.1875C38.2375 38.1625 38.2375 38.1625 38.1875 38.1625H38.0375L37.9125 38.1375C37.8875 38.1375 37.8501 38.125 37.8376 38.15L37.8625 38.175C37.9125 38.2 37.9376 38.2125 37.9501 38.275L38.2126 39.1625L38.2626 39.25C38.2751 39.25 38.2875 39.25 38.3 39.2L38.7375 38.325V38.3375Z" fill="#703D29"/>
<path d="M38.9501 39.0625C38.9501 39.2125 38.8251 39.1875 38.8251 39.25C38.8251 39.275 38.8375 39.2625 38.8625 39.2625H39.1376L39.1875 39.25C39.1875 39.175 39.0126 39.275 39.0126 39V38.475L39.0251 38.4625L39.05 38.475L39.6875 39.2625L39.725 39.275L39.75 39.2375V38.4C39.75 38.2375 39.875 38.275 39.875 38.2375C39.875 38.2375 39.8751 38.2125 39.8376 38.2125H39.55C39.525 38.2125 39.5251 38.225 39.5251 38.2375C39.5251 38.2875 39.6875 38.2625 39.6875 38.4V38.9L39.675 38.95L39.625 38.9125L39.1 38.25C39.075 38.2125 39.0875 38.2125 39.05 38.2125H38.8251L38.8 38.225C38.8 38.3 38.9501 38.2 38.9501 38.4875V39.0625ZM40.25 38.375C40.25 38.2375 40.35 38.2875 40.35 38.2375C40.35 38.225 40.35 38.2125 40.3 38.2125H39.975C39.975 38.2125 39.9375 38.2125 39.9375 38.2375C39.9375 38.2875 40.0751 38.2375 40.0751 38.3875V39.1C40.0751 39.2375 39.975 39.2 39.975 39.25C39.975 39.25 39.975 39.275 40 39.275H40.35C40.375 39.275 40.3876 39.275 40.3876 39.25C40.3876 39.2 40.2375 39.275 40.2375 39.0875L40.25 38.375ZM40.8125 39.0625C40.8125 39.25 40.6625 39.1875 40.6625 39.2375C40.6625 39.2625 40.6876 39.2625 40.7126 39.2625H41.0876C41.1251 39.2625 41.1501 39.2625 41.1501 39.225C41.1501 39.1875 40.975 39.225 40.975 39.05V38.375C40.975 38.3 40.975 38.3 41.0375 38.3H41.1625C41.3125 38.2875 41.2626 38.45 41.3251 38.45C41.3501 38.45 41.3376 38.4 41.3376 38.375L41.3251 38.25C41.3251 38.225 41.325 38.2 41.3 38.2L40.8876 38.2125H40.475L40.4501 38.25L40.4375 38.45L40.4501 38.5C40.5126 38.5 40.475 38.3 40.625 38.3H40.7375C40.7875 38.3 40.8 38.3 40.8125 38.375V39.075V39.0625ZM41.6 38.7875H41.55L41.5625 38.725L41.6501 38.45V38.425L41.675 38.4375L41.8 38.7L41.8251 38.75C41.8251 38.775 41.8001 38.775 41.7751 38.775H41.6V38.7875ZM41.8251 38.85C41.8626 38.85 41.8625 38.85 41.925 38.975L41.9501 39.075C41.9501 39.1625 41.8625 39.15 41.8625 39.2C41.8625 39.2125 41.8875 39.2125 41.9125 39.2H42.0625L42.225 39.1875C42.2625 39.1875 42.2751 39.1875 42.2751 39.1625C42.2751 39.1125 42.2001 39.1625 42.1501 39.075L41.725 38.2L41.6875 38.15C41.6625 38.15 41.6626 38.175 41.6501 38.2L41.375 39.125C41.35 39.2125 41.275 39.2125 41.2875 39.25H41.5751C41.6001 39.2375 41.6376 39.25 41.6376 39.2125C41.6376 39.175 41.4875 39.2125 41.475 39.1L41.5 38.975C41.525 38.875 41.5501 38.875 41.5751 38.875L41.8376 38.85H41.8251ZM42.8625 38.225C42.85 38.125 42.8626 38.125 43.0126 38.1C43.2626 38.075 43.1876 38.2625 43.2626 38.25C43.2876 38.25 43.2626 38.2 43.2626 38.175L43.25 38.0375C43.25 38.025 43.2376 38.0125 43.2126 38.0125C43.0876 38.0125 43 38.0375 42.9125 38.05L42.5625 38.1C42.5375 38.1 42.5251 38.1 42.5251 38.125C42.5376 38.1875 42.6876 38.125 42.7001 38.25L42.7875 38.9375C42.8125 39.125 42.7001 39.0625 42.7126 39.125C42.7126 39.125 42.7125 39.1375 42.7375 39.125L42.9125 39.1125L43.0625 39.1C43.1 39.1 43.125 39.1 43.125 39.0625C43.125 39.025 42.9751 39.075 42.9501 38.9125L42.925 38.7C42.9125 38.6125 42.9126 38.5875 42.9626 38.575H43.0625C43.2 38.55 43.1875 38.7125 43.225 38.7C43.2625 38.7 43.25 38.65 43.2375 38.6375L43.2001 38.375C43.2001 38.3375 43.175 38.3375 43.175 38.3375C43.1375 38.3375 43.1625 38.475 43.05 38.4875L42.9626 38.5C42.9001 38.5125 42.9001 38.5 42.8876 38.4375L42.8625 38.225ZM43.3625 38.575C43.4125 38.8625 43.6251 39.0375 43.8876 38.9875C44.3126 38.9 44.325 38.5375 44.2875 38.325C44.225 38.0125 44 37.8625 43.7375 37.9125C43.425 37.975 43.3 38.25 43.3625 38.575ZM43.5 38.45C43.4625 38.25 43.5001 38.025 43.7126 37.9875C43.8876 37.95 44.0876 38.0875 44.1376 38.4125C44.1751 38.6625 44.1375 38.8625 43.9125 38.9125C43.675 38.9625 43.5375 38.6625 43.5 38.4625V38.45ZM44.5375 37.9375C44.525 37.85 44.5625 37.8375 44.6125 37.825C44.7375 37.8 44.8375 37.8875 44.875 38.025C44.9 38.1125 44.9126 38.2 44.7126 38.25C44.6751 38.25 44.625 38.2625 44.6125 38.225L44.55 37.9375H44.5375ZM44.5375 38.65C44.5875 38.825 44.475 38.8125 44.475 38.85C44.4875 38.8875 44.5126 38.875 44.5251 38.8625C44.6001 38.8625 44.65 38.825 44.725 38.8125L44.85 38.7875C44.875 38.7875 44.875 38.775 44.875 38.7625C44.875 38.7125 44.7501 38.8 44.7126 38.6375L44.6501 38.3875C44.6501 38.3375 44.6251 38.3375 44.7001 38.325C44.7626 38.3 44.7876 38.3125 44.8376 38.3625L45 38.5625C45.0625 38.6375 45.125 38.725 45.225 38.7C45.2875 38.6875 45.35 38.6375 45.35 38.5875L45.3251 38.575L45.2875 38.5875C45.2875 38.5875 45.25 38.6 45.2375 38.5875L44.9375 38.225L45 38.15C45.025 38.1 45.0501 38.0375 45.0251 37.95C45.0126 37.8875 44.9376 37.6875 44.6501 37.75L44.3876 37.825L44.2375 37.85C44.2125 37.85 44.2001 37.8625 44.2126 37.875C44.2126 37.9375 44.3501 37.85 44.3876 38L44.5375 38.65ZM45.625 38.4C45.6625 38.575 45.5001 38.55 45.5126 38.6C45.5126 38.6375 45.5501 38.625 45.5751 38.625L45.75 38.5625L45.9375 38.525C45.975 38.525 46 38.525 45.9875 38.475C45.9875 38.4375 45.8251 38.525 45.7751 38.35L45.6125 37.6875C45.5875 37.625 45.6126 37.6125 45.6501 37.6L45.7751 37.575C45.9126 37.525 45.9126 37.7 45.9626 37.6875C46.0001 37.6875 45.9626 37.625 45.9626 37.6L45.9125 37.475C45.9125 37.475 45.9126 37.4375 45.8876 37.45L45.4875 37.5625L45.0876 37.65V37.6875L45.1 37.8875C45.1 37.9125 45.1001 37.9375 45.1376 37.9375C45.2001 37.925 45.1001 37.7375 45.2626 37.7L45.3625 37.675C45.4125 37.6625 45.4376 37.675 45.4501 37.7375L45.625 38.4ZM46.3125 37.4875C46.275 37.3625 46.3875 37.375 46.3625 37.325H46.3251L46.1501 37.375L46 37.4125C46 37.4125 45.9626 37.4125 45.9626 37.4375C45.9751 37.4875 46.1126 37.4125 46.1501 37.5375L46.35 38.2375C46.375 38.3625 46.275 38.3625 46.2875 38.4C46.2875 38.4125 46.2875 38.425 46.3125 38.4125L46.4501 38.375L46.6501 38.325C46.6876 38.325 46.6875 38.3125 46.6875 38.2875C46.675 38.25 46.55 38.35 46.5 38.175L46.3125 37.4875ZM46.6 37.825C46.6875 38.1125 46.925 38.25 47.1875 38.1625C47.5875 38.025 47.5625 37.65 47.4875 37.45C47.3875 37.15 47.1376 37.0375 46.8876 37.1125C46.5876 37.225 46.4875 37.5125 46.6 37.825ZM46.725 37.7C46.65 37.4875 46.65 37.2625 46.8625 37.2C47.025 37.1375 47.2375 37.25 47.35 37.5625C47.425 37.7875 47.4126 38.0125 47.2001 38.0875C46.9751 38.1625 46.8 37.9 46.725 37.6875V37.7ZM47.675 37.0125C47.65 36.925 47.675 36.9125 47.725 36.8875C47.85 36.85 47.9751 36.925 48.0251 37.0625C48.0501 37.1375 48.0751 37.225 47.8876 37.3C47.8501 37.3 47.8 37.325 47.7875 37.3L47.675 37.0125ZM47.7751 37.7125C47.8501 37.8875 47.725 37.8875 47.75 37.925C47.75 37.9625 47.775 37.9375 47.8 37.9375L47.9875 37.85L48.1 37.825C48.125 37.8125 48.125 37.8 48.125 37.7875C48.1 37.7375 48.0001 37.8375 47.9501 37.6875L47.85 37.45C47.825 37.4 47.8251 37.3875 47.8876 37.3625C47.9501 37.3375 47.9751 37.35 48.0251 37.4L48.225 37.575C48.2875 37.6375 48.3625 37.7125 48.475 37.675C48.5125 37.65 48.5875 37.5875 48.5625 37.55L48.5375 37.5375L48.5126 37.5625H48.4501L48.1 37.25L48.1501 37.1625C48.1638 37.131 48.1709 37.0969 48.1709 37.0625C48.1709 37.0281 48.1638 36.994 48.1501 36.9625C48.1376 36.8875 48.0251 36.7125 47.7626 36.8125L47.5126 36.925L47.3625 36.975L47.3376 37C47.3626 37.05 47.475 36.95 47.5375 37.1L47.7875 37.725L47.7751 37.7125Z" fill="#703D29"/>
<path d="M33.516 22.444H40.084V29.004H33.516V22.444Z" fill="#D52B1E"/>
<path d="M36.596 27.604C36.596 27.604 36.596 27.844 36.532 28.028C36.452 28.244 36.452 28.244 36.38 28.348C36.3024 28.4749 36.1988 28.5839 36.076 28.668C35.916 28.764 35.756 28.812 35.596 28.796C35.164 28.764 34.956 28.284 34.86 27.9C34.756 27.492 34.46 27.26 34.26 27.42C34.148 27.5 34.148 27.644 34.236 27.788C34.3222 27.8919 34.4359 27.9696 34.564 28.012L34.332 28.308C34.332 28.308 33.828 28.244 33.732 27.716C33.692 27.516 33.788 27.148 34.124 27.036C34.548 26.892 34.812 27.196 34.948 27.452C35.124 27.804 35.204 28.444 35.7 28.348C35.972 28.292 36.1 27.9 36.1 27.716L36.292 27.508L36.588 27.604H36.596Z" fill="white"/>
<path d="M37.0039 27.604C37.0039 27.604 37.0039 27.844 37.0679 28.028C37.1479 28.244 37.1479 28.244 37.2199 28.348C37.2976 28.4749 37.4012 28.5839 37.5239 28.668C37.6839 28.764 37.8439 28.812 38.0039 28.796C38.4359 28.764 38.6439 28.284 38.7399 27.9C38.8439 27.492 39.1399 27.26 39.3399 27.42C39.4519 27.5 39.4519 27.644 39.3639 27.788C39.2778 27.8919 39.1641 27.9696 39.0359 28.012L39.2679 28.308C39.2679 28.308 39.7719 28.244 39.8679 27.716C39.9079 27.516 39.8119 27.148 39.4759 27.036C39.0519 26.892 38.7879 27.196 38.6519 27.452C38.4759 27.804 38.3959 28.444 37.8999 28.348C37.6279 28.292 37.4999 27.9 37.4999 27.716L37.3079 27.508L37.0119 27.604H37.0039Z" fill="white"/>
<path d="M37.388 24.82L38.252 23.884C38.252 23.884 38.38 23.78 38.38 23.612L38.204 23.644L38.164 23.548L38.156 23.46L38.396 23.404V23.3L38.42 23.196L38.164 23.212L38.188 23.1L38.228 23.02L38.38 22.988H38.532C38.676 22.716 39.268 22.476 39.684 22.908C39.988 23.228 39.924 23.804 39.524 23.964C39.4346 24.0037 39.3355 24.0166 39.2389 24.0009C39.1423 23.9853 39.0524 23.9419 38.98 23.876L39.14 23.556C39.356 23.692 39.54 23.532 39.524 23.364C39.508 23.148 39.364 23.02 39.18 23.004C38.996 22.988 38.86 23.084 38.78 23.244C38.732 23.348 38.756 23.42 38.74 23.532C38.724 23.652 38.74 23.716 38.7 23.836C38.661 23.9465 38.595 24.0455 38.508 24.124L37.628 25.084L34.188 28.796L33.932 28.556L37.388 24.82Z" fill="#FEDF00"/>
<path d="M34.8601 25.14C34.8601 25.14 35.0761 26.212 35.8121 27.82C36.1881 27.684 36.4041 27.596 36.8041 27.596C37.1961 27.596 37.4121 27.676 37.7881 27.82C38.1976 26.9622 38.5167 26.064 38.7401 25.14L36.8041 22.66L34.8521 25.14H34.8601Z" fill="white"/>
<path d="M36.9879 23.492L38.3319 25.228C38.3319 25.228 38.1559 26.068 37.6119 27.332C37.3959 27.284 37.2119 27.244 36.9879 27.228V23.492ZM36.6119 23.492L35.2679 25.228C35.2679 25.228 35.4439 26.068 35.9879 27.332C36.2039 27.284 36.3879 27.244 36.6119 27.228V23.492Z" fill="#FEDF00"/>
<path d="M40.7875 22.4375H47.3625V29H40.7875V22.4375Z" fill="#FEDF00"/>
<path d="M41.7125 22.4375H42.6875V29H41.7125V22.4375ZM43.5875 22.4375H44.5625V29H43.5875V22.4375ZM45.4625 22.4375H46.45V29H45.4625V22.4375Z" fill="#D52B1E"/>
<path d="M33.5374 34.6875C33.5499 34.8125 33.6 35.0125 33.7125 35.225C33.8375 35.4125 33.7874 35.4 34.0499 35.7C34.1959 35.8471 34.3647 35.9695 34.5499 36.0625C35.1407 36.3168 35.7831 36.4282 36.4249 36.3875C36.7624 36.375 37.025 36.3375 37.25 36.3C37.7056 36.2394 38.1654 36.2143 38.625 36.225C38.8125 36.225 39 36.2625 39.2125 36.3C39.65 36.3875 40.0875 36.55 40.0875 36.55V29.7125H33.5125V34.375L33.5374 34.675V34.6875Z" fill="#FEDF00"/>
<path d="M34.2999 35.8875L34.6124 36.075L35.0374 36.225V29.7H34.2999V35.8875ZM37.9499 36.1875V29.7H37.2249V36.3L37.9499 36.2125V36.1875ZM39.4124 29.7H38.6874V36.2125C38.9249 36.2375 39.1624 36.2875 39.4124 36.3375V29.7125V29.7ZM36.4874 29.7V36.375C36.4874 36.375 36.0124 36.4 35.7624 36.375V29.7H36.4874Z" fill="#D52B1E" stroke="#D52B1E" stroke-width="0.0375"/>
<path d="M47.34 34.692C47.3114 34.8766 47.2519 35.0551 47.164 35.22C47.044 35.404 47.084 35.404 46.82 35.7C46.5339 35.9821 46.173 36.1765 45.78 36.26C45.3471 36.3741 44.8986 36.4173 44.452 36.388C44.108 36.372 43.852 36.332 43.628 36.308C43.324 36.26 43.092 36.236 42.748 36.228C42.5827 36.2198 42.4172 36.2198 42.252 36.228C41.7529 36.2845 41.2617 36.3972 40.788 36.564V29.7H47.364V34.38L47.34 34.684V34.692Z" fill="#FEDF00"/>
<path d="M42.468 30.26L42.42 30.276L42.356 30.34C42.324 30.372 42.3 30.38 42.26 30.404L42.212 30.444C42.188 30.468 42.212 30.492 42.188 30.524C42.18 30.556 42.164 30.572 42.14 30.604C42.108 30.636 42.084 30.644 42.06 30.684L41.964 30.764L41.94 30.772H41.892C41.86 30.788 41.852 30.82 41.828 30.836L41.852 30.884L41.916 30.996C41.932 31.02 41.932 31.052 41.956 31.06C41.996 31.076 42.028 31.076 42.06 31.068C42.124 31.084 42.164 31.084 42.22 31.108L42.34 31.172C42.38 31.196 42.404 31.204 42.444 31.212H42.588V31.236L42.748 31.316C42.744 31.3263 42.7414 31.337 42.74 31.348C42.732 31.372 42.724 31.404 42.732 31.412C42.78 31.564 42.828 31.652 42.852 31.668C42.9 31.684 42.916 31.74 42.94 31.788L42.916 31.812C42.868 31.86 42.82 31.892 42.78 31.956C42.724 32.052 42.684 32.052 42.756 32.18L42.876 32.372C42.908 32.428 42.924 32.468 42.94 32.532C42.956 32.588 42.964 32.628 42.964 32.692L43.044 32.716L43.1 32.668L43.148 32.572V32.492C43.132 32.484 43.124 32.46 43.132 32.436C43.132 32.404 43.172 32.412 43.188 32.388C43.212 32.348 43.156 32.324 43.132 32.3C43.084 32.244 43.02 32.228 43.004 32.148C43.004 32.132 43.004 32.116 43.036 32.092L43.196 31.948C43.212 31.956 43.244 31.964 43.276 31.956L43.38 31.988C43.428 32.004 43.452 31.988 43.476 31.988H43.508L43.516 32.036C43.524 32.116 43.508 32.276 43.532 32.316L43.556 32.364L43.572 32.412V32.572L43.556 32.708C43.556 32.74 43.54 32.764 43.516 32.788C43.5 32.82 43.468 32.82 43.436 32.844V32.924L43.524 32.964L43.628 32.988L43.684 32.964L43.692 32.916L43.732 32.876C43.764 32.86 43.796 32.876 43.804 32.868C43.82 32.844 43.804 32.836 43.804 32.804C43.804 32.756 43.788 32.724 43.78 32.676C43.7685 32.6019 43.7658 32.5267 43.772 32.452C43.772 32.404 43.772 32.372 43.788 32.332C43.796 32.252 43.82 32.22 43.836 32.156C43.86 32.076 43.86 32.028 43.868 31.956C44.1377 31.9966 44.413 31.9803 44.676 31.908C44.74 31.964 44.812 32.004 44.892 32.036V32.116C44.892 32.14 44.892 32.148 44.908 32.172L44.932 32.196C44.956 32.196 44.972 32.196 44.988 32.18C45.004 32.164 45.004 32.148 45.004 32.124V32.068H45.148V32.156C45.156 32.18 45.172 32.188 45.188 32.188C45.1955 32.1916 45.2037 32.1934 45.212 32.1934C45.2203 32.1934 45.2285 32.1916 45.236 32.188C45.26 32.172 45.252 32.14 45.26 32.108V32.052L45.34 32.02C45.3421 32.0439 45.3421 32.068 45.34 32.092L45.316 32.164C45.3 32.212 45.276 32.228 45.252 32.276C45.22 32.324 45.212 32.356 45.172 32.396L45.124 32.452L45.076 32.524L45.004 32.604C44.948 32.652 44.908 32.62 44.844 32.676L44.82 32.756L44.932 32.804L45.036 32.82L45.068 32.804C45.068 32.78 45.068 32.756 45.092 32.74C45.108 32.716 45.124 32.716 45.148 32.708C45.18 32.708 45.212 32.708 45.228 32.692C45.26 32.668 45.26 32.612 45.284 32.572C45.3429 32.4533 45.4244 32.3474 45.524 32.26L45.66 32.148C45.676 32.116 45.7 32.108 45.7 32.068L45.684 32.02L45.668 31.94C45.788 31.996 45.748 31.996 45.764 32.052C45.788 32.1 45.764 32.132 45.772 32.188C45.78 32.252 45.812 32.276 45.812 32.34C45.82 32.412 45.804 32.452 45.788 32.524C45.78 32.588 45.78 32.628 45.748 32.684C45.7291 32.7307 45.6988 32.7719 45.66 32.804L45.612 32.844L45.604 32.924L45.692 32.956L45.82 32.988L45.852 32.964C45.868 32.908 45.852 32.828 45.884 32.828C45.916 32.82 45.94 32.828 45.948 32.804V32.748L46.004 32.388L46.036 32.236L46.068 32.1C46.124 31.94 46.052 31.916 45.988 31.812C45.948 31.756 45.932 31.732 45.932 31.692V31.46C45.9296 31.3854 45.9296 31.3106 45.932 31.236L45.964 31.22C46.06 31.164 46.1 31.148 46.156 31.02C46.173 30.9823 46.1812 30.9413 46.18 30.9V30.82L46.148 30.74C46.1355 30.7163 46.1193 30.6947 46.1 30.676C46.044 30.596 45.964 30.588 45.884 30.556C45.764 30.516 45.684 30.524 45.564 30.516C45.42 30.5 45.348 30.5 45.212 30.516C45.052 30.516 44.964 30.548 44.804 30.572L44.412 30.604C44.228 30.604 44.06 30.564 43.948 30.572C43.756 30.588 43.748 30.636 43.452 30.66C43.3508 30.6682 43.2495 30.6735 43.148 30.676L42.972 30.62C43.044 30.596 43.06 30.58 43.092 30.54C43.116 30.508 43.108 30.484 43.14 30.452L43.196 30.372C43.1747 30.356 43.1501 30.3451 43.124 30.34H43.044C43.0107 30.3412 42.978 30.3494 42.948 30.364L42.884 30.412L42.708 30.316C42.633 30.2778 42.5517 30.2535 42.468 30.244V30.26Z" fill="#D52B1E"/>
<path d="M46.0041 31.26L45.9401 31.284C45.8681 31.316 45.8121 31.316 45.7321 31.324C45.5241 31.34 45.3881 31.236 45.1721 31.252C45.0601 31.26 45.0121 31.348 44.8921 31.38C44.8473 31.3895 44.8018 31.3949 44.7561 31.396L44.7961 31.316C44.7961 31.316 44.7001 31.34 44.6361 31.34C44.5929 31.3393 44.55 31.3339 44.5081 31.324L44.5881 31.244L44.4841 31.228C44.4547 31.2135 44.4277 31.1946 44.4041 31.172C44.4497 31.1659 44.4951 31.1579 44.5401 31.148C44.6601 31.116 44.7001 31.052 44.8521 31.036C44.9401 31.036 45.0921 31.036 45.4601 31.1C45.7001 31.14 45.8121 31.116 45.9001 31.076C45.9641 31.052 45.9801 30.996 45.9881 30.932C45.9961 30.868 45.9561 30.82 45.9241 30.788C45.9161 30.788 45.8841 30.764 45.8361 30.756" stroke="#FEDF00" stroke-width="0.08" stroke-linecap="round"/>
<path d="M42.484 30.548C42.444 30.548 42.412 30.548 42.38 30.572C42.34 30.596 42.332 30.628 42.3 30.66C42.34 30.668 42.364 30.692 42.396 30.684C42.428 30.684 42.436 30.668 42.46 30.644C42.484 30.612 42.4921 30.588 42.4921 30.548H42.484Z" fill="#FCD900" stroke="#FEDF00" stroke-width="0.04"/>
<path d="M43.38 31.604C43.401 31.6677 43.4277 31.7293 43.46 31.788C43.476 31.852 43.46 31.884 43.476 31.948V32.076M44.02 31.516L43.996 31.62L43.916 31.9V31.956M43.036 31.636C43.108 31.652 43.084 31.9 43.188 31.956" stroke="#FEDF00" stroke-width="0.08" stroke-linecap="round"/>
<path d="M45.308 32.084L45.34 32.06C45.4209 32.0269 45.4943 31.9779 45.556 31.916" stroke="#FEDF00" stroke-width="0.08"/>
<path d="M44.692 31.94C44.972 31.868 45.164 31.732 45.3 31.708M44.98 31.588H45.044C45.164 31.564 45.18 31.636 45.26 31.684C45.412 31.764 45.428 31.868 45.604 31.956L45.636 31.964L45.7 31.996" stroke="#FEDF00" stroke-width="0.08" stroke-linecap="round"/>
<path d="M41.916 30.86H41.972L42.036 30.844C42.06 30.844 42.076 30.844 42.092 30.86C42.108 30.86 42.108 30.868 42.116 30.884C42.116 30.9 42.132 30.908 42.124 30.924C42.124 30.94 42.1 30.956 42.076 30.956C42.06 30.956 42.044 30.956 42.036 30.932C42.0338 30.9269 42.0327 30.9215 42.0327 30.916C42.0327 30.9105 42.0338 30.905 42.036 30.9C42.0248 30.9056 42.0125 30.9086 42 30.9086C41.9875 30.9086 41.9752 30.9056 41.964 30.9C41.9537 30.8969 41.9442 30.8917 41.9359 30.8849C41.9277 30.878 41.9209 30.8695 41.916 30.86Z" fill="#FCD900" stroke="#FEDF00" stroke-width="0.04"/>
<path d="M42.508 31.636L42.348 31.564C42.38 31.548 42.404 31.548 42.428 31.524C42.452 31.492 42.452 31.46 42.468 31.42C42.484 31.38 42.484 31.34 42.524 31.308C42.548 31.292 42.588 31.292 42.612 31.3C42.644 31.3 42.676 31.332 42.684 31.356C42.684 31.404 42.668 31.436 42.66 31.476C42.66 31.524 42.636 31.548 42.644 31.588C42.644 31.62 42.66 31.636 42.676 31.668L42.516 31.636H42.508ZM42.428 31.716C42.4266 31.7067 42.4279 31.6971 42.4319 31.6886C42.4359 31.68 42.4423 31.6728 42.4503 31.6679C42.4584 31.6629 42.4677 31.6605 42.4771 31.6608C42.4865 31.6611 42.4957 31.6642 42.5034 31.6697C42.511 31.6752 42.5169 31.6828 42.5203 31.6916C42.5237 31.7004 42.5244 31.7101 42.5223 31.7193C42.5202 31.7285 42.5155 31.7369 42.5087 31.7434C42.5019 31.7499 42.4933 31.7543 42.484 31.756C42.4771 31.7572 42.47 31.7568 42.4632 31.7549C42.4564 31.753 42.4501 31.7497 42.4448 31.7451C42.4394 31.7405 42.4351 31.7348 42.4323 31.7284C42.4294 31.722 42.4279 31.715 42.428 31.708V31.716ZM42.292 30.388H42.276C42.244 30.356 42.244 30.324 42.228 30.292C42.2151 30.2614 42.207 30.229 42.204 30.196V30.036C42.204 30.012 42.204 29.988 42.188 29.964C42.188 29.948 42.156 29.94 42.164 29.932C42.164 29.924 42.188 29.932 42.196 29.932C42.228 29.932 42.244 29.94 42.276 29.964C42.3 29.988 42.316 30.012 42.324 30.044L42.356 30.164L42.38 30.228L42.42 30.276L42.364 30.34L42.292 30.388ZM42.58 31.236L42.756 31.316C42.8765 31.2435 42.9736 31.138 43.036 31.012C43.108 30.868 43.116 30.796 43.148 30.66L43.004 30.62H42.972C42.932 30.764 42.916 30.836 42.844 30.956C42.78 31.06 42.708 31.14 42.636 31.196L42.58 31.236ZM42.98 32.692L43.044 32.588L43.156 32.5H43.188C43.187 32.5763 43.1735 32.652 43.148 32.724L43.116 32.804L43.076 32.844C43.036 32.78 42.972 32.74 42.972 32.684L42.98 32.692ZM45.62 32.836L45.732 32.884L45.852 32.956V32.996L45.732 33.012C45.6974 33.0147 45.6626 33.0147 45.628 33.012H45.548L45.5 32.98C45.54 32.924 45.564 32.852 45.612 32.836H45.62ZM44.836 32.676L44.948 32.716L45.068 32.796C45.068 32.804 45.076 32.82 45.068 32.828C44.9976 32.8469 44.9248 32.855 44.852 32.852L44.772 32.844L44.716 32.82C44.764 32.764 44.788 32.684 44.836 32.676ZM43.444 32.844L43.564 32.884L43.684 32.964V33.004C43.6106 33.021 43.535 33.0264 43.46 33.02H43.38L43.332 32.988C43.372 32.932 43.396 32.86 43.444 32.844ZM42.724 30.46C42.676 30.436 42.644 30.38 42.676 30.332C42.684 30.316 42.708 30.316 42.724 30.3C42.74 30.276 42.732 30.26 42.724 30.236L42.716 30.156L42.7 30.076C42.7 30.028 42.7 29.996 42.732 29.948C42.748 29.924 42.788 29.9 42.796 29.9C42.812 29.908 42.796 29.94 42.796 29.964C42.796 30.004 42.804 30.02 42.82 30.06L42.876 30.164C42.892 30.212 42.908 30.228 42.908 30.276C42.908 30.316 42.908 30.332 42.892 30.372C42.8817 30.397 42.8652 30.4191 42.844 30.436C42.8254 30.4514 42.8035 30.4623 42.78 30.468C42.7643 30.4724 42.7477 30.4724 42.732 30.468L42.724 30.46Z" fill="#0065BD"/>
<path d="M42.468 30.26L42.42 30.276L42.356 30.34C42.324 30.372 42.3 30.38 42.26 30.404L42.212 30.444C42.188 30.468 42.212 30.492 42.188 30.524C42.18 30.556 42.164 30.572 42.14 30.604C42.108 30.636 42.084 30.644 42.06 30.684L41.964 30.764L41.94 30.772H41.892C41.86 30.788 41.852 30.82 41.828 30.836L41.852 30.884L41.916 30.996C41.932 31.02 41.932 31.052 41.956 31.06C41.996 31.076 42.028 31.076 42.06 31.068C42.124 31.084 42.164 31.084 42.22 31.108L42.34 31.172C42.38 31.196 42.404 31.204 42.444 31.212H42.588V31.236L42.748 31.316C42.744 31.3263 42.7414 31.337 42.74 31.348C42.732 31.372 42.724 31.404 42.732 31.412C42.78 31.564 42.828 31.652 42.852 31.668C42.9 31.684 42.916 31.74 42.94 31.788L42.916 31.812C42.868 31.86 42.82 31.892 42.78 31.956C42.724 32.052 42.684 32.052 42.756 32.18L42.876 32.372C42.908 32.428 42.924 32.468 42.94 32.532C42.956 32.588 42.964 32.628 42.964 32.692L43.044 32.716L43.1 32.668L43.148 32.572V32.492C43.132 32.484 43.124 32.46 43.132 32.436C43.132 32.404 43.172 32.412 43.188 32.388C43.212 32.348 43.156 32.324 43.132 32.3C43.084 32.244 43.02 32.228 43.004 32.148C43.004 32.132 43.004 32.116 43.036 32.092L43.196 31.948C43.212 31.956 43.244 31.964 43.276 31.956L43.38 31.988C43.428 32.004 43.452 31.988 43.476 31.988H43.508L43.516 32.036C43.524 32.116 43.508 32.276 43.532 32.316L43.556 32.364L43.572 32.412V32.572L43.556 32.708C43.556 32.74 43.54 32.764 43.516 32.788C43.5 32.82 43.468 32.82 43.436 32.844V32.924L43.524 32.964L43.628 32.988L43.684 32.964L43.692 32.916L43.732 32.876C43.764 32.86 43.796 32.876 43.804 32.868C43.82 32.844 43.804 32.836 43.804 32.804C43.804 32.756 43.788 32.724 43.78 32.676C43.7685 32.6019 43.7658 32.5267 43.772 32.452C43.772 32.404 43.772 32.372 43.788 32.332C43.796 32.252 43.82 32.22 43.836 32.156C43.86 32.076 43.86 32.028 43.868 31.956C44.1377 31.9966 44.413 31.9803 44.676 31.908C44.74 31.964 44.812 32.004 44.892 32.036V32.116C44.892 32.14 44.892 32.148 44.908 32.172L44.932 32.196C44.956 32.196 44.972 32.196 44.988 32.18C45.004 32.164 45.004 32.148 45.004 32.124V32.068H45.148V32.156C45.156 32.18 45.172 32.188 45.188 32.188C45.1955 32.1916 45.2037 32.1934 45.212 32.1934C45.2203 32.1934 45.2285 32.1916 45.236 32.188C45.26 32.172 45.252 32.14 45.26 32.108V32.052L45.34 32.02C45.3421 32.0439 45.3421 32.068 45.34 32.092L45.316 32.164C45.3 32.212 45.276 32.228 45.252 32.276C45.22 32.324 45.212 32.356 45.172 32.396L45.124 32.452L45.076 32.524L45.004 32.604C44.948 32.652 44.908 32.62 44.844 32.676L44.82 32.756L44.932 32.804L45.036 32.82L45.068 32.804C45.068 32.78 45.068 32.756 45.092 32.74C45.108 32.716 45.124 32.716 45.148 32.708C45.18 32.708 45.212 32.708 45.228 32.692C45.26 32.668 45.26 32.612 45.284 32.572C45.3429 32.4533 45.4244 32.3474 45.524 32.26L45.66 32.148C45.676 32.116 45.7 32.108 45.7 32.068L45.684 32.02L45.668 31.94C45.788 31.996 45.748 31.996 45.764 32.052C45.788 32.1 45.764 32.132 45.772 32.188C45.78 32.252 45.812 32.276 45.812 32.34C45.82 32.412 45.804 32.452 45.788 32.524C45.78 32.588 45.78 32.628 45.748 32.684C45.7291 32.7307 45.6988 32.7719 45.66 32.804L45.612 32.844L45.604 32.924L45.692 32.956L45.82 32.988L45.852 32.964C45.868 32.908 45.852 32.828 45.884 32.828C45.916 32.82 45.94 32.828 45.948 32.804V32.748L46.004 32.388L46.036 32.236L46.068 32.1C46.124 31.94 46.052 31.916 45.988 31.812C45.948 31.756 45.932 31.732 45.932 31.692V31.46C45.9296 31.3854 45.9296 31.3106 45.932 31.236L45.964 31.22C46.06 31.164 46.1 31.148 46.156 31.02C46.173 30.9823 46.1812 30.9413 46.18 30.9V30.82L46.148 30.74C46.1355 30.7163 46.1193 30.6947 46.1 30.676C46.044 30.596 45.964 30.588 45.884 30.556C45.764 30.516 45.684 30.524 45.564 30.516C45.42 30.5 45.348 30.5 45.212 30.516C45.052 30.516 44.964 30.548 44.804 30.572L44.412 30.604C44.228 30.604 44.06 30.564 43.948 30.572C43.756 30.588 43.748 30.636 43.452 30.66C43.3508 30.6682 43.2495 30.6735 43.148 30.676L42.972 30.62C43.044 30.596 43.06 30.58 43.092 30.54C43.116 30.508 43.108 30.484 43.14 30.452L43.196 30.372C43.1747 30.356 43.1501 30.3451 43.124 30.34H43.044C43.0107 30.3412 42.978 30.3494 42.948 30.364L42.884 30.412L42.708 30.316C42.633 30.2778 42.5517 30.2535 42.468 30.244V30.26Z" fill="#D52B1E"/>
<path d="M46.0041 31.26L45.9401 31.284C45.8681 31.316 45.8121 31.316 45.7321 31.324C45.5241 31.34 45.3881 31.236 45.1721 31.252C45.0601 31.26 45.0121 31.348 44.8921 31.38C44.8473 31.3895 44.8018 31.3949 44.7561 31.396L44.7961 31.316C44.7961 31.316 44.7001 31.34 44.6361 31.34C44.5929 31.3393 44.55 31.3339 44.5081 31.324L44.5881 31.244L44.4841 31.228C44.4547 31.2135 44.4277 31.1946 44.4041 31.172C44.4497 31.1659 44.4951 31.1579 44.5401 31.148C44.6601 31.116 44.7001 31.052 44.8521 31.036C44.9401 31.036 45.0921 31.036 45.4601 31.1C45.7001 31.14 45.8121 31.116 45.9001 31.076C45.9641 31.052 45.9801 30.996 45.9881 30.932C45.9961 30.868 45.9561 30.82 45.9241 30.788C45.9161 30.788 45.8841 30.764 45.8361 30.756" stroke="#FEDF00" stroke-width="0.08" stroke-linecap="round"/>
<path d="M42.484 30.548C42.444 30.548 42.412 30.548 42.38 30.572C42.34 30.596 42.332 30.628 42.3 30.66C42.34 30.668 42.364 30.692 42.396 30.684C42.428 30.684 42.436 30.668 42.46 30.644C42.484 30.612 42.4921 30.588 42.4921 30.548H42.484Z" fill="#FCD900" stroke="#FEDF00" stroke-width="0.04"/>
<path d="M43.38 31.604C43.401 31.6677 43.4277 31.7293 43.46 31.788C43.476 31.852 43.46 31.884 43.476 31.948V32.076M44.02 31.516L43.996 31.62L43.916 31.9V31.956M43.036 31.636C43.108 31.652 43.084 31.9 43.188 31.956" stroke="#FEDF00" stroke-width="0.08" stroke-linecap="round"/>
<path d="M45.308 32.084L45.34 32.06C45.4209 32.0269 45.4943 31.9779 45.556 31.916" stroke="#FEDF00" stroke-width="0.08"/>
<path d="M44.692 31.94C44.972 31.868 45.164 31.732 45.3 31.708M44.98 31.588H45.044C45.164 31.564 45.18 31.636 45.26 31.684C45.412 31.764 45.428 31.868 45.604 31.956L45.636 31.964L45.7 31.996" stroke="#FEDF00" stroke-width="0.08" stroke-linecap="round"/>
<path d="M41.916 30.86H41.972L42.036 30.844C42.06 30.844 42.076 30.844 42.092 30.86C42.108 30.86 42.108 30.868 42.116 30.884C42.116 30.9 42.132 30.908 42.124 30.924C42.124 30.94 42.1 30.956 42.076 30.956C42.06 30.956 42.044 30.956 42.036 30.932C42.0338 30.9269 42.0327 30.9215 42.0327 30.916C42.0327 30.9105 42.0338 30.905 42.036 30.9C42.0248 30.9056 42.0125 30.9086 42 30.9086C41.9875 30.9086 41.9752 30.9056 41.964 30.9C41.9537 30.8969 41.9442 30.8917 41.9359 30.8849C41.9277 30.878 41.9209 30.8695 41.916 30.86Z" fill="#FCD900" stroke="#FEDF00" stroke-width="0.04"/>
<path d="M42.508 31.636L42.348 31.564C42.38 31.548 42.404 31.548 42.428 31.524C42.452 31.492 42.452 31.46 42.468 31.42C42.484 31.38 42.484 31.34 42.524 31.308C42.548 31.292 42.588 31.292 42.612 31.3C42.644 31.3 42.676 31.332 42.684 31.356C42.684 31.404 42.668 31.436 42.66 31.476C42.66 31.524 42.636 31.548 42.644 31.588C42.644 31.62 42.66 31.636 42.676 31.668L42.516 31.636H42.508ZM42.428 31.716C42.4266 31.7067 42.4279 31.6971 42.4319 31.6886C42.4359 31.68 42.4423 31.6728 42.4503 31.6679C42.4584 31.6629 42.4677 31.6605 42.4771 31.6608C42.4865 31.6611 42.4957 31.6642 42.5034 31.6697C42.511 31.6752 42.5169 31.6828 42.5203 31.6916C42.5237 31.7004 42.5244 31.7101 42.5223 31.7193C42.5202 31.7285 42.5155 31.7369 42.5087 31.7434C42.5019 31.7499 42.4933 31.7543 42.484 31.756C42.4771 31.7572 42.47 31.7568 42.4632 31.7549C42.4564 31.753 42.4501 31.7497 42.4448 31.7451C42.4394 31.7405 42.4351 31.7348 42.4323 31.7284C42.4294 31.722 42.4279 31.715 42.428 31.708V31.716ZM42.292 30.388H42.276C42.244 30.356 42.244 30.324 42.228 30.292C42.2151 30.2614 42.207 30.229 42.204 30.196V30.036C42.204 30.012 42.204 29.988 42.188 29.964C42.188 29.948 42.156 29.94 42.164 29.932C42.164 29.924 42.188 29.932 42.196 29.932C42.228 29.932 42.244 29.94 42.276 29.964C42.3 29.988 42.316 30.012 42.324 30.044L42.356 30.164L42.38 30.228L42.42 30.276L42.364 30.34L42.292 30.388ZM42.58 31.236L42.756 31.316C42.8765 31.2435 42.9736 31.138 43.036 31.012C43.108 30.868 43.116 30.796 43.148 30.66L43.004 30.62H42.972C42.932 30.764 42.916 30.836 42.844 30.956C42.78 31.06 42.708 31.14 42.636 31.196L42.58 31.236ZM42.98 32.692L43.044 32.588L43.156 32.5H43.188C43.187 32.5763 43.1735 32.652 43.148 32.724L43.116 32.804L43.076 32.844C43.036 32.78 42.972 32.74 42.972 32.684L42.98 32.692ZM45.62 32.836L45.732 32.884L45.852 32.956V32.996L45.732 33.012C45.6974 33.0147 45.6626 33.0147 45.628 33.012H45.548L45.5 32.98C45.54 32.924 45.564 32.852 45.612 32.836H45.62ZM44.836 32.676L44.948 32.716L45.068 32.796C45.068 32.804 45.076 32.82 45.068 32.828C44.9976 32.8469 44.9248 32.855 44.852 32.852L44.772 32.844L44.716 32.82C44.764 32.764 44.788 32.684 44.836 32.676ZM43.444 32.844L43.564 32.884L43.684 32.964V33.004C43.6106 33.021 43.535 33.0264 43.46 33.02H43.38L43.332 32.988C43.372 32.932 43.396 32.86 43.444 32.844ZM42.724 30.46C42.676 30.436 42.644 30.38 42.676 30.332C42.684 30.316 42.708 30.316 42.724 30.3C42.74 30.276 42.732 30.26 42.724 30.236L42.716 30.156L42.7 30.076C42.7 30.028 42.7 29.996 42.732 29.948C42.748 29.924 42.788 29.9 42.796 29.9C42.812 29.908 42.796 29.94 42.796 29.964C42.796 30.004 42.804 30.02 42.82 30.06L42.876 30.164C42.892 30.212 42.908 30.228 42.908 30.276C42.908 30.316 42.908 30.332 42.892 30.372C42.8817 30.397 42.8652 30.4191 42.844 30.436C42.8254 30.4514 42.8035 30.4623 42.78 30.468C42.7643 30.4724 42.7477 30.4724 42.732 30.468L42.724 30.46Z" fill="#0065BD"/>
<path d="M33.5125 22.4375H40.0875V29H33.5125V22.4375ZM40.7874 22.4375H47.3624V29H40.7874V22.4375ZM33.5374 34.6875C33.5499 34.8125 33.6 35.0125 33.7125 35.225C33.8375 35.4125 33.7874 35.4 34.0499 35.7C34.1959 35.8471 34.3647 35.9696 34.5499 36.0625C35.1407 36.3168 35.7831 36.4282 36.4249 36.3875C36.7624 36.375 37.025 36.3375 37.25 36.3C37.7056 36.2394 38.1654 36.2143 38.625 36.225C38.8125 36.225 39 36.2625 39.2125 36.3C39.65 36.3875 40.0875 36.55 40.0875 36.55V29.7125H33.5125V34.375L33.5374 34.675V34.6875ZM47.3375 34.6875C47.311 34.8755 47.2517 35.0574 47.1624 35.225C47.0374 35.4125 47.0875 35.4 46.825 35.7C46.6789 35.847 46.51 35.9694 46.325 36.0625C46.1625 36.15 46.0375 36.1875 45.775 36.2625C45.3431 36.3765 44.8955 36.4187 44.45 36.3875C44.1125 36.375 43.85 36.325 43.6375 36.3C43.3389 36.2597 43.0385 36.2347 42.7374 36.225C42.575 36.2172 42.4124 36.2172 42.25 36.225C42.0625 36.225 41.8749 36.2625 41.6624 36.3C41.2249 36.3875 40.7874 36.55 40.7874 36.55V29.7H47.375V34.3875L47.3499 34.6875H47.3375Z" stroke="#703D29" stroke-width="0.0625"/>
</g>
<defs>
<clipPath id="clip0_21_14">
<rect width="80" height="60" fill="white" transform="translate(0.5 0.5)"/>
</clipPath>
</defs>
</svg>