<svg width="81" height="61" viewBox="0 0 81 61" fill="none" xmlns="http://www.w3.org/2000/svg">
<g clip-path="url(#clip0_21_171)">
<path fill-rule="evenodd" clip-rule="evenodd" d="M0.5 0.5H80.5V30.95H0.5V0.5Z" fill="#FF0000"/>
<path fill-rule="evenodd" clip-rule="evenodd" d="M0.5 30.05H80.5V60.5H0.5V30.05Z" fill="black"/>
<path fill-rule="evenodd" clip-rule="evenodd" d="M29.0875 19.025C49.7374 24.4375 36.4625 50.975 20.1749 39.925L19.075 41.625C28.6625 48.45 38.15 42.95 40.825 35.825C43.6 28.475 39.875 18.1375 29.25 17.075L29.0875 19.025Z" fill="#FFEC00"/>
<path fill-rule="evenodd" clip-rule="evenodd" d="M21.75 41.85L24.4625 43.1125L23.1875 45.8375L20.475 44.5625L21.75 41.85ZM40.375 29.4125H43.375V32.4125H40.375V29.4125ZM38.9125 24.55L41.7 23.475L42.7875 26.2625L40 27.35L38.9125 24.55ZM35.6625 20.9125L37.8 18.8L39.9125 20.925L37.7875 23.0375L35.6625 20.9125ZM32.3875 15.9375L35.1875 16.9875L34.125 19.7875L31.325 18.7375L32.3875 15.9375ZM40 34.25L42.7875 35.3625L41.6625 38.1375L38.8875 37.025L40 34.25ZM31.2625 43L34.0125 41.8375L35.2 44.5875L32.45 45.7625L31.2625 43ZM26.325 43.35H29.325V46.35H26.325V43.35ZM31.4875 28.85L28.95 26.975L26.4125 28.8L27.4125 25.925L24.875 24.05H27.9375L29 21.225L29.975 24.0625L33.0625 24.025L30.6125 25.9375L31.4875 28.8625V28.85Z" fill="#FFEC00"/>
<path fill-rule="evenodd" clip-rule="evenodd" d="M42.5 43.8C42.35 43.85 41.725 45.35 41.2875 46.075L41.75 46.2C43.45 46.8 44.3 47.35 45.025 48.3875C45.1927 48.5508 45.4129 48.6493 45.6464 48.6653C45.8799 48.6813 46.1116 48.6139 46.3 48.475C46.3 48.475 46.65 48.35 47.1 47.85C47.475 47.2875 47.375 46.85 46.925 46.4625C45.55 45.4625 44.0625 44.7125 42.5 43.8Z" fill="#FFEE00"/>
<path fill-rule="evenodd" clip-rule="evenodd" d="M46.1625 47.1C46.1625 47.2442 46.1052 47.3825 46.0033 47.4845C45.9013 47.5865 45.763 47.6437 45.6188 47.6437C45.4746 47.6437 45.3363 47.5865 45.2343 47.4845C45.1323 47.3825 45.075 47.2442 45.075 47.1C45.075 46.9574 45.1317 46.8207 45.2325 46.7199C45.3333 46.6191 45.47 46.5625 45.6125 46.5625C45.7551 46.5625 45.8918 46.6191 45.9926 46.7199C46.0934 46.8207 46.15 46.9574 46.15 47.1H46.1625ZM43.4875 45.4C43.4875 45.5442 43.4302 45.6825 43.3283 45.7845C43.2263 45.8865 43.088 45.9437 42.9438 45.9437C42.7996 45.9437 42.6613 45.8865 42.5593 45.7845C42.4573 45.6825 42.4 45.5442 42.4 45.4C42.4 45.2558 42.4573 45.1175 42.5593 45.0155C42.6613 44.9135 42.7996 44.8563 42.9438 44.8563C43.088 44.8563 43.2263 44.9135 43.3283 45.0155C43.4302 45.1175 43.4875 45.2558 43.4875 45.4ZM44.85 46.275C44.85 46.4192 44.7927 46.5575 44.6908 46.6595C44.5888 46.7615 44.4505 46.8187 44.3063 46.8187C44.1621 46.8187 44.0238 46.7615 43.9218 46.6595C43.8198 46.5575 43.7625 46.4192 43.7625 46.275C43.7625 46.1308 43.8198 45.9925 43.9218 45.8905C44.0238 45.7885 44.1621 45.7313 44.3063 45.7313C44.4505 45.7313 44.5888 45.7885 44.6908 45.8905C44.7927 45.9925 44.85 46.1308 44.85 46.275Z" fill="black"/>
<path fill-rule="evenodd" clip-rule="evenodd" d="M41.0625 45.9625C35.7375 42.925 30.15 39.65 24.8125 36.6125C22.475 35.15 22.3625 32.4375 23.9375 30.375C24.0875 30.0875 24.2875 30.15 24.3625 30.3125C24.55 31.3125 25.1125 32.35 25.7875 33C31.3276 36.485 36.8157 40.052 42.25 43.7C41.825 44.425 41.5 45.2375 41.0625 45.95V45.9625Z" fill="#FFEE00"/>
<path fill-rule="evenodd" clip-rule="evenodd" d="M37.65 38.6875L39.875 40.6875L37.875 42.9125L35.65 40.9125L37.65 38.6875Z" fill="#FFEC00"/>
<path d="M41.9375 44.1L26.3125 34.6625M40.0125 41.925L34.75 38.5125M37.025 43.85L31.6625 40.75" stroke="black" stroke-width="0.375"/>
</g>
<defs>
<clipPath id="clip0_21_171">
<rect width="80" height="60" fill="white" transform="translate(0.5 0.5)"/>
</clipPath>
</defs>
</svg>
