<svg width="81" height="61" viewBox="0 0 81 61" fill="none" xmlns="http://www.w3.org/2000/svg">
<g clip-path="url(#clip0_21_182)">
<mask id="mask0_21_182" style="mask-type:luminance" maskUnits="userSpaceOnUse" x="0" y="0" width="81" height="61">
<path d="M0.503906 0.5H80.4961V60.5H0.503906V0.5Z" fill="white"/>
</mask>
<g mask="url(#mask0_21_182)">
<path fill-rule="evenodd" clip-rule="evenodd" d="M-4.5 0.5H85.5V60.5H-4.5V0.5Z" fill="#199D00"/>
<path fill-rule="evenodd" clip-rule="evenodd" d="M18.1757 17.5039C18.082 18.9102 17.9414 21.3711 19.1484 21.6289C20.5898 21.7695 19.7929 19.1914 20.3203 18.7227C20.414 18.4883 20.5898 18.4883 20.6015 18.7813V20.9727C20.6015 21.6758 21.0703 21.8867 21.4218 22.0273C21.7968 22.0039 22.0546 22.0273 22.1953 22.3789L22.3828 26.1641C22.3828 26.1641 23.25 26.4219 23.2968 24.043C23.332 22.6367 23.0156 21.4766 23.2031 21.207C23.2031 20.9375 23.5546 20.9258 23.789 21.0547C24.164 21.3125 24.3281 21.6406 24.914 21.5234C25.8046 21.2656 26.3437 20.832 26.3554 20.1523C26.3378 19.4844 26.1989 18.8252 25.9453 18.207C25.9921 18.0898 25.7812 17.7734 25.8281 17.6562C25.9804 17.9141 26.2265 17.8906 26.2734 17.6562C26.1211 17.1641 25.8867 16.6836 25.5117 16.4844C25.1953 16.2031 24.7265 16.25 24.5742 16.8359C24.4804 17.5039 24.8086 18.2891 25.289 18.9453C25.3945 19.1914 25.5351 19.6133 25.4765 19.9883C25.2187 20.1406 24.9609 20.0703 24.7382 19.8477C24.7382 19.8477 24.0351 19.3203 24.0351 19.1914C24.2226 17.9961 24.0703 17.8555 23.9648 17.5156C23.8945 17.0586 23.6718 16.9062 23.4961 16.6016C23.3203 16.4141 23.0859 16.4141 22.9687 16.6016C22.6523 17.1406 22.8046 18.3008 23.0273 18.8281C23.1914 19.3086 23.4375 19.6133 23.3203 19.6133C23.2265 19.8828 23.0273 19.8125 22.875 19.4961C22.7035 18.8302 22.6207 18.1446 22.6289 17.457C22.5703 16.918 22.5 15.7695 22.1367 15.4648C21.9257 15.1836 21.6093 15.3242 21.4921 15.582C21.4612 16.1056 21.473 16.6307 21.5273 17.1523C21.7617 18.0195 21.8437 18.793 21.9609 19.6719C21.9961 20.8555 21.2812 20.1875 21.3164 19.5898C21.4701 18.8385 21.4581 18.0626 21.2812 17.3164C21.164 17.0117 21.0351 16.9414 20.7421 16.9883C20.5195 16.9883 19.9453 17.6094 19.7812 18.6641C19.7812 18.6641 19.6406 19.2031 19.582 19.6836C19.5 20.2227 19.1484 20.6211 18.8906 19.6133C18.6796 18.875 18.539 17.082 18.1875 17.5039H18.1757Z" fill="white"/>
<path fill-rule="evenodd" clip-rule="evenodd" d="M22.1016 23.2578L18.3516 25.0625C18.3867 24.207 20.1211 22.6719 21.3164 22.6602C22.0781 22.6719 21.8906 22.9531 22.0898 23.2578H22.1016Z" fill="white"/>
<path fill-rule="evenodd" clip-rule="evenodd" d="M21.4336 24.4297C19.4649 29.5273 26.0625 30.2422 26.8008 24.6406C26.8711 24.4063 27.1524 24.1836 27.1993 24.5586C27.0469 29.6328 22.0899 29.9727 21.2461 28.3789C21.0477 27.8305 20.9484 27.2512 20.9532 26.668C20.836 25.6719 20.3086 26.0586 20.2266 27.043C20.1446 27.5938 20.168 27.7461 20.168 28.2734C20.4258 32.2813 26.8125 30.5586 27.8555 27.2539C28.4063 25.4258 27.7618 24.0781 28.0547 24.0781C28.6875 24.7578 29.5782 24.1719 29.7774 23.9375C29.8594 23.8203 30.0704 23.7383 30.211 23.8906C30.7032 24.2422 31.5704 24.0781 31.7579 23.457C31.8633 22.8359 31.9454 22.2031 31.9688 21.5586C31.5586 21.6758 31.2657 21.7578 31.2305 21.9336L31.1485 22.4727C31.1133 22.6484 30.7735 22.6484 30.75 22.4258C30.5977 21.7227 29.9649 21.6406 29.5782 22.7188C29.3321 22.9297 28.8633 22.9766 28.8165 22.6602C28.875 21.9336 28.5821 21.8398 27.9961 22.1797L27.4336 17.9375C27.668 17.9375 27.9024 18.1133 28.125 17.832C27.8907 17.0703 27.3633 15.5234 27.0704 15.4063C26.9415 15.2422 26.8243 15.3477 26.6368 15.3945C26.3321 15.4883 26.0508 15.7461 26.1446 16.2617C26.4961 18.4648 26.7305 20.1406 27.0938 22.3555C27.1524 22.6016 26.9415 22.9414 26.6602 22.9063C26.1915 22.5898 26.0743 21.9453 25.254 21.9688C24.668 21.9688 24.0118 22.6133 23.9297 23.2227C23.8243 23.7148 23.7891 24.2422 23.9297 24.6641C24.3399 25.1563 24.8321 25.1094 25.2657 25.0039C25.6172 24.8516 25.9102 24.5 26.0391 24.582C26.1211 24.6875 26.0508 25.8594 24.3633 26.75C23.3438 27.2188 22.5235 27.3125 22.0899 26.4805C21.8204 25.9531 22.1133 23.9727 21.4336 24.4297Z" fill="white"/>
<path fill-rule="evenodd" clip-rule="evenodd" d="M29.836 19.25C30.2227 19.1094 32.0977 16.9531 32.0977 16.9531L31.8164 16.7187C31.711 16.6367 31.7227 16.543 31.8164 16.4609C32.2852 16.1797 32.1328 15.5937 31.8985 15.3125C31.7393 15.2349 31.5643 15.1956 31.3873 15.1976C31.2103 15.1997 31.0362 15.243 30.8789 15.3242C30.5508 15.6406 30.4805 16.1445 30.7383 16.4492C30.9844 16.5664 31.2305 16.8242 31.0664 16.9648C30.293 17.7852 28.1953 19.2031 28.4414 19.25C28.4883 19.3203 29.7891 19.3203 29.8242 19.25H29.836ZM18.4688 26.8672C17.7656 27.9922 17.707 29.668 18.0938 30.1719C18.3047 30.4062 18.6445 30.5117 18.8906 30.4297C19.336 30.2422 19.5352 29.3398 19.4297 29.0234C19.2774 28.7891 19.1602 28.7539 19.0078 28.9414C18.7031 29.5742 18.5742 29.1406 18.5391 28.7891C18.5055 28.1937 18.5369 27.5964 18.6328 27.0078C18.7149 26.5156 18.6328 26.6562 18.4688 26.8672ZM48.5977 25.0742C47.918 23.5977 46.9688 22.1445 46.6758 21.5937C45.7626 20.15 44.7931 18.7427 43.7695 17.375C43.043 16.5078 44.9649 17.7383 43.5352 16.0039L42.4922 15.125C42.2578 14.9609 41.6953 14.6562 41.6016 15.1484C41.5547 15.5937 41.5781 15.8281 41.6485 16.1914C41.707 16.4258 42.0586 16.8359 42.2344 17.0703C44.6369 20.2525 46.747 23.6452 48.5391 27.207C48.8438 27.0547 48.7735 25.3203 48.5977 25.0742Z" fill="white"/>
<path fill-rule="evenodd" clip-rule="evenodd" d="M45.6093 29.9727C45.4687 30.125 45.9375 30.7695 46.5468 30.7695C47.5547 30.6523 48.4453 30.0898 49.2656 28.5898C49.5989 28.0909 49.8116 27.5211 49.8867 26.9258C49.9859 24.081 49.7579 21.2341 49.207 18.4414C49.1718 18.207 49.207 17.9258 49.2304 17.8555C49.3007 17.7734 49.5234 17.8555 49.6406 17.6562C49.8164 17.4805 49.1718 16.0156 48.8203 15.4648C48.7031 15.207 48.6445 15.043 48.4336 15.4883C48.179 15.9796 48.0578 16.5292 48.082 17.082C48.5625 20.4219 48.7148 23.3398 49.0195 26.6797C49.0547 27.0078 49.0078 27.4766 48.7851 27.6641C47.9009 28.6486 46.8187 29.4353 45.6093 29.9727ZM59.2617 29.9609C58.5351 30.3828 58.5351 30.8633 59.1211 30.875C60.1289 30.7578 61.3242 30.6758 62.1445 29.4336C62.4342 28.8485 62.6017 28.2105 62.6367 27.5586C62.7842 24.7576 62.5993 21.9489 62.0859 19.1914C62.0625 18.957 61.957 18.4062 61.9922 18.3359C62.0625 18.1719 62.3906 18.3477 62.5078 18.1602C62.6718 17.9844 61.6523 16.6719 61.289 16.1094C61.1718 15.8516 61.125 15.6875 60.9023 16.1328C60.6663 16.6287 60.5925 17.1863 60.6914 17.7266C61.2304 21.3594 61.6289 24.0781 61.7109 27.2891C61.664 27.5937 61.6523 27.7578 61.5117 28.1445C61.1953 28.543 60.8437 29.0586 60.5156 29.3047C60.1875 29.5391 59.4843 29.7734 59.2617 29.9609Z" fill="white"/>
<path fill-rule="evenodd" clip-rule="evenodd" d="M59.8008 26.7148C59.8008 25.8594 59.8125 25.1328 59.7891 24.4883C59.7815 23.9424 59.6618 23.4039 59.4375 22.9063C59.2266 22.4258 59.3555 22.0391 59.25 21.5234C59.1562 21.0078 59.1797 20.2344 59.0391 19.6367C58.9922 19.4023 58.875 18.6406 58.9102 18.5586C58.9687 18.3945 59.1914 18.5586 59.3086 18.3711C59.4727 18.1953 58.7226 16.2617 58.3476 15.7109C58.2187 15.4648 57.9609 15.5469 57.668 15.9453C57.375 16.2148 57.4805 16.8125 57.5977 17.3867C58.3125 21.1719 58.8633 24.6055 58.7461 28.2031C58.6992 28.5078 59.8008 27.2891 59.8008 26.7148ZM54.4453 22.0273C53.9883 22.0039 53.0391 21.125 52.7578 20.6211C52.7118 20.4979 52.6922 20.3665 52.7002 20.2353C52.7083 20.104 52.7439 19.976 52.8047 19.8594C52.9805 19.7422 53.2383 19.625 53.4375 19.7422C53.4375 19.7422 53.6367 20.0234 53.6016 20.0586C53.8359 20.1758 53.9531 20.1172 53.9766 20.0117C53.9883 19.8359 53.9062 19.7305 53.9062 19.543C54.0117 19.0039 54.6094 18.9219 54.8437 19.2617C55.0078 19.4727 55.0781 19.9063 55.0898 20.1992C55.0898 20.3516 54.8555 20.1758 54.7031 20.1992C54.5742 20.2461 54.5391 20.4102 54.5273 20.5508C54.5039 20.9375 54.457 21.5586 54.4453 22.0156V22.0273ZM46.0312 27.6523C46.1484 26.5039 45.9844 24.4531 45.9727 23.7734C45.91 22.0254 45.7653 20.2813 45.5391 18.5469C45.3984 17.5625 45.9375 18.6523 45.8672 18.0781C45.6914 17.1055 45.1523 16.4375 44.5078 15.5586C44.3086 15.2656 44.3086 15.207 43.9922 15.6289C43.6406 16.4141 43.9453 16.9648 44.0391 17.5859C44.4961 19.6016 44.7656 21.4531 44.8945 23.293C45.0295 25.2042 45.0451 27.122 44.9414 29.0352C45.293 29.0469 45.832 28.4844 46.0312 27.6523Z" fill="white"/>
<path fill-rule="evenodd" clip-rule="evenodd" d="M61.3594 25.8125C60.5508 24.4531 59.3438 23 59.0157 22.4492C57.929 20.9317 56.7876 19.4542 55.5938 18.0195C54.5977 16.9648 56.0625 17.8438 55.4063 17.0234C54.8555 16.4258 54.7032 16.2266 54.2227 15.8633C53.9883 15.7109 53.8477 15.418 53.7539 15.9219C53.7166 16.3584 53.7088 16.7969 53.7305 17.2344C53.7305 17.4336 53.9414 17.8203 54.1289 18.0547C56.5547 21.043 59.2149 24.0898 61.3477 27.9219C61.6524 27.7695 61.5469 26.0469 61.3477 25.8125H61.3594Z" fill="white"/>
<path fill-rule="evenodd" clip-rule="evenodd" d="M24.8672 23.3164C24.8086 23.4219 24.6797 23.5508 24.7266 23.6797C24.8086 23.7969 24.8907 23.832 25.0313 23.832C25.1602 23.832 25.3477 23.8672 25.3829 23.7969C25.4532 23.7148 25.5 23.5625 25.4532 23.4102C25.3125 23.0586 24.9375 23.1992 24.8672 23.3164Z" fill="#1BA400"/>
<path fill-rule="evenodd" clip-rule="evenodd" d="M52.0078 42.9805C53.0859 43.0273 53.7891 43.0391 54.7383 43.1445L55.8633 43.0273C57.1055 42.9102 57.1523 44.7969 57.1523 44.7969C57.1523 45.9102 56.7188 45.9688 56.168 46.0859C55.8516 46.1328 55.6992 45.8984 55.5234 45.6641C55.2584 45.749 54.9761 45.7651 54.7031 45.7109C54.2461 45.6875 53.8008 45.6875 53.3555 45.6523C52.8867 45.6172 52.6289 45.7109 52.1484 45.6641C52.0547 45.8164 51.9141 46.0273 51.6328 45.9688C51.3984 45.9336 51.1055 45.2656 51.1875 44.7383C51.3633 44.3633 51.3047 44.4922 51.3047 44.3281C46.8984 44.2109 42.457 44.0117 38.1445 44.0703C34.7695 44.082 31.4414 44.2227 28.1016 44.3633C26.3203 44.3398 24.9609 44.0586 24.0234 42.6875C24.1172 42.6875 28.5703 42.9336 29.8711 42.8516C32.2734 42.8281 34.4766 42.6289 36.9258 42.5586C41.7539 42.6406 46.5469 42.6406 51.375 42.9805C50.9062 42.6641 50.9062 41.9258 51.6094 41.7383C51.668 41.6914 51.7031 42.1016 51.8086 42.0898C52.3828 42.0547 52.125 42.8281 52.0078 42.9805ZM32.6016 16.3555C31.875 18.4414 33.0234 20.7383 33.8203 20.5156C34.4062 20.75 34.7578 19.6484 34.9922 18.4531C35.168 18.1133 35.2852 18.0781 35.3672 18.2539C35.3437 19.8477 35.4844 20.2109 35.8945 20.6914C36.8086 21.3945 37.5703 20.7852 37.6289 20.7266L38.332 20.0117C38.4961 19.8359 38.707 19.8359 38.9297 19.9766C39.1523 20.1758 39.1172 20.5156 39.5859 20.75C39.9844 20.9141 40.8164 20.7969 41.0156 20.457C41.2734 20 41.3438 19.8477 41.4609 19.6836C41.6484 19.4375 41.9648 19.543 41.9648 19.625C41.9297 19.7656 41.7422 19.8945 41.8711 20.1523C42.1055 20.3164 42.1523 20.2109 42.2813 20.1758C42.75 19.9414 43.1016 18.9336 43.1016 18.9336C43.1133 18.5586 42.9023 18.582 42.7617 18.6758L42.3984 18.9219C42.1641 18.957 41.7305 19.1094 41.5078 18.7695C41.2852 18.3711 41.2852 17.7969 41.1211 17.3867C41.1211 17.3633 40.8164 16.7422 41.0977 16.707C41.2383 16.7305 41.5313 16.8125 41.5781 16.5664C41.7188 16.3203 41.2734 15.6289 40.957 15.2773C40.6875 14.9844 40.3125 14.9492 39.9492 15.2539C39.6914 15.4883 39.7266 15.7461 39.6797 15.9922C39.6352 16.1685 39.6333 16.3529 39.674 16.5302C39.7148 16.7074 39.7971 16.8725 39.9141 17.0117C40.1719 17.5039 40.6289 18.1484 40.4766 19.0625C40.4766 19.0625 40.207 19.4844 39.7383 19.4258C39.5391 19.3906 39.2227 19.3086 39.0586 18.043C38.9297 17.1055 39.082 15.7695 38.6836 15.1484C38.5312 14.7617 38.4258 14.3984 38.0742 15.043C37.9805 15.3008 37.5703 15.6875 37.8633 16.4727C38.1405 17.1802 38.2215 17.9495 38.0977 18.6992C37.9219 18.957 37.8867 19.0391 37.6641 19.2852C37.3594 19.6367 37.0195 19.543 36.7617 19.4141C36.5273 19.2617 36.3398 19.1797 36.2227 18.6523C36.2461 17.832 36.293 16.4844 36.1406 16.2031C35.918 15.7578 35.5547 15.9219 35.4023 16.0625C34.7052 16.8369 34.2385 17.7908 34.0547 18.8164C33.8437 19.4961 33.6211 19.2969 33.4687 19.0273C33.0937 18.6758 33.0586 15.8984 32.6016 16.3555Z" fill="white"/>
<path fill-rule="evenodd" clip-rule="evenodd" d="M34.8047 20.9023C35.1445 20.668 34.9922 20.5039 35.4844 20.9961C36.1197 22.1202 36.4885 23.375 36.5625 24.6641C36.5391 24.9688 36.75 25.1563 36.8555 25.0859C36.9024 24.3828 38.625 23.3984 40.207 23.2578C40.4414 23.1992 40.3242 22.7422 40.3594 22.5078C40.2656 21.6289 40.8516 20.832 41.6719 20.7734C42.7969 20.9375 43.1719 21.5352 43.1953 22.4375C43.0664 24.1953 41.2383 24.4883 40.2188 24.6289C40.0664 24.6875 39.9961 24.7578 40.2188 24.8398L44.5078 24.8633L44.7305 24.9805C44.7539 25.0977 44.6602 25.0039 44.4961 25.2852C44.2602 25.6997 44.1125 26.1585 44.0625 26.6328C42.7852 27.0547 41.461 27.2188 40.125 27.3945C39.6563 27.6289 39.4219 27.9453 39.5156 28.2969C39.6797 28.6836 40.7109 29.082 40.7109 29.0938C40.9102 29.2109 41.1328 29.5039 40.6524 30.1016C38.5664 30.0078 36.9375 29.1172 36.375 27.8633C36.211 27.7344 36.0235 27.8633 35.9063 28.0273C35.086 29.082 34.2891 30.0195 32.8945 30.5352C32.0742 30.7461 31.2188 30.4063 30.8203 29.8672C30.5508 29.5508 30.5625 29.2109 30.4688 29.1406C30.0117 29.3398 26.1445 30.9805 26.6367 30.207C27.5742 29.2109 29.2149 28.4609 30.6445 27.4766C30.75 27.1367 30.9375 26.0117 31.5 25.6484C31.5352 25.6484 31.418 26.3047 31.4297 26.5859C31.4297 26.8203 31.4063 26.9023 31.4531 26.8438C31.5586 26.7852 33.293 25.4141 33.4453 24.9922C33.6094 24.7578 33.4805 24.1484 33.4805 24.125C33.1524 23.2813 32.6953 23.2109 32.5313 22.7891C32.3789 22.2383 32.4492 21.6055 32.7656 21.418C33.0469 21.1719 33.375 21.1953 33.6914 21.4766C34.043 21.793 34.3477 22.4141 34.4414 22.8711C34.3828 23.0469 33.9727 22.7539 33.8555 22.8359C34.081 23.0951 34.231 23.4113 34.2891 23.75C34.5235 24.7109 34.4531 25.0859 34.2188 25.707C33.4453 27.3359 32.461 27.8164 31.5938 28.4258C31.5703 28.4258 31.5586 28.8359 31.875 29.0586C31.9922 29.1758 32.4492 29.2344 32.9766 29.0586C34.1032 28.4329 35.0142 27.4811 35.5899 26.3281C35.6894 25.4508 35.5934 24.5623 35.3086 23.7266C34.9688 22.9414 34.5703 21.8281 34.5703 21.8047C34.5586 21.3125 34.5938 21.1484 34.8047 20.9023ZM23.5781 16.3789C24.0703 16.6133 25.0078 16.5078 24.961 15.7109L24.9375 15.3477C24.8438 15.1133 24.5625 15.1719 24.5039 15.4063C24.4805 15.4883 24.5391 15.6172 24.4688 15.6523C24.4219 15.6992 24.2695 15.6758 24.2695 15.4531C24.2695 15.3828 24.2227 15.3125 24.1875 15.2656C24.1641 15.2422 24.1406 15.2422 24.082 15.2422C24.0117 15.2422 24.0117 15.2539 23.9766 15.3125C23.9649 15.3711 23.9414 15.4297 23.9414 15.5C23.9414 15.582 23.8945 15.6055 23.8477 15.6172C23.7774 15.6172 23.7891 15.6172 23.7305 15.5938C23.707 15.5586 23.6719 15.5469 23.6719 15.4766L23.6367 15.2891C23.6133 15.2539 23.5664 15.2305 23.5195 15.2188C23.25 15.2188 23.2266 15.5352 23.25 15.6523C23.2266 15.6758 23.2149 16.2266 23.5781 16.3789Z" fill="white"/>
<path fill-rule="evenodd" clip-rule="evenodd" d="M38.0508 22.4961C38.543 22.7305 39.7266 22.6016 39.4336 21.8398L39.4102 21.4648C39.3047 21.2305 39.0352 21.2891 38.9766 21.5352C38.9532 21.6055 39.0118 21.7344 38.9297 21.7695C38.8946 21.8164 38.7305 21.793 38.7422 21.582C38.7422 21.5117 38.6954 21.4297 38.6602 21.3828C38.6251 21.3711 38.6133 21.3594 38.543 21.3594C38.4844 21.3594 38.4844 21.3828 38.4493 21.4414C38.4258 21.5 38.4141 21.5586 38.4141 21.6289C38.4024 21.6992 38.3672 21.7227 38.3086 21.7461C38.2501 21.7461 38.2618 21.7461 38.2149 21.7109C38.1797 21.6758 38.1446 21.6641 38.1446 21.6055L38.1094 21.418C38.086 21.3828 38.0391 21.3594 37.9922 21.3477C37.7227 21.3477 37.6993 21.6523 37.711 21.7695C37.6993 21.793 37.6876 22.3555 38.0626 22.4961H38.0508ZM46.4883 19.9648C46.9805 20.1992 47.9063 20.0937 47.8711 19.3086L47.8477 18.9336C47.7422 18.6992 47.4727 18.7578 47.4141 18.9922C47.3907 19.0742 47.4493 19.2031 47.3672 19.25C47.3321 19.2852 47.168 19.2617 47.1797 19.0391C47.1797 18.9687 47.1329 18.8984 47.0977 18.8516C47.0626 18.8281 47.0508 18.8281 46.9805 18.8281C46.9219 18.8281 46.9219 18.8516 46.8868 18.9102L46.8516 19.0859C46.8399 19.168 46.8047 19.2031 46.7461 19.2031C46.6876 19.2031 46.6993 19.2031 46.6524 19.1797C46.6172 19.1445 46.5821 19.1328 46.5821 19.0742C46.5821 19.0156 46.5704 18.9219 46.5469 18.875C46.5235 18.8398 46.4766 18.8281 46.4297 18.8164C46.1602 18.8164 46.1368 19.1211 46.1485 19.2383C46.1368 19.2617 46.1251 19.8125 46.5001 19.9648H46.4883ZM50.8594 26.3281C50.004 27.3008 50.379 28.9062 50.5782 29.2578C50.8594 29.8203 51.0821 30.1836 51.6329 30.4648C52.1368 30.8281 52.5352 30.6055 52.7461 30.3477C53.2501 29.8203 53.2618 28.4727 53.4961 28.2148C53.6602 27.7227 54.0821 27.8047 54.2813 28.0273C54.4677 28.2919 54.7175 28.5055 55.0079 28.6484C55.4766 29.0586 56.0391 29.1406 56.6016 28.7656C56.9766 28.543 57.2227 28.2734 57.4454 27.7227C57.6797 27.0664 57.5626 24.0195 57.504 22.2148L57.0118 19.6953C57.0118 19.6719 56.9532 18.5 56.8946 18.2305C56.8946 18.1133 56.8594 18.0781 56.9766 18.0898C57.1055 18.207 57.1172 18.207 57.211 18.2422C57.3282 18.2656 57.4454 18.043 57.3633 17.8555L56.1915 15.6758C56.0977 15.582 55.9688 15.4883 55.8165 15.6992C55.7266 15.7806 55.655 15.8801 55.6065 15.9912C55.5581 16.1024 55.5337 16.2225 55.5352 16.3437C55.5704 16.8594 55.6524 17.3867 55.6876 17.9023L56.1563 20.5508C56.3086 22.4258 56.3438 23.9727 56.4961 25.8594C56.4727 26.6562 56.2266 27.3477 55.9922 27.4531C55.9922 27.4531 55.6407 27.6523 55.4063 27.4297C55.2305 27.3594 54.5391 26.2695 54.5391 26.2695C54.1876 25.9531 53.9532 26.0352 53.7071 26.2695C53.004 26.9492 52.6993 28.1914 52.2188 29.0586C52.1016 29.2578 51.7501 29.4102 51.3751 29.0469C50.4141 27.7227 50.9766 25.8477 50.8594 26.3281ZM46.711 15.3477C47.1563 15.5234 47.461 16.4258 47.3672 16.8711C47.2735 17.3984 47.0391 17.9844 46.8751 17.9141C46.6876 17.8437 46.9922 17.375 46.8165 16.8828C46.7227 16.5547 46.1133 15.9687 46.1836 15.8047C46.0665 15.4414 46.4415 15.2773 46.711 15.3359V15.3477Z" fill="white"/>
<path fill-rule="evenodd" clip-rule="evenodd" d="M52.2891 26.8672C52.3712 25.7891 52.2188 25.1328 52.1954 24.5C52.1719 23.8672 51.4805 19.0391 51.3399 18.5703C51.1641 17.6562 52.0079 18.4531 51.9141 17.9141C51.6212 17.2578 50.9063 16.2852 50.6837 15.7109C50.543 15.4766 50.6016 15.2422 50.2969 15.6523C50.0346 16.3715 49.9423 17.1416 50.0274 17.9023C50.754 21.6875 51.4922 24.8281 51.3751 28.4258C51.7266 28.4258 52.1133 27.6406 52.2891 26.8672ZM59.836 16.8711C60.2462 17.0703 60.4805 18.1953 60.4337 18.5117C60.3516 19.0977 60.1407 19.7305 59.9883 19.6484C59.8126 19.5781 60.0235 18.7812 59.9415 18.5352C59.8477 18.1836 59.2969 17.5508 59.3555 17.3633C59.2383 16.9648 59.5899 16.8008 59.836 16.8711ZM29.8712 24.8281C30.2579 24.9805 30.4922 25.8008 30.4571 26.0352C30.3633 26.4687 30.1641 26.9375 30.0118 26.8672C29.8594 26.8203 30.0469 26.2344 29.9766 26.0469C29.9415 25.6133 29.4024 25.3789 29.4141 25.1914C29.3204 24.8398 29.6485 24.7812 29.8829 24.8281H29.8712Z" fill="white"/>
<path fill-rule="evenodd" clip-rule="evenodd" d="M39.1992 26.0703C39.6914 26.0938 39.9375 26.4922 39.4805 26.6563C39.0117 26.8086 38.5781 26.9375 38.5664 27.5938C38.7422 28.5313 38.332 28.2031 38.0977 28.0859C37.8164 27.875 37.0195 27.3828 36.9023 26.3281C36.8906 26.082 37.0898 25.8594 37.4063 25.8594C37.875 25.9883 38.5781 26 39.1992 26.0703Z" fill="#1B9D00"/>
<path fill-rule="evenodd" clip-rule="evenodd" d="M19.5703 15.0781C20.1328 15.2422 20.168 16.0859 20.1328 16.332C20.0508 16.7773 19.8516 17.2578 19.711 17.1992C19.5469 17.1406 19.711 16.5313 19.6289 16.3438C19.5469 16.0859 19.0664 15.5938 19.1133 15.4531C19.0078 15.1602 19.3477 15.0195 19.5703 15.0781ZM30.8086 19.0156C30.3633 19.25 30.1992 19.9531 30.4688 20.375C30.7266 20.7266 31.125 20.5977 31.1719 20.5977C31.6055 20.6445 31.8633 19.7891 31.8633 19.7891C31.8633 19.7891 31.875 19.5547 31.3711 20.0117C31.1485 20.0469 31.1367 19.9648 31.0781 19.8477C31.0245 19.6246 31.0451 19.39 31.1367 19.1797C31.2188 18.9688 31.0547 18.875 30.8086 19.0156ZM34.0899 14.75C33.8555 14.9023 33.4219 15.3594 33.4102 15.875C33.3985 16.168 33.3399 16.168 33.5274 16.3438C33.6797 16.5547 33.8086 16.543 34.0899 16.3906C34.1599 16.3465 34.2201 16.2883 34.2665 16.2197C34.3129 16.1511 34.3445 16.0737 34.3594 15.9922C34.4297 15.6641 34.0078 16.1563 33.961 15.7813C33.8672 15.4297 34.1367 15.2891 34.3945 14.9609C34.3945 14.7266 34.3945 14.5742 34.0781 14.75H34.0899ZM36.7149 15.2188C36.6115 15.6455 36.5488 16.081 36.5274 16.5195C36.457 16.8477 36.8789 16.9883 37.0547 16.5664C37.336 15.8047 37.336 15.4766 37.3594 15.1602C37.2774 14.6563 36.9375 14.668 36.7149 15.2188ZM53.3555 23.6914C53.4024 23.6328 55.6992 22.0039 55.6992 22.0039C55.9336 21.9219 55.875 22.8477 55.7695 22.8359C55.0572 23.5224 54.2379 24.0884 53.3438 24.5117C53.2266 24.5938 53.1211 23.8906 53.3438 23.6914H53.3555ZM55.4297 23.668C55.8399 23.8672 56.0039 25.0508 55.957 25.3672C55.957 26 55.5703 26.4922 55.4063 26.4219C55.2422 26.3398 55.4297 25.6367 55.3477 25.3906C55.2539 25.0391 54.9141 24.3945 54.9727 24.207C54.8555 23.8086 55.1836 23.5977 55.4414 23.668H55.4297ZM41.836 28.7539C42.026 28.532 42.2471 28.3386 42.4922 28.1797C42.7266 28.0625 42.9375 28.2734 42.9258 28.2617C42.961 28.4961 42.7852 28.6953 42.8438 29C42.8906 29.1172 42.9258 29.2578 43.1485 29.2109C43.5117 28.918 43.8516 28.8945 44.2031 28.8828C44.4961 28.8945 44.5078 29.375 44.3203 29.375C43.6524 29.5156 43.3594 29.7031 42.8789 29.8789C42.6445 30.0195 42.4571 29.8438 42.4571 29.832C42.4571 29.8203 42.3281 29.7031 42.4102 29.3984C42.4336 29.1641 42.3399 29.0234 42.1289 29.0469C41.9883 29.1406 41.8477 29.1875 41.7774 29.0117C41.7422 28.8945 41.7305 28.8242 41.836 28.7539ZM57.8438 29.3867C57.9375 29.5039 58.0078 29.6211 57.832 29.832L57.3985 30.207C57.3281 30.3242 57.2813 30.5352 57.5156 30.5938C57.9375 30.7109 58.9219 30.0664 58.9219 30.0547C59.086 29.9375 59.0391 29.7031 59.0156 29.7031C58.9219 29.5977 58.711 29.668 58.5703 29.6445C58.5 29.6445 58.2774 29.6211 58.3828 29.4102C58.4615 29.3066 58.5247 29.1921 58.5703 29.0703C58.6289 28.9297 58.5703 28.8359 58.336 28.7539C58.0899 28.707 57.9844 28.7305 57.7149 28.7539C57.5742 28.7773 57.5274 28.8477 57.4922 29.0234C57.5039 29.293 57.668 29.2813 57.8438 29.375V29.3867Z" fill="white"/>
<path fill-rule="evenodd" clip-rule="evenodd" d="M41.9179 22.7305C41.8593 22.8477 41.6484 22.8477 41.4492 22.7305C41.2499 22.6133 41.1328 22.4258 41.2031 22.3203C41.2734 22.2148 41.4726 22.2148 41.6718 22.3203C41.871 22.4258 41.9765 22.625 41.9179 22.7305ZM31.4882 16.4492C31.371 16.4844 31.207 16.3789 31.1367 16.2148C31.0663 16.0508 31.1015 15.9102 31.2187 15.875C31.3359 15.8398 31.4882 15.957 31.5703 16.1094C31.6523 16.2617 31.6054 16.4258 31.4765 16.4609L31.4882 16.4492Z" fill="#259F00"/>
<path fill-rule="evenodd" clip-rule="evenodd" d="M52.1251 44.4453C53.2266 44.4922 54.2579 44.4453 55.3477 44.5039C55.5469 44.6797 55.4063 45.0898 55.2774 45.0664L54.3633 45.0312C54.3516 44.6797 53.461 44.7383 53.4844 45.043C53.004 45.1016 52.5704 45.0312 52.0782 45.0078C51.9376 44.832 51.961 44.5156 52.1251 44.4453Z" fill="#209000"/>
</g>
</g>
<defs>
<clipPath id="clip0_21_182">
<rect width="80" height="60" fill="white" transform="translate(0.5 0.5)"/>
</clipPath>
</defs>
</svg>
