<svg width="80" height="60" viewBox="0 0 80 60" fill="none" xmlns="http://www.w3.org/2000/svg">
<g clip-path="url(#clip0_6_38)">
<path d="M0 0H80V60H0V0Z" fill="#74ACDF"/>
<path d="M0 20H80V40H0V20Z" fill="white"/>
<path d="M39.616 30.156L43.036 37.596C43.036 37.596 43.096 37.74 43.192 37.704C43.288 37.656 43.228 37.524 43.228 37.524L40.384 29.844M40.3 32.736C40.252 33.864 40.948 34.488 40.864 35.496C40.768 36.516 41.32 37.08 41.464 37.476C41.584 37.872 41.308 38.1 41.428 38.16C41.548 38.22 41.788 37.908 41.716 37.344C41.632 36.792 41.212 36.624 41.308 35.388C41.404 34.152 40.804 33.864 40.948 32.748" fill="#F6B40E"/>
<path d="M39.616 30.156L43.036 37.596C43.036 37.596 43.096 37.74 43.192 37.704C43.288 37.656 43.228 37.524 43.228 37.524L40.384 29.844M40.3 32.736C40.252 33.864 40.948 34.488 40.864 35.496C40.768 36.516 41.32 37.08 41.464 37.476C41.584 37.872 41.308 38.1 41.428 38.16C41.548 38.22 41.788 37.908 41.716 37.344C41.632 36.792 41.212 36.624 41.308 35.388C41.404 34.152 40.804 33.864 40.948 32.748" stroke="#85340A" stroke-width="0.132"/>
<path d="M39.5854 29.9972L39.8979 38.1796C39.8979 38.1796 39.8983 38.3356 40.0007 38.3391C40.1078 38.3315 40.1029 38.1866 40.1029 38.1866L40.4144 30.0028M39.23 32.6425C38.754 33.6663 39.1583 34.5092 38.6949 35.4083C38.2159 36.3139 38.51 37.0462 38.4915 37.4672C38.4508 37.8789 38.1086 37.984 38.1965 38.0853C38.2844 38.1867 38.6255 37.9903 38.7749 37.4417C38.9085 36.8995 38.5848 36.5836 39.1464 35.4784C39.7081 34.3732 39.264 33.8775 39.8241 32.9016" fill="#F6B40E"/>
<path d="M39.5854 29.9972L39.8979 38.1796C39.8979 38.1796 39.8983 38.3356 40.0007 38.3391C40.1078 38.3315 40.1029 38.1866 40.1029 38.1866L40.4144 30.0028M39.23 32.6425C38.754 33.6663 39.1583 34.5092 38.6949 35.4083C38.2159 36.3139 38.51 37.0462 38.4915 37.4672C38.4508 37.8789 38.1086 37.984 38.1965 38.0853C38.2844 38.1867 38.6255 37.9903 38.7749 37.4417C38.9085 36.8995 38.5848 36.5836 39.1464 35.4784C39.7081 34.3732 39.264 33.8775 39.8241 32.9016" stroke="#85340A" stroke-width="0.132"/>
<path d="M39.6181 29.8388L36.7756 37.518C36.7756 37.518 36.7162 37.6622 36.8095 37.7046C36.9113 37.7386 36.9622 37.6028 36.9622 37.6028L40.3818 30.1612M38.2775 32.1468C37.4459 32.9104 37.4968 33.8438 36.7247 34.4972C35.9355 35.1506 35.927 35.9397 35.7488 36.3215C35.5537 36.6864 35.1973 36.6525 35.2397 36.7797C35.2821 36.907 35.6725 36.8561 36.0204 36.4064C36.3513 35.9567 36.1731 35.5409 37.115 34.7348C38.0568 33.9287 37.8362 33.3008 38.7272 32.6135" fill="#F6B40E"/>
<path d="M39.6181 29.8388L36.7756 37.518C36.7756 37.518 36.7162 37.6622 36.8095 37.7046C36.9113 37.7386 36.9622 37.6028 36.9622 37.6028L40.3818 30.1612M38.2775 32.1468C37.4459 32.9104 37.4968 33.8438 36.7247 34.4972C35.9355 35.1506 35.927 35.9397 35.7488 36.3215C35.5537 36.6864 35.1973 36.6525 35.2397 36.7797C35.2821 36.907 35.6725 36.8561 36.0204 36.4064C36.3513 35.9567 36.1731 35.5409 37.115 34.7348C38.0568 33.9287 37.8362 33.3008 38.7272 32.6135" stroke="#85340A" stroke-width="0.132"/>
<path d="M39.7088 29.7049L34.1439 35.7118C34.1439 35.7118 34.0339 35.8223 34.1039 35.8972C34.1849 35.9675 34.2839 35.8616 34.2839 35.8616L40.291 30.2951M37.587 31.3242C36.5265 31.7115 36.2163 32.5933 35.2529 32.9015C34.2738 33.2031 33.964 33.9289 33.6532 34.2135C33.3333 34.4759 33.017 34.3082 33.0075 34.442C32.998 34.5758 33.3781 34.6782 33.8716 34.3958C34.3494 34.107 34.3439 33.6546 35.5226 33.2703C36.7012 32.886 36.7377 32.2215 37.8239 31.9274" fill="#F6B40E"/>
<path d="M39.7088 29.7049L34.1439 35.7118C34.1439 35.7118 34.0339 35.8223 34.1039 35.8972C34.1849 35.9675 34.2839 35.8616 34.2839 35.8616L40.291 30.2951M37.587 31.3242C36.5265 31.7115 36.2163 32.5933 35.2529 32.9015C34.2738 33.2031 33.964 33.9289 33.6532 34.2135C33.3333 34.4759 33.017 34.3082 33.0075 34.442C32.998 34.5758 33.3781 34.6782 33.8716 34.3958C34.3494 34.107 34.3439 33.6546 35.5226 33.2703C36.7012 32.886 36.7377 32.2215 37.8239 31.9274" stroke="#85340A" stroke-width="0.132"/>
<path d="M40.516 32.928C40.576 34.008 41.188 34.488 41.068 35.484C41.332 34.704 40.696 34.092 40.732 32.94M39.808 30.084L42.148 35.196L40.192 29.928" fill="#85340A"/>
<path d="M39.3562 32.9026C38.9983 33.9233 39.38 34.601 38.888 35.4753C39.4304 34.8557 39.077 34.0469 39.5511 32.9963M39.7904 30.0041L39.996 35.6225L40.2049 30.007" fill="#85340A"/>
<path d="M38.2943 32.4353C37.5731 33.2414 37.6664 34.0135 36.8773 34.633C37.6155 34.2681 37.5986 33.3856 38.4386 32.5965M39.8047 29.9236L37.8446 35.193L40.1866 30.0848" fill="#85340A"/>
<path d="M37.4923 31.5972C36.5175 32.0659 36.3083 32.8151 35.3421 33.0853C36.1638 33.0307 36.4858 32.209 37.5639 31.8014M39.8489 29.8548L36.0215 33.9729L40.14 30.1498" fill="#85340A"/>
<path d="M39.844 29.616L32.404 33.036C32.404 33.036 32.26 33.096 32.296 33.192C32.344 33.288 32.476 33.228 32.476 33.228L40.156 30.384M37.264 30.3C36.136 30.252 35.512 30.948 34.504 30.864C33.484 30.768 32.92 31.32 32.524 31.464C32.128 31.584 31.9 31.308 31.84 31.428C31.78 31.548 32.092 31.788 32.656 31.716C33.208 31.632 33.376 31.212 34.612 31.308C35.848 31.404 36.136 30.804 37.252 30.948" fill="#F6B40E"/>
<path d="M39.844 29.616L32.404 33.036C32.404 33.036 32.26 33.096 32.296 33.192C32.344 33.288 32.476 33.228 32.476 33.228L40.156 30.384M37.264 30.3C36.136 30.252 35.512 30.948 34.504 30.864C33.484 30.768 32.92 31.32 32.524 31.464C32.128 31.584 31.9 31.308 31.84 31.428C31.78 31.548 32.092 31.788 32.656 31.716C33.208 31.632 33.376 31.212 34.612 31.308C35.848 31.404 36.136 30.804 37.252 30.948" stroke="#85340A" stroke-width="0.132"/>
<path d="M40.0028 29.5855L31.8203 29.898C31.8203 29.898 31.6643 29.8984 31.6608 30.0008C31.6685 30.1079 31.8134 30.103 31.8134 30.103L39.9971 30.4145M37.3574 29.2302C36.3336 28.7541 35.4908 29.1584 34.5917 28.695C33.686 28.216 32.9537 28.5101 32.5328 28.4916C32.121 28.451 32.016 28.1087 31.9146 28.1966C31.8133 28.2845 32.0097 28.6256 32.5583 28.775C33.1004 28.9086 33.4164 28.5849 34.5215 29.1465C35.6267 29.7082 36.1224 29.2641 37.0983 29.8242" fill="#F6B40E"/>
<path d="M40.0028 29.5855L31.8203 29.898C31.8203 29.898 31.6643 29.8984 31.6608 30.0008C31.6685 30.1079 31.8134 30.103 31.8134 30.103L39.9971 30.4145M37.3574 29.2302C36.3336 28.7541 35.4908 29.1584 34.5917 28.695C33.686 28.216 32.9537 28.5101 32.5328 28.4916C32.121 28.451 32.016 28.1087 31.9146 28.1966C31.8133 28.2845 32.0097 28.6256 32.5583 28.775C33.1004 28.9086 33.4164 28.5849 34.5215 29.1465C35.6267 29.7082 36.1224 29.2641 37.0983 29.8242" stroke="#85340A" stroke-width="0.132"/>
<path d="M40.1612 29.6182L32.482 26.7756C32.482 26.7756 32.3378 26.7162 32.2954 26.8095C32.2614 26.9114 32.3972 26.9623 32.3972 26.9623L39.8388 30.3819M37.8532 28.2775C37.0895 27.4459 36.1562 27.4969 35.5028 26.7247C34.8494 25.9356 34.0603 25.9271 33.6785 25.7489C33.3136 25.5537 33.3475 25.1973 33.2203 25.2398C33.093 25.2822 33.1439 25.6725 33.5936 26.0204C34.0433 26.3513 34.4591 26.1732 35.2652 27.115C36.0713 28.0569 36.6992 27.8363 37.3865 28.7272" fill="#F6B40E"/>
<path d="M40.1612 29.6182L32.482 26.7756C32.482 26.7756 32.3378 26.7162 32.2954 26.8095C32.2614 26.9114 32.3972 26.9623 32.3972 26.9623L39.8388 30.3819M37.8532 28.2775C37.0895 27.4459 36.1562 27.4969 35.5028 26.7247C34.8494 25.9356 34.0603 25.9271 33.6785 25.7489C33.3136 25.5537 33.3475 25.1973 33.2203 25.2398C33.093 25.2822 33.1439 25.6725 33.5936 26.0204C34.0433 26.3513 34.4591 26.1732 35.2652 27.115C36.0713 28.0569 36.6992 27.8363 37.3865 28.7272" stroke="#85340A" stroke-width="0.132"/>
<path d="M40.295 29.7089L34.2882 24.144C34.2882 24.144 34.1777 24.034 34.1027 24.104C34.0324 24.185 34.1384 24.284 34.1384 24.284L39.7049 30.2911M38.6758 27.5871C38.2885 26.5266 37.4066 26.2164 37.0985 25.253C36.7969 24.2739 36.071 23.9641 35.7865 23.6533C35.524 23.3334 35.6918 23.0171 35.558 23.0076C35.4241 22.9981 35.3218 23.3782 35.6042 23.8717C35.893 24.3496 36.3453 24.344 36.7296 25.5227C37.1139 26.7013 37.7785 26.7378 38.0725 27.824" fill="#F6B40E"/>
<path d="M40.295 29.7089L34.2882 24.144C34.2882 24.144 34.1777 24.034 34.1027 24.104C34.0324 24.185 34.1384 24.284 34.1384 24.284L39.7049 30.2911M38.6758 27.5871C38.2885 26.5266 37.4066 26.2164 37.0985 25.253C36.7969 24.2739 36.071 23.9641 35.7865 23.6533C35.524 23.3334 35.6918 23.0171 35.558 23.0076C35.4241 22.9981 35.3218 23.3782 35.6042 23.8717C35.893 24.3496 36.3453 24.344 36.7296 25.5227C37.1139 26.7013 37.7785 26.7378 38.0725 27.824" stroke="#85340A" stroke-width="0.132"/>
<path d="M37.0719 30.516C35.9919 30.576 35.5119 31.188 34.5159 31.068C35.2959 31.332 35.9079 30.696 37.0599 30.732M39.9159 29.808L34.8039 32.148L40.0719 30.192" fill="#85340A"/>
<path d="M37.0973 29.3562C36.0766 28.9984 35.3989 29.3801 34.5246 28.8881C35.1442 29.4305 35.953 29.0771 37.0036 29.5512M39.9958 29.7905L34.3774 29.9961L39.9929 30.2049" fill="#85340A"/>
<path d="M37.5647 28.2945C36.7586 27.5732 35.9864 27.6666 35.367 26.8774C35.7319 27.6156 36.6143 27.5987 37.4035 28.4387M40.0763 29.8049L34.807 27.8448L39.9151 30.1867" fill="#85340A"/>
<path d="M38.4028 27.4924C37.9341 26.5175 37.185 26.3083 36.9147 25.3422C36.9693 26.1638 37.7911 26.4858 38.1986 27.5639M40.1453 29.8489L36.0271 26.0215L39.8502 30.14" fill="#85340A"/>
<path d="M40.384 29.844L36.964 22.404C36.964 22.404 36.904 22.26 36.808 22.296C36.712 22.344 36.772 22.476 36.772 22.476L39.616 30.156M39.7 27.264C39.748 26.136 39.052 25.512 39.136 24.504C39.232 23.484 38.68 22.92 38.536 22.524C38.416 22.128 38.692 21.9 38.572 21.84C38.452 21.78 38.212 22.092 38.284 22.656C38.368 23.208 38.788 23.376 38.692 24.612C38.596 25.848 39.196 26.136 39.052 27.252" fill="#F6B40E"/>
<path d="M40.384 29.844L36.964 22.404C36.964 22.404 36.904 22.26 36.808 22.296C36.712 22.344 36.772 22.476 36.772 22.476L39.616 30.156M39.7 27.264C39.748 26.136 39.052 25.512 39.136 24.504C39.232 23.484 38.68 22.92 38.536 22.524C38.416 22.128 38.692 21.9 38.572 21.84C38.452 21.78 38.212 22.092 38.284 22.656C38.368 23.208 38.788 23.376 38.692 24.612C38.596 25.848 39.196 26.136 39.052 27.252" stroke="#85340A" stroke-width="0.132"/>
<path d="M40.4146 30.0028L40.1021 21.8204C40.1021 21.8204 40.1017 21.6644 39.9993 21.6609C39.8922 21.6685 39.8971 21.8134 39.8971 21.8134L39.5856 29.9972M40.77 27.3575C41.246 26.3337 40.8417 25.4908 41.3051 24.5917C41.7841 23.6861 41.49 22.9538 41.5085 22.5328C41.5492 22.1211 41.8914 22.016 41.8035 21.9147C41.7156 21.8133 41.3745 22.0097 41.2251 22.5583C41.0915 23.1005 41.4152 23.4164 40.8536 24.5216C40.2919 25.6268 40.736 26.1225 40.1759 27.0984" fill="#F6B40E"/>
<path d="M40.4146 30.0028L40.1021 21.8204C40.1021 21.8204 40.1017 21.6644 39.9993 21.6609C39.8922 21.6685 39.8971 21.8134 39.8971 21.8134L39.5856 29.9972M40.77 27.3575C41.246 26.3337 40.8417 25.4908 41.3051 24.5917C41.7841 23.6861 41.49 22.9538 41.5085 22.5328C41.5492 22.1211 41.8914 22.016 41.8035 21.9147C41.7156 21.8133 41.3745 22.0097 41.2251 22.5583C41.0915 23.1005 41.4152 23.4164 40.8536 24.5216C40.2919 25.6268 40.736 26.1225 40.1759 27.0984" stroke="#85340A" stroke-width="0.132"/>
<path d="M40.3819 30.1612L43.2244 22.482C43.2244 22.482 43.2838 22.3378 43.1905 22.2954C43.0887 22.2614 43.0378 22.3972 43.0378 22.3972L39.6182 29.8388M41.7225 27.8532C42.5541 27.0896 42.5032 26.1562 43.2753 25.5028C44.0645 24.8494 44.073 24.0603 44.2512 23.6785C44.4463 23.3136 44.8027 23.3475 44.7603 23.2203C44.7179 23.093 44.3275 23.1439 43.9796 23.5936C43.6487 24.0433 43.8269 24.4591 42.885 25.2652C41.9432 26.0713 42.1638 26.6992 41.2728 27.3865" fill="#F6B40E"/>
<path d="M40.3819 30.1612L43.2244 22.482C43.2244 22.482 43.2838 22.3378 43.1905 22.2954C43.0887 22.2614 43.0378 22.3972 43.0378 22.3972L39.6182 29.8388M41.7225 27.8532C42.5541 27.0896 42.5032 26.1562 43.2753 25.5028C44.0645 24.8494 44.073 24.0603 44.2512 23.6785C44.4463 23.3136 44.8027 23.3475 44.7603 23.2203C44.7179 23.093 44.3275 23.1439 43.9796 23.5936C43.6487 24.0433 43.8269 24.4591 42.885 25.2652C41.9432 26.0713 42.1638 26.6992 41.2728 27.3865" stroke="#85340A" stroke-width="0.132"/>
<path d="M40.2912 30.2951L45.8561 24.2882C45.8561 24.2882 45.9661 24.1777 45.8961 24.1028C45.8151 24.0325 45.7161 24.1384 45.7161 24.1384L39.709 29.7049M42.413 28.6758C43.4735 28.2885 43.7837 27.4067 44.7471 27.0985C45.7262 26.7969 46.036 26.0711 46.3468 25.7865C46.6667 25.5241 46.983 25.6918 46.9925 25.558C47.002 25.4242 46.6219 25.3218 46.1284 25.6042C45.6506 25.893 45.6561 26.3454 44.4774 26.7297C43.2988 27.114 43.2623 27.7785 42.1761 28.0726" fill="#F6B40E"/>
<path d="M40.2912 30.2951L45.8561 24.2882C45.8561 24.2882 45.9661 24.1777 45.8961 24.1028C45.8151 24.0325 45.7161 24.1384 45.7161 24.1384L39.709 29.7049M42.413 28.6758C43.4735 28.2885 43.7837 27.4067 44.7471 27.0985C45.7262 26.7969 46.036 26.0711 46.3468 25.7865C46.6667 25.5241 46.983 25.6918 46.9925 25.558C47.002 25.4242 46.6219 25.3218 46.1284 25.6042C45.6506 25.893 45.6561 26.3454 44.4774 26.7297C43.2988 27.114 43.2623 27.7785 42.1761 28.0726" stroke="#85340A" stroke-width="0.132"/>
<path d="M39.484 27.072C39.424 25.992 38.812 25.512 38.932 24.516C38.668 25.296 39.304 25.908 39.268 27.06M40.192 29.916L37.852 24.804L39.808 30.072" fill="#85340A"/>
<path d="M40.6438 27.0974C41.0017 26.0767 40.62 25.399 41.112 24.5247C40.5696 25.1443 40.923 25.9531 40.4489 27.0037M40.2096 29.9959L40.004 24.3775L39.7951 29.993" fill="#85340A"/>
<path d="M41.7057 27.5647C42.4269 26.7586 42.3336 25.9865 43.1227 25.367C42.3845 25.7319 42.4014 26.6144 41.5614 27.4035M40.1953 30.0764L42.1554 24.807L39.8134 29.9152" fill="#85340A"/>
<path d="M42.5077 28.4028C43.4825 27.9341 43.6917 27.1849 44.6579 26.9147C43.8362 26.9693 43.5142 27.791 42.4361 28.1986M40.1511 30.1452L43.9785 26.0271L39.86 29.8502" fill="#85340A"/>
<path d="M40.156 30.384L47.596 26.964C47.596 26.964 47.74 26.904 47.704 26.808C47.656 26.712 47.524 26.772 47.524 26.772L39.844 29.616M42.736 29.7C43.864 29.748 44.488 29.052 45.496 29.136C46.516 29.232 47.08 28.68 47.476 28.536C47.872 28.416 48.1 28.692 48.16 28.572C48.22 28.452 47.908 28.212 47.344 28.284C46.792 28.368 46.624 28.788 45.388 28.692C44.152 28.596 43.864 29.196 42.748 29.052" fill="#F6B40E"/>
<path d="M40.156 30.384L47.596 26.964C47.596 26.964 47.74 26.904 47.704 26.808C47.656 26.712 47.524 26.772 47.524 26.772L39.844 29.616M42.736 29.7C43.864 29.748 44.488 29.052 45.496 29.136C46.516 29.232 47.08 28.68 47.476 28.536C47.872 28.416 48.1 28.692 48.16 28.572C48.22 28.452 47.908 28.212 47.344 28.284C46.792 28.368 46.624 28.788 45.388 28.692C44.152 28.596 43.864 29.196 42.748 29.052" stroke="#85340A" stroke-width="0.132"/>
<path d="M39.9972 30.4145L48.1797 30.102C48.1797 30.102 48.3357 30.1016 48.3392 29.9992C48.3315 29.8921 48.1866 29.897 48.1866 29.897L40.0029 29.5855M42.6426 30.7699C43.6664 31.2459 44.5092 30.8416 45.4083 31.305C46.314 31.784 47.0463 31.4899 47.4672 31.5084C47.879 31.5491 47.984 31.8913 48.0854 31.8034C48.1867 31.7155 47.9903 31.3744 47.4417 31.2251C46.8996 31.0914 46.5836 31.4152 45.4785 30.8535C44.3733 30.2918 43.8776 30.7359 42.9017 30.1758" fill="#F6B40E"/>
<path d="M39.9972 30.4145L48.1797 30.102C48.1797 30.102 48.3357 30.1016 48.3392 29.9992C48.3315 29.8921 48.1866 29.897 48.1866 29.897L40.0029 29.5855M42.6426 30.7699C43.6664 31.2459 44.5092 30.8416 45.4083 31.305C46.314 31.784 47.0463 31.4899 47.4672 31.5084C47.879 31.5491 47.984 31.8913 48.0854 31.8034C48.1867 31.7155 47.9903 31.3744 47.4417 31.2251C46.8996 31.0914 46.5836 31.4152 45.4785 30.8535C44.3733 30.2918 43.8776 30.7359 42.9017 30.1758" stroke="#85340A" stroke-width="0.132"/>
<path d="M39.8388 30.3818L47.518 33.2244C47.518 33.2244 47.6622 33.2838 47.7046 33.1905C47.7386 33.0886 47.6028 33.0377 47.6028 33.0377L40.1612 29.6182M42.1468 31.7225C42.9105 32.5541 43.8438 32.5032 44.4972 33.2753C45.1506 34.0645 45.9397 34.0729 46.3215 34.2511C46.6864 34.4463 46.6525 34.8027 46.7797 34.7602C46.907 34.7178 46.8561 34.3275 46.4064 33.9796C45.9567 33.6487 45.5409 33.8269 44.7348 32.885C43.9287 31.9431 43.3008 32.1637 42.6135 31.2728" fill="#F6B40E"/>
<path d="M39.8388 30.3818L47.518 33.2244C47.518 33.2244 47.6622 33.2838 47.7046 33.1905C47.7386 33.0886 47.6028 33.0377 47.6028 33.0377L40.1612 29.6182M42.1468 31.7225C42.9105 32.5541 43.8438 32.5032 44.4972 33.2753C45.1506 34.0645 45.9397 34.0729 46.3215 34.2511C46.6864 34.4463 46.6525 34.8027 46.7797 34.7602C46.907 34.7178 46.8561 34.3275 46.4064 33.9796C45.9567 33.6487 45.5409 33.8269 44.7348 32.885C43.9287 31.9431 43.3008 32.1637 42.6135 31.2728" stroke="#85340A" stroke-width="0.132"/>
<path d="M39.705 30.2911L45.7118 35.856C45.7118 35.856 45.8223 35.966 45.8973 35.896C45.9676 35.815 45.8616 35.716 45.8616 35.716L40.2951 29.7089M41.3242 32.4129C41.7115 33.4734 42.5934 33.7836 42.9015 34.747C43.2031 35.7261 43.929 36.0359 44.2135 36.3467C44.476 36.6666 44.3082 36.9829 44.442 36.9924C44.5759 37.0019 44.6782 36.6218 44.3958 36.1283C44.107 35.6504 43.6547 35.656 43.2704 34.4773C42.8861 33.2987 42.2215 33.2622 41.9275 32.176" fill="#F6B40E"/>
<path d="M39.705 30.2911L45.7118 35.856C45.7118 35.856 45.8223 35.966 45.8973 35.896C45.9676 35.815 45.8616 35.716 45.8616 35.716L40.2951 29.7089M41.3242 32.4129C41.7115 33.4734 42.5934 33.7836 42.9015 34.747C43.2031 35.7261 43.929 36.0359 44.2135 36.3467C44.476 36.6666 44.3082 36.9829 44.442 36.9924C44.5759 37.0019 44.6782 36.6218 44.3958 36.1283C44.107 35.6504 43.6547 35.656 43.2704 34.4773C42.8861 33.2987 42.2215 33.2622 41.9275 32.176" stroke="#85340A" stroke-width="0.132"/>
<path d="M42.9281 29.484C44.0081 29.424 44.4881 28.812 45.4841 28.932C44.7041 28.668 44.0921 29.304 42.9401 29.268M40.0841 30.192L45.1961 27.852L39.9281 29.808" fill="#85340A"/>
<path d="M42.9027 30.6438C43.9234 31.0016 44.6011 30.6199 45.4754 31.1119C44.8558 30.5695 44.047 30.9229 42.9964 30.4488M40.0042 30.2095L45.6226 30.0039L40.0071 29.7951" fill="#85340A"/>
<path d="M42.4353 31.7055C43.2414 32.4268 44.0136 32.3335 44.633 33.1226C44.2681 32.3844 43.3857 32.4013 42.5965 31.5613M39.9237 30.1952L45.193 32.1553L40.0849 29.8133" fill="#85340A"/>
<path d="M41.5972 32.5077C42.0659 33.4825 42.815 33.6917 43.0853 34.6579C43.0307 33.8362 42.2089 33.5142 41.8014 32.4361M39.8547 30.1511L43.9729 33.9785L40.1498 29.86" fill="#85340A"/>
<path d="M40 33.3375C41.8432 33.3375 43.3375 31.8432 43.3375 30C43.3375 28.1567 41.8432 26.6625 40 26.6625C38.1567 26.6625 36.6625 28.1567 36.6625 30C36.6625 31.8432 38.1567 33.3375 40 33.3375Z" fill="#F6B40E" stroke="#85340A" stroke-width="0.175"/>
<path d="M41.1375 29.2875C40.9125 29.2875 40.6875 29.3875 40.5625 29.5875C40.8125 29.825 41.3875 29.8375 41.775 29.5625C41.6931 29.4756 41.5943 29.4064 41.4847 29.3591C41.3751 29.3118 41.2569 29.2874 41.1375 29.2875ZM41.1375 29.3375C41.35 29.3375 41.5625 29.4375 41.5875 29.5375C41.3375 29.825 40.925 29.7875 40.6625 29.5875C40.7128 29.5079 40.7832 29.4428 40.8666 29.399C40.9499 29.3551 41.0434 29.3339 41.1375 29.3375Z" fill="#843511"/>
<path d="M41.175 29.125C40.8375 29.125 40.7625 29.2125 40.6125 29.3375C40.4625 29.4625 40.375 29.4375 40.3625 29.4625C40.325 29.4875 40.3625 29.5625 40.4 29.5375C40.4625 29.5125 40.5625 29.4625 40.7125 29.3375C40.8625 29.2125 41.025 29.2125 41.175 29.2125C41.6375 29.2125 41.8875 29.5875 41.95 29.5625C41.9875 29.5375 41.6875 29.125 41.175 29.125Z" fill="#85340A"/>
<path d="M42.1 29.2875C41.5125 28.775 40.7625 28.6875 40.35 29.075C40.2532 29.2036 40.1889 29.3537 40.1625 29.5125C40.1125 29.8 40.2 30.1125 40.425 30.4375L40.325 30.4875C40.1287 30.1293 40.0583 29.7155 40.125 29.3125C40.1413 29.2146 40.1664 29.1184 40.2 29.025C40.7625 28.5625 41.5375 28.525 42.1 29.275V29.2875Z" fill="#85340A"/>
<path d="M41.125 29.775C41.2561 29.775 41.3624 29.6687 41.3624 29.5375C41.3624 29.4063 41.2561 29.3 41.125 29.3C40.9938 29.3 40.8875 29.4063 40.8875 29.5375C40.8875 29.6687 40.9938 29.775 41.125 29.775Z" fill="#85340A"/>
<path d="M41.7875 29.6875C41.35 30.025 40.9125 30 40.6625 29.85C40.4125 29.6875 40.4125 29.6375 40.4625 29.6375C40.5125 29.6375 40.5625 29.6875 40.7625 29.8C40.975 29.9 41.275 29.9 41.7875 29.6875Z" fill="#85340A"/>
<path d="M39.5 30.4625C39.4599 30.4665 39.4215 30.4807 39.3884 30.5037C39.3553 30.5267 39.3285 30.5577 39.3107 30.5939C39.2929 30.6301 39.2846 30.6702 39.2866 30.7104C39.2886 30.7507 39.3008 30.7898 39.322 30.824C39.3433 30.8583 39.3729 30.8866 39.4081 30.9062C39.4433 30.9259 39.483 30.9362 39.5233 30.9363C39.5636 30.9364 39.6032 30.9262 39.6385 30.9068C39.6738 30.8873 39.7036 30.8591 39.725 30.825C39.8075 30.8761 39.903 30.9022 40 30.9H40.025C40.1263 30.9055 40.2268 30.8793 40.3125 30.825C40.3356 30.8567 40.3662 30.8822 40.4015 30.8992C40.4369 30.9162 40.4759 30.9242 40.5151 30.9225C40.5543 30.9207 40.5924 30.9093 40.6261 30.8892C40.6598 30.8691 40.688 30.841 40.7082 30.8074C40.7283 30.7738 40.7399 30.7356 40.7417 30.6965C40.7436 30.6573 40.7357 30.6183 40.7188 30.5829C40.7019 30.5475 40.6765 30.5168 40.6449 30.4936C40.6133 30.4704 40.5764 30.4554 40.5375 30.45C40.6 30.4875 40.6375 30.5375 40.6375 30.6125C40.6375 30.6875 40.575 30.7625 40.4875 30.7625C40.4477 30.7625 40.4096 30.7467 40.3815 30.7186C40.3533 30.6904 40.3375 30.6523 40.3375 30.6125C40.3079 30.6742 40.262 30.7266 40.2047 30.7641C40.1474 30.8015 40.0809 30.8226 40.0125 30.825C39.9463 30.8204 39.8825 30.7983 39.8275 30.761C39.7726 30.7237 39.7286 30.6724 39.7 30.6125C39.7001 30.6333 39.6958 30.6539 39.6875 30.6729C39.6792 30.692 39.667 30.7091 39.6518 30.7232C39.6365 30.7373 39.6184 30.7481 39.5988 30.7549C39.5791 30.7616 39.5582 30.7642 39.5375 30.7625C39.4625 30.7625 39.3875 30.6875 39.3875 30.6125C39.3875 30.5375 39.425 30.4875 39.4875 30.4625H39.5ZM39.75 31.15C39.4875 31.15 39.375 31.375 39.15 31.525C39.275 31.475 39.3875 31.375 39.5625 31.275C39.7375 31.175 39.9 31.3 40 31.3C40.1 31.3 40.25 31.175 40.4375 31.275C40.6125 31.375 40.725 31.475 40.85 31.525C40.6125 31.375 40.5125 31.15 40.25 31.15C40.1627 31.1588 40.0778 31.1843 40 31.225C39.9231 31.1799 39.8382 31.1502 39.75 31.1375V31.15Z" fill="#85340A"/>
<path d="M39.65 31.45C39.55 31.45 39.425 31.475 39.225 31.525C39.6875 31.425 39.7875 31.5875 40 31.5875C40.2 31.5875 40.3 31.425 40.7625 31.525C40.2625 31.375 40.15 31.475 40 31.475C39.9 31.475 39.825 31.4375 39.65 31.45Z" fill="#85340A"/>
<path d="M39.25 31.525H39.15C39.6875 31.5875 39.4375 31.9 40 31.9C40.5625 31.9 40.3125 31.5875 40.85 31.525C40.2875 31.475 40.4625 31.8125 40 31.8125C39.5625 31.8125 39.7 31.525 39.25 31.525ZM40.4625 32.3625C40.4625 32.2398 40.4138 32.1222 40.3271 32.0355C40.2403 31.9487 40.1227 31.9 40 31.9C39.8774 31.9 39.7597 31.9487 39.673 32.0355C39.5862 32.1222 39.5375 32.2398 39.5375 32.3625C39.5619 32.2582 39.6209 32.1651 39.7049 32.0986C39.7889 32.032 39.8929 31.9957 40 31.9957C40.1072 31.9957 40.2112 32.032 40.2952 32.0986C40.3791 32.1651 40.4381 32.2582 40.4625 32.3625Z" fill="#85340A"/>
<path d="M37.925 29.2875C38.5125 28.775 39.2625 28.6875 39.675 29.075C39.7719 29.2036 39.8362 29.3537 39.8625 29.5125C39.9125 29.8 39.825 30.1125 39.6 30.4375L39.7001 30.4875C39.8963 30.1293 39.9668 29.7155 39.9001 29.3125C39.8837 29.2146 39.8586 29.1184 39.8251 29.025C39.2626 28.5625 38.4875 28.525 37.925 29.275V29.2875Z" fill="#85340A"/>
<path d="M38.85 29.125C39.1875 29.125 39.2625 29.2125 39.4125 29.3375C39.5625 29.4625 39.65 29.4375 39.6625 29.4625C39.7 29.4875 39.6625 29.5625 39.625 29.5375C39.5625 29.5125 39.4625 29.4625 39.3125 29.3375C39.1625 29.2125 39 29.2125 38.85 29.2125C38.3875 29.2125 38.1375 29.5875 38.075 29.5625C38.0375 29.5375 38.3375 29.125 38.85 29.125Z" fill="#85340A"/>
<path d="M38.8375 29.2875C38.6125 29.2875 38.3875 29.3875 38.2625 29.5875C38.5125 29.825 39.0875 29.8375 39.475 29.5625C39.3931 29.4756 39.2943 29.4064 39.1846 29.3591C39.075 29.3118 38.9569 29.2874 38.8375 29.2875ZM38.8375 29.3375C39.05 29.3375 39.2625 29.4375 39.2875 29.5375C39.0375 29.825 38.6249 29.7875 38.3624 29.5875C38.4128 29.5079 38.4831 29.4428 38.5665 29.399C38.6499 29.3551 38.7433 29.3339 38.8375 29.3375Z" fill="#843511"/>
<path d="M38.8625 29.775C38.9937 29.775 39.1 29.6687 39.1 29.5375C39.1 29.4063 38.9937 29.3 38.8625 29.3C38.7313 29.3 38.625 29.4063 38.625 29.5375C38.625 29.6687 38.7313 29.775 38.8625 29.775Z" fill="#85340A"/>
<path d="M38.2375 29.6875C38.675 30.025 39.1125 30 39.3625 29.85C39.6125 29.6875 39.6125 29.6375 39.5625 29.6375C39.5125 29.6375 39.4626 29.6875 39.2626 29.8C39.0501 29.9 38.75 29.9 38.2375 29.6875Z" fill="#85340A"/>
</g>
<defs>
<clipPath id="clip0_6_38">
<rect width="80" height="60" fill="white"/>
</clipPath>
</defs>
</svg>
