<svg width="80" height="60" viewBox="0 0 80 60" fill="none" xmlns="http://www.w3.org/2000/svg">
<g clip-path="url(#clip0_2_18)">
<path d="M0 0H80V60H0V0Z" fill="#000066"/>
<path fill-rule="evenodd" clip-rule="evenodd" d="M37.475 49.0625L32.0125 49.5375L32.7625 54.9625L29 51L25.2375 54.9625L25.9875 49.5375L20.525 49.0625L25.2375 46.275L22.2 41.7125L27.325 43.65L29 38.4375L30.6875 43.65L35.8125 41.7125L32.775 46.275M60.825 54.0625L59.5 52.0875L61.725 52.925L62.45 50.6625L63.175 52.925L65.4 52.0875L64.0875 54.0625L66.1375 55.275L63.7625 55.4875L64.0875 57.85L62.4625 56.1125L60.8125 57.85L61.1375 55.4875L58.7625 55.2875M60.8125 18.8L59.5 16.825L61.725 17.6625L62.45 15.4L63.175 17.6625L65.4 16.825L64.0875 18.8L66.1375 20.025L63.7625 20.225L64.0875 22.5875L62.4625 20.8625L60.8125 22.575L61.1375 20.225L58.7625 20.025M47.6 33.125L46.2875 31.15L48.5125 31.9875L49.2375 29.725L49.975 31.9875L52.2 31.15L50.875 33.125L52.925 34.3375L50.55 34.55L50.8875 36.9125L49.2375 35.175L47.6125 36.9125L47.925 34.55L45.55 34.35M72.5875 29.6L71.25 27.625L73.475 28.4625L74.2 26.2L74.9375 28.4625L77.1625 27.625L75.85 29.6L77.8875 30.8125L75.5125 31.025L75.8375 33.375L74.2125 31.65L72.5625 33.375L72.8875 31.025L70.5125 30.8125M67.75 40L66.4625 40.8125L66.825 39.325L65.6625 38.35L67.175 38.225L67.75 36.825L68.3375 38.2375L69.85 38.35L68.6875 39.325L69.05 40.8125" fill="white"/>
<path d="M0 0H40V30H0V0Z" fill="#000066"/>
<path d="M4.6875 0L19.9375 11.3125L35.125 0H40V3.875L25 15.0625L40 26.1875V30H35L20 18.8125L5.0625 30H0V26.25L14.9375 15.125L0 4V0H4.6875Z" fill="white"/>
<path d="M26.5 17.5625L40 27.5V30L23.0625 17.5625H26.5ZM15 18.8125L15.375 21L3.375 30H0L15 18.8125ZM40 0V0.1875L24.4375 11.9375L24.5625 9.1875L36.875 0H40ZM0 0L14.9375 11H11.1875L0 2.625V0Z" fill="#C8102E"/>
<path d="M15.0625 0V30H25.0625V0H15.0625ZM0 10V20H40V10H0Z" fill="white"/>
<path d="M0 12.0625V18.0625H40V12.0625H0ZM17.0625 0V30H23.0625V0H17.0625Z" fill="#C8102E"/>
</g>
<defs>
<clipPath id="clip0_2_18">
<rect width="80" height="60" fill="white"/>
</clipPath>
</defs>
</svg>
