<svg width="80" height="60" viewBox="0 0 80 60" fill="none" xmlns="http://www.w3.org/2000/svg">
<g clip-path="url(#clip0_2_37)">
<path d="M0.0125122 0H80.0125V60H0.0125122V0Z" fill="#3F9C35"/>
<path d="M0.0125122 0H80.0125V40H0.0125122V0Z" fill="#ED2939"/>
<path d="M0.0125122 0H80.0125V20H0.0125122V0Z" fill="#00B9E4"/>
<path d="M38 39C42.9706 39 47 34.9706 47 30C47 25.0294 42.9706 21 38 21C33.0294 21 29 25.0294 29 30C29 34.9706 33.0294 39 38 39Z" fill="white"/>
<path d="M40 37.5C44.1421 37.5 47.5 34.1421 47.5 30C47.5 25.8579 44.1421 22.5 40 22.5C35.8579 22.5 32.5 25.8579 32.5 30C32.5 34.1421 35.8579 37.5 40 37.5Z" fill="#ED2939"/>
<path d="M48 25L48.9625 27.6875L51.5375 26.4625L50.3125 29.05L53 30L50.3125 30.9625L51.5375 33.5375L48.9625 32.3125L48 35L47.0375 32.3125L44.4625 33.5375L45.6875 30.9625L43 30L45.6875 29.0375L44.4625 26.4625L47.0375 27.6875L48 25Z" fill="white"/>
</g>
<defs>
<clipPath id="clip0_2_37">
<rect width="80" height="60" fill="white"/>
</clipPath>
</defs>
</svg>
