<svg width="80" height="60" viewBox="0 0 80 60" fill="none" xmlns="http://www.w3.org/2000/svg">
<g clip-path="url(#clip0_2_45)">
<path d="M0 0H80V60H0V0Z" fill="#00267F"/>
<path d="M26.6626 0H53.3376V60H26.6626V0Z" fill="#FFC726"/>
<path d="M39.9748 16.9375C39.0998 19.3125 38.2248 21.7625 36.3248 23.65C36.9123 23.45 37.9498 23.275 38.5998 23.3V33.2375L35.7998 33.65C35.6998 33.65 35.6748 33.4875 35.6748 33.275C35.3998 30.1875 34.6748 27.5875 33.8248 24.9C33.7623 24.5375 32.6998 23.15 33.5248 23.4C33.6248 23.4 34.7123 23.85 34.5498 23.6375C32.9793 22.0535 30.9501 21.0039 28.7498 20.6375C28.5623 20.6 28.4498 20.7 28.6248 20.9125C31.4248 25.2375 33.7873 30.35 33.7623 36.4125C34.8623 36.4125 37.5123 35.7625 38.5998 35.7625V42.775H39.9998L40.3123 23.1875L39.9748 16.9375Z" fill="black"/>
<path d="M39.9627 16.9375C40.8377 19.3125 41.7127 21.7625 43.6127 23.65C43.0252 23.45 41.9877 23.275 41.3377 23.3V33.2375L44.1377 33.65C44.2377 33.65 44.2627 33.4875 44.2627 33.275C44.5377 30.1875 45.2627 27.5875 46.1127 24.9C46.1752 24.5375 47.2377 23.15 46.4127 23.4C46.3127 23.4 45.2252 23.85 45.3877 23.6375C46.9582 22.0535 48.9874 21.0039 51.1877 20.6375C51.3752 20.6 51.4877 20.7 51.3127 20.9125C48.5127 25.2375 46.1502 30.35 46.1752 36.4125C45.0752 36.4125 42.4252 35.7625 41.3377 35.7625V42.775H39.9377L39.6252 23.1875L39.9627 16.9375Z" fill="black"/>
</g>
<defs>
<clipPath id="clip0_2_45">
<rect width="80" height="60" fill="white"/>
</clipPath>
</defs>
</svg>
