<svg width="80" height="60" viewBox="0 0 80 60" fill="none" xmlns="http://www.w3.org/2000/svg">
<mask id="mask0_3_67" style="mask-type:luminance" maskUnits="userSpaceOnUse" x="0" y="0" width="81" height="60">
<path d="M0 0H80.0007V60H0V0Z" fill="white"/>
</mask>
<g mask="url(#mask0_3_67)">
<path fill-rule="evenodd" clip-rule="evenodd" d="M0 0H120.013V39.8555H0V0Z" fill="#B20000"/>
<path fill-rule="evenodd" clip-rule="evenodd" d="M0 39.8555H120.013V60H0V39.8555Z" fill="#429F00"/>
<path fill-rule="evenodd" clip-rule="evenodd" d="M0 0H13.2905V60H0V0Z" fill="white"/>
<path fill-rule="evenodd" clip-rule="evenodd" d="M0.632812 1.01953H1.26569V2.03906H0.632812V1.01953ZM2.53145 1.01953H4.43009V2.03906H2.53145V1.01953ZM3.16433 0H3.79721V1.01953H3.16433V0ZM6.32873 0H6.96161V1.01953H6.32873V0ZM8.86025 1.01953H10.7589V2.03906H8.86025V1.01953ZM9.49313 0H10.126V1.01953H9.49313V0ZM1.89857 2.03906H3.16433V3.04687H1.89857V2.03906ZM3.79721 2.03906H5.06297V3.04687H3.79721V2.03906ZM8.22737 2.03906H9.49313V3.04687H8.22737V2.03906ZM10.126 2.03906H11.3918V3.04687H10.126V2.03906ZM1.26569 3.04687H2.53145V4.06641H1.26569V3.04687ZM4.43009 3.04687H5.69585V4.06641H4.43009V3.04687ZM7.59449 3.04687H8.86025V4.06641H7.59449V3.04687ZM10.7589 3.04687H12.0247V4.06641H10.7589V3.04687ZM12.0247 1.01953H12.6575V2.03906H12.0247V1.01953ZM0.632812 4.06641H1.89857V5.08594H0.632812V4.06641ZM5.06297 4.06641H6.32873V5.08594H5.06297V4.06641ZM11.3918 4.06641H12.6575V5.08594H11.3918V4.06641ZM1.26569 7.11328H2.53145V8.13281H1.26569V7.11328ZM1.89857 8.13281H3.16433V9.15234H1.89857V8.13281ZM4.43009 7.125H5.69585V8.13281H4.43009V7.125ZM3.79721 8.13281H5.06297V9.15234H3.79721V8.13281ZM2.53145 9.15234H4.43009V10.1719H2.53145V9.15234Z" fill="#B20000"/>
<path fill-rule="evenodd" clip-rule="evenodd" d="M3.1644 10.1719H3.79728V11.1914H3.1644V10.1719ZM7.59456 7.125H8.86032V8.13281H7.59456V7.125ZM8.22744 8.13281H9.4932V9.15234H8.22744V8.13281ZM10.759 7.125H12.0247V8.13281H10.759V7.125ZM10.1261 8.13281H11.3918V9.15234H10.1261V8.13281ZM8.86032 9.15234H10.759V10.1719H8.86032V9.15234ZM9.4932 10.1719H10.1261V11.1914H9.4932V10.1719ZM6.3288 9.14063H6.96168V10.1602H6.3288V9.14063ZM0 9.14063H0.63288V10.1602H0V9.14063ZM12.6576 9.14063H13.2905V10.1602H12.6576V9.14063ZM3.1644 14.2266H3.79728V15.2461H3.1644V14.2266ZM2.53152 15.2578H4.43016V16.2656H2.53152V15.2578ZM1.89864 16.2656H5.06304V17.2852H1.89864V16.2656ZM9.4932 14.2383H10.1261V15.2578H9.4932V14.2383ZM8.86032 15.2578H10.759V16.2656H8.86032V15.2578ZM8.22744 16.2656H11.3918V17.2852H8.22744V16.2656ZM8.86032 21.3516H12.0247V22.3711H8.86032V21.3516ZM7.59456 17.2852H12.0247V18.3047H7.59456V17.2852ZM1.26576 17.2852H5.69592V18.3047H1.26576V17.2852ZM1.89864 22.3711H3.79728V23.3906H1.89864V22.3711ZM1.26576 21.3516H4.43016V22.3711H1.26576V21.3516ZM10.1261 19.3359H13.2905V20.3555H10.1261V19.3359ZM9.4932 22.3828H11.3918V23.4023H9.4932V22.3828Z" fill="#B20000"/>
<path fill-rule="evenodd" clip-rule="evenodd" d="M2.53152 23.3906H3.1644V24.4102H2.53152V23.3906ZM10.1261 23.3906H10.759V24.4102H10.1261V23.3906ZM0 19.3242H3.1644V20.3438H0V19.3242ZM5.69592 21.3516H7.59456V22.3711H5.69592V21.3516ZM6.3288 22.3828H6.96168V23.4023H6.3288V22.3828ZM4.43016 19.3359H8.86032V20.3555H4.43016V19.3359ZM6.96168 4.06641H8.22744V5.08594H6.96168V4.06641ZM5.69592 5.08594H7.59456V6.10547H5.69592V5.08594ZM5.06304 6.10547H6.3288V7.11328H5.06304V6.10547ZM6.96168 6.10547H8.22744V7.11328H6.96168V6.10547ZM0 5.08594H1.26576V6.10547H0V5.08594ZM0.63288 6.10547H1.89864V7.11328H0.63288V6.10547ZM12.0247 5.08594H13.2905V6.09375H12.0247V5.08594ZM11.3918 6.09375H12.6576V7.10156H11.3918V6.09375ZM0 15.2344H0.63288V16.2539H0V15.2344ZM12.6576 15.2344H13.2905V16.2539H12.6576V15.2344ZM5.69592 23.3789H7.59456V24.3984H5.69592V23.3789ZM5.06304 24.3984H6.3288V25.4063H5.06304V24.3984ZM6.96168 24.3984H8.22744V25.4063H6.96168V24.3984ZM4.43016 25.4063H5.69592V26.4258H4.43016V25.4063ZM7.59456 25.4063H8.86032V26.4258H7.59456V25.4063ZM3.79728 26.4258H5.06304V27.4453H3.79728V26.4258ZM8.22744 26.4258H9.4932V27.4453H8.22744V26.4258ZM3.1644 27.457H4.43016V28.4766H3.1644V27.457ZM8.86032 27.457H10.1261V28.4766H8.86032V27.457ZM1.89864 28.4766H3.79728V29.4961H1.89864V28.4766ZM9.4932 28.4766H11.3918V29.4961H9.4932V28.4766ZM10.759 27.457H12.0247V28.4766H10.759V27.457ZM11.3918 26.4375H12.6576V27.457H11.3918V26.4375ZM12.0247 25.418H13.2905V26.4375H12.0247V25.418ZM1.26576 27.457H2.53152V28.4766H1.26576V27.457ZM0.63288 26.4375H1.89864V27.457H0.63288V26.4375ZM0 25.4297H1.26576V26.4492H0V25.4297ZM2.53152 29.5078H3.1644V30.5156H2.53152V29.5078ZM10.1261 29.5078H10.759V30.5156H10.1261V29.5078ZM6.3288 26.4609H6.96168V27.4687H6.3288V26.4609ZM4.43016 29.5078H5.06304V30.5156H4.43016V29.5078ZM8.22744 29.5078H8.86032V30.5156H8.22744V29.5078ZM6.3288 29.5078H6.96168V30.5156H6.3288V29.5078ZM0 29.5078H0.63288V30.5156H0L0 29.5078ZM12.6576 29.5078H13.2905V30.5156H12.6576V29.5078ZM6.3288 15.2578H6.96168V16.2656H6.3288V15.2578ZM3.1644 5.08594H3.79728V6.10547H3.1644V5.08594ZM9.4932 5.08594H10.1261V6.10547H9.4932V5.08594ZM5.69592 12.1992H7.59456V13.2188H5.69592V12.1992ZM4.43016 13.2188H6.3288V14.2383H4.43016V13.2188ZM5.06304 14.2383H5.69592V15.2578H5.06304V14.2383ZM3.79728 12.1992H5.06304V13.2188H3.79728V12.1992ZM4.43016 11.1914H6.3288V12.1992H4.43016V11.1914ZM5.06304 10.1719H5.69592V11.1914H5.06304V10.1719ZM6.96168 11.1914H8.86032V12.1992H6.96168V11.1914ZM7.59456 10.1719H8.22744V11.1914H7.59456V10.1719ZM8.22744 12.1992H9.4932V13.2188H8.22744V12.1992ZM6.96168 13.2188H8.86032V14.2383H6.96168V13.2188ZM7.59456 14.2383H8.22744V15.2578H7.59456V14.2383ZM10.1261 12.1992H11.3918V13.2188H10.1261V12.1992ZM10.759 11.1914H12.6576V12.1992H10.759V11.1914ZM12.0247 12.1992H13.2905V13.2188H12.0247V12.1992ZM10.759 13.2188H12.6576V14.2383H10.759V13.2188ZM11.3918 14.2383H12.0247V15.2578H11.3918V14.2383ZM11.3918 10.1719H12.0247V11.1914H11.3918V10.1719ZM0 12.1875H1.26576V13.207H0V12.1875ZM0.63288 11.1797H2.53152V12.1875H0.63288V11.1797ZM1.89864 12.1875H3.1644V13.207H1.89864V12.1875ZM0.63288 13.207H2.53152V14.2266H0.63288V13.207Z" fill="#B20000"/>
<path fill-rule="evenodd" clip-rule="evenodd" d="M1.26576 14.2383H1.89864V15.2578H1.26576V14.2383ZM1.26576 10.1719H1.89864V11.1914H1.26576V10.1719ZM0.63288 18.3047H3.1644V19.3242H0.63288V18.3047ZM3.79728 18.3047H6.3288V19.3242H3.79728V18.3047ZM6.96168 18.3047H9.4932V19.3242H6.96168V18.3047ZM10.1261 18.3047H12.6576V19.3242H10.1261V18.3047ZM5.06304 20.3438H8.22744V21.3516H5.06304V20.3438ZM0.63288 20.3438H3.79728V21.3516H0.63288V20.3438ZM9.4932 20.3438H12.6576V21.3516H9.4932V20.3438ZM12.6576 24.4102H13.2905V25.418H12.6576V24.4102ZM0 24.4102H0.63288V25.418H0V24.4102ZM0.63288 58.9805H1.26576V57.9727H0.63288V58.9805ZM2.53152 58.9805H4.43016V57.9727H2.53152V58.9805ZM3.1644 60H3.79728V58.9805H3.1644V60ZM6.3288 60H6.96168V58.9805H6.3288V60ZM8.86032 58.9805H10.759V57.9609H8.86032V58.9805ZM9.4932 60H10.1261V58.9805H9.4932V60ZM1.89864 57.9609H3.1644V56.9531H1.89864V57.9609ZM3.79728 57.9609H5.06304V56.9531H3.79728V57.9609ZM8.22744 57.9609H9.4932V56.9531H8.22744V57.9609ZM10.1261 57.9609H11.3918V56.9531H10.1261V57.9609ZM4.43016 56.9531H5.69592V55.9336H4.43016V56.9531ZM7.59456 56.9531H8.86032V55.9336H7.59456V56.9531ZM10.759 56.9531H12.0247V55.9336H10.759V56.9531ZM12.0247 58.9805H12.6576V57.9609H12.0247V58.9805ZM0.63288 55.9336H1.89864V54.9141H0.63288V55.9336ZM5.06304 55.9336H6.3288V54.9141H5.06304V55.9336ZM11.3918 55.9336H12.6576V54.9141H11.3918V55.9336ZM1.26576 52.8867H2.53152V51.8672H1.26576V52.8867ZM1.89864 51.8672H3.1644V50.8477H1.89864V51.8672ZM4.43016 52.8867H5.69592V51.8672H4.43016V52.8867ZM3.79728 51.8672H5.06304V50.8477H3.79728V51.8672ZM2.53152 50.8477H4.43016V49.8281H2.53152V50.8477ZM3.1644 49.8281H3.79728V48.8203H3.1644V49.8281ZM7.59456 52.875H8.86032V51.8672H7.59456V52.875ZM8.22744 51.8672H9.4932V50.8477H8.22744V51.8672ZM10.759 52.8867H12.0247V51.8672H10.759V52.8867ZM10.1261 51.8672H11.3918V50.8477H10.1261V51.8672ZM8.86032 50.8477H10.759V49.8281H8.86032V50.8477ZM9.4932 49.8281H10.1261V48.8203H9.4932V49.8281ZM6.3288 50.8594H6.96168V49.8398H6.3288V50.8594ZM0 50.8594H0.63288V49.8398H0V50.8594ZM12.6576 50.8594H13.2905V49.8398H12.6576V50.8594ZM3.1644 45.7734H3.79728V44.7539H3.1644V45.7734ZM2.53152 44.7422H4.43016V43.7344H2.53152V44.7422ZM1.89864 43.7344H5.06304V42.7148H1.89864V43.7344ZM9.4932 45.7617H10.1261V44.7422H9.4932V45.7617Z" fill="#B20000"/>
<path fill-rule="evenodd" clip-rule="evenodd" d="M8.86032 44.7422H10.759V43.7344H8.86032V44.7422ZM8.22744 43.7344H11.3918V42.7148H8.22744V43.7344ZM8.86032 38.6484H12.0247V37.6172H8.86032V38.6484ZM7.59456 42.7148H12.0247V41.6953H7.59456V42.7148ZM1.26576 42.7148H5.69592V41.6953H1.26576V42.7148ZM1.89864 37.6289H3.79728V36.6094H1.89864V37.6289ZM1.26576 38.6484H4.43016V37.6172H1.26576V38.6484ZM10.1261 40.6641H13.2905V39.6445H10.1261V40.6641ZM9.4932 37.6172H11.3918V36.5977H9.4932V37.6172ZM0 40.6641H3.1644V39.6445H0V40.6641ZM5.69592 38.6367H7.59456V37.6172H5.69592V38.6367ZM6.3288 37.6172H6.96168V36.5977H6.3288V37.6172ZM4.43016 40.6641H8.86032V39.6445H4.43016V40.6641ZM6.96168 55.9219H8.22744V54.9023H6.96168V55.9219ZM5.69592 54.9023H7.59456V53.9062H5.69592V54.9023ZM5.06304 53.8828H6.3288V52.8633H5.06304V53.8828ZM6.96168 53.8828H8.22744V52.8633H6.96168V53.8828ZM0 54.9141H1.26576V53.9062H0V54.9141ZM0.63288 53.8945H1.89864V52.8867H0.63288V53.8945ZM12.0247 54.9141H13.2905V53.9062H12.0247V54.9141ZM11.3918 53.8945H12.6576V52.8867H11.3918V53.8945ZM0 44.7656H0.63288V43.7461H0V44.7656ZM12.6576 44.7656H13.2905V43.7461H12.6576V44.7656ZM5.06304 35.6016H6.3288V34.5938H5.06304V35.6016ZM6.96168 35.6016H8.22744V34.5938H6.96168V35.6016ZM4.43016 34.5938H5.69592V33.5742H4.43016V34.5938ZM7.59456 34.5938H8.86032V33.5742H7.59456V34.5938ZM3.79728 33.5742H5.06304V32.5547H3.79728V33.5742ZM8.22744 33.5742H9.4932V32.5547H8.22744V33.5742ZM3.1644 32.543H4.43016V31.5234H3.1644V32.543ZM8.86032 32.543H10.1261V31.5234H8.86032V32.543ZM1.89864 31.5234H3.79728V30.5039H1.89864V31.5234ZM9.4932 31.5234H11.3918V30.5039H9.4932V31.5234ZM10.759 32.543H12.0247V31.5234H10.759V32.543ZM11.3918 33.5625H12.6576V32.543H11.3918V33.5625ZM12.0247 34.582H13.2905V33.5625H12.0247V34.582ZM1.26576 32.543H2.53152V31.5234H1.26576V32.543ZM0.63288 33.5625H1.89864V32.543H0.63288V33.5625ZM0 34.5703H1.26576V33.5508H0V34.5703ZM2.53152 30.4922H3.1644V29.4844H2.53152V30.4922ZM6.3288 33.5391H6.96168V32.5312H6.3288V33.5391ZM6.3288 44.7305H6.96168V43.7227H6.3288V44.7305ZM3.1644 54.9023H3.79728V53.9062H3.1644V54.9023ZM9.4932 54.9023H10.1261V53.9062H9.4932V54.9023ZM5.69592 47.8125H7.59456V46.793H5.69592V47.8125ZM4.43016 46.793H6.3288V45.7734H4.43016V46.793ZM5.06304 45.7734H5.69592V44.7539H5.06304V45.7734ZM3.79728 47.8125H5.06304V46.793H3.79728V47.8125ZM4.43016 48.8086H6.3288V47.8125H4.43016V48.8086ZM5.06304 49.8281H5.69592V48.8203H5.06304V49.8281ZM6.96168 48.8086H8.86032V47.8125H6.96168V48.8086ZM7.59456 49.8281H8.22744V48.8203H7.59456V49.8281ZM8.22744 47.8008H9.4932V46.7813H8.22744V47.8008ZM6.96168 46.7813H8.86032V45.7617H6.96168V46.7813ZM7.59456 45.7617H8.22744V44.7422H7.59456V45.7617ZM10.1261 47.8125H11.3918V46.793H10.1261V47.8125ZM10.759 48.8086H12.6576V47.8125H10.759V48.8086ZM12.0247 47.8008H13.2905V46.7813H12.0247V47.8008ZM10.759 46.7813H12.6576V45.7617H10.759V46.7813ZM11.3918 45.7617H12.0247V44.7422H11.3918V45.7617ZM11.3918 49.8281H12.0247V48.8203H11.3918V49.8281ZM0 47.8125H1.26576V46.793H0V47.8125ZM0.63288 48.8086H2.53152V47.8125H0.63288V48.8086Z" fill="#B20000"/>
<path fill-rule="evenodd" clip-rule="evenodd" d="M1.89864 47.8008H3.1644V46.7813H1.89864V47.8008ZM0.63288 46.7813H2.53152V45.7617H0.63288V46.7813ZM1.26576 45.7617H1.89864V44.7422H1.26576V45.7617ZM1.26576 49.8281H1.89864V48.8203H1.26576V49.8281ZM0.63288 41.6953H3.1644V40.6758H0.63288V41.6953ZM3.79728 41.6953H6.3288V40.6758H3.79728V41.6953ZM6.96168 41.6953H9.4932V40.6758H6.96168V41.6953ZM10.1261 41.6953H12.6576V40.6758H10.1261V41.6953ZM5.06304 39.6562H8.22744V38.6484H5.06304V39.6562ZM0.63288 39.6562H3.79728V38.6484H0.63288V39.6562ZM9.4932 39.6562H12.6576V38.6484H9.4932V39.6562ZM12.6576 35.6016H13.2905V34.5703H12.6576V35.6016ZM0 35.6016H0.63288V34.5703H0V35.6016ZM5.69592 30.5039H6.3288V31.5234H5.69592V30.5039ZM6.96168 30.5039H7.59456V31.5234H6.96168V30.5039ZM6.96168 28.4766H7.59456V29.4961H6.96168V28.4766ZM5.69592 28.4766H6.3288V29.4961H5.69592V28.4766ZM1.26576 55.9336H2.53152V56.9531H1.26576V55.9336ZM10.1261 36.6094H10.759V35.5898H10.1261V36.6094ZM2.53152 36.6094H3.1644V35.5898H2.53152V36.6094ZM5.69592 35.5898H7.59456V36.6094H5.69592V35.5898Z" fill="#B20000"/>
</g>
</svg>
