<svg width="80" height="60" viewBox="0 0 80 60" fill="none" xmlns="http://www.w3.org/2000/svg">
<g clip-path="url(#clip0_5_1565)">
<mask id="mask0_5_1565" style="mask-type:luminance" maskUnits="userSpaceOnUse" x="0" y="0" width="80" height="60">
<path d="M0.00390625 0H79.9961V60H0.00390625V0Z" fill="white"/>
</mask>
<g mask="url(#mask0_5_1565)">
<path fill-rule="evenodd" clip-rule="evenodd" d="M0.00390625 0H79.9961V60H0.00390625V0Z" fill="#000099"/>
<path fill-rule="evenodd" clip-rule="evenodd" d="M16.6211 0L76.5039 60.0352V0.0351563L16.6211 0Z" fill="#FFCC00"/>
<path fill-rule="evenodd" clip-rule="evenodd" d="M61.5508 56.4258L58.2812 54.0469L54.9297 56.4141L56.1953 52.5234L52.8906 50.1211H56.9922L58.2578 46.2305L59.5117 50.1328H63.6133L60.332 52.5586L61.5508 56.4258ZM71.0781 57.6445L66.9766 57.6328L65.7227 53.7305L64.457 57.6211H60.3555L63.6602 60.0234L62.3945 63.9141L65.7461 61.5469L69.0273 63.9258L67.7969 60.0586L71.0781 57.6445ZM52.8438 45.082L56.125 42.6563L52.0234 42.6445L50.7695 38.7539L49.5039 42.6445L45.4023 42.6328L48.707 45.0352L47.4414 48.9375L50.793 46.5586L54.0742 48.9492L52.8438 45.082ZM45.3086 37.5234L48.5898 35.1094L44.4883 35.0977L43.2344 31.1953L41.957 35.0859H37.8672L41.1719 37.4883L39.9063 41.3789L43.2578 39.0117L46.5273 41.3906L45.3086 37.5234ZM37.8438 30.0703L41.125 27.6445H37.0234L35.7812 23.7305L34.5156 27.6211H30.4141L33.7187 30.0117L32.4531 33.9141L35.8047 31.5352L39.0859 33.9258L37.8555 30.0586L37.8438 30.0703ZM30.2969 22.5352L33.5781 20.1211L29.4766 20.1094L28.2227 16.207L26.9453 20.0977H22.8555L26.1719 22.5L24.9062 26.3906L28.2578 24.0234L31.5273 26.4023L30.3086 22.5352H30.2969ZM22.8438 15.0469L26.1133 12.6211H22.0117L20.7695 8.70703L19.4922 12.6094H15.3906L18.7187 15L17.4414 18.8906L20.793 16.5234L24.0508 18.9141L22.8438 15.0469ZM15.3437 7.54688L18.6133 5.12109H14.5117L13.2695 1.20703L11.9922 5.10938H7.89062L11.2188 7.5L9.92969 11.4023L13.293 9.02344L16.5508 11.4141L15.3437 7.54688ZM7.84375 0.0468754L11.1016 -2.37891H7L5.74609 -6.28125L4.49219 -2.39063H0.390625L3.70703 2.20537e-07L2.44141 3.89063L5.79297 1.52344L9.05078 3.91406L7.84375 0.0468754Z" fill="white"/>
</g>
</g>
<defs>
<clipPath id="clip0_5_1565">
<rect width="80" height="60" fill="white"/>
</clipPath>
</defs>
</svg>
