<svg width="80" height="60" viewBox="0 0 80 60" fill="none" xmlns="http://www.w3.org/2000/svg">
<g clip-path="url(#clip0_1_3)">
<path fill-rule="evenodd" clip-rule="evenodd" d="M0 0H80V60H0V0Z" fill="#229E45"/>
<path fill-rule="evenodd" clip-rule="evenodd" d="M40.1749 54.5L77.8625 30.0375L39.95 5.5L2.13745 30.0875L40.1749 54.5Z" fill="#F8E509"/>
<path fill-rule="evenodd" clip-rule="evenodd" d="M56.6 30C56.6 38.7875 49.4625 45.9125 40.65 45.9125C37.5009 45.9076 34.4239 44.9691 31.8081 43.2156C29.1922 41.4622 27.155 38.9726 25.9539 36.0615C24.7527 33.1505 24.4417 29.9486 25.06 26.8608C25.6783 23.773 27.1982 20.9378 29.4276 18.7136C31.657 16.4894 34.4958 14.9762 37.585 14.3652C40.6743 13.7541 43.8754 14.0727 46.7837 15.2807C49.6919 16.4887 52.1767 18.5318 53.924 21.1517C55.6712 23.7717 56.6025 26.8509 56.6 30Z" fill="#2B49A3"/>
<path fill-rule="evenodd" clip-rule="evenodd" d="M35.4125 39.5375L34.9125 39.25L34.4125 39.5L34.5251 38.9375L34.125 38.5125L34.6875 38.45L34.9626 37.95L35.2001 38.475L35.75 38.575L35.3376 38.95M46.0876 42.2375L45.6 41.95L45.1 42.2L45.2001 41.6375L44.8125 41.225L45.375 41.1625L45.6376 40.65L45.8876 41.175L46.4375 41.275L46.0126 41.6625M41.4875 37.9125L41.0625 37.6625L40.625 37.8875L40.725 37.4L40.375 37.0375L40.875 36.9875L41.1 36.5375L41.3 37L41.7875 37.0875L41.4125 37.425M52.2875 36.3625L51.8625 36.1125L51.425 36.3375L51.5251 35.85L51.1875 35.5L51.675 35.45L51.9001 35.0125L52.1 35.4625L52.5751 35.55L52.2126 35.875M41.3 33.125L40.8 32.85L40.3 33.1L40.4001 32.525L40.0126 32.1125L40.5751 32.05L40.8376 31.5375L41.0876 32.0625L41.6376 32.1625L41.2126 32.5625M28.1376 28.1875L27.6376 27.9125L27.1376 28.1625L27.2626 27.5875L26.85 27.175L27.425 27.1125L27.675 26.6L27.925 27.125L28.475 27.225L28.0625 27.6125M29.725 34.7625L29.225 34.475L28.725 34.725L28.8375 34.1625L28.4375 33.75L29 33.675L29.2626 33.175L29.5126 33.7L30.0625 33.8L29.65 34.1875M46.1501 25.775L45.7001 25.525L45.25 25.75L45.35 25.25L45 24.875L45.5 24.8125L45.7375 24.3625L45.9501 24.8375L46.4501 24.925L46.0751 25.2625M45.2375 30.05L44.9001 29.85L44.5375 30.025L44.6125 29.625L44.3376 29.3375L44.7375 29.2875L44.925 28.9375L45.0876 29.3125L45.4626 29.375L45.1875 29.65M27.4125 35.95L27.0751 35.7625L26.7375 35.925L26.8125 35.55L26.55 35.275L26.925 35.225L27.1 34.8875L27.2626 35.2375L27.6376 35.3125L27.35 35.5625M52.375 37.475L52.1 37.3375L51.8251 37.4625L51.8876 37.175L51.675 36.975L51.975 36.9375L52.125 36.6875L52.25 36.9375L52.5625 37L52.3251 37.1875" fill="#FFFFEF"/>
<path fill-rule="evenodd" clip-rule="evenodd" d="M27.4125 35.95L27.0751 35.7625L26.7375 35.925L26.8125 35.55L26.55 35.275L26.925 35.225L27.1 34.8875L27.2626 35.2375L27.6376 35.3125L27.35 35.5625" fill="#FFFFEF"/>
<path fill-rule="evenodd" clip-rule="evenodd" d="M27.4125 35.95L27.0751 35.7625L26.7375 35.925L26.8125 35.55L26.55 35.275L26.925 35.225L27.1 34.8875L27.2626 35.2375L27.6376 35.3125L27.35 35.5625M32.6376 35.9375L32.3125 35.7625L31.975 35.925L32.05 35.55L31.7875 35.275L32.1625 35.225L32.3376 34.8875L32.5 35.2375L32.875 35.3L32.5876 35.5625M31.9875 37.6875L31.6625 37.5L31.3251 37.675L31.4 37.3L31.1376 37.0125L31.5126 36.9625L31.6875 36.625L31.85 36.975L32.225 37.05L31.9375 37.3M42.8625 34.525L42.5375 34.325L42.1875 34.5L42.2626 34.125L42.0126 33.8375L42.3876 33.8L42.5625 33.4625L42.7126 33.8125L43.0876 33.875L42.8125 34.1375M39.675 34.5125L39.3376 34.325L39 34.5L39.0751 34.125L38.8251 33.8375L39.2001 33.8L39.375 33.45L39.5251 33.8125L39.9001 33.875L39.625 34.1375M31.025 33.4125L30.8125 33.2875L30.6 33.3875L30.65 33.15L30.4875 32.975L30.725 32.95L30.8251 32.7375L30.925 32.9625L31.1625 33L30.9875 33.1625M51.9626 38.8375L51.6376 38.65L51.3 38.825L51.375 38.45L51.1125 38.1625L51.4875 38.1125L51.6625 37.775L51.8251 38.125L52.2001 38.2L51.9125 38.45M49.3125 39.2L49.0375 39.025L48.75 39.175L48.8125 38.85L48.6 38.625L48.9125 38.5875L49.0625 38.3L49.1875 38.6L49.5 38.65L49.2626 38.875M50.5625 39.1625L50.3125 39.0125L50.05 39.1375L50.1 38.85L49.9001 38.6375L50.1875 38.6L50.3251 38.35L50.4501 38.6L50.7375 38.6625L50.5251 38.8625M54.1625 36.0125L53.9125 35.8875L53.6625 36.0125L53.725 35.725L53.5251 35.5125L53.8125 35.475L53.9375 35.225L54.0625 35.4875L54.3251 35.5375L54.125 35.7375M49.2751 40.9625L48.9626 40.7875L48.625 40.9375L48.7001 40.5875L48.4501 40.3375L48.8251 40.3L48.9875 39.9875L49.1376 40.3125L49.5126 40.375L49.225 40.6125M49.3 42.3875L49 42.2125L48.7001 42.375L48.7751 42.025L48.5375 41.775L48.875 41.725L49.0251 41.4125L49.1625 41.7375L49.5 41.8L49.25 42.05M46.875 39.1625L46.6376 39.0125L46.3876 39.1375L46.4375 38.8625L46.25 38.65L46.5251 38.625L46.6501 38.375L46.7751 38.625L47.05 38.675L46.85 38.875M44.625 39.1625L44.375 39.0125L44.125 39.1375L44.1875 38.8625L43.9875 38.65L44.2751 38.625L44.4001 38.375L44.5251 38.625L44.7875 38.675L44.5876 38.875M40.7875 35.8L40.5375 35.6625L40.2875 35.7875L40.35 35.5L40.1501 35.3L40.425 35.2625L40.55 35.0125L40.675 35.2625L40.9501 35.325L40.75 35.5125M41.2126 42.6375L41.0126 42.525L40.7875 42.6375L40.8376 42.3875L40.675 42.2125L40.9125 42.1875L41.0251 41.975L41.125 42.2L41.3625 42.2375L41.1875 42.4M35.4125 31.575L34.9125 31.2875L34.4125 31.5375L34.5251 30.975L34.125 30.5625L34.6875 30.4875L34.9626 29.9875L35.2001 30.5125L35.75 30.6125L35.3376 31" fill="#FFFFEF"/>
<path fill-rule="evenodd" clip-rule="evenodd" d="M55.55 35.725C55.8597 34.9215 56.1022 34.0936 56.275 33.25C47.8 25.8125 38.3625 22 26.4375 22.7875C26.005 23.6244 25.6494 24.4988 25.375 25.4C39.5 24.05 49.875 30.3 55.55 35.725Z" fill="white"/>
<path d="M51.75 31.55L52.0375 31.7125C51.9946 31.7974 51.9814 31.8942 52 31.9875C52.0293 32.078 52.0919 32.1539 52.175 32.2C52.2625 32.2625 52.35 32.3 52.425 32.2875C52.5 32.2875 52.55 32.25 52.5875 32.2C52.6093 32.1668 52.6182 32.1268 52.6125 32.0875C52.6023 32.0413 52.5808 31.9984 52.55 31.9625C52.525 31.925 52.4625 31.8375 52.3625 31.7375C52.2597 31.6314 52.1828 31.5031 52.1375 31.3625C52.1063 31.2561 52.1144 31.142 52.1603 31.041C52.2062 30.9401 52.2868 30.859 52.3875 30.8125C52.4784 30.7746 52.5789 30.7658 52.675 30.7875C52.7925 30.8146 52.9032 30.8656 53 30.9375C53.175 31.0625 53.2875 31.1875 53.325 31.3375C53.3423 31.4077 53.3446 31.4807 53.3316 31.5518C53.3187 31.6229 53.2909 31.6904 53.25 31.75L52.95 31.5625C52.9875 31.4875 53 31.4125 52.975 31.35C52.9625 31.2875 52.9125 31.225 52.825 31.175C52.7608 31.1234 52.6822 31.0928 52.6 31.0875C52.5774 31.0867 52.5549 31.0921 52.5351 31.1032C52.5153 31.1142 52.4988 31.1304 52.4875 31.15C52.4625 31.1875 52.4625 31.225 52.475 31.275C52.4875 31.325 52.55 31.425 52.675 31.55C52.8 31.675 52.875 31.7875 52.925 31.8625C52.9697 31.9444 52.9899 32.0374 52.9832 32.1305C52.9766 32.2236 52.9434 32.3128 52.8875 32.3875C52.829 32.4725 52.7463 32.5378 52.65 32.575C52.5563 32.6182 52.4515 32.6313 52.35 32.6125C52.2375 32.5875 52.125 32.5375 52 32.45C51.8125 32.325 51.7 32.1875 51.6625 32.0375C51.6218 31.8674 51.6487 31.6882 51.7375 31.5375L51.75 31.55ZM50.3 30.6L50.6125 30.7625C50.5738 30.8488 50.565 30.9456 50.5875 31.0375C50.6195 31.1233 50.6817 31.1944 50.7625 31.2375C50.8625 31.3 50.9375 31.325 51.0125 31.3125C51.0875 31.3125 51.1375 31.275 51.175 31.2125C51.194 31.1828 51.2028 31.1477 51.2 31.1125C51.2 31.075 51.175 31.025 51.1375 30.9875C51.0735 30.9102 51.0068 30.8352 50.9375 30.7625C50.8 30.625 50.7125 30.5125 50.6875 30.4125C50.6671 30.3482 50.661 30.2802 50.6696 30.2132C50.6782 30.1463 50.7014 30.082 50.7375 30.025C50.7851 29.9479 50.8548 29.8869 50.9375 29.85C51.0234 29.8104 51.1192 29.7973 51.2125 29.8125C51.3281 29.832 51.4387 29.8745 51.5375 29.9375C51.725 30.0625 51.8375 30.1875 51.875 30.325C51.8978 30.3953 51.9051 30.4696 51.8965 30.543C51.8879 30.6163 51.8635 30.6869 51.825 30.75L51.5125 30.575C51.55 30.4875 51.5625 30.425 51.5375 30.3625C51.5125 30.3 51.4625 30.2375 51.375 30.1875C51.3059 30.1379 51.2227 30.1116 51.1375 30.1125C51.117 30.1139 51.0971 30.1203 51.0797 30.1312C51.0622 30.1421 51.0478 30.1572 51.0375 30.175C51.0125 30.2125 51.0125 30.25 51.025 30.3C51.0375 30.35 51.1125 30.45 51.2375 30.575C51.3625 30.7 51.45 30.8 51.4875 30.875C51.5376 30.9534 51.5642 31.0445 51.5642 31.1375C51.5642 31.2305 51.5376 31.3216 51.4875 31.4C51.4337 31.4872 51.3554 31.5567 51.2625 31.6C51.1688 31.6432 51.064 31.6563 50.9625 31.6375C50.8339 31.6158 50.7107 31.569 50.6 31.5C50.4384 31.4139 50.3139 31.2716 50.25 31.1C50.2017 30.9331 50.2196 30.754 50.3 30.6ZM48.525 30.125L49.4375 28.625L50.5375 29.3125L50.3875 29.5625L49.5875 29.0625L49.3875 29.4L50.1375 29.8625L49.975 30.1125L49.225 29.65L48.975 30.0625L49.8125 30.5625L49.6625 30.8125L48.5375 30.125H48.525ZM45.9375 28L46.075 27.75L46.75 28.0875L46.4375 28.7125C46.3375 28.7375 46.2125 28.75 46.0625 28.7375C45.9185 28.7216 45.7786 28.6792 45.65 28.6125C45.4988 28.5388 45.3695 28.4267 45.275 28.2875C45.1891 28.1581 45.1454 28.0053 45.15 27.85C45.1564 27.6884 45.1991 27.5303 45.275 27.3875C45.3501 27.2372 45.4619 27.1082 45.6 27.0125C45.7321 26.9211 45.8894 26.8731 46.05 26.875C46.175 26.875 46.3 26.9125 46.45 27C46.65 27.0875 46.775 27.2125 46.8375 27.35C46.9025 27.4865 46.9158 27.6419 46.875 27.7875L46.5375 27.6875C46.5582 27.6038 46.5494 27.5155 46.5125 27.4375C46.475 27.3625 46.4125 27.3125 46.3125 27.2625C46.2542 27.2292 46.1896 27.2087 46.1228 27.2022C46.056 27.1958 45.9886 27.2035 45.925 27.225C45.8 27.2625 45.6875 27.375 45.6 27.55C45.5125 27.725 45.475 27.8875 45.5125 28.025C45.5298 28.0902 45.5611 28.1509 45.6043 28.2027C45.6475 28.2545 45.7015 28.2963 45.7625 28.325C45.825 28.3625 45.9 28.3875 45.975 28.3875C46.0496 28.3988 46.1255 28.3988 46.2 28.3875L46.3 28.1875L45.9375 28ZM34.6625 25.2125L34.9125 23.4625L35.4375 23.55L35.575 24.775L36.0625 23.65L36.5875 23.725L36.3375 25.45L36 25.4L36.2125 24.0375L35.6625 25.35L35.325 25.3L35.1875 23.8875L34.9875 25.2625L34.6625 25.2125ZM32.9 25L33.0625 23.25L34.35 23.375L34.325 23.675L33.3875 23.5875L33.35 23.9625L34.225 24.05L34.1875 24.35L33.3125 24.2625L33.275 24.7375L34.25 24.825L34.225 25.125L32.9 25Z" fill="#309E3A"/>
<path d="M27.0625 23.9125C27.0625 23.725 27.1 23.5875 27.15 23.4625C27.1939 23.3736 27.2531 23.2932 27.325 23.225C27.3892 23.1603 27.4657 23.1093 27.55 23.075C27.675 23.0375 27.8 23.0125 27.925 23.0125C28.1875 23.0125 28.3875 23.1125 28.55 23.2625C28.6274 23.3581 28.6849 23.4681 28.7193 23.5861C28.7536 23.7042 28.7641 23.8279 28.75 23.95C28.75 24.225 28.6625 24.45 28.5 24.6125C28.4165 24.6897 28.3178 24.7485 28.2101 24.7851C28.1024 24.8217 27.9883 24.8353 27.875 24.825C27.7633 24.8261 27.6525 24.8046 27.5494 24.7616C27.4462 24.7186 27.3529 24.6551 27.275 24.575C27.1195 24.3909 27.0431 24.1527 27.0625 23.9125Z" fill="#309E3A"/>
<path d="M27.425 23.9125C27.425 24.1 27.4625 24.25 27.55 24.3625C27.6375 24.4625 27.75 24.525 27.9 24.525C27.9649 24.5295 28.03 24.5196 28.0906 24.4958C28.1511 24.472 28.2056 24.435 28.25 24.3875C28.3375 24.2875 28.3751 24.1375 28.3876 23.925C28.3876 23.725 28.3626 23.575 28.2626 23.475C28.2218 23.4246 28.1704 23.3839 28.1121 23.3558C28.0537 23.3277 27.9898 23.3129 27.925 23.3125C27.8593 23.3104 27.7939 23.3227 27.7334 23.3487C27.6729 23.3746 27.6189 23.4134 27.5751 23.4625C27.4751 23.5625 27.4375 23.7125 27.425 23.9125Z" fill="#F7FFFF"/>
<path d="M29.125 24.8125L29.15 23.0625H29.9C30.0875 23.0625 30.2125 23.0875 30.3 23.125C30.3875 23.15 30.45 23.2125 30.5 23.2875C30.55 23.3625 30.575 23.4625 30.575 23.575C30.576 23.6953 30.5313 23.8114 30.45 23.9C30.3576 23.9866 30.2387 24.0394 30.1125 24.05L30.3 24.2C30.35 24.25 30.4125 24.35 30.4875 24.4875L30.7 24.8375H30.275L30.025 24.4375L29.85 24.1875C29.8197 24.1531 29.7809 24.1272 29.7375 24.1125C29.6806 24.0959 29.6217 24.0875 29.5625 24.0875H29.4875V24.8125H29.125Z" fill="#309E3A"/>
<path d="M29.5 23.8125H29.75C29.925 23.8125 30.0375 23.8125 30.075 23.7875C30.1125 23.7875 30.15 23.75 30.175 23.725C30.2 23.7 30.2125 23.6375 30.2125 23.6C30.2125 23.525 30.2 23.475 30.1625 23.45C30.1375 23.4125 30.0875 23.3875 30.0375 23.375H29.7875L29.5 23.3625V23.8V23.8125Z" fill="white"/>
<path d="M31.125 23.15L31.775 23.1875C31.9125 23.1875 32.025 23.2 32.1 23.225C32.1973 23.2603 32.2835 23.3207 32.35 23.4C32.422 23.4874 32.4733 23.59 32.5 23.7C32.5375 23.8125 32.55 23.95 32.5375 24.1125C32.5374 24.2401 32.5162 24.3668 32.475 24.4875C32.425 24.6125 32.35 24.7125 32.2625 24.7875C32.1896 24.8475 32.1042 24.8902 32.0125 24.9125C31.9375 24.9375 31.825 24.9375 31.7 24.9375L31.0375 24.9L31.125 23.15Z" fill="#309E3A"/>
<path d="M31.4625 23.4625L31.4 24.625H31.875C31.9375 24.625 31.9875 24.6 32.025 24.5625C32.0625 24.525 32.1 24.475 32.125 24.4C32.15 24.325 32.175 24.2125 32.175 24.075L32.1625 23.7625C32.1447 23.6966 32.1102 23.6363 32.0625 23.5875C32.021 23.5457 31.9693 23.5156 31.9125 23.5C31.818 23.479 31.7218 23.4664 31.625 23.4625H31.4625Z" fill="white"/>
<path d="M39.7 26.275L40.1124 24.575L40.6624 24.7L41.0625 24.825C41.15 24.875 41.225 24.95 41.2625 25.0625C41.3125 25.1625 41.3124 25.275 41.2874 25.4125C41.2624 25.5125 41.2249 25.6 41.1624 25.6625C41.1166 25.7174 41.0592 25.7615 40.9944 25.7918C40.9296 25.822 40.859 25.8376 40.7874 25.8375C40.6999 25.8375 40.5749 25.8125 40.4124 25.775L40.2 25.7125L40.0499 26.3625L39.7 26.275Z" fill="#309E3A"/>
<path d="M40.3749 24.95L40.2749 25.425L40.4624 25.475C40.5874 25.5 40.6874 25.525 40.7374 25.5125C40.786 25.5057 40.8314 25.4841 40.8672 25.4505C40.903 25.4169 40.9275 25.3731 40.9374 25.325C40.9374 25.2625 40.9374 25.2125 40.9124 25.1625C40.885 25.1117 40.8408 25.0719 40.7874 25.05L40.5499 24.9875L40.3874 24.95H40.3749Z" fill="white"/>
<path d="M41.325 26.7625L41.9124 25.1125L42.5999 25.3625C42.7874 25.425 42.8999 25.4875 42.9749 25.5375C43.0374 25.6 43.0874 25.6625 43.0999 25.7625C43.1124 25.8625 43.1249 25.95 43.0999 26.05C43.0499 26.175 42.975 26.2625 42.875 26.325C42.775 26.375 42.65 26.3875 42.5 26.3625C42.55 26.425 42.6 26.4875 42.625 26.5625L42.7249 26.9L42.7999 27.2875L42.4124 27.15L42.2874 26.7C42.2647 26.5982 42.2355 26.498 42.2 26.4C42.1834 26.3611 42.1576 26.3268 42.125 26.3C42.1 26.2625 42.05 26.2375 41.9625 26.2125L41.9 26.1875L41.65 26.8875L41.325 26.7625Z" fill="#309E3A"/>
<path d="M41.9999 25.925L42.2374 26.0125C42.3999 26.075 42.4999 26.1 42.5499 26.1C42.5874 26.1 42.6249 26.1 42.6624 26.0625C42.6999 26.0375 42.7249 26 42.7374 25.95C42.7624 25.9 42.7624 25.85 42.7374 25.8C42.7189 25.7516 42.6834 25.7115 42.6374 25.6875L42.3874 25.6L42.1374 25.5125L41.9874 25.925H41.9999Z" fill="white"/>
<path d="M43.3751 26.7C43.418 26.5536 43.4903 26.4175 43.5876 26.3C43.6508 26.2246 43.727 26.1611 43.8126 26.1125C43.89 26.0687 43.9747 26.0391 44.0626 26.025C44.1876 26.025 44.3126 26.025 44.4501 26.075C44.5618 26.1026 44.6664 26.1537 44.7569 26.2248C44.8474 26.2959 44.9218 26.3855 44.9751 26.4875C45.0751 26.6875 45.0751 26.925 45.0001 27.2C44.9382 27.4363 44.7854 27.6385 44.5751 27.7625C44.3876 27.875 44.1626 27.8875 43.9251 27.8125C43.8136 27.7841 43.7094 27.7328 43.619 27.6617C43.5286 27.5907 43.454 27.5015 43.4001 27.4C43.35 27.2907 43.322 27.1726 43.3177 27.0525C43.3134 26.9324 43.3329 26.8126 43.3751 26.7Z" fill="#309E3A"/>
<path d="M43.7251 26.8C43.6751 26.9875 43.6626 27.15 43.7251 27.275C43.7876 27.4 43.8751 27.475 44.0126 27.525C44.1376 27.5625 44.2626 27.55 44.3876 27.475C44.5126 27.4125 44.5876 27.275 44.6501 27.075C44.7126 26.8875 44.7126 26.7375 44.6501 26.6125C44.6254 26.5532 44.588 26.5001 44.5404 26.4568C44.4929 26.4136 44.4364 26.3814 44.3751 26.3625C44.3136 26.3413 44.2482 26.3336 44.1834 26.3401C44.1187 26.3466 44.0561 26.367 44.0001 26.4C43.8751 26.475 43.7876 26.6 43.7251 26.8Z" fill="white"/>
<path d="M46.7875 29.1375L47.5875 27.5875L48.25 27.925C48.3749 27.9849 48.4889 28.0652 48.5875 28.1625C48.65 28.225 48.6875 28.3 48.6875 28.4C48.6875 28.5 48.6875 28.5875 48.6375 28.675C48.5894 28.7874 48.4999 28.8769 48.3875 28.925C48.2625 28.95 48.1375 28.95 48 28.9C48.05 28.975 48.075 29.05 48.1 29.1125C48.125 29.1875 48.1375 29.3 48.15 29.4625L48.175 29.8625L47.8 29.675L47.75 29.2125C47.7441 29.1077 47.7315 29.0033 47.7125 28.9C47.704 28.8532 47.6823 28.8099 47.65 28.775L47.5 28.6875L47.4375 28.65L47.1 29.3L46.7875 29.1375Z" fill="#309E3A"/>
<path d="M47.5625 28.4L47.8 28.525C47.95 28.6 48.05 28.65 48.0875 28.65C48.125 28.65 48.175 28.65 48.2125 28.625C48.25 28.6125 48.275 28.575 48.3 28.525C48.325 28.475 48.3375 28.425 48.325 28.375C48.3096 28.3252 48.279 28.2815 48.2375 28.25C48.1643 28.2051 48.0893 28.1634 48.0125 28.125L47.7625 28L47.5625 28.4Z" fill="white"/>
<path d="M53.2625 32.3375C53.3434 32.209 53.4498 32.0984 53.575 32.0125C53.6591 31.9587 53.7523 31.9205 53.85 31.9C53.9408 31.8815 54.0343 31.8815 54.125 31.9C54.25 31.925 54.3625 31.975 54.475 32.05C54.5723 32.1106 54.6559 32.1908 54.7205 32.2855C54.785 32.3802 54.8292 32.4873 54.85 32.6C54.8875 32.8125 54.825 33.05 54.675 33.2875C54.5496 33.4941 54.3473 33.6424 54.1125 33.7C54.0006 33.7242 53.8849 33.7244 53.7728 33.7007C53.6608 33.677 53.5551 33.6299 53.4625 33.5625C53.3653 33.5019 53.2817 33.4217 53.2171 33.327C53.1525 33.2323 53.1084 33.1252 53.0875 33.0125C53.05 32.7875 53.1125 32.5625 53.2625 32.3375Z" fill="#309E3A"/>
<path d="M53.575 32.5375C53.45 32.7 53.4125 32.85 53.4375 32.9875C53.4467 33.0508 53.4693 33.1114 53.5038 33.1653C53.5383 33.2192 53.5839 33.2651 53.6375 33.3C53.7625 33.3875 53.8875 33.4125 54.0125 33.375C54.1375 33.3375 54.2625 33.25 54.375 33.075C54.4875 32.9 54.5375 32.75 54.5125 32.625C54.5 32.5 54.425 32.3875 54.3125 32.3C54.2 32.2125 54.0625 32.2 53.9375 32.2375C53.8125 32.2625 53.6875 32.3625 53.5625 32.5375H53.575Z" fill="white"/>
<path d="M37.725 25.5625L38.0125 24.3375L38.9125 24.55L38.875 24.75L38.2125 24.6L38.15 24.875L38.7625 25.0125L38.7125 25.225L38.1 25.075L38.025 25.4125L38.7125 25.575L38.6625 25.775L37.725 25.5625Z" fill="#309E3A"/>
</g>
<defs>
<clipPath id="clip0_1_3">
<rect width="80" height="60" fill="white"/>
</clipPath>
</defs>
</svg>