<svg width="80" height="60" viewBox="0 0 80 60" fill="none" xmlns="http://www.w3.org/2000/svg">
<g clip-path="url(#clip0_6_1578)">
<path d="M0 0H80V60H0V0Z" fill="#F7E017"/>
<path d="M0 4.16211V30.8371L80 43.3371V29.1621L0 4.16211Z" fill="white"/>
<path d="M0 18.3379V30.8379L80 55.8379V43.3379L0 18.3379Z" fill="black"/>
<path d="M37.9751 47.4746C36.5124 47.3131 35.1051 46.8231 33.8584 46.0413C33.6584 45.9079 33.4751 45.7913 33.4417 45.7913C33.4084 45.7913 33.3917 45.9496 33.3917 46.1329C33.3917 46.6663 33.1751 46.9329 32.6417 47.0746C32.1251 47.2079 31.3417 46.9413 30.7084 46.4079C30.1078 45.8941 29.4068 45.511 28.6501 45.2829C27.8617 45.0953 27.0319 45.2019 26.3167 45.5829C26.246 45.6327 26.167 45.6694 26.0834 45.6913C25.9917 45.6913 26 45.1163 26.1 44.9413C26.225 44.6913 26.525 44.4579 26.8834 44.3329C27.0667 44.2663 27.2167 44.1829 27.2167 44.1413C27.2167 44.1079 27.1501 43.9746 27.0751 43.8413C26.8334 43.4163 26.9334 43.0079 27.3584 42.6829C27.7917 42.3496 28.5251 42.2996 29.1667 42.5413C29.2751 42.5875 29.3865 42.6264 29.5001 42.6579C29.5834 42.6579 29.5334 42.5329 29.3001 42.1913C29.0334 41.7996 28.9751 41.6079 29.0084 41.1329C29.0313 40.8422 29.1572 40.5691 29.3634 40.3629C29.5696 40.1567 29.8427 40.0308 30.1334 40.0079C30.6167 39.9746 30.9167 40.1412 31.6334 40.8162C33.5582 42.7537 36.0863 43.9766 38.8001 44.2829C39.4918 44.3663 40.8668 44.3246 41.6751 44.1996C44.2359 43.7723 46.6101 42.5882 48.4918 40.7996C49.0252 40.2996 49.2752 40.1662 49.7168 40.1662C50.0918 40.1662 50.3585 40.2829 50.6335 40.5829C50.8835 40.8579 50.9668 41.1162 50.9335 41.5413C50.9168 41.8079 50.8752 41.9329 50.7168 42.1996C50.4835 42.5746 50.5252 42.6163 50.9835 42.4329C51.6168 42.1829 52.3918 42.2996 52.8085 42.6996C53.1752 43.0496 53.2085 43.3996 52.9252 43.8663C52.8168 44.0413 52.7335 44.1996 52.7335 44.2329C52.7335 44.2829 52.8168 44.2996 53.1918 44.3663C53.6919 44.4496 53.9835 44.8163 53.9835 45.3829C53.9835 45.5496 53.9585 45.6913 53.9335 45.6913C53.9085 45.6913 53.7169 45.6163 53.5169 45.5329C52.9335 45.2913 52.6002 45.2329 51.9168 45.2413C51.4002 45.2413 51.2252 45.2663 50.8668 45.3829C50.267 45.5915 49.7146 45.9173 49.2418 46.3413C48.7085 46.8163 48.3752 46.9663 47.8585 46.9579C47.3752 46.9579 47.0502 46.8163 46.8751 46.5413C46.7835 46.3913 46.7668 46.3079 46.7918 45.9746C46.8085 45.7579 46.8001 45.5829 46.7918 45.5829C46.7668 45.5829 46.5835 45.6996 46.3751 45.8413C45.8994 46.1824 45.3812 46.4597 44.8335 46.6663C42.6402 47.4607 40.293 47.7374 37.9751 47.4746Z" fill="#CF1126"/>
<path d="M38.8587 43.7669C37.2467 43.6187 35.685 43.128 34.278 42.3275C32.871 41.527 31.6512 40.4352 30.7003 39.1252C28.667 36.3585 28.0336 32.7002 28.6503 29.3585C28.9836 27.8335 29.6503 26.3085 30.7753 25.2251C29.8478 27.1498 29.5926 29.3299 30.0503 31.4168C30.8003 35.5668 34.3003 39.0752 38.492 39.6835C40.1587 40.1585 41.867 39.6502 43.4504 39.1419C46.9504 37.9085 49.6171 34.5918 49.9337 30.8835C50.2087 28.8835 49.9087 26.7918 49.0004 24.9668C49.5171 25.2418 50.1671 26.3168 50.5504 27.0335C51.8837 29.6168 51.9421 32.7085 51.1587 35.4668C50.0921 38.9752 47.4087 42.0502 43.867 43.1669C42.2512 43.6717 40.5564 43.8751 38.867 43.7669H38.8587Z" fill="#CF1126"/>
<path d="M22.6667 39.1578C22.4583 39.1245 22.225 39.3328 22.3083 39.5495C22.4583 39.7662 22.725 39.8828 22.9583 39.9828C23.5731 40.2229 24.2331 40.3253 24.8917 40.2828C25.3749 40.2829 25.8544 40.1983 26.3084 40.0328C26.5584 39.9495 26.875 39.8662 26.975 39.5828C27.0834 39.4078 26.8917 39.2245 26.7167 39.2578C26.4667 39.3162 26.2167 39.4245 25.9667 39.4995C25.4172 39.6551 24.8443 39.7115 24.275 39.6662C23.8607 39.6059 23.4568 39.4881 23.075 39.3162C22.9417 39.2578 22.8167 39.1745 22.6667 39.1578Z" fill="#CF1126"/>
<path d="M22.9002 38.2911C22.6919 38.2578 22.5085 38.5078 22.5919 38.7078C22.7585 38.9411 23.0335 39.0661 23.2919 39.1744C23.7425 39.3512 24.2247 39.4334 24.7085 39.4161H24.8335C25.245 39.4179 25.6527 39.3386 26.0335 39.1828C26.2585 39.0911 26.5419 38.9994 26.6419 38.7494C26.7169 38.6078 26.6585 38.4078 26.4752 38.3911C26.3252 38.3911 26.1835 38.4911 26.0335 38.5328C25.4907 38.7569 24.9022 38.8484 24.3169 38.7994C23.9502 38.7578 23.6085 38.6244 23.2752 38.4661C23.1502 38.4078 23.0419 38.3161 22.9002 38.2994V38.2911Z" fill="#CF1126"/>
<path d="M23.192 37.4659C23.0087 37.4409 22.8837 37.6493 22.917 37.8076C22.942 37.9576 23.067 38.0576 23.1753 38.1409C23.6291 38.4552 24.1741 38.6105 24.7254 38.5826H24.8587C25.2052 38.58 25.5468 38.5003 25.8587 38.3493C26.067 38.2659 26.3087 38.1576 26.3837 37.9159C26.417 37.8076 26.4337 37.6493 26.3087 37.5826C26.1754 37.5159 26.0504 37.6243 25.9337 37.6659C25.5351 37.8754 25.0923 37.9868 24.642 37.9909C24.2555 37.9755 23.8795 37.8607 23.5503 37.6576C23.4253 37.5993 23.3253 37.4909 23.192 37.4659Z" fill="#CF1126"/>
<path d="M20.1251 25.2246C19.8585 25.4996 20.0668 25.9996 20.0418 26.3496C20.1918 27.4496 20.3668 28.558 20.7751 29.5996C21.2751 30.5996 22.3418 31.1413 22.9835 32.033C23.2168 32.458 23.1335 32.9746 23.1835 33.4496C23.2168 34.7247 23.2085 36.008 23.1835 37.283C23.7668 37.583 24.3918 37.8663 25.0585 37.758C25.4502 37.6663 26.1835 37.608 26.2668 37.2163L26.1835 30.5913C25.9585 29.9163 25.2668 29.5663 24.7585 29.133C24.3336 28.7135 23.9382 28.2652 23.5751 27.7913C23.3585 27.4163 22.5001 27.2913 22.8085 27.9246C22.9918 28.483 23.4501 28.8913 23.5668 29.4746C23.5918 29.7996 23.9835 30.3913 23.6501 30.5746C23.4448 30.2124 23.1337 29.9217 22.7585 29.7413C22.3918 29.4663 21.7835 29.3496 21.6501 28.8663C21.5301 28.1788 21.2114 27.5415 20.7335 27.033C20.8585 26.4163 20.7335 25.6413 20.2001 25.2413L20.1251 25.2246Z" fill="#CF1126"/>
<path d="M20.95 25.3496C20.7 25.3913 20.7167 25.6996 20.825 25.8663C20.9485 26.225 20.9801 26.6089 20.9167 26.9829C21.3737 27.4918 21.6796 28.1181 21.8 28.7913C21.8 29.0413 22.0667 29.1246 22.2417 29.2496C22.65 29.508 23.1 29.6996 23.4667 30.0246C23.5417 30.108 23.6 30.1913 23.55 30.0246C23.4917 29.808 23.4667 29.5746 23.3 29.4163C23.0667 29.1663 22.7834 28.9496 22.45 28.883C22.425 28.533 22.2584 28.2163 22.1084 27.9163C21.9417 27.6246 21.7667 27.3163 21.4834 27.133C21.4834 26.6246 21.4834 26.0913 21.2667 25.6163C21.2 25.4996 21.1 25.3579 20.95 25.3496Z" fill="#CF1126"/>
<path d="M21.6416 25.5498C21.4749 25.5998 21.5083 25.8165 21.5583 25.9415C21.6311 26.3033 21.6591 26.6728 21.6416 27.0415C21.9666 27.2915 22.1583 27.6581 22.3416 28.0082C22.4583 28.2415 22.5583 28.4915 22.6 28.7498C22.8583 28.8332 23.0833 28.9998 23.2833 29.1665C23.2 28.9332 23.0333 28.7498 22.9083 28.5248C22.7833 28.2998 22.6583 28.0582 22.6 27.7998C22.35 27.5415 22.2166 27.1665 22.2666 26.7998C22.2833 26.4081 22.1583 25.9998 21.8916 25.6998C21.8249 25.6331 21.7416 25.5581 21.6416 25.5498Z" fill="#CF1126"/>
<path d="M22.4333 25.6663C22.3333 25.6829 22.2833 25.7663 22.2333 25.8413C22.2083 25.9163 22.3 25.9913 22.3166 26.0746C22.4255 26.3497 22.4656 26.6472 22.4333 26.9413C22.425 27.1496 22.5 27.358 22.6 27.5246C22.6187 27.4605 22.6567 27.4036 22.7089 27.3619C22.7611 27.3201 22.8249 27.2955 22.8916 27.2913C22.9333 27.2913 23.0083 27.308 22.975 27.233C22.9416 26.833 22.8833 26.4329 22.7416 26.0663C22.7006 25.9219 22.6197 25.7919 22.5083 25.6913C22.4916 25.6746 22.4583 25.6579 22.425 25.6663H22.4333Z" fill="#CF1126"/>
<path d="M57.3338 39.1578C57.5422 39.1245 57.7755 39.3328 57.6921 39.5495C57.5421 39.7662 57.2755 39.8828 57.0421 39.9828C56.4274 40.2229 55.7674 40.3253 55.1088 40.2828C54.6256 40.2829 54.1461 40.1983 53.6921 40.0328C53.4421 39.9495 53.1255 39.8662 53.0255 39.5828C52.9171 39.4078 53.1088 39.2245 53.2838 39.2578C53.5338 39.3162 53.7838 39.4245 54.0338 39.4995C54.5833 39.6551 55.1562 39.7115 55.7255 39.6662C56.1398 39.6059 56.5437 39.4881 56.9255 39.3162C57.0588 39.2578 57.1838 39.1745 57.3338 39.1578Z" fill="#CF1126"/>
<path d="M57.1003 38.2911C57.3086 38.2578 57.492 38.5078 57.4086 38.7078C57.242 38.9411 56.967 39.0661 56.7086 39.1744C56.2579 39.3512 55.7757 39.4334 55.292 39.4161H55.167C54.7555 39.4179 54.3477 39.3386 53.9669 39.1828C53.7419 39.0911 53.4586 38.9994 53.3586 38.7494C53.2836 38.6078 53.3419 38.4078 53.5253 38.3911C53.6753 38.3911 53.8169 38.4911 53.9669 38.5328C54.5098 38.7569 55.0983 38.8484 55.6836 38.7994C56.0503 38.7578 56.392 38.6244 56.7253 38.4661C56.8503 38.4078 56.9586 38.3161 57.1003 38.2994V38.2911Z" fill="#CF1126"/>
<path d="M56.8085 37.4659C56.9918 37.4409 57.1168 37.6493 57.0835 37.8076C57.0585 37.9576 56.9335 38.0576 56.8251 38.1409C56.3714 38.4552 55.8264 38.6105 55.2751 38.5826H55.1418C54.7953 38.58 54.4537 38.5003 54.1418 38.3493C53.9335 38.2659 53.6918 38.1576 53.6168 37.9159C53.5835 37.8076 53.5668 37.6493 53.6918 37.5826C53.8251 37.5159 53.9501 37.6243 54.0668 37.6659C54.4654 37.8754 54.9082 37.9868 55.3585 37.9909C55.745 37.9755 56.121 37.8607 56.4501 37.6576C56.5751 37.5993 56.6751 37.4909 56.8085 37.4659Z" fill="#CF1126"/>
<path d="M59.8754 25.2246C60.142 25.4996 59.9337 25.9996 59.9587 26.3496C59.8087 27.4496 59.6337 28.558 59.2254 29.5996C58.7254 30.5996 57.6587 31.1413 57.017 32.033C56.7837 32.458 56.867 32.9746 56.817 33.4496C56.7837 34.7247 56.792 36.008 56.817 37.283C56.2337 37.583 55.6087 37.8663 54.942 37.758C54.5503 37.6663 53.817 37.608 53.7337 37.2163L53.817 30.5913C54.042 29.9163 54.7337 29.5663 55.242 29.133C55.6669 28.7135 56.0623 28.2652 56.4253 27.7913C56.642 27.4163 57.5003 27.2913 57.192 27.9246C57.0087 28.483 56.5503 28.8913 56.4337 29.4746C56.4087 29.7996 56.017 30.3913 56.3503 30.5746C56.5556 30.2124 56.8668 29.9217 57.242 29.7413C57.6087 29.4663 58.217 29.3496 58.3504 28.8663C58.4704 28.1788 58.7891 27.5415 59.267 27.033C59.142 26.4163 59.267 25.6413 59.8004 25.2413L59.8754 25.2246Z" fill="#CF1126"/>
<path d="M59.0505 25.3496C59.3005 25.3913 59.2838 25.6996 59.1755 25.8663C59.0519 26.225 59.0204 26.6089 59.0838 26.9829C58.6268 27.4918 58.3209 28.1181 58.2005 28.7913C58.2005 29.0413 57.9338 29.1246 57.7588 29.2496C57.3505 29.508 56.9005 29.6996 56.5338 30.0246C56.4588 30.108 56.4005 30.1913 56.4505 30.0246C56.5088 29.808 56.5338 29.5746 56.7005 29.4163C56.9338 29.1663 57.2171 28.9496 57.5505 28.883C57.5755 28.533 57.7421 28.2163 57.8921 27.9163C58.0588 27.6246 58.2338 27.3163 58.5171 27.133C58.5171 26.6246 58.5171 26.0913 58.7338 25.6163C58.8005 25.4996 58.9005 25.3579 59.0505 25.3496Z" fill="#CF1126"/>
<path d="M58.3589 25.5498C58.5255 25.5998 58.4922 25.8165 58.4422 25.9415C58.3694 26.3033 58.3414 26.6728 58.3589 27.0415C58.0339 27.2915 57.8422 27.6581 57.6589 28.0082C57.5422 28.2415 57.4422 28.4915 57.4005 28.7498C57.1422 28.8332 56.9172 28.9998 56.7172 29.1665C56.8005 28.9332 56.9672 28.7498 57.0922 28.5248C57.2172 28.2998 57.3422 28.0582 57.4005 27.7998C57.6505 27.5415 57.7839 27.1665 57.7339 26.7998C57.7172 26.4081 57.8422 25.9998 58.1089 25.6998C58.1755 25.6331 58.2589 25.5581 58.3589 25.5498Z" fill="#CF1126"/>
<path d="M57.5672 25.6663C57.6672 25.6829 57.7172 25.7663 57.7672 25.8413C57.7922 25.9163 57.7005 25.9913 57.6839 26.0746C57.575 26.3497 57.5349 26.6472 57.5672 26.9413C57.5755 27.1496 57.5005 27.358 57.4005 27.5246C57.3818 27.4605 57.3438 27.4036 57.2916 27.3619C57.2394 27.3201 57.1756 27.2955 57.1089 27.2913C57.0672 27.2913 56.9922 27.308 57.0255 27.233C57.0589 26.833 57.1172 26.4329 57.2589 26.0663C57.2999 25.9219 57.3808 25.7919 57.4922 25.6913C57.5089 25.6746 57.5422 25.6579 57.5755 25.6663H57.5672Z" fill="#CF1126"/>
<path d="M39.6421 39.6665C39.0792 39.6057 38.5455 39.385 38.104 39.0306C37.6625 38.6762 37.3316 38.2029 37.1504 37.6665C37.1754 37.4832 37.4004 37.7665 37.5087 37.7915C37.712 37.9127 37.9398 37.9867 38.1754 38.0082C38.4671 38.1332 38.6504 38.4249 38.9337 38.5832C39.0671 38.6832 39.5337 38.8832 39.4421 38.5582C39.3337 38.3915 39.2587 38.1749 39.3587 37.9749C39.5087 37.6332 39.7504 37.3332 40.0004 37.0415C40.1754 36.9832 40.3004 37.3415 40.4254 37.4582C40.6004 37.7332 40.8171 38.0665 40.7087 38.3999C40.6087 38.5249 40.5421 38.8999 40.8171 38.7832C41.1504 38.6332 41.4254 38.3832 41.7004 38.1499C41.9504 37.9832 42.2587 37.9749 42.5087 37.8165C42.6338 37.7915 42.8754 37.5582 42.9254 37.6832C42.7762 38.0557 42.5679 38.4018 42.3088 38.7082C41.908 39.1839 41.354 39.5051 40.7421 39.6165C40.3754 39.6832 40.0087 39.6999 39.6421 39.6665Z" fill="#CF1126"/>
<path d="M40.9584 38.3502C40.9834 38.1252 40.9334 37.9002 40.8167 37.6836C40.6417 37.3336 40.4 37.0169 40.15 36.6919C39.9167 36.5586 39.7917 37.0002 39.6417 37.1252C39.4 37.4836 39.1 37.8502 39.0834 38.2919C38.95 38.5002 38.7 38.1252 38.5917 38.0002C38.3696 37.7148 38.252 37.3618 38.2583 37.0002C38.2382 36.4134 38.3404 35.8288 38.5584 35.2836C38.725 34.8169 38.9834 34.3669 38.9584 33.8669C38.975 33.4752 38.9 33.0585 38.5917 32.8002C38.2917 32.5669 38.7834 32.5169 38.9334 32.6335C39.2 32.6585 39.3417 33.0919 39.5834 32.9835C39.675 32.7585 39.7 32.4835 39.9 32.3085C40.0917 32.0419 40.2917 32.4169 40.3584 32.6002C40.5 32.7502 40.3584 33.1419 40.575 33.1502C40.8417 32.9585 41.0334 32.6502 41.375 32.5752C41.5167 32.4919 41.75 32.5752 41.5667 32.7252C41.3167 32.9669 41.1 33.2585 41.05 33.6169C40.975 34.0585 41.0834 34.5085 41.275 34.9002C41.65 35.6836 41.9417 36.5669 41.75 37.4419C41.6667 37.8252 41.4 38.1586 41.0834 38.3836C41.0417 38.4086 40.975 38.4086 40.9584 38.3502Z" fill="#CF1126"/>
<path d="M40.5587 32.4665C40.4465 32.241 40.2874 32.0421 40.0921 31.8832C39.8921 31.8832 39.7671 32.1332 39.6337 32.2665C39.5421 32.4415 39.4254 32.7332 39.1921 32.5082C38.8171 32.2915 38.7587 31.8165 38.7587 31.4248C38.7337 30.7915 38.9921 30.1998 39.2171 29.6248C39.3587 29.2665 39.3254 28.8582 39.2337 28.4915C39.1254 28.0748 38.7837 27.7748 38.5254 27.4415C38.5421 27.3165 38.8754 27.3831 39.0004 27.4081C39.2837 27.4831 39.4504 27.7248 39.6587 27.9081C39.8087 27.8581 39.7421 27.5581 39.8171 27.4165C39.8171 27.2165 40.0837 26.9581 40.1921 27.2415C40.3587 27.4248 40.1921 27.7832 40.4004 27.8915C40.6004 27.8165 40.7004 27.5998 40.8837 27.4998C40.9795 27.4379 41.0895 27.4015 41.2033 27.3942C41.3171 27.3869 41.4309 27.4089 41.5337 27.4581C41.6087 27.6415 41.3171 27.7915 41.2337 27.9582C41.0672 28.1659 40.9517 28.4099 40.8967 28.6704C40.8417 28.931 40.8487 29.2008 40.9171 29.4582C41.0337 29.8748 41.2337 30.2498 41.3087 30.6665C41.3987 31.1417 41.3845 31.6307 41.2671 32.0998C41.1921 32.3832 40.9504 32.5665 40.7004 32.6832C40.6337 32.6248 40.6004 32.5415 40.5587 32.4665Z" fill="#CF1126"/>
<path d="M39.3002 27.2413C39.0169 27.0329 38.9252 26.8413 38.9252 26.4496C38.9252 26.2579 38.9669 26.1496 39.0919 25.9663C39.2919 25.6996 39.2586 25.6163 38.9836 25.6913C38.5419 25.8163 38.3335 25.7079 38.3169 25.3329C38.3169 25.1496 38.3502 25.0746 38.5919 24.7746C38.7919 24.5413 38.8669 24.4163 38.8252 24.3746C38.7836 24.3413 38.5502 24.5413 38.0752 25.0246C37.7774 25.3386 37.4601 25.6337 37.1252 25.9079C36.3085 26.4579 35.5252 26.5413 35.1669 26.1163C34.9835 25.8996 34.9919 25.7829 35.2002 25.6496C35.3329 25.56 35.4558 25.4566 35.5669 25.3413C35.9753 24.9683 36.4255 24.644 36.9085 24.3746C37.2085 24.2246 37.2752 24.1246 37.0835 24.1246C36.8335 24.1246 36.0419 24.6413 35.4335 25.1913C35.2585 25.3579 35.0002 25.5413 34.8669 25.6079C34.4961 25.7432 34.0949 25.772 33.7085 25.6913C33.5252 25.6329 33.1835 25.3163 33.1835 25.1996C33.1835 25.1746 33.2669 25.1079 33.3502 25.0496C33.486 24.9729 33.6143 24.8836 33.7335 24.7829C34.2169 24.3663 35.1335 23.9246 35.8585 23.7663C36.0919 23.7246 36.0002 23.5996 35.7419 23.6163C34.977 23.7623 34.2607 24.0975 33.6585 24.5913C32.9669 25.1663 31.9252 25.1079 31.5918 24.4829C31.5335 24.3746 31.4918 24.2746 31.5085 24.2579C32.0988 24.1089 32.6694 23.8907 33.2085 23.6079C33.6728 23.3343 34.1845 23.1505 34.7169 23.0662C34.9502 23.0246 34.9669 22.9079 34.7419 22.8829C34.4419 22.8496 33.9919 22.9996 33.2002 23.3829C32.1752 23.8913 31.8835 23.9829 31.3502 23.9496C30.8502 23.9163 30.5752 23.7913 30.1835 23.4163C29.9168 23.1662 29.5502 22.5412 29.6168 22.4662C30.0495 22.5572 30.4918 22.5936 30.9335 22.5746C31.6252 22.5746 31.8169 22.5579 32.1835 22.4496C32.8998 22.2226 33.5751 21.8822 34.1835 21.4412C35.0413 20.7156 36.1267 20.3145 37.2502 20.3079C38.2835 20.3079 38.9336 20.5412 39.5169 21.1329C39.7169 21.3329 39.8836 21.4579 39.9086 21.4329C39.9336 21.4079 39.9586 21.0579 39.9669 20.6579C39.9669 20.6579 40.2752 20.6246 40.3419 20.7162C40.3419 21.3579 40.3419 21.4162 40.4419 21.4162C40.5002 21.4162 40.5669 21.3496 40.6086 21.2496C40.6919 21.0412 41.0252 20.7496 41.3752 20.5662C42.1252 20.1912 43.4336 20.1746 44.4836 20.5412C44.9856 20.7317 45.455 20.9988 45.8753 21.3329C46.4883 21.7641 47.1625 22.1012 47.8753 22.3329C48.4419 22.4996 49.4586 22.5412 49.9669 22.4162C50.1156 22.3818 50.2658 22.354 50.4169 22.3329C50.6086 22.3329 50.2836 22.9662 49.9003 23.3413C49.2003 24.0246 48.2919 24.0163 47.0169 23.3329C46.2169 22.8996 45.2669 22.6662 45.2669 22.8996C45.2669 22.9496 45.3169 22.9829 45.3919 22.9829C45.6669 22.9829 46.2003 23.1662 46.9503 23.5246C47.4215 23.7963 47.9382 23.9799 48.4753 24.0663C48.6669 24.0663 48.6753 24.1913 48.4919 24.4579C48.3003 24.7413 47.9753 24.8746 47.5169 24.8746C47.0753 24.8746 46.8253 24.7829 46.4336 24.4579C45.7669 23.9079 44.1336 23.2912 44.1919 23.6246C44.2086 23.6829 44.2836 23.7246 44.4586 23.7496C45.1624 23.9025 45.8213 24.2162 46.3836 24.6663L46.8753 25.0246C46.9669 25.0746 46.9669 25.0913 46.8919 25.2329C46.7753 25.4663 46.4586 25.6413 46.1253 25.6746C45.6919 25.7246 45.3086 25.5913 44.9169 25.2579C44.0836 24.5663 43.3086 24.0663 43.0586 24.0663C42.8502 24.0663 42.9419 24.1829 43.3086 24.3746C43.7829 24.6258 44.225 24.9336 44.6252 25.2913C44.7919 25.4496 44.9836 25.5996 45.0419 25.6329C45.2003 25.7163 45.1919 25.8329 45.0252 26.0496C44.8586 26.2663 44.5752 26.3663 44.2169 26.3246C43.5002 26.2496 42.9336 25.9079 42.0502 24.9913C41.8402 24.7567 41.6117 24.5393 41.3669 24.3413C41.2502 24.3413 41.3252 24.4996 41.5502 24.7579C41.8336 25.0663 41.8836 25.2413 41.7752 25.5079C41.6836 25.7246 41.5252 25.7829 41.2086 25.6913C40.8752 25.6079 40.8252 25.6913 41.0419 25.9496C41.3586 26.3579 41.3169 26.8413 40.9169 27.1829C40.8342 27.2626 40.7383 27.3275 40.6336 27.3746C40.6002 27.3746 40.5169 27.2913 40.4419 27.1746C40.1919 26.7913 39.9669 26.7913 39.7169 27.1746C39.6642 27.2598 39.6086 27.3432 39.5502 27.4246C39.4659 27.3649 39.3825 27.3037 39.3002 27.2413Z" fill="#CF1126"/>
<path d="M40.5584 19.417L40.125 19.7503L39.7417 19.467V21.7837H40.5584V19.417Z" fill="#CF1126"/>
<path d="M37.9087 17.0251C37.8329 17.962 37.5783 18.8757 37.1587 19.7167L38.0837 18.8584L38.7254 19.6251L39.4254 18.8417L40.1337 19.5084L40.817 18.8167L41.5254 19.6501L42.142 18.9667L43.1921 19.7167C42.8087 18.8834 42.3004 18.1667 42.3587 16.9834C41.3504 17.7334 38.942 17.8667 37.9087 17.0167V17.0251Z" fill="#CF1126"/>
<path d="M39.7501 16.4663C39.3751 16.4663 38.9834 16.4747 38.6334 16.5497C38.4016 16.5865 38.1802 16.6717 37.9834 16.7997C38.0084 17.5163 41.4001 17.808 42.3084 16.8163C42.104 16.6749 41.8705 16.5809 41.6251 16.5413C41.2917 16.4747 40.9084 16.4747 40.5501 16.458V17.0497H39.7501V16.4663Z" fill="#CF1126"/>
<path d="M40.4088 12.833H39.8838V16.9497H40.4171L40.4088 12.833Z" fill="#CF1126"/>
<path d="M40.4087 12.9331L40.2087 14.9081L42.2337 15.8998L41.2087 14.5248L42.6087 14.0665L40.4087 12.9331ZM40.1837 12.4248C39.8754 12.4248 39.6504 12.5415 39.6504 12.6748C39.6504 12.8081 39.8754 12.9248 40.1837 12.9248C40.4921 12.9248 40.7171 12.8081 40.7171 12.6748C40.7171 12.5415 40.4921 12.4248 40.1837 12.4248Z" fill="#CF1126"/>
<path d="M39.2502 46.9874C39.5877 46.8749 39.7752 46.6749 39.9127 46.2874C39.9752 46.0874 40.0252 45.8874 40.0127 45.8374C39.9877 45.7124 39.8377 45.7124 39.6877 45.8499C39.5752 45.9374 39.5627 45.9874 39.5877 46.1749C39.6752 46.6374 39.5002 46.7624 38.6252 46.8499C38.5377 46.8499 38.2752 46.8499 38.0627 46.8124C37.6377 46.7624 37.4877 46.8124 37.6377 46.9374C37.7185 46.9891 37.8071 47.0271 37.9002 47.0499C38.1377 47.1124 39.0002 47.0749 39.2502 46.9874ZM41.0877 46.9124C41.1377 46.8624 41.3002 46.7874 41.4627 46.7249C41.6752 46.6624 41.7877 46.5999 41.8752 46.4499C42.1377 46.0749 42.0877 45.7374 41.7127 45.2874C41.5002 45.0374 41.4127 45.0499 41.2502 45.3249C41.1002 45.5499 41.1127 45.5749 41.3127 45.6249C41.4252 45.6499 41.5252 45.7249 41.5752 45.8249C41.8002 46.2124 41.7377 46.4499 41.4002 46.4499C41.1002 46.4499 41.0252 46.4999 40.9377 46.6999L40.8627 46.9374C40.8627 47.0124 40.9877 46.9999 41.0877 46.9124ZM40.4877 46.4749C40.5377 46.3124 40.5627 46.0374 40.5502 45.4749C40.5637 45.2077 40.5511 44.9398 40.5127 44.6749C40.4627 44.6249 40.2252 44.7749 40.1877 44.8874C40.1752 44.9797 40.1975 45.0732 40.2502 45.1499C40.3252 45.2999 40.3377 45.4499 40.3127 46.0249C40.2752 46.7749 40.3252 46.8999 40.4877 46.4749Z" fill="#F7E017"/>
<path d="M39.0749 46.1243L39.1624 45.4993C39.1749 45.2868 39.2249 45.0243 39.2499 44.9118C39.3374 44.6243 39.2499 44.5493 39.0249 44.7118L38.8624 44.8368L38.8874 45.2493C38.9249 45.6243 38.8624 46.3118 38.7749 46.5868C38.7499 46.6618 38.7874 46.6368 38.8874 46.5243C38.9624 46.4368 39.0499 46.2493 39.0749 46.1118V46.1243ZM37.8249 46.3243C38.1249 46.0743 38.0874 45.6243 38.1624 45.2743C38.1624 45.0368 38.3124 44.7618 38.2124 44.5493C37.9249 44.5993 37.7499 44.8743 37.8999 45.1368C37.8999 45.4493 37.8999 45.7868 37.7374 46.0618C37.6124 46.2493 37.1874 46.1993 37.2124 45.9368C37.3124 45.5618 36.8499 45.7493 36.6749 45.8493C36.5374 45.9493 36.2374 45.9618 36.3499 45.7243C36.2749 45.3868 35.8624 45.5993 35.6374 45.5993C35.4249 45.5993 35.6249 45.1618 35.3124 45.2243C34.7499 45.1868 34.1249 45.2368 33.6249 44.8993C33.3374 44.7618 33.3749 44.4118 33.5374 44.1868C33.7124 43.8868 33.7624 43.4993 34.0374 43.2618C34.3249 42.9993 33.7874 43.1118 33.6624 43.1993C33.3874 43.3493 33.6374 43.7368 33.4124 43.9493C33.2874 44.1743 33.1124 44.4743 32.8124 44.4368C32.3749 44.3493 32.1249 43.9368 31.8124 43.6868C31.5374 43.6243 31.6874 44.1118 31.8374 44.2118C32.1145 44.4189 32.4284 44.5716 32.7624 44.6618C33.0874 44.5993 33.0999 45.0368 33.3874 45.0993C33.8874 45.3493 34.4624 45.4118 35.0249 45.4493C35.2499 45.4618 35.1249 45.8618 35.4124 45.7743C35.5749 45.8243 35.9499 45.7118 35.9624 45.8993C35.7124 46.1993 36.1999 46.1868 36.3749 46.1493C36.6124 46.0993 36.8999 46.0243 36.9624 46.3243C37.1499 46.5368 37.4999 46.4993 37.7374 46.3868L37.8249 46.3243Z" fill="#F7E017"/>
<path d="M32.8503 43.8C32.9678 43.6356 33.0683 43.4597 33.1503 43.275C33.2139 43.1149 33.2979 42.9636 33.4003 42.825C33.5503 42.675 33.4628 42.575 33.2253 42.625C33.1003 42.65 33.0503 42.7 33.0378 42.8125C32.9817 43.1192 32.8762 43.4147 32.7253 43.6875C32.5128 44 32.5128 44.0125 32.6003 44.0125C32.6378 44.0125 32.7503 43.9125 32.8503 43.8ZM29.7253 41.8375C29.4878 41.8375 29.4753 41.9875 29.7003 42.0625C29.8253 42.1 29.9128 42.1875 29.9878 42.35C30.2003 42.7875 30.3378 42.875 30.9253 42.925L31.3003 42.95L31.3253 43.1875C31.3253 43.3125 31.3628 43.4125 31.3878 43.4125L31.7128 43.2875C31.9878 43.1375 32.2503 42.8125 32.2503 42.6C32.2503 42.475 32.0253 42.325 31.8253 42.325C31.7378 42.325 31.5753 42.4 31.4378 42.5C31.0128 42.8 30.5628 42.75 30.3128 42.35C30.1253 42.025 29.9128 41.85 29.7253 41.85V41.8375ZM31.7628 42.65C31.8753 42.65 31.8878 42.7375 31.8378 42.9C31.8301 42.9221 31.8158 42.9412 31.7967 42.9547C31.7777 42.9683 31.7549 42.9755 31.7315 42.9755C31.7082 42.9755 31.6854 42.9683 31.6664 42.9547C31.6473 42.9412 31.633 42.9221 31.6253 42.9C31.5753 42.775 31.6378 42.65 31.7503 42.65H31.7628ZM47.5753 42.15C47.4128 42.15 47.3753 42.175 47.2753 42.325C47.1128 42.5625 47.1003 43.075 47.2503 43.25C47.3378 43.3625 47.3503 43.3625 47.5378 43.275C47.8128 43.1625 47.8628 43.175 47.8503 43.3125C47.8503 43.6875 47.3253 44.4 46.7753 44.775C46.6624 44.8416 46.5611 44.926 46.4753 45.025C46.4378 45.125 46.6378 45.1125 46.8878 44.975C47.3017 44.7376 47.6431 44.3919 47.8753 43.975C48.0128 43.6875 48.0378 43.6 48.0628 43.1C48.0628 42.625 48.0628 42.475 47.9878 42.325C47.8878 42.15 47.8628 42.1375 47.6378 42.1375H47.5753V42.15ZM47.5878 42.4625C47.7128 42.4625 47.7128 42.4875 47.7378 42.6625C47.7378 42.7875 47.7253 42.875 47.6503 42.95C47.5503 43.0375 47.5253 43.0375 47.4503 42.9C47.3253 42.7 47.4003 42.4625 47.5878 42.4625ZM45.0628 46.025C45.5503 45.775 45.8378 45.5125 46.0128 45.125C46.0777 45.0006 46.1321 44.871 46.1753 44.7375C46.1753 44.6625 45.9378 44.55 45.8003 44.55C45.6628 44.55 45.6253 44.45 45.6753 44.175C45.7378 43.9125 45.6753 43.575 45.5503 43.575C45.5128 43.575 45.4253 43.6375 45.3878 43.7125C45.3128 43.8375 45.3003 43.8875 45.3628 44.05C45.4503 44.3 45.3753 44.5 45.1503 44.6625C45.0378 44.7375 44.9878 44.825 44.9878 44.9125L45.0003 45.0375L45.2628 44.9125L45.5128 44.7625L45.6503 44.8875C45.7378 44.9375 45.8003 45.0375 45.8003 45.1C45.8003 45.4 44.9503 45.9 44.3753 45.95C44.0628 45.975 44.0003 45.95 43.9003 45.85C43.8128 45.7625 43.7878 45.6875 43.8128 45.6L43.8753 45.275C43.9253 45.0125 43.8253 45.05 43.6253 45.35C43.4753 45.6 43.4253 45.8625 43.5128 46C43.5878 46.125 44.0628 46.225 44.4128 46.2C44.6253 46.2 44.8378 46.1375 45.0628 46.025ZM48.3128 44.2125C48.6128 43.9 48.7503 43.525 48.7503 42.9625V42.525L49.0003 42.4C49.3378 42.25 49.6503 41.9375 49.6503 41.7625C49.6503 41.5875 49.5628 41.5875 49.4253 41.7875C49.3128 41.925 49.1753 42.0125 48.6753 42.25C48.5503 42.3 48.5378 42.3375 48.5003 42.875C48.4753 43.5 48.3753 43.725 48.0378 44.15C47.8253 44.4 47.8128 44.45 47.9628 44.45C48.0253 44.45 48.1878 44.3375 48.3128 44.2V44.2125ZM44.9753 43.8625C45.0003 43.775 44.8253 43.7125 44.7628 43.7875C44.7253 43.8125 44.7128 43.8625 44.7378 43.9C44.7878 43.975 44.9378 43.95 44.9753 43.8625ZM49.5753 42.675C49.6128 42.575 49.4378 42.5125 49.3628 42.5875C49.3378 42.625 49.3253 42.675 49.3503 42.7125C49.4003 42.7875 49.5503 42.7625 49.5753 42.675ZM44.0378 39.4375C43.9128 39.5 43.8503 39.625 43.7753 39.725C43.7128 39.7625 43.7628 39.8 43.7878 39.85C44.0003 40.0625 44.0878 40.375 44.1878 40.6625C44.2878 41 44.4128 41.3625 44.3128 41.7125C44.2753 41.8375 44.1628 41.975 44.0128 41.9375C43.7628 41.925 43.5128 41.85 43.2628 41.85C43.0253 41.8625 42.8503 42.075 42.6253 42.05C42.4753 42.05 42.4753 41.75 42.3503 41.8375C42.2753 42 42.3128 42.175 42.3003 42.3375C42.3253 42.375 42.4003 42.35 42.4378 42.3625H42.9003C42.9253 42.5125 42.9253 42.7 43.0253 42.825C43.1878 42.875 43.3753 42.825 43.5253 42.7625C43.6753 42.6875 43.7003 42.5 43.7503 42.35C43.8003 42.1875 44.0003 42.225 44.1253 42.1625C44.2757 42.1157 44.4063 42.0204 44.4967 41.8915C44.5872 41.7626 44.6324 41.6073 44.6253 41.45C44.6003 40.9625 44.4253 40.525 44.2753 40.075C44.2128 39.875 44.1628 39.6625 44.0878 39.4625L44.0378 39.4375ZM43.2878 42.1625C43.4503 42.1625 43.5253 42.3625 43.4878 42.5C43.4253 42.6875 43.1878 42.575 43.1503 42.4375C43.0628 42.3125 43.1128 42.15 43.2753 42.1625H43.2878Z" fill="#F7E017"/>
<path d="M37 40.5996C36.925 40.5996 36.8375 40.6246 36.75 40.6871C36.3125 40.9996 36.1875 41.3621 36.5 41.5121C36.7125 41.6121 36.6625 41.7371 36.3125 41.9121C35.8125 42.1621 35.375 42.1246 34.5375 41.7871C34.3375 41.6996 34.2875 41.7371 34.325 41.9121C34.375 42.0996 34.55 42.1996 34.9625 42.2871C35.4125 42.4121 35.9625 42.3746 36.3125 42.2246C36.5179 42.1197 36.7006 41.9753 36.85 41.7996L37.125 41.5121L37.4375 41.5496C37.825 41.5996 37.8375 41.5996 37.8375 41.7871C37.8375 41.9371 37.8375 41.9371 38.2 41.9746L38.7875 41.9996C38.95 41.9996 39.0375 42.0371 39.0875 42.1121C39.1625 42.1996 39.2 42.2121 39.7875 42.1621C40.3375 42.1121 40.4375 42.1121 40.6875 42.1996C40.8625 42.2496 41.0625 42.2746 41.2 42.2621C41.625 42.2121 42.2 41.8746 42.2875 41.6246C42.2875 41.5871 42.45 41.5371 42.625 41.4996C43.05 41.4121 43.0625 41.3246 42.675 41.2746C42.4791 41.2487 42.2864 41.2027 42.1 41.1371C41.9605 41.0781 41.8131 41.0402 41.6625 41.0246C41.45 41.0246 41.25 41.1496 41.25 41.2996C41.25 41.3871 41.275 41.3996 41.5375 41.3746C41.7625 41.3496 41.8375 41.3621 41.9625 41.4621C42.05 41.5246 42.1 41.5996 42.0875 41.6246C42.025 41.7246 41.525 41.9496 41.3125 41.9871C41.184 42.0084 41.0521 41.9864 40.9375 41.9246C40.7375 41.8246 40.4625 41.8121 40.4 41.8996C40.375 41.9371 40.325 41.9121 40.2375 41.8371L40.1125 41.7121L39.8125 41.8371C39.5125 41.9621 39.4 41.9621 39.4 41.8121C39.4 41.7496 39.3125 41.7371 38.875 41.7746C38.3875 41.7996 38.3375 41.7871 38.25 41.6871C38.1625 41.5996 38.1625 41.5621 38.225 41.4746C38.275 41.3746 38.275 41.3496 38.225 41.2871C38.175 41.2371 38.1 41.2371 37.9125 41.2871C37.425 41.4121 37.2875 41.3496 37.2875 40.9746C37.2875 40.7371 37.1625 40.5996 37 40.5996ZM36.875 40.9496C36.9 40.9496 36.925 40.9621 36.9625 40.9996C37 41.0371 37.025 41.1246 37 41.1621C36.9625 41.2746 36.75 41.2746 36.7125 41.1621C36.6875 41.0996 36.7125 41.0371 36.775 40.9996L36.875 40.9496Z" fill="#F7E017"/>
<path d="M36 41.2996C36.3 41.1121 36.3 41.1246 36.3375 40.6121C36.3625 40.2371 36.3625 40.2121 36.2625 40.2121C36.1125 40.2121 36.0375 40.3746 36.0375 40.6746C36.0375 40.8746 36.0125 40.9621 35.9125 41.0496C35.6625 41.2996 35.0625 41.1871 34.975 40.8871C34.95 40.7871 34.9875 40.6871 35.1125 40.5121C35.375 40.1371 35.325 40.0371 34.9875 40.3246C34.775 40.5246 34.7375 40.5246 34.775 40.3621C34.8125 40.1996 34.7375 40.1371 34.55 40.1871C34.4625 40.2121 34.4 40.2621 34.3875 40.3871C34.3625 40.4871 34.3125 40.5496 34.225 40.5746C34.075 40.6121 33.825 40.4746 33.825 40.3496C33.825 40.2621 34.2 39.7996 34.6875 39.2996C34.8625 39.1121 35.0125 38.9246 35.0125 38.9121C35.0125 38.8871 34.9125 38.8621 34.8 38.8621C34.625 38.8621 34.575 38.8871 34.575 38.9621C34.575 39.0121 34.3375 39.3371 34.0375 39.6746C33.4125 40.3746 33.3625 40.5121 33.6625 40.6996C33.7874 40.7766 33.9322 40.8152 34.0788 40.8108C34.2254 40.8064 34.3675 40.759 34.4875 40.6746L34.6875 40.5371V40.7871C34.6875 41.0996 34.75 41.2246 35 41.3496C35.1564 41.4299 35.3312 41.4676 35.5068 41.4588C35.6823 41.45 35.8525 41.3951 36 41.2996ZM49.05 36.9746C48.825 37.1121 49 37.3996 49.05 37.5996C48.95 37.8496 48.6125 37.9246 48.3625 37.9746C48.0125 38.0371 47.7625 38.3246 47.6375 38.6371C47.5625 38.8371 47.3875 39.1371 47.2 38.8371C47.0375 38.6746 46.7375 38.5371 46.55 38.7371C46.4 38.8746 46.3625 39.0746 46.3 39.2621C46.2125 39.1246 46.175 38.9121 46 38.8621C45.7 38.8996 45.8125 39.2746 45.95 39.4246C46.075 39.6121 46.2 39.8371 46.075 40.0496C45.95 40.2996 45.575 40.4746 45.3625 40.2621C45.1625 40.1496 45.3 39.7621 45.0875 39.7371C44.9875 39.8121 44.9875 40.2246 44.825 39.9996C44.7 39.8121 44.775 39.5496 44.625 39.3871C44.4625 39.4121 44.325 39.6996 44.375 39.8496C44.6 40.1496 44.7 40.5246 44.7875 40.8871C44.8375 41.0371 44.775 41.3246 44.9125 41.3871C45 41.1496 44.9125 40.8871 44.9875 40.6496C45.2125 40.6246 45.45 40.7246 45.675 40.6746C46.0125 40.6371 46.2625 40.3496 46.375 40.0621C46.4125 39.8371 46.375 39.6121 46.3625 39.3871C46.6125 39.4371 46.8875 39.4371 47.1375 39.5121C47.2625 39.6996 47.1 39.9746 47.0625 40.1746C46.9375 40.5996 46.6 40.8996 46.2875 41.1746C46.15 41.2621 46.1375 41.4746 46.325 41.3621C46.7526 41.159 47.0875 40.8018 47.2625 40.3621C47.4 40.0371 47.2875 39.6746 47.3875 39.3496C47.5125 39.0996 47.825 39.1496 48.0625 39.1496C48.3 39.1496 48.5 38.8621 48.425 38.6246C48.35 38.3496 48.6375 38.2246 48.825 38.1246C49.0875 37.9996 49.2875 37.7371 49.2625 37.4371C49.2625 37.2746 49.2625 36.9871 49.05 36.9746ZM48.1375 38.5371C48.4125 38.6121 48.0875 39.1371 47.9375 38.7996C47.8875 38.6746 48 38.5371 48.1375 38.5371ZM46.85 38.9121C47.2125 38.8996 47.075 39.4121 46.775 39.1871C46.6125 39.0996 46.6625 38.9121 46.85 38.9121ZM33.75 40.9496C33.75 40.8996 33.725 40.8621 33.675 40.8621C33.5875 40.8621 33.525 40.9496 33.5625 41.0246C33.6125 41.1121 33.725 41.0621 33.75 40.9496ZM38 40.4996C38 40.4121 37.9625 40.3871 37.9 40.3996C37.7625 40.4246 37.7375 40.6121 37.8875 40.6121C37.9625 40.6121 38 40.5746 38 40.4871V40.4996ZM32.75 37.9496C32.5875 37.9121 32.475 38.0621 32.4125 38.1996C32.2875 38.4121 32.1375 38.6246 31.9125 38.7371C31.75 38.7871 31.575 38.7246 31.425 38.6371C31.2625 38.5496 31.3 38.3496 31.225 38.2121C31.1 38.1121 30.8875 38.2496 30.9 38.3996C30.8875 38.5996 31.0625 38.7121 31.225 38.7871C31.35 38.8746 31.55 38.9121 31.6 39.0746C31.6 39.2121 31.65 39.3746 31.8125 39.3246C32 39.3246 32.0625 39.5496 31.975 39.6871C31.8915 39.8396 31.8607 40.0154 31.8875 40.1871C31.975 40.2746 32.0625 40.0621 32.1375 40.0121L32.2625 39.8371C32.6 39.8496 32.925 39.8996 33.2625 39.8871C33.5125 39.8871 33.7 39.7371 33.85 39.5621C34.075 39.3371 34.25 39.0746 34.4875 38.8871C34.6625 38.8371 34.575 38.5121 34.3875 38.6121C34.225 38.6746 34.175 38.8621 34.0625 38.9746C33.8802 39.2149 33.6705 39.433 33.4375 39.6246C33.25 39.6996 33.05 39.6621 32.8625 39.6246C32.7875 39.5621 33.0125 39.4996 33.05 39.4246C33.15 39.3246 33.275 39.2246 33.3375 39.0871C33.275 38.9621 33.1 38.9621 32.975 38.9621C32.675 38.9871 32.4375 39.2496 32.125 39.2746C31.8875 39.2746 32.0125 39.0246 32.125 38.9371C32.325 38.6871 32.55 38.4621 32.7625 38.2246C32.825 38.1496 33.05 38.0746 32.9125 37.9746C32.8625 37.9496 32.8 37.9496 32.75 37.9496ZM32.9 39.1996C33.0625 39.2871 32.8 39.4246 32.7 39.4121C32.5625 39.4496 32.55 39.3121 32.675 39.2871C32.75 39.2371 32.825 39.1996 32.9 39.1996ZM32.425 39.5246C32.5125 39.5246 32.7 39.6121 32.525 39.6621C32.4 39.7621 32.275 39.5621 32.425 39.5246Z" fill="#F7E017"/>
<path d="M36.1751 39.7246C36.1751 39.5996 35.9751 39.6246 35.9501 39.7496C35.9251 39.8246 35.9501 39.8371 36.0501 39.8246C36.1251 39.8246 36.1751 39.7746 36.1751 39.7246ZM45.5126 38.8996C45.5376 38.7871 45.3876 38.7121 45.3001 38.7996C45.2126 38.8746 45.3001 39.0371 45.4001 39.0121C45.4501 39.0121 45.5001 38.9496 45.5251 38.8996H45.5126ZM31.0001 37.7621C31.1376 37.6371 31.1501 37.6246 31.0876 37.3496C30.9876 36.9621 31.0001 36.9121 31.1501 36.8746C31.3376 36.8371 31.8126 37.0871 31.9001 37.2871C32.0001 37.4496 31.9876 37.4621 31.8501 37.5871C31.7001 37.7246 31.7001 37.8871 31.8501 37.8871C31.9751 37.8871 32.3126 37.5621 32.3126 37.4496C32.3126 37.2871 31.9376 36.8996 31.6376 36.7621C31.4576 36.6783 31.2612 36.6356 31.0626 36.6371C30.6751 36.6371 30.6251 36.7246 30.7251 37.1621C30.8501 37.6871 30.6876 37.7621 30.2626 37.3621C30.1114 37.2291 29.9932 37.0627 29.9173 36.8761C29.8413 36.6896 29.8098 36.4879 29.8251 36.2871C29.8251 35.7871 30.0251 35.5246 30.4626 35.4621C30.7626 35.4246 30.7501 35.3496 30.4626 35.3121C30.0126 35.2371 29.6376 35.5371 29.5001 36.0621C29.3376 36.6496 29.7001 37.3621 30.3376 37.7246C30.6751 37.9121 30.8001 37.9246 31.0001 37.7621ZM48.4001 37.1121C48.4376 37.0871 48.4626 36.9996 48.4626 36.9371C48.4626 36.8746 48.5251 36.7371 48.6001 36.6371C48.6751 36.5371 48.7251 36.4371 48.7251 36.4121C48.7251 36.3121 48.5626 36.3121 48.4376 36.4121C48.3001 36.5246 48.1876 36.5371 48.1876 36.4121L48.3376 36.2996C48.5376 36.2121 48.5501 36.1121 48.3876 36.0371C48.1751 35.9371 47.9501 36.1121 47.9376 36.4121C47.9251 36.6121 47.9376 36.6371 48.0876 36.7246C48.2251 36.8121 48.2501 36.8496 48.2251 36.9746C48.1876 37.1746 48.2751 37.2496 48.4001 37.1121ZM50.0251 36.9371C50.1501 36.8121 50.2501 36.6996 50.2501 36.6621C50.2501 36.6246 50.3626 36.5121 50.4876 36.4121C50.8376 36.1621 50.9251 35.9121 50.7626 35.4996C50.7001 35.3371 50.5126 35.1246 50.0751 34.7496C49.8758 34.5368 49.6488 34.3518 49.4001 34.1996C49.2876 34.1996 49.3126 34.6246 49.4251 34.6621C49.6376 34.7371 49.7751 34.8246 50.1001 35.1246C50.5001 35.4746 50.6751 35.8121 50.5751 35.9996C50.4876 36.1746 50.3626 36.1246 50.0126 35.7496C49.8991 35.6085 49.7642 35.4862 49.6126 35.3871C49.5751 35.3871 49.5501 35.4621 49.5501 35.5621C49.5501 35.6871 49.6126 35.8121 49.8001 35.9996C50.0876 36.3246 50.1126 36.5121 49.8876 36.6871C49.837 36.7386 49.7778 36.7809 49.7126 36.8121C49.4269 36.323 49.044 35.8976 48.5876 35.5621C48.5501 35.5621 48.5251 35.6121 48.5251 35.7371C48.5251 35.8996 48.5501 35.9496 48.6751 36.0121C49.0037 36.2644 49.2979 36.5585 49.5501 36.8871L49.7751 37.1371C49.8684 37.0789 49.9526 37.0073 50.0251 36.9246V36.9371ZM50.7751 34.8371C50.7126 34.6871 49.7251 33.6621 49.6126 33.6621C49.5626 33.6621 49.5501 33.7246 49.5626 33.8871C49.5626 34.0871 49.6001 34.1121 49.7376 34.1496C49.9511 34.2745 50.1449 34.4303 50.3126 34.6121C50.4484 34.7582 50.6041 34.8844 50.7751 34.9871V34.8371ZM44.8001 46.4121C44.8068 46.4308 44.8082 46.4505 44.8041 46.4696C44.8 46.4888 44.7906 46.5069 44.7766 46.5225C44.7627 46.5381 44.7445 46.5508 44.7237 46.5595C44.7028 46.5683 44.6797 46.5728 44.6564 46.5728C44.633 46.5728 44.61 46.5683 44.5891 46.5595C44.5682 46.5508 44.5501 46.5381 44.5361 46.5225C44.5222 46.5069 44.5128 46.4888 44.5087 46.4696C44.5046 46.4505 44.506 46.4308 44.5126 46.4121C44.506 46.3935 44.5046 46.3738 44.5087 46.3546C44.5128 46.3354 44.5222 46.3173 44.5361 46.3017C44.5501 46.2861 44.5682 46.2734 44.5891 46.2647C44.61 46.256 44.633 46.2514 44.6564 46.2514C44.6797 46.2514 44.7028 46.256 44.7237 46.2647C44.7445 46.2734 44.7627 46.2861 44.7766 46.3017C44.7906 46.3173 44.8 46.3354 44.8041 46.3546C44.8082 46.3738 44.8068 46.3935 44.8001 46.4121ZM45.3251 46.2371C45.3251 46.2535 45.3213 46.2698 45.3137 46.2849C45.3062 46.3001 45.2951 46.3139 45.2812 46.3255C45.2673 46.3371 45.2507 46.3463 45.2325 46.3526C45.2143 46.3589 45.1948 46.3621 45.1751 46.3621C45.1554 46.3621 45.1359 46.3589 45.1177 46.3526C45.0995 46.3463 45.083 46.3371 45.0691 46.3255C45.0551 46.3139 45.0441 46.3001 45.0365 46.2849C45.029 46.2698 45.0251 46.2535 45.0251 46.2371C45.0251 46.2207 45.029 46.2044 45.0365 46.1893C45.0441 46.1741 45.0551 46.1603 45.0691 46.1487C45.083 46.1371 45.0995 46.1279 45.1177 46.1216C45.1359 46.1153 45.1554 46.1121 45.1751 46.1121C45.1948 46.1121 45.2143 46.1153 45.2325 46.1216C45.2507 46.1279 45.2673 46.1371 45.2812 46.1487C45.2951 46.1603 45.3062 46.1741 45.3137 46.1893C45.3213 46.2044 45.3251 46.2207 45.3251 46.2371Z" fill="#F7E017"/>
</g>
<defs>
<clipPath id="clip0_6_1578">
<rect width="80" height="60" fill="white"/>
</clipPath>
</defs>
</svg>
