<svg width="80" height="60" viewBox="0 0 80 60" fill="none" xmlns="http://www.w3.org/2000/svg">
<g clip-path="url(#clip0_6_1627)">
<mask id="mask0_6_1627" style="mask-type:luminance" maskUnits="userSpaceOnUse" x="0" y="0" width="80" height="60">
<path d="M0.00683594 0H79.9873V60H0.00683594V0Z" fill="white"/>
</mask>
<g mask="url(#mask0_6_1627)">
<path fill-rule="evenodd" clip-rule="evenodd" d="M-10.2471 0L40.0029 30L-10.2471 60V0ZM90.2529 0L40.0029 30L90.2529 60V0Z" fill="#18B637"/>
<path fill-rule="evenodd" clip-rule="evenodd" d="M-10.2471 0L40.0029 30L90.2529 0H-10.2471ZM-10.2471 60L40.0029 30L90.2529 60H-10.2471Z" fill="#CF0921"/>
<path fill-rule="evenodd" clip-rule="evenodd" d="M90.2529 0H80.8896L-10.2471 54.4102V60H-0.883789L90.2529 5.58984V0Z" fill="white"/>
<path fill-rule="evenodd" clip-rule="evenodd" d="M57.3584 30C57.3584 34.6014 55.5305 39.0143 52.2768 42.268C49.0231 45.5217 44.6102 47.3496 40.0088 47.3496C35.4074 47.3496 30.9944 45.5217 27.7408 42.268C24.4871 39.0143 22.6592 34.6014 22.6592 30C22.6592 25.4002 24.4865 20.9887 27.739 17.7361C30.9916 14.4835 35.4031 12.6563 40.0029 12.6562C44.6028 12.6563 49.0142 14.4835 52.2668 17.7361C55.5194 20.9887 57.3467 25.4002 57.3467 30H57.3584Z" fill="white"/>
<path fill-rule="evenodd" clip-rule="evenodd" d="M-10.2471 0V5.58984L80.8896 60H90.2529V54.4102L-0.883789 0H-10.2471Z" fill="white"/>
<path fill-rule="evenodd" clip-rule="evenodd" d="M43.4248 23.4609L41.1631 23.4961L39.9912 25.418L38.8311 23.4961L36.5811 23.4492L37.6709 21.4687L36.5928 19.5L38.8428 19.4531L40.0146 17.5312L41.1748 19.4648L43.4248 19.5117L42.335 21.4805L43.4248 23.4609ZM35.8545 36.5391L33.6045 36.5742L32.4326 38.4961L31.2725 36.5742L29.0225 36.5273L30.1123 34.5469L29.0342 32.5781L31.2842 32.5313L32.4561 30.6094L33.6162 32.543L35.8662 32.5898L34.7764 34.5586L35.8545 36.5391ZM51.1592 36.5391L48.9092 36.5742L47.7373 38.4961L46.5654 36.5742L44.3271 36.5273L45.417 34.5469L44.3271 32.5781L46.5771 32.5313L47.749 30.6094L48.9209 32.543L51.1709 32.5898L50.0693 34.5586L51.1592 36.5391Z" fill="#CF0921" stroke="#18B637" stroke-width="0.457031"/>
</g>
</g>
<defs>
<clipPath id="clip0_6_1627">
<rect width="80" height="60" fill="white"/>
</clipPath>
</defs>
</svg>
