<svg width="80" height="60" viewBox="0 0 80 60" fill="none" xmlns="http://www.w3.org/2000/svg">
<g clip-path="url(#clip0_6_1638)">
<path d="M0.0126953 0H80.0252V60H0.0126953V0Z" fill="#FFD520"/>
<path d="M0.0126953 60H80.0252V0L0.0126953 60Z" fill="#FF4E12"/>
<path d="M43.1749 18.7503C42.6749 18.5878 42.3499 18.8378 42.3749 19.4878C42.3749 20.1253 42.7249 20.4878 43.2249 20.2503L43.1749 18.7503Z" fill="white" stroke="black" stroke-width="0.05"/>
<path d="M43.6125 17.5506C43.2 17.2256 42.8125 17.3631 42.6125 17.9756C42.425 18.6006 42.625 19.0506 43.175 18.9756L43.6125 17.5506Z" fill="white" stroke="black" stroke-width="0.05"/>
<path d="M44.3003 16.3754C43.9503 16.0004 43.5503 16.0754 43.2503 16.6504C42.9628 17.2254 43.0878 17.7129 43.6503 17.7379L44.3003 16.3879V16.3754ZM43.8503 22.0629C43.2378 22.2879 43.1753 23.1254 43.5628 23.6379C43.9378 24.1504 44.6503 24.2504 45.0378 23.6379L43.8503 22.0629Z" fill="white" stroke="black" stroke-width="0.05"/>
<path d="M43.1377 20.2882C42.5627 20.1007 42.0377 20.8757 41.9502 21.5757C41.8377 22.4507 40.5752 22.7507 41.2752 24.0882C41.4252 23.2382 41.9877 22.7632 42.4377 22.7382C42.8877 22.7007 43.5627 22.6132 43.8502 22.0632L43.1377 20.2882ZM44.9752 23.7382C44.3002 23.9007 44.2002 24.8007 44.6877 25.4382C45.1002 25.9882 46.4002 25.8632 46.3627 25.3132L44.9877 23.7382H44.9752ZM46.8877 29.1632C46.9252 28.5757 45.9877 28.3507 45.5377 28.4632C45.0877 28.5882 44.2252 28.4507 44.0377 27.9632C43.8627 28.3507 44.1002 28.7757 44.7502 28.9882C45.2502 29.1382 45.2377 29.4882 45.0877 29.6632C45.4627 29.7257 46.5502 29.7257 46.8877 29.1632Z" fill="white" stroke="black" stroke-width="0.05"/>
<path d="M46.3626 25.4627C45.7001 25.1627 45.3126 25.6127 45.0626 26.0377C44.6876 26.6627 43.5501 25.8627 43.1626 26.7002C43.6876 26.4752 44.2126 26.9502 44.4626 27.1127C45.1751 27.5752 46.5376 27.4377 46.7376 26.3377L46.3626 25.4627Z" fill="white" stroke="black" stroke-width="0.05"/>
<path d="M46.7503 26.2256C46.0878 26.7256 45.8253 27.3256 45.8503 27.7256C45.8628 28.1256 46.4253 29.0131 47.0378 29.0631C47.3878 28.3381 47.5753 26.8131 46.7503 26.2256ZM44.0003 29.3381C44.0003 29.0881 44.3503 29.0006 44.6003 29.0881C44.8378 29.1631 45.2128 29.4006 45.0753 29.6631L44.0003 29.3381ZM40.3753 28.0006C40.3128 27.7131 40.7753 27.2131 41.4003 27.4881C42.0253 27.7631 42.1128 28.2881 41.8503 28.5006L40.3753 28.0006Z" fill="white" stroke="black" stroke-width="0.05"/>
<path d="M41.9001 28.5502C41.8501 28.3877 42.3126 28.0627 43.0751 28.2502C43.8501 28.4502 44.0376 28.9502 44.0126 29.3377L41.9001 28.5502ZM40.2876 28.0127C40.7001 27.7127 40.5376 27.1377 40.1751 26.9502C39.5251 26.6252 39.7626 25.8002 39.3376 25.6377C38.9251 25.4752 38.5251 25.1877 38.5001 24.8877C38.3001 25.3002 38.4251 25.6627 38.7126 25.9252C39.0001 26.1752 38.4876 27.2252 38.8626 27.5002L40.2876 28.0127ZM31.6626 27.7877C31.3251 27.2627 30.5251 27.3502 30.1876 27.7252C29.8501 28.1002 29.9001 28.6377 30.2126 28.8877L31.6626 27.7877ZM33.6001 27.0002C33.4751 26.2877 32.6126 26.2127 32.1501 26.3877C31.6751 26.5627 31.3626 27.2752 31.6626 27.7877L33.6001 27.0002Z" fill="white"/>
<path d="M31.6626 27.7877C31.3251 27.2627 30.5251 27.3502 30.1876 27.7252C29.8501 28.1002 29.9001 28.6377 30.2126 28.8877L31.6626 27.7877ZM31.6626 27.7877C31.3626 27.2752 31.6751 26.5627 32.1501 26.3877C32.6126 26.2127 33.4751 26.2877 33.6001 27.0002L31.6626 27.7877ZM41.9001 28.5502C41.8501 28.3877 42.3126 28.0627 43.0751 28.2502C43.8501 28.4502 44.0376 28.9502 44.0126 29.3377L41.9001 28.5502ZM40.2876 28.0127C40.7001 27.7127 40.5376 27.1377 40.1751 26.9502C39.5251 26.6252 39.7626 25.8002 39.3376 25.6377C38.9251 25.4752 38.5251 25.1877 38.5001 24.8877C38.3001 25.3002 38.4251 25.6627 38.7126 25.9252C39.0001 26.1752 38.4876 27.2252 38.8626 27.5002L40.2876 28.0127Z" stroke="black" stroke-width="0.05"/>
<path d="M34.8752 26.9002C35.1877 26.3127 34.5877 25.4252 33.9127 25.3002C33.3502 25.1752 32.6877 25.1877 32.4627 24.6377C32.3377 25.1127 32.6877 25.4252 33.1127 25.7002C33.5252 25.9752 33.0377 26.6752 33.7127 27.0752L34.8877 26.9002H34.8752Z" fill="white" stroke="black" stroke-width="0.05"/>
<path d="M34.825 26.9257C34.675 26.5007 34.9625 25.9257 35.5375 25.9757C36.125 26.0132 36.45 26.4257 36.2 26.9632L34.825 26.9257Z" fill="white" stroke="black" stroke-width="0.05"/>
<path d="M36.1126 26.9625C36.0251 26.5125 36.3876 25.9875 36.9626 26.1125C37.5251 26.2375 37.7876 26.7 37.4626 27.175L36.1126 26.95V26.9625Z" fill="white" stroke="black" stroke-width="0.05"/>
<path d="M37.375 27.1631C37.325 26.7131 37.7125 26.2131 38.275 26.3631C38.8375 26.5131 39.075 26.9881 38.725 27.4506L37.3875 27.1631H37.375ZM27.675 34.5381C26.5875 34.5381 26.325 34.7881 26.175 35.9131C25.975 37.2881 27.8625 37.4506 27.675 34.5381Z" fill="white" stroke="black" stroke-width="0.05"/>
<path d="M28.1501 33.088C26.5001 32.463 25.6001 35.088 23.9501 34.613C24.5376 35.5505 25.9626 34.613 26.5001 34.713C27.4001 34.8755 29.3501 34.538 28.1501 33.088ZM27.0751 36.6755C26.2501 36.3005 25.3751 37.5505 25.5251 38.113C25.7376 38.8005 27.6126 38.238 27.0751 36.6755ZM23.2501 42.088C23.7001 42.213 24.2501 42.463 24.1501 43.338C24.0501 44.213 22.4001 45.9755 20.9251 46.088C19.4501 46.1755 18.9251 47.963 17.6376 47.463C18.8376 47.238 18.8376 45.888 19.7626 45.463C19.0876 45.213 18.7376 46.7505 17.8626 46.7505C16.9876 46.7505 16.5751 48.138 15.5126 48.038C14.4501 47.9505 14.3501 49.7255 12.2126 49.7505C10.5876 49.763 8.5876 51.663 7.8501 50.838C9.4376 50.613 10.0751 49.738 11.0126 48.7755C12.5126 47.238 14.2251 47.9255 14.8126 46.563C14.1379 47.0183 13.3389 47.2541 12.5251 47.238C11.5251 47.213 10.4501 48.813 9.3376 48.113C9.9751 48.0255 10.4001 47.7505 11.0751 47.038C11.7626 46.313 12.7876 46.788 13.5876 46.038C14.8376 44.888 15.9251 45.8505 17.1251 44.413C16.7876 44.238 16.0626 44.3505 15.3876 44.713C14.7126 45.063 13.8501 44.463 13.0751 44.888C13.1626 43.938 14.9751 44.4755 16.1001 43.8255C17.3751 43.0755 18.4251 43.3005 19.4251 43.388C18.0251 43.388 17.4876 42.0505 15.5501 42.438C14.7126 42.613 14.0376 41.2755 13.2001 41.9505C13.2251 41.4505 14.1001 41.0505 15.0001 41.538C15.9001 42.0255 16.2626 41.113 18.0626 42.2505C18.8126 42.713 20.0751 41.9505 20.8751 42.4505C20.7751 42.1505 20.3126 41.9505 19.7751 42.0005C20.1126 41.3005 22.3001 41.388 23.2501 42.088Z" fill="white" stroke="black" stroke-width="0.05"/>
<path d="M24.6753 41.0381C23.9753 40.4881 22.9878 41.1506 22.3003 40.8881C22.3003 41.3381 22.5378 42.0131 23.2753 42.2756C23.5003 42.1131 24.5253 41.2256 24.6753 41.0381Z" fill="white" stroke="black" stroke-width="0.05"/>
<path d="M25.7878 39.4755C24.6753 38.913 24.4878 40.313 23.6128 40.0255C23.6503 40.4255 23.9753 40.9255 24.6753 41.038L25.8003 39.4755H25.7878Z" fill="white" stroke="black" stroke-width="0.05"/>
<path d="M26.4502 38.2001C24.8127 37.5626 24.6002 39.1376 23.6377 38.8251C23.8627 39.3751 25.2377 39.6751 25.9502 39.4751L26.4502 38.2001ZM28.7002 31.3001C28.2627 30.6751 27.3502 31.1751 27.2002 31.9126C27.0627 32.6376 27.4127 33.6501 28.0252 33.4126L28.7002 31.2876V31.3001Z" fill="white" stroke="black" stroke-width="0.05"/>
<path d="M29.8124 29.375C29.0624 29.1875 28.1874 29.275 28.2874 30C27.9874 30.1375 27.9124 31.0875 28.6999 31.3L29.8124 29.3625V29.375Z" fill="white" stroke="black" stroke-width="0.05"/>
<path d="M30.3127 28.8752C29.5627 28.0002 28.7502 28.0127 28.2877 28.3752C27.4252 29.0627 26.6002 28.6752 26.5752 29.3502C27.0877 28.9502 27.5502 29.4252 27.9502 29.2877C28.3752 29.1377 28.6877 29.9502 29.8502 29.6127L30.3127 28.8627V28.8752ZM28.5252 41.8627C28.6377 42.0752 29.3252 42.1627 29.6627 41.8127C30.1127 41.3377 29.6252 40.0377 28.9127 39.9377C28.2002 39.8502 28.1377 41.4127 28.5252 41.8627Z" fill="white" stroke="black" stroke-width="0.05"/>
<path d="M27.7251 41.8877C28.7251 42.2627 29.1626 41.4252 28.6251 40.8877C28.3479 41.2409 28.0472 41.5749 27.7251 41.8877Z" fill="white" stroke="black" stroke-width="0.05"/>
<path d="M23.925 43.2752C23.725 43.8627 22.725 43.9502 21.6 45.7502C20.475 47.5627 19.4 46.8002 19.125 48.0377C20.475 46.9502 21.5375 47.6627 22.35 46.5877C23.5625 44.9502 24.575 45.1877 25.05 44.0877C25.725 42.5002 28.675 42.5377 28.85 40.0502C27.85 39.8627 24.6875 42.5377 23.925 43.2752ZM49.325 18.9377C50.6125 19.3627 50.6375 21.0252 52.125 21.5752C53.6 22.1252 53.75 23.4502 54.9625 23.1252C53.8375 22.8127 53.9125 21.5127 52.7375 21.1877C51.3625 20.8127 50.8375 18.7127 49.7375 18.3877M55.2375 27.6752C55.4625 28.2002 55.425 29.1127 54.6125 29.3502C55.05 29.6252 55.7 29.3752 56.05 28.7752C55.525 29.9502 55.875 31.0127 56.7125 31.2252C56.3125 30.4002 57.2125 30.0127 56.925 29.4752C57.45 29.7127 57.925 30.4377 57.9 30.8877C58.6 30.1127 57.4 29.0752 57.6125 28.3502L55.2375 27.6752ZM46.875 35.9502C46.0875 35.2627 45.75 36.1377 45.375 35.8252C45 35.5502 44.525 35.5127 44.3375 35.7877C45.0125 35.8127 44.6875 36.3377 46 36.4627C44.6875 36.5502 44.925 38.0252 44.05 37.9502C44.975 38.8252 45.4625 37.1627 46.225 37.4377C46 37.5002 46.575 38.0252 46.175 38.7377C46.825 38.7252 47.0875 37.8252 47.175 37.3627L46.875 35.9502ZM29.5 43.4752C29.225 43.2252 28.375 43.1127 28.0625 43.3127C27.7375 43.5002 27.85 43.5627 28.2375 43.5877C28.625 43.6127 29.1125 44.2377 28.2875 44.2752C27.9 44.2877 28.0375 45.2252 27.225 45.2877C27.55 45.6877 28.5 45.4252 28.8375 44.9877C28.775 45.3502 29.25 45.6752 29.0625 46.1127C29.65 46.1752 29.3125 44.9002 30.25 44.9627C29.875 45.0127 30.025 45.8877 30.7 45.6627C30.3 45.8502 30.5125 46.3252 30.95 46.2127C30.675 46.3002 30.575 46.6752 30.975 46.8877C31.3625 46.3502 30.925 44.4502 29.5125 43.4752H29.5ZM64.575 25.7127C64.8821 25.7357 65.1906 25.6951 65.4812 25.5934C65.7718 25.4917 66.0383 25.3311 66.264 25.1216C66.4898 24.9122 66.6698 24.6584 66.7929 24.3762C66.9161 24.094 66.9796 23.7894 66.9796 23.4814C66.9796 23.1735 66.9161 22.8689 66.7929 22.5867C66.6698 22.3045 66.4898 22.0507 66.264 21.8413C66.0383 21.6318 65.7718 21.4712 65.4812 21.3695C65.1906 21.2678 64.8821 21.2272 64.575 21.2502C64.0121 21.2924 63.4859 21.5457 63.1019 21.9595C62.718 22.3733 62.5046 22.917 62.5046 23.4814C62.5046 24.0459 62.718 24.5896 63.1019 25.0034C63.4859 25.4172 64.0121 25.6705 64.575 25.7127Z" fill="white"/>
<path d="M49.325 18.9377C50.6125 19.3627 50.6375 21.0252 52.125 21.5752C53.6 22.1252 53.75 23.4502 54.9625 23.1252C53.8375 22.8127 53.9125 21.5127 52.7375 21.1877C51.3625 20.8127 50.8375 18.7127 49.7375 18.3877M23.925 43.2752C23.725 43.8627 22.725 43.9502 21.6 45.7502C20.475 47.5627 19.4 46.8002 19.125 48.0377C20.475 46.9502 21.5375 47.6627 22.35 46.5877C23.5625 44.9502 24.575 45.1877 25.05 44.0877C25.725 42.5002 28.675 42.5377 28.85 40.0502C27.85 39.8627 24.6875 42.5377 23.925 43.2752ZM55.2375 27.6752C55.4625 28.2002 55.425 29.1127 54.6125 29.3502C55.05 29.6252 55.7 29.3752 56.05 28.7752C55.525 29.9502 55.875 31.0127 56.7125 31.2252C56.3125 30.4002 57.2125 30.0127 56.925 29.4752C57.45 29.7127 57.925 30.4377 57.9 30.8877C58.6 30.1127 57.4 29.0752 57.6125 28.3502L55.2375 27.6752ZM46.875 35.9502C46.0875 35.2627 45.75 36.1377 45.375 35.8252C45 35.5502 44.525 35.5127 44.3375 35.7877C45.0125 35.8127 44.6875 36.3377 46 36.4627C44.6875 36.5502 44.925 38.0252 44.05 37.9502C44.975 38.8252 45.4625 37.1627 46.225 37.4377C46 37.5002 46.575 38.0252 46.175 38.7377C46.825 38.7252 47.0875 37.8252 47.175 37.3627L46.875 35.9502ZM29.5 43.4752C29.225 43.2252 28.375 43.1127 28.0625 43.3127C27.7375 43.5002 27.85 43.5627 28.2375 43.5877C28.625 43.6127 29.1125 44.2377 28.2875 44.2752C27.9 44.2877 28.0375 45.2252 27.225 45.2877C27.55 45.6877 28.5 45.4252 28.8375 44.9877C28.775 45.3502 29.25 45.6752 29.0625 46.1127C29.65 46.1752 29.3125 44.9002 30.25 44.9627C29.875 45.0127 30.025 45.8877 30.7 45.6627C30.3 45.8502 30.5125 46.3252 30.95 46.2127C30.675 46.3002 30.575 46.6752 30.975 46.8877C31.3625 46.3502 30.925 44.4502 29.5125 43.4752H29.5ZM64.575 25.7127C64.8821 25.7357 65.1906 25.6951 65.4812 25.5934C65.7718 25.4917 66.0383 25.3311 66.264 25.1216C66.4898 24.9122 66.6698 24.6584 66.7929 24.3762C66.9161 24.094 66.9796 23.7894 66.9796 23.4814C66.9796 23.1735 66.9161 22.8689 66.7929 22.5867C66.6698 22.3045 66.4898 22.0507 66.264 21.8413C66.0383 21.6318 65.7718 21.4712 65.4812 21.3695C65.1906 21.2678 64.8821 21.2272 64.575 21.2502C64.0121 21.2924 63.4859 21.5457 63.1019 21.9595C62.718 22.3733 62.5046 22.917 62.5046 23.4814C62.5046 24.0459 62.718 24.5896 63.1019 25.0034C63.4859 25.4172 64.0121 25.6705 64.575 25.7127Z" stroke="black" stroke-width="0.05"/>
<path d="M52.9253 28.4004C53.6128 27.7629 54.6378 27.4379 55.3503 27.9254C56.0503 28.4004 58.4003 28.9754 59.5628 28.1754C60.7253 27.3754 61.2753 26.9504 61.7878 27.0504C62.1628 27.6254 62.6378 27.9004 63.2128 27.9504C63.3878 28.1504 64.0253 28.3004 64.3753 28.2629C64.8878 28.3879 65.5128 28.2254 66.0128 27.6754C66.7878 27.8004 67.5128 27.2129 67.7878 26.3379C68.6128 26.2504 68.6628 25.3379 68.1378 24.7129C67.6628 24.6254 68.0253 22.9879 66.2753 23.3129C67.0253 23.7629 66.4503 24.6629 67.0628 25.0879C66.6503 25.0879 66.1003 25.2629 65.9753 25.8879C66.1378 25.4629 65.9503 25.1629 65.8503 25.0754C65.8503 24.7004 65.0378 23.7879 64.2628 24.1254C64.8128 24.2504 64.5128 25.1254 64.9128 25.4754C64.7609 25.4816 64.6124 25.5219 64.4783 25.5933C64.3441 25.6647 64.2277 25.7654 64.1378 25.8879C63.9253 25.5129 63.1878 25.1379 62.7378 25.1004C62.7378 24.9754 62.7128 24.7254 62.6503 24.5879C62.4503 24.2004 62.2753 23.7379 62.3628 23.1504C61.9972 23.5807 61.6943 24.0604 61.4628 24.5754C60.8503 24.1504 59.3378 24.7629 58.6253 24.9254C57.9253 25.0879 55.5378 24.7004 55.0003 24.1254C54.2353 23.5139 53.3354 23.0939 52.3753 22.9004C51.0003 22.5004 51.0003 21.0004 49.4878 19.9629C49.4503 21.8379 52.2878 27.7629 52.9253 28.4004ZM37.1503 42.6379C37.7238 42.6379 38.2739 42.4101 38.6794 42.0045C39.085 41.599 39.3128 41.0489 39.3128 40.4754C39.3128 39.9019 39.085 39.3518 38.6794 38.9463C38.2739 38.5407 37.7238 38.3129 37.1503 38.3129C36.5768 38.3129 36.0267 38.5407 35.6212 38.9463C35.2156 39.3518 34.9878 39.9019 34.9878 40.4754C34.9878 41.0489 35.2156 41.599 35.6212 42.0045C36.0267 42.4101 36.5768 42.6379 37.1503 42.6379Z" fill="white" stroke="black" stroke-width="0.05"/>
<path d="M32.0003 40.9754C32.4378 41.5379 33.1753 41.5004 33.4878 41.4629C33.7378 42.1379 34.5628 42.1129 34.9128 42.4879C35.2753 42.8629 36.4753 42.8254 36.8253 42.6129C36.5128 42.5879 36.0878 42.3879 35.7003 42.0504C35.2003 41.6504 35.4253 40.8254 35.0503 40.5504C35.1683 40.4001 35.2537 40.2269 35.301 40.0418C35.3484 39.8567 35.3567 39.6638 35.3253 39.4754C35.6253 39.3004 35.8503 39.0129 35.8753 38.8629C36.3238 38.8412 36.7496 38.6594 37.0753 38.3504C37.3503 38.6004 38.0378 38.2754 38.4128 38.7004C38.4878 37.6379 37.4753 37.0754 36.7878 37.4379C36.5253 37.2879 35.8003 37.3879 35.6628 37.5754C35.4503 37.4754 34.8128 37.8004 34.5378 38.0129C34.8503 37.8379 34.9003 37.3004 34.7753 37.1129C35.0503 36.9879 35.3503 36.6254 35.3878 36.3629C35.7628 36.4254 36.3503 36.1629 36.6003 36.2254C36.1878 35.6754 35.5003 35.4754 34.7878 35.5379C34.0503 35.5754 33.7378 36.0879 33.6378 36.6379C33.2128 36.9004 33.0628 37.7629 33.2253 38.0754C32.9753 38.0754 32.7378 38.3129 32.6503 38.4504C32.277 38.2966 31.8789 38.2119 31.4753 38.2004M31.6378 37.3254C31.4878 36.9004 31.6753 36.5254 31.7753 36.2004C32.0253 35.3504 31.8753 35.1254 31.1128 35.2379C31.1577 35.9601 31.3357 36.6678 31.6378 37.3254Z" fill="white"/>
<path d="M32.0003 40.9754C32.4378 41.5379 33.1753 41.5004 33.4878 41.4629C33.7378 42.1379 34.5628 42.1129 34.9128 42.4879C35.2753 42.8629 36.4753 42.8254 36.8253 42.6129C36.5128 42.5879 36.0878 42.3879 35.7003 42.0504C35.2003 41.6504 35.4253 40.8254 35.0503 40.5504C35.1683 40.4001 35.2537 40.2269 35.301 40.0418C35.3484 39.8567 35.3567 39.6638 35.3253 39.4754C35.6253 39.3004 35.8503 39.0129 35.8753 38.8629C36.3238 38.8412 36.7496 38.6594 37.0753 38.3504C37.3503 38.6004 38.0378 38.2754 38.4128 38.7004C38.4878 37.6379 37.4753 37.0754 36.7878 37.4379C36.5253 37.2879 35.8003 37.3879 35.6628 37.5754C35.4503 37.4754 34.8128 37.8004 34.5378 38.0129C34.8503 37.8379 34.9003 37.3004 34.7753 37.1129C35.0503 36.9879 35.3503 36.6254 35.3878 36.3629C35.7628 36.4254 36.3503 36.1629 36.6003 36.2254C36.1878 35.6754 35.5003 35.4754 34.7878 35.5379C34.0503 35.5754 33.7378 36.0879 33.6378 36.6379C33.2128 36.9004 33.0628 37.7629 33.2253 38.0754C32.9753 38.0754 32.7378 38.3129 32.6503 38.4504C32.277 38.2966 31.8789 38.2119 31.4753 38.2004M31.6378 37.3254C31.4878 36.9004 31.6753 36.5254 31.7753 36.2004C32.0253 35.3504 31.8753 35.1254 31.1128 35.2379C31.1577 35.9601 31.3357 36.6678 31.6378 37.3254Z" stroke="black" stroke-width="0.05"/>
<path d="M31.0752 35.2884C31.2752 35.4884 31.9502 35.5759 32.0252 34.9634C32.1127 34.2634 31.8252 33.9884 31.2127 34.2634C31.1627 34.4259 31.1127 35.0759 31.0877 35.2884H31.0752Z" fill="white" stroke="black" stroke-width="0.05"/>
<path d="M31.2251 34.2383C31.4751 34.3383 32.0376 34.5508 32.3501 33.9508C32.6001 33.4508 32.2626 33.0758 31.7251 33.1008C31.6001 33.2508 31.3501 33.7633 31.2251 34.2383Z" fill="white" stroke="black" stroke-width="0.05"/>
<path d="M31.7002 33.0502C31.7627 33.2502 32.4252 33.8877 32.9002 33.4252C33.3877 32.9627 33.3877 32.2627 32.6627 32.0127C32.4752 32.0377 31.8877 32.7127 31.7002 33.0502Z" fill="white" stroke="black" stroke-width="0.05"/>
<path d="M32.6626 32.0002C32.8001 32.4127 33.2626 33.1002 34.1001 32.7877C34.9376 32.4627 34.5751 31.4127 34.1876 31.2002C33.6276 31.3603 33.1079 31.6372 32.6626 32.0127V32.0002Z" fill="white" stroke="black" stroke-width="0.05"/>
<path d="M34.1874 31.2004C34.1249 31.5629 34.1874 32.5254 35.3374 32.5129C36.4749 32.4879 36.1624 31.1504 35.8624 30.9629C35.3999 30.9629 34.6124 30.9754 34.1874 31.2129V31.2004Z" fill="white" stroke="black" stroke-width="0.05"/>
<path d="M35.9124 31C35.7874 31.2875 35.4999 33.0875 37.7374 32.5875C38.0249 32.525 38.7749 30.8625 35.9124 31.0125V31Z" fill="white" stroke="black" stroke-width="0.05"/>
<path d="M37.1374 31.1755C36.9124 31.4005 37.4874 33.213 39.0124 32.913C40.5124 32.6005 39.2499 30.8755 37.1374 31.163V31.1755Z" fill="white" stroke="black" stroke-width="0.05"/>
<path d="M38.4252 31.4502C38.1752 31.9502 38.5502 33.4252 40.4127 33.4252C42.1002 33.4252 40.3252 31.4752 38.4252 31.4502Z" fill="white" stroke="black" stroke-width="0.05"/>
<path d="M39.8878 31.8759C39.7628 32.1634 39.6253 33.7259 41.8253 33.8634C43.4128 33.9634 43.0253 31.7009 39.8878 31.8759Z" fill="white" stroke="black" stroke-width="0.05"/>
<path d="M42.25 32.5381C41.9875 33.0256 41.7 34.2256 44.1125 34.3256C45.65 34.3881 44.7 32.5756 42.2625 32.5381H42.25Z" fill="white" stroke="black" stroke-width="0.05"/>
<path d="M44.2627 32.9131C43.9127 33.3881 44.1752 34.3381 45.0752 34.5131C46.2002 34.7381 46.3627 33.6756 45.5877 33.1631C44.8127 32.6631 44.2627 32.9131 44.2627 32.9131Z" fill="white" stroke="black" stroke-width="0.05"/>
<path d="M45.3752 33.125C45.1127 33.5875 45.2627 34.675 46.9752 34.675C47.3252 34.675 48.6752 33.3 45.3627 33.1375L45.3752 33.125ZM32.1377 54.125C32.8007 54.125 33.4366 53.8616 33.9055 53.3928C34.3743 52.9239 34.6377 52.288 34.6377 51.625C34.6377 50.962 34.3743 50.3261 33.9055 49.8572C33.4366 49.3884 32.8007 49.125 32.1377 49.125C31.4747 49.125 30.8388 49.3884 30.3699 49.8572C29.9011 50.3261 29.6377 50.962 29.6377 51.625C29.6377 52.288 29.9011 52.9239 30.3699 53.3928C30.8388 53.8616 31.4747 54.125 32.1377 54.125Z" fill="white" stroke="black" stroke-width="0.05"/>
<path d="M50.5125 17.7129C50.2427 18.0136 50.0155 18.3501 49.8375 18.7129C49 21.2129 51.2375 23.0879 52.5375 25.8004C53.0724 27.021 53.2887 28.3574 53.1663 29.6844C53.0439 31.0115 52.5867 32.2857 51.8375 33.3879C51.2875 34.1129 51.45 34.3254 50.7375 35.0629C50.4625 35.3504 50.1625 35.7129 50.2625 36.7379C50.7125 36.5754 51.35 36.9879 51.475 37.3629C51.8 37.1879 52.25 37.2504 52.4125 37.4504C52.9625 37.2004 53.4125 37.3254 53.9 37.8254C54.3125 37.7754 54.775 37.8254 55.1875 38.2879C55.4125 37.8379 55.8625 37.6629 56.1875 37.7754C56.15 37.1879 56.725 36.7754 57.2375 37.0004C57.1974 36.8354 57.2023 36.6626 57.2517 36.5001C57.301 36.3376 57.393 36.1913 57.5181 36.0765C57.6432 35.9616 57.7968 35.8823 57.9629 35.847C58.129 35.8116 58.3015 35.8214 58.4625 35.8754C59.05 35.4254 60.2125 35.3879 60.7875 36.0629C59.75 35.7754 59.7875 36.8754 58.9125 36.7754C59.1375 37.4129 58.5625 37.7879 57.9875 38.0004C58.3625 37.8254 58.7625 37.6129 58.8875 37.8379C59.2125 37.5504 59.85 37.6629 60.0125 37.8004C60.4375 37.6754 60.85 37.7754 61.0375 38.2879C61.625 38.6379 62.0125 39.5379 61.5875 40.2129C61.4625 39.5129 60.975 39.5379 60.7875 39.2504C60.3375 39.4129 59.8875 39.4129 59.75 39.1254C59.5 39.3754 58.625 39.6129 58.25 39.2254C58.1 39.8004 57.6 40.2879 57.0125 40.2879C57.175 40.7379 56.725 41.5004 56.375 41.8879C56.925 42.1754 56.75 42.8254 56.625 43.2129C57.475 43.3379 56.75 44.0879 58.2125 44.5629C57.5 44.7879 56.1125 44.5629 55.925 43.6879C55.2125 43.6629 54.7375 42.9504 54.7625 42.2129C54.2125 41.7004 54.1375 40.9629 54.8875 40.4379C54.25 40.6379 53.8875 39.6004 52.9625 40.0254C52.5 40.2379 51.275 39.8754 51.2875 39.4504C51.1 39.7629 49.9125 39.6379 49.7625 39.0879C49.375 39.3004 48.475 38.9504 48.4875 38.4129C47.9875 38.6379 47.3125 38.2379 47.35 37.7254C46.875 37.6629 46.825 37.2379 46.85 36.8879C46.4375 36.6879 46.55 36.2879 46.725 35.8129C46.425 35.4879 46.55 35.0379 46.775 34.6129C46.4625 34.2879 46.525 33.9129 46.6125 33.4504C45.075 33.3254 43.1375 32.9504 38.7 31.5879C32 29.5254 30.2 34.3629 31.675 37.3879C33.3875 40.8879 31.4875 41.6379 32.0625 44.2379C32.6875 44.3629 33 44.8879 32.9625 45.4379C33.3375 45.4504 33.5875 45.7879 33.4625 46.4379C33.6323 46.41 33.8062 46.4214 33.9709 46.4712C34.1356 46.521 34.2867 46.608 34.4125 46.7254C34.6375 46.3004 35.3875 46.2004 35.7625 46.6879C36.6 46.6254 37.025 47.3129 36.9875 48.1379C37.1893 48.5161 37.2789 48.9441 37.2457 49.3715C37.2125 49.7989 37.0578 50.2079 36.8 50.5504C36.85 50.2129 36.8 49.7379 36.7875 49.4379C36.75 48.9129 36.0125 48.8004 36.0875 48.3629C35.7125 48.4004 35.3375 48.1879 35.2125 47.9004C35.1009 47.9967 34.9662 48.0623 34.8215 48.0908C34.6769 48.1193 34.5273 48.1097 34.3875 48.0629C34.8125 48.2504 35.1625 49.0254 35.025 49.5379C35.25 49.9254 35.2 50.6379 34.9375 50.9379C34.8125 51.5629 34.3125 51.7879 33.6875 51.5129C34.05 51.2879 34.175 50.8879 34.1625 50.5504C33.9516 50.3395 33.823 50.0602 33.8 49.7629C33.175 49.8629 32.3 49.3254 32.15 49.1129C31.8207 49.1129 31.4945 49.178 31.1904 49.3044C30.8863 49.4308 30.6101 49.6161 30.3778 49.8495C30.1455 50.083 29.9616 50.3601 29.8367 50.6648C29.7118 50.9696 29.6484 51.296 29.65 51.6254C29.575 51.1129 28.925 50.6004 29.0125 50.1629C28.625 48.9754 29.175 47.8629 30.75 47.6379C30.55 47.1879 31.225 46.7254 30.975 46.2129C30.473 45.2999 29.8554 44.4555 29.1375 43.7004C29.6875 42.7629 29.5125 41.5129 29.2 40.7379C28.7375 39.6254 28.3 39.9004 26.6625 41.7004C23.9875 44.6379 20.4125 43.8254 17.2625 45.7629C16.425 46.2629 15.5875 46.4629 16.4875 45.5629C17.3875 44.6629 19.7625 43.7629 21.3125 42.9879C24.2125 41.5379 26.6625 39.1254 27.625 34.4254C29.8875 23.3754 38.25 27.0254 43.525 29.0754C48.4875 31.0129 47.5875 26.6379 45.075 23.9879C42.05 20.8254 42.6625 18.3254 44.075 16.3254C46.6125 15.9754 51.5 16.8629 50.5125 17.7129Z" fill="white" stroke="black" stroke-width="0.05"/>
<path d="M59.4878 44.8504C59.8497 44.8504 60.2082 44.7791 60.5426 44.6406C60.877 44.5021 61.1808 44.299 61.4368 44.0431C61.6927 43.7872 61.8957 43.4833 62.0342 43.1489C62.1728 42.8145 62.244 42.4561 62.244 42.0941C62.244 41.7322 62.1728 41.3738 62.0342 41.0394C61.8957 40.705 61.6927 40.4011 61.4368 40.1452C61.1808 39.8892 60.877 39.6862 60.5426 39.5477C60.2082 39.4092 59.8497 39.3379 59.4878 39.3379C58.7584 39.3379 58.059 39.6276 57.5433 40.1433C57.0275 40.6591 56.7378 41.3585 56.7378 42.0879C56.7378 42.8172 57.0275 43.5167 57.5433 44.0324C58.059 44.5482 58.7584 44.8379 59.4878 44.8379V44.8504Z" fill="white" stroke="black" stroke-width="0.05"/>
<path d="M48.9751 17.8379C48.3501 20.5504 48.8751 21.7754 49.7751 22.9629C51.6376 25.4254 53.1251 31.0379 51.0001 34.7129" stroke="black" stroke-width="0.05"/>
<path d="M52.1875 31.5375C52.4375 31.45 52.9375 31.1375 53.0375 30.6125M52.3875 30.3625C52.4625 29.9 53.1875 29.7 53.2 29.2M52.4 28.55C52.35 28.0625 53.125 27.625 53.0125 27.15M51.975 26.8125C51.9125 26.5375 52.625 26.025 52.425 25.5875M51.45 25.1125C51.3 24.8125 51.7875 24.4625 51.575 24.1375M50.675 23.7625C50.625 23.5625 50.925 23.1 50.7625 22.825M49.9 22.175C49.9625 22.0875 50.225 21.9 50.125 21.6625M49.375 21C49.475 20.95 49.7875 20.85 49.75 20.625" stroke="black" stroke-width="0.05" stroke-linecap="round"/>
<path d="M33.2504 51.3621C32.6254 51.1371 31.8129 51.4496 31.6504 51.9996M32.1379 52.4996C32.2129 51.9496 33.0504 51.7121 33.3004 51.9621C32.7754 51.6746 32.5129 52.7121 32.9879 52.7371M37.3129 39.7621C36.9379 39.9621 36.8129 40.6621 37.3129 41.1996M37.8879 39.9246C37.6254 40.1496 37.6379 40.8246 38.0379 40.9871C37.7004 40.7371 38.0379 40.3246 38.2879 40.3121C38.5254 40.2996 38.6879 40.5871 38.3879 40.8746M60.5129 41.5246C59.6129 41.2746 58.8879 42.3246 59.7129 43.2621C59.6879 42.3621 60.3379 41.7621 61.1254 41.9246M60.7504 42.5496C60.6609 42.5496 60.575 42.5852 60.5117 42.6485C60.4485 42.7118 60.4129 42.7976 60.4129 42.8871C60.4129 43.0621 60.5629 43.2371 60.8129 43.2371C60.9754 43.2371 61.1129 43.0496 61.1129 42.8996M63.9379 22.7746C64.0879 23.3246 64.8379 23.5621 65.4379 23.4246M65.4379 23.0746C64.9754 23.0871 64.5879 22.6496 64.6129 22.2871C64.6129 22.5621 65.2379 22.6871 65.4379 22.5121" stroke="black" stroke-width="0.05" stroke-linecap="round" stroke-linejoin="round"/>
<path d="M33.4877 41.4629C33.3627 41.1379 33.8627 40.8129 33.8877 40.5129C33.9002 40.2004 34.4627 39.9629 35.0502 40.5379M34.7752 37.1129L34.4627 37.2629M35.8877 38.8629C35.7502 38.8629 35.4627 38.8629 35.3127 38.7504M35.3127 39.4754C35.2127 39.5379 34.9627 39.6254 34.8127 39.6629M29.8002 49.2004C29.7752 49.4879 30.0752 49.9129 30.2252 50.0379M31.0502 48.5129C30.9616 48.6526 30.9016 48.8085 30.8737 48.9716C30.8458 49.1347 30.8506 49.3017 30.8877 49.4629M33.4502 49.4629C33.1627 49.2754 33.3502 48.7879 33.3252 48.4629C33.2877 48.1379 33.6627 47.6254 34.3877 48.0629M30.7502 47.6254C31.0377 47.5754 31.3377 47.5879 31.5377 47.6754M34.4127 46.7129C34.3121 46.8616 34.2518 47.0339 34.2377 47.2129M35.7752 46.6754C35.5502 46.6754 35.3502 46.8379 35.2502 47.0004M32.6502 38.4379C32.9002 38.5254 33.5752 38.9379 33.6002 39.3629M35.3877 36.3379C34.6002 36.3254 34.2877 35.5254 34.8877 35.5254M36.8002 37.4254C36.5002 37.5504 36.6377 38.0754 37.0752 38.3379M34.9127 42.4754C34.7627 42.2754 34.9627 41.7254 35.4627 41.8879M36.0877 48.3504C36.1252 47.8504 36.7377 47.5754 36.9877 48.1254M33.8002 49.7504C33.7627 49.2129 34.0502 49.0379 34.2752 49.0004C34.5252 48.9754 34.8627 49.1754 35.0252 49.5254M29.0127 50.1504C29.0377 49.8254 29.3127 49.4879 29.6002 49.5379M58.4752 35.8629C58.2627 36.0129 58.1252 36.7004 58.9127 36.7629M57.2502 37.0004C57.2502 37.0754 57.3502 37.1879 57.4127 37.2504M61.0377 38.2879C60.8377 38.1254 60.2877 38.7879 60.7877 39.2504M55.9127 43.7004C55.8002 43.2379 56.2252 43.1129 56.6377 43.2129M54.8877 40.4379C55.1377 40.2879 55.3877 40.1004 55.6877 40.0254M54.7627 42.2129C54.7627 41.8379 54.9627 41.5004 55.1377 41.4129M56.1877 37.7754C56.1689 38.1803 56.2735 38.5813 56.4877 38.9254M60.0127 37.8004C59.7752 37.8754 59.5752 37.9629 59.4877 38.1629M59.7502 39.1254C59.8752 39.0254 60.0002 38.9129 60.0502 38.8379M65.8377 25.0629C65.8377 25.5129 65.2752 25.7629 64.9002 25.4754M67.0627 25.0879C67.3127 25.2754 68.1752 25.0879 67.9752 24.5879M66.0002 27.6754C65.7664 27.6069 65.555 27.4774 65.3877 27.3004M67.7752 26.3379C67.4877 26.4004 67.2877 26.3379 67.1502 26.2754M63.2002 27.9504C63.4816 27.9382 63.7578 27.8702 64.0127 27.7504M62.7502 25.1004C62.5377 25.0754 62.3752 25.1129 62.2627 25.2004M65.9877 25.8879C65.9254 26.1351 65.7955 26.3602 65.6127 26.5379" stroke="black" stroke-width="0.05" stroke-linecap="round"/>
<path d="M62.1875 26.6002C62.5875 26.4252 63.0875 27.7877 64.0625 27.3127M64.1375 25.8877C64.002 26.0971 63.9244 26.3386 63.9125 26.5877" stroke="black" stroke-width="0.05" stroke-linecap="round" stroke-linejoin="round"/>
<path d="M44.8755 23.8004C45.0005 23.7754 45.238 23.7379 45.288 23.5754M28.313 38.7879C28.8005 39.0629 29.138 39.5254 28.938 40.2129M50.4505 22.3129C50.6005 22.4129 51.138 22.4129 51.4505 22.3129M51.8255 22.6379C51.8255 22.8629 51.888 23.7129 51.4505 23.8879M51.613 23.7879C52.013 23.9129 52.813 23.8629 53.0755 23.1254M52.513 23.7504C52.7255 24.0754 52.788 24.7004 52.163 25.0379M52.663 24.2879C53.138 24.4379 54.213 24.4629 54.1005 23.5379M53.7255 24.2879C54.063 24.7254 55.4755 25.2629 55.2505 24.3254M52.438 25.5754C52.9755 25.7129 53.7505 25.3379 53.438 24.3754M54.9755 24.8629C55.0505 25.2379 56.8505 25.6129 56.613 24.7754M56.2755 25.2629C56.613 26.0379 58.4005 25.9754 57.838 24.9379M57.5505 25.7504C57.9005 26.1754 59.488 25.9254 58.8505 24.8754M58.838 25.7254C59.8255 26.4754 60.963 25.4129 59.713 24.6379M60.288 25.4879C61.163 26.1754 62.2255 24.9254 61.463 24.5754M53.413 25.2004C53.688 25.2754 54.263 25.2504 54.4005 24.7504M54.1755 25.0879C54.1505 25.8129 55.3755 26.0879 55.688 25.2504M55.2755 25.7129C55.5005 26.2004 56.588 26.3879 56.763 25.7004M56.588 26.0254C56.763 26.5004 57.7005 26.4504 57.963 25.9504M57.613 26.2754C57.9005 26.9004 59.1005 26.9004 59.363 25.9879M59.163 26.3879C59.6255 26.6754 60.6255 26.5629 60.538 25.6629M60.3505 26.3129C61.0505 26.8754 62.0255 26.3254 61.538 25.3754M61.5005 27.0504C61.8755 26.9879 62.063 26.2504 61.6755 26.0504M52.9255 27.1754C53.6755 26.7629 53.838 26.0504 53.3005 25.3629M53.5755 26.4754C54.063 26.7629 54.9755 26.4504 55.138 25.7504M54.238 26.5504C54.513 26.9004 54.563 27.3379 54.2005 27.7379M54.4505 27.0004C55.313 26.4754 56.3755 27.4504 55.5755 28.0504M55.4505 26.9504C55.638 26.9004 55.9755 26.5504 56.0005 26.1504M55.8255 27.3254C56.188 26.9504 58.6005 27.7004 57.0755 28.4879M56.9505 26.3129C57.4255 26.4879 57.663 27.1504 56.9505 27.3754M57.5755 27.9254C58.0755 27.3879 59.7005 27.7254 59.113 28.4004M58.7255 27.7129C59.013 26.7254 60.738 27.3379 60.1755 27.7379M58.3755 26.7379C58.4255 26.9254 58.438 27.4004 58.1255 27.6629M59.8255 26.5379C59.8604 26.6486 59.8695 26.7659 59.8522 26.8807C59.8348 26.9955 59.7915 27.1049 59.7255 27.2004M60.913 26.5504C61.013 26.7254 61.163 27.0629 60.813 27.3379M47.138 19.1504C47.1505 20.0629 47.4755 20.6754 48.713 20.1004M47.5255 20.2379C46.9005 21.0629 47.6005 21.9504 48.813 21.0629M45.6255 20.6254C46.463 21.5254 47.963 20.8754 47.0005 19.5004M48.0005 21.4004C47.8505 22.2879 48.5755 22.4629 49.163 22.0629M44.888 20.7754C45.038 21.6629 45.9505 22.3629 46.838 21.8254M45.9755 22.0004C45.9755 23.2754 47.7255 23.4129 48.138 22.1004M47.513 22.9004C48.0755 24.0629 49.3005 23.5879 49.7005 22.8879M46.2755 21.0504C46.5005 21.6129 46.9505 22.2379 47.988 21.7754M43.0505 20.7754C43.2005 21.2379 44.038 21.8004 45.0005 21.1504M43.6505 21.3754C43.1255 22.1254 44.1505 22.8379 45.4005 21.7129M44.263 22.3004C44.463 23.3629 44.888 24.2254 46.388 22.8504M45.638 23.4004C46.188 24.0754 47.0255 24.4879 47.813 23.3504" stroke="black" stroke-width="0.05"/>
<path d="M48.4126 23.6006C48.3626 24.4131 48.5126 24.8131 49.1501 24.7756C49.6501 24.7506 50.1126 24.3631 50.3876 23.9381M49.0376 24.7756C49.0126 25.7006 49.7376 26.4256 51.1001 25.4881M49.6001 25.8631C49.3501 26.5506 50.1126 27.6756 51.6251 27.1006M46.3876 24.0256C46.3001 24.9006 47.1126 25.5006 48.4376 24.3631M47.0376 25.0006C47.0876 25.7256 47.9126 26.6006 49.1126 25.3381M47.6126 25.9256C47.5251 27.1631 48.6626 27.5131 49.6251 26.5631M45.9001 25.0006C46.1501 25.0256 46.3626 24.8006 46.4876 24.6256M46.4376 25.9006C46.6626 25.9506 47.0626 25.7506 47.1876 25.4881M47.0126 27.3631C47.2626 27.6506 48.1376 27.4506 48.2501 27.0756M47.9751 27.3506C48.4501 28.4756 49.7376 28.4381 50.2751 27.1631M50.0251 27.6131C50.2751 28.2756 50.8876 28.6881 51.8876 28.4631M50.5126 28.2881C49.9501 29.2006 50.6876 30.2881 51.9501 29.2256M50.8251 29.6631C50.7626 30.2381 51.2876 30.9006 52.0126 30.9756M48.4376 27.9756C48.2501 29.2756 49.1876 29.9006 50.3501 29.2006M47.0751 28.6006C47.3751 28.8381 47.9251 28.8631 48.4501 28.6756M49.0751 29.4256C48.7751 30.5256 49.9001 31.3131 50.8626 30.0881M47.5001 28.7756C47.5251 29.3381 48.0626 29.9506 49.0126 29.7756M51.6751 30.9006C51.0251 31.3256 50.9001 32.1006 51.8001 32.6006M50.1001 30.6756C50.1251 31.3256 50.4376 31.7006 51.1626 31.7631M49.1501 30.3381C48.1751 31.2131 49.1251 32.2506 50.2751 31.3756M49.8251 31.6506C49.5001 32.6631 50.7001 33.2756 51.3501 32.2506M47.8251 29.5006C47.4751 30.5006 47.9251 31.1506 48.7501 31.0881M46.5501 29.3006C46.6001 29.9006 47.1126 30.1131 47.7001 29.9756M46.9251 29.9256C46.4876 30.7631 47.1501 31.2131 48.0251 30.9006M50.6501 32.7756C50.5251 33.3006 50.6001 33.6756 51.3876 33.8631M50.7126 33.5256C49.7626 33.9506 49.6751 34.8756 50.4126 35.4631M49.9376 32.5006C49.824 32.6 49.7356 32.7251 49.68 32.8655C49.6243 33.0059 49.6029 33.1576 49.6176 33.3079C49.6323 33.4582 49.6826 33.6028 49.7643 33.7298C49.846 33.8568 49.9569 33.9625 50.0876 34.0381M45.7126 29.5631C45.1751 30.1006 45.6876 31.5881 46.9001 30.7756M48.8626 31.4381C48.1126 32.0631 48.4501 33.1631 49.6751 32.8631M47.6376 30.9881C47.2501 32.0756 47.6126 32.4631 48.4876 32.4756" stroke="black" stroke-width="0.05"/>
<path d="M44.9128 29.5127C44.793 29.5949 44.692 29.7016 44.6165 29.8258C44.5411 29.9499 44.4929 30.0887 44.4752 30.2329C44.4575 30.3771 44.4706 30.5235 44.5137 30.6622C44.5568 30.8009 44.6289 30.9289 44.7253 31.0377C45.0128 31.3627 45.5628 31.2127 45.7253 30.8002M43.5253 29.0752C42.7878 30.0252 43.5253 31.1502 44.5753 30.8252M47.4878 31.9002C46.7378 32.1627 46.1503 32.8502 46.6128 33.4627C46.9003 33.8127 48.0878 33.8627 48.4253 32.4877M46.1253 31.0127C45.6878 31.6377 45.8253 32.2377 46.6253 32.5377M46.0753 32.1877C45.6003 32.4377 45.3003 32.7502 45.4128 33.3127M45.0253 31.2002C44.8503 31.9502 45.0628 32.4252 45.5253 32.6502M45.0128 32.1002C44.2878 32.0502 43.9128 32.3502 44.1628 33.0752M44.2253 32.2752C43.5128 32.0252 43.4003 31.4002 43.7128 30.7752M43.6128 31.7252C42.8378 31.7502 42.4878 32.1377 42.4878 32.6627" stroke="black" stroke-width="0.05"/>
<path d="M42.5626 28.7125C42.0001 28.95 41.8126 29.7125 42.0251 30.125C42.2376 30.5375 42.9001 30.575 43.3001 30.3M41.0001 28.1125C40.4876 28.6875 41.0751 29.825 42.0001 29.55M39.6751 27.6625C39.2001 28.3375 39.7251 29.4625 40.9626 29.1375M41.0251 32.275C40.9001 31.475 41.7376 30.95 42.7751 31.9875M42.2751 30.3625C42.1278 30.4949 42.0137 30.66 41.9421 30.8446C41.8704 31.0291 41.8432 31.228 41.8626 31.425M38.3626 27.275C37.8251 28.175 38.4751 29 39.6126 28.675M41.3376 29.5125C40.5876 30.2625 40.8376 31.025 41.4001 31.4625M40.8501 30.4C39.7126 30.4125 39.6501 31.7375 40.5751 32.15M39.9876 29.075C39.5126 29.4 39.3626 30.2875 40.1751 30.6375M39.9501 31.0625C39.4626 30.8375 38.8876 31.1125 38.9376 31.675M39.2251 31.075C38.7876 30.05 37.5251 30.225 37.6376 31.2875M39.5751 29.8C39.3126 29.85 38.7626 30.0125 38.5501 30.425M38.6251 28.6375C38.5245 28.7412 38.4512 28.8683 38.4117 29.0072C38.3722 29.1462 38.3677 29.2928 38.3987 29.4339C38.4296 29.575 38.495 29.7063 38.5891 29.816C38.6831 29.9257 38.8028 30.0104 38.9376 30.0625M37.0876 27C36.9876 27.7 37.2626 28.0375 38.1376 27.975M37.3876 27.8875C37.0626 28.725 37.5126 29.1 38.3876 29.05M37.5876 28.925C37.0751 29.5375 37.4251 30.1875 37.9251 30.4625M37.3501 29.7C36.4251 29.575 36.2876 30.65 36.6001 31.1375" stroke="black" stroke-width="0.05"/>
<path d="M36.6127 26.9375C36.0502 27.1875 35.7252 27.8875 36.0252 28.3125C36.3377 28.75 36.9502 28.6125 37.2752 28.3875M36.2252 28.5125C35.7502 29.225 36.1752 29.7625 36.6752 29.9625" stroke="black" stroke-width="0.05"/>
<path d="M34.4129 26.8506C34.0379 27.2381 34.2754 28.0256 35.1629 28.0506C35.9004 28.0506 36.2629 27.3756 36.0379 26.8881M35.0379 28.0506C34.7504 28.6881 34.9379 29.3881 36.0379 29.2756M36.4879 30.2756C35.8254 29.9756 34.9129 30.2756 35.3004 31.0881M35.2129 29.1381C34.9379 29.5256 35.0254 30.0756 35.3379 30.4131M35.1629 30.1631C34.7129 30.2506 34.2754 30.4881 34.5379 31.2006M34.4754 30.6256C33.9004 30.4506 33.1629 30.8756 33.6004 31.4631M33.5129 30.9006C33.0129 30.8131 32.4254 31.3506 32.9004 31.8756M32.7129 31.4381C32.2629 31.5631 31.7254 32.0631 32.2004 32.4756M34.9879 28.9131C34.3379 29.2006 34.2754 29.9256 34.5754 30.4631M34.3004 27.5881C33.3379 27.9631 33.3504 29.2381 34.4254 29.6381M33.9629 29.3506C33.3879 29.6881 33.2754 30.3381 33.6629 30.7506M32.9504 27.1006C32.5754 27.2256 32.6004 28.4131 33.6254 28.3881M31.8879 27.5006C31.1129 28.0131 32.0504 29.3131 33.3004 28.3756M32.6129 28.7131C32.5004 29.2381 32.6504 29.8131 33.5004 29.8881M32.6629 29.4131C32.0504 29.6381 31.9379 30.9006 33.0379 31.0006M30.7129 28.2756C29.9254 29.0006 31.3629 29.6256 31.8879 28.5756M29.6254 29.4756C29.2379 29.9506 30.5879 31.1756 31.1879 29.1256M31.3254 29.0881C31.3629 29.5881 31.6504 29.8631 32.2379 29.9006M32.2379 30.3631C31.2754 30.5131 30.9754 31.7006 32.0379 31.9631M30.4754 30.2131C30.4379 30.6506 30.9129 31.0256 31.4379 30.9506M31.9254 31.9256C31.0504 32.1256 30.9379 33.2506 31.7129 33.1756M31.3129 34.2256C30.5879 34.0131 30.5629 33.1506 31.2129 32.8256" stroke="black" stroke-width="0.05"/>
<path d="M30.713 33.4752C30.1005 33.8502 30.338 34.7252 30.663 34.8502C30.988 34.9752 31.2505 34.8252 31.288 34.5502M31.2255 35.8002C31.3005 36.2127 29.738 36.0502 30.538 34.7502M30.538 35.8627C30.013 36.6877 30.863 37.3627 31.4005 36.6502M30.6005 36.8502C30.388 37.5127 31.188 37.9877 31.7005 37.4752M28.8755 30.6752C28.588 31.2627 30.038 31.4877 30.1255 30.2627M28.4755 31.5502C28.188 32.7127 30.3755 32.4752 29.813 30.9752M29.863 31.7502C30.0084 31.8183 30.1677 31.8513 30.3282 31.8465C30.4887 31.8417 30.6458 31.7993 30.7869 31.7227C30.928 31.6461 31.0491 31.5374 31.1405 31.4054C31.2318 31.2733 31.2909 31.1217 31.313 30.9627M30.6505 31.7877C30.6901 31.9518 30.7626 32.1062 30.8636 32.2416C30.9646 32.3769 31.0919 32.4904 31.238 32.5752M29.6005 32.0877C29.5005 32.7127 30.138 33.2377 30.8505 33.1877M29.713 32.7002C29.363 33.1877 29.2505 34.1127 30.363 34.1752M28.0005 32.8752C27.8255 33.3752 28.8755 33.8877 29.4755 33.0627M27.6755 34.1502C27.588 34.5252 28.5255 35.0252 29.0505 33.4252M28.638 34.2377C28.863 34.6377 29.6255 34.9627 30.088 34.1752M29.338 34.6627C29.138 35.2252 29.6755 35.7502 30.313 35.6002M28.1255 34.5377C28.0005 35.3377 28.938 35.8002 29.5005 35.3877M27.513 34.8877C27.238 35.9127 28.563 36.3002 29.063 35.5252M28.7255 35.8377C28.7755 36.4127 29.6755 36.9127 30.3755 36.4377M27.113 36.3127C27.0505 36.5752 28.1255 36.8377 28.288 35.9377M27.738 36.5502C27.988 37.2002 28.863 37.3627 29.363 36.5502M29.0755 36.8752C29.2005 37.5002 29.9755 37.8377 30.6755 37.4127M30.963 37.6627C30.788 38.4752 31.638 39.1377 32.163 38.6877M29.588 37.5127C29.338 38.4127 30.463 38.9252 31.088 38.4252M28.238 37.0502C28.1755 37.9002 28.838 38.4002 29.588 38.0252M26.8005 37.1502C26.5755 37.6877 27.7755 38.1377 28.338 37.6752M26.063 38.6377C26.3755 38.9877 27.438 38.6377 27.5255 37.8502M27.238 38.4252C27.6255 38.8752 28.5505 39.1252 28.913 38.1502M28.588 38.6502C28.588 39.3502 29.813 39.8502 30.213 38.5752M31.6755 38.8252C31.5505 39.1627 31.8255 39.7002 32.388 39.7627M30.6505 38.6127C30.5755 38.9877 31.138 39.5377 31.738 39.3252M31.8505 39.4877C31.688 39.9002 31.8255 40.5002 32.388 40.4877M31.9005 40.2627C31.4755 40.6127 31.6505 41.2502 32.263 41.2627M31.688 40.8627C31.088 41.2627 31.3005 42.1502 32.088 42.1002M29.8755 39.1252C29.8755 40.0002 30.963 40.1252 31.163 39.3252M30.7505 39.8252C30.588 40.3502 31.0005 40.8502 31.663 40.7002M30.8755 46.0502C31.0255 46.2627 31.6255 45.9002 31.463 45.5502C31.3005 45.2002 30.663 45.3877 30.738 45.7627M31.313 45.4002C31.388 44.7002 30.563 44.5877 30.3505 45.2002M30.6505 44.8377C30.863 44.4877 30.1505 44.0002 29.863 44.5252M30.113 44.3127C30.313 43.8002 29.513 43.5627 29.4505 44.0377M29.263 43.3627C29.363 43.1127 30.263 43.2627 29.888 43.8002M30.5755 44.4377C30.9255 44.1127 30.3255 43.4627 29.9505 43.6877M32.9505 45.4252C32.6755 45.4502 32.388 45.6377 32.588 46.2377C32.738 46.6502 33.3505 46.6627 33.4505 46.4252" stroke="black" stroke-width="0.05"/>
<path d="M32.5629 45.7375C32.2879 45.55 31.6879 45.8625 31.9629 46.4375M31.9629 46.4375C32.1629 46.875 32.6879 46.6875 32.7629 46.4625M31.9629 46.4375C31.8379 46.6875 31.1629 46.8125 31.0129 46.5625M31.4879 45.7625C31.6379 45.6625 31.9004 45.7875 31.9504 45.9125M31.4504 41.7875C30.9754 42.1 31.2629 43.0375 31.9879 42.7875M31.2879 42.55C30.9129 42.8375 31.2629 43.75 31.9504 43.4M31.4129 43.4C31.1504 43.6625 31.4004 44.375 32.0629 44.2375M31.3129 43.7625C31.1629 43.7 30.7879 43.7375 30.6254 43.9875M30.8879 40.4875C30.5379 40.8375 30.7129 41.525 31.3629 41.5875M30.7629 41.2125C30.2629 41.4625 30.2629 42.4625 31.2629 42.5M30.7254 42.3375C30.4379 42.5625 30.5754 43.4375 31.3004 43.325M30.9504 43.2875C30.8504 43.4 30.8254 43.6625 30.9254 43.775M30.6379 42.9625C30.3879 42.9625 30.0379 43.15 29.9504 43.425M29.4879 42.4875C29.5754 42.2375 30.3754 42.2375 30.4379 43M30.5129 42.1C30.4004 42.125 30.1879 42.225 30.1379 42.45M30.1629 39.7375C29.8254 40.0625 29.6629 41.05 30.7004 41.2375M29.4629 41.7875C29.4629 41.525 30.1879 41.2875 30.4379 41.6875M29.0004 40.35C29.1004 40.55 29.6004 40.825 29.9004 40.6M26.4004 38.775C26.3956 38.8907 26.4162 39.006 26.461 39.1128C26.5058 39.2195 26.5736 39.3151 26.6595 39.3927C26.7455 39.4703 26.8475 39.528 26.9582 39.5616C27.069 39.5953 27.1859 39.6041 27.3004 39.5875C27.8379 39.525 27.9504 39.0625 27.7879 38.75M27.3879 39.6125C27.0254 40.0375 27.4629 40.65 27.8629 40.475M27.7879 39.3C28.0004 39.225 28.6879 39.125 28.9004 39.45M25.5504 39.425C25.3879 39.675 26.3879 39.9125 26.7254 39.45M26.3879 39.6875C26.3504 40.0125 26.5129 40.5625 27.3379 40.325" stroke="black" stroke-width="0.05"/>
<path d="M27.4754 40.825C27.6004 40.55 27.0004 40.1 26.5254 40.6C26.0629 41.1 26.6004 41.6625 26.8879 41.475M25.3379 39.75C25.0879 40.175 26.0254 40.9375 26.5629 40.225" stroke="black" stroke-width="0.05"/>
<path d="M24.7127 40.4754C24.3752 40.8254 24.8002 41.4629 25.3002 41.2629C25.8127 41.0754 25.7627 40.5379 25.6377 40.4004" stroke="black" stroke-width="0.05"/>
<path d="M24.0628 41.1254C23.7878 41.3754 24.0628 41.9504 24.4378 41.9504C24.8128 41.9504 25.0503 41.6629 24.9753 41.2754M25.6003 41.0754C25.5503 41.4504 26.1003 41.7004 26.4628 41.3504M26.4628 40.6754C26.5253 40.6004 26.4878 40.4629 26.4003 40.3879M23.4753 41.6129C23.1628 41.8629 23.8503 42.5629 24.2628 41.9254M25.9003 41.4879C25.7003 41.6754 26.0253 42.1754 26.3503 42.0254M24.8003 41.8379C24.8503 42.1754 25.5253 42.4379 25.9503 41.9129M25.1628 42.1754C25.0628 42.4004 25.2753 42.7379 25.5378 42.7004M31.5753 44.1754C31.3253 44.6629 32.1253 45.2379 32.7003 44.6379M32.1503 44.9004C32.0253 45.1629 32.1753 45.5379 32.4003 45.6754M31.4003 45.4629C31.4503 45.2129 31.8003 44.9879 32.1128 45.1004M30.9878 44.8254C31.0253 44.6004 31.3128 44.3879 31.5378 44.4504M50.2628 36.2629C49.2753 36.6254 48.7878 34.7879 49.9378 34.7754C49.2503 34.9254 48.7128 34.6379 48.6628 34.2629M49.5628 36.1379C49.3378 36.5004 49.7753 37.0879 50.2628 36.7379M50.1378 36.8129C49.7878 37.3754 51.0003 38.2379 51.4878 37.3504M51.1003 37.6879C51.1003 38.2254 52.6628 38.5629 52.4378 37.5004M52.2878 38.0754C52.6628 38.7004 54.0378 38.7629 53.9003 37.8254M53.5878 38.4754C53.8753 38.9004 55.2378 39.1504 55.1878 38.2879M48.1003 33.1879C48.2878 33.6879 48.9503 33.8629 49.6753 33.5629M47.6753 33.5379C48.1378 33.8254 47.4753 35.1504 46.7878 34.6129M47.6878 34.3629C48.1878 34.6004 48.8003 34.4254 48.9753 33.7129M47.4253 34.6504C48.0753 35.2004 47.1378 36.3254 46.7128 35.8129M47.6628 35.0629C47.9753 35.2879 48.7628 35.1629 48.8378 34.5629M48.4878 35.0629C48.5503 35.4504 48.8628 35.6004 49.2878 35.6129M47.4878 35.6004C47.8128 36.0504 48.6128 36.1754 48.9753 35.5879M48.6128 35.9254C48.5878 36.3504 49.0628 36.7129 49.5628 36.6129M46.8753 36.8754C47.2878 37.0879 47.7503 36.2879 47.3878 35.7504M47.3628 37.7129C47.8628 37.7379 47.9253 36.9879 47.4503 36.5629M48.5003 38.4004C48.9253 38.3004 48.7878 37.3879 47.7753 37.3129M49.7753 39.0754C50.1753 38.9629 49.8503 37.9504 48.7378 38.0129M51.3003 39.4379C51.5753 39.0129 50.6753 38.3129 49.9253 38.6879M52.0503 40.0129C52.5503 40.1629 52.9003 38.8379 51.3128 39.0504M52.9753 40.0129C53.4128 39.8879 53.7253 39.1129 52.4503 39.3629M53.9503 40.0754C54.3253 40.2754 54.5003 39.1379 53.3253 39.4504M47.4503 36.5754C47.9378 36.8379 48.7003 36.5254 48.6253 35.9129M48.4378 36.4379C48.6003 36.7254 48.5378 37.2879 48.2253 37.4379M48.4753 37.1129C48.8003 37.2379 49.2378 37.1254 49.5003 36.6129M49.0503 37.1129C49.1378 37.3379 49.1753 37.7879 48.9628 38.0129M49.1253 37.5004C49.4878 37.7004 49.9003 37.4379 50.0753 37.0629M49.8503 37.3879C50.1003 37.5504 50.3378 38.3004 49.9003 38.6129M50.1503 38.2629C50.4503 38.2629 50.9003 38.2629 51.1878 37.8879M50.9753 38.1004C51.2503 38.1754 51.5753 38.6254 51.4628 39.0254M51.4753 38.8879C51.7878 38.8504 52.3128 38.6379 52.4628 38.2629M52.3128 38.5129C52.4514 38.5946 52.5631 38.715 52.6342 38.8594C52.7053 39.0037 52.7326 39.1657 52.7128 39.3254M52.7128 39.0629C53.0253 39.0504 53.3003 38.8879 53.3753 38.5504M53.3003 38.7754C53.5253 38.8504 53.8003 39.1129 53.8128 39.4129M53.7753 39.2254C54.0003 39.1879 54.1628 39.0504 54.3128 38.8254M54.9253 38.7879C55.2128 39.0754 54.8253 40.0379 54.2253 39.8629M48.7378 19.2754C48.1503 19.6379 46.4503 19.5254 47.2878 18.1254M48.9128 18.3254C47.7253 18.8004 46.2878 17.8879 47.7878 16.9129M47.3878 16.5879C46.4128 16.5879 45.7503 18.1629 47.0628 18.7129M43.5753 17.2504C43.3253 17.7504 44.2378 18.3004 44.8628 17.8004C45.3503 17.4129 45.3128 16.3629 45.0253 15.9629M43.0753 18.4379C42.7503 19.5004 45.1253 19.5629 44.7503 17.8754M42.9503 20.0254C43.0253 20.8254 45.2128 20.5629 44.5128 18.9379M44.7628 18.4879C44.9378 18.7379 45.4253 19.1504 46.2503 19.0629M45.1253 17.3754C45.2003 17.6629 45.6878 17.8754 46.3128 17.6629M23.1753 41.8504C22.6128 42.2379 23.4753 42.8629 23.7878 42.1754M22.7378 42.1504C22.1878 42.5504 23.0378 43.1754 23.3503 42.4879M22.2753 42.4504C21.7253 42.8504 22.5753 43.4629 22.9003 42.7879M21.8003 42.7254C21.2628 43.0129 21.8878 43.7004 22.4253 43.1004M21.2753 42.9879C20.7378 43.2754 21.3628 43.9629 21.9003 43.3629M23.9753 42.1629C23.9628 42.5754 24.7378 42.7379 25.0253 42.1254M24.4628 42.5379C24.2128 42.8504 24.6628 43.2254 24.9003 43.0879M23.4253 42.4879C23.4003 42.8379 24.0753 43.0379 24.4003 42.6504M23.7878 42.8504C23.5753 43.1254 24.0003 43.5129 24.2878 43.4004M22.9753 42.8004C23.0003 43.0754 23.3878 43.3879 23.8003 43.2129M23.2253 43.1754C23.0628 43.3129 23.1378 43.6504 23.3628 43.7629M22.3878 43.1379C22.3253 43.3879 22.7503 43.8379 23.1878 43.5504M22.4753 43.4254C22.2253 43.6379 22.2503 43.9379 22.5753 43.9879M21.8503 43.4004C21.8253 43.5754 22.0378 43.8504 22.3128 43.8129M20.4753 43.3879C20.2253 43.5254 20.8753 44.2254 21.2878 43.5754M19.8378 43.6754C19.5128 43.8254 20.3128 44.6004 20.6753 43.8129M21.9253 43.6504C21.6753 43.7004 21.5128 44.0629 21.7253 44.2129M21.1003 43.7754C21.0753 43.9254 21.3878 44.1504 21.6378 44.0754M20.9003 43.8379C20.6503 43.9879 20.7878 44.4129 21.0753 44.3504M20.0378 44.1254C19.8128 44.2879 19.9753 44.6254 20.2878 44.5504M20.4503 44.1004C20.4503 44.1879 20.6628 44.3254 20.8253 44.2629M19.2628 43.9504C18.9753 44.0754 19.0003 44.7754 19.9503 44.4004M18.6253 44.2379C18.2253 44.4254 18.3628 44.9629 19.2253 44.4504M19.2878 44.4879C19.1878 44.5754 19.0753 44.9254 19.4753 44.7879M18.5753 44.6629C18.4128 44.8004 18.5128 45.1004 18.8628 44.9879M17.7378 44.7129C17.4503 44.8754 18.0878 45.1004 18.5128 44.6504M17.9378 44.9129C17.8128 45.0379 17.8128 45.4254 18.1378 45.2879M17.1128 45.0754C16.9253 45.2129 17.2378 45.4129 17.8628 45.1379M17.3628 45.2754C17.1253 45.4629 17.1503 45.7004 17.4878 45.6254M16.6878 45.3754C16.4378 45.6129 16.8003 45.7629 17.2378 45.5754M16.6878 45.6379C16.2628 45.8254 16.4503 46.1879 16.7128 46.0504M30.9378 46.8629C30.8378 47.0754 31.1628 47.2504 31.4753 47.2004C31.7628 47.1629 32.0503 46.9129 31.8253 46.5754M31.8378 47.0004C32.1378 47.2254 32.6503 46.9629 32.6503 46.6254" stroke="black" stroke-width="0.05"/>
<path d="M49.6 12.8754C48.3125 12.2504 45.6375 11.0504 44.875 12.0129C45.575 11.7254 47.6 12.0254 49.275 13.5754L49.6 12.8879V12.8754Z" fill="white" stroke="black" stroke-width="0.05"/>
<path d="M50.3749 12.8124C48.8874 11.0749 47.9999 11.4624 46.9374 10.8749C45.9374 10.3124 44.3374 10.1999 44.0249 11.0874C45.4874 10.3749 46.8374 11.4624 47.6749 11.6124C48.7999 11.7874 49.4499 12.6749 49.7874 13.0749L50.3749 12.8249V12.8124ZM55.9874 12.5874C55.2124 10.8249 53.5624 11.2874 52.8374 10.5374C51.7749 9.43743 49.0874 8.41243 47.9624 9.17493C50.4124 9.04993 51.4624 10.8624 52.7624 11.4999C53.6999 11.9499 54.6999 12.9124 55.9874 12.5874Z" fill="white" stroke="black" stroke-width="0.05"/>
<path d="M53.0874 12.4003C51.7749 10.7628 49.7374 9.31277 48.8124 9.85027C50.0374 9.92527 50.4249 10.7753 51.2874 11.3253C52.1624 11.8628 51.7749 12.6628 53.0874 12.4003ZM46.8124 15.3003C45.4374 14.7878 42.7249 14.5253 41.4624 16.1003C43.5624 16.4628 46.7124 16.2628 46.8124 15.3003Z" fill="white" stroke="black" stroke-width="0.05"/>
<path d="M46.55 15.9128C45.175 15.2628 44.0875 16.1628 42.7875 16.0378C40.3125 15.7878 38.5375 15.9378 38.3125 17.1378C39.725 15.8628 42.1125 16.9128 43.075 16.6503C44.0375 16.4003 47.6125 16.6128 48.7375 17.1003C48.1625 16.3878 47.2625 16.2003 46.55 15.9128ZM50.9 12.2253C50.575 11.1628 50.6 10.0378 52.1875 10.1128C51.7875 9.61276 50.3125 9.36276 50.0625 11.2253C48.3125 9.93776 46.3875 9.71276 46.0375 10.8253C46.9375 10.0503 48.3375 10.6128 50.0125 12.5128C50.2914 12.3708 50.5909 12.2738 50.9 12.2253Z" fill="white" stroke="black" stroke-width="0.05"/>
<path d="M48.4874 13.6873C47.4874 13.0373 46.1374 11.9998 48.4999 11.5748C47.4999 11.0373 45.9999 11.2748 46.1624 13.1373C43.4624 12.0498 41.5249 12.4123 41.1124 13.4998C40.6624 14.6873 42.3374 15.3498 42.6249 14.5873C42.3249 14.7123 41.2749 14.3623 41.8249 13.6873C42.3749 13.0123 45.1749 13.5248 47.8374 14.9123C48.5874 15.2873 51.1249 15.2373 48.4874 13.6873Z" fill="white" stroke="black" stroke-width="0.05"/>
<path d="M47.7748 15.4625C47.0123 13.8875 44.5123 15.3125 44.0123 13.7875C43.3123 16.025 47.5623 14.7875 47.7748 15.4625ZM63.6623 17.1625C64.1873 17.425 64.6373 17.0125 63.8373 16.7C64.3623 16.95 64.8248 16.5625 64.0248 16.2375C64.5498 16.4875 64.9998 16.1 64.1998 15.775C63.9873 15.9875 63.6873 16.775 63.6623 17.1625ZM63.9373 14.1375C65.0998 12.9125 63.8498 12.5 65.2623 11.2375C66.4248 10.2125 65.4873 9.525 66.5748 8.7375C66.9373 8.475 67.6998 7.9625 67.7748 7.4375C68.2373 8.6 66.3248 8.7625 66.4498 10.625C66.5373 11.8125 65.7248 11.7125 65.4248 13.725C65.3623 14.1375 65.0623 15.075 63.9373 14.1375Z" fill="white" stroke="black" stroke-width="0.05"/>
<path d="M64.4502 14.6871C65.1002 13.3121 65.8377 13.3246 66.2002 12.7871C66.8752 11.7496 68.3002 12.9621 69.5127 12.0371C69.3002 13.3496 67.6752 12.8871 66.9627 13.7246C66.2627 14.5621 65.6752 14.9371 64.4627 14.6871H64.4502Z" fill="white" stroke="black" stroke-width="0.05"/>
<path d="M64.6252 15.1377C65.7502 14.2377 66.5752 14.8377 67.3502 14.3627C69.3127 13.1752 70.1002 14.6127 71.8502 14.0377C71.4002 15.1627 68.8002 14.2002 67.6752 15.0377C66.5502 15.8752 62.5877 16.6877 64.6127 15.1377H64.6252ZM61.3377 21.5627C61.3127 21.0502 60.8377 20.3877 60.1627 20.3127C59.4877 20.2252 59.1877 19.5127 58.6752 19.4877C58.1627 19.4502 57.8252 18.4252 57.1127 18.4377C56.4127 18.4502 56.1127 19.3752 57.7752 20.2127C59.4377 21.0502 61.2752 22.0127 61.3377 21.5627ZM59.2377 22.0002C58.5377 22.0252 58.4377 23.0627 57.7627 23.0877C58.6877 23.5877 59.3752 22.8627 59.8502 22.2127L59.2502 22.0002H59.2377Z" fill="white" stroke="black" stroke-width="0.05"/>
<path d="M59.8252 22.125C59.2002 22.6375 59.0252 23.7125 59.9127 24.025C59.3877 23.2875 60.8502 22.9625 60.4002 22.275L59.8252 22.125Z" fill="white" stroke="black" stroke-width="0.05"/>
<path d="M60.4249 22.1625C59.9499 23.0875 61.1874 23.2 60.8624 23.9125C61.5749 23.75 61.6874 22.4125 61.0374 22.0625L60.4249 22.15V22.1625Z" fill="white" stroke="black" stroke-width="0.05"/>
<path d="M55.7002 20.1621C56.8627 20.0996 57.9127 20.7246 58.6252 21.7371C59.0752 22.3746 60.5877 22.6371 61.1127 22.1121C61.6127 21.6121 61.3377 20.5121 60.0502 20.8621C59.7252 20.3246 58.8002 20.5121 58.3377 20.0621C57.8877 19.6121 56.1502 18.3246 55.7002 20.1621Z" fill="white" stroke="black" stroke-width="0.05"/>
<path d="M60.0501 20.8754C59.7376 20.9379 59.6376 21.4629 59.8376 21.7379ZM60.7126 21.1879C60.8001 21.3504 60.7376 21.5754 60.6876 21.6879ZM57.5376 20.2129C58.1251 20.2379 58.2376 20.6754 58.8876 20.8379Z" fill="white"/>
<path d="M60.0501 20.8754C59.7376 20.9379 59.6376 21.4629 59.8376 21.7379M60.7126 21.1879C60.8001 21.3504 60.7376 21.5754 60.6876 21.6879M57.5376 20.2129C58.1251 20.2379 58.2376 20.6754 58.8876 20.8379" stroke="black" stroke-width="0.05" stroke-linecap="round"/>
<path d="M57.1374 18.7496C58.7613 19.0669 60.3398 19.5833 61.8374 20.2871C62.8499 20.8621 64.4248 21.0371 65.7873 20.6371C67.1623 20.2621 69.8124 19.8996 69.6749 21.6121C70.3999 20.7496 69.4874 19.8371 67.6499 19.6746C67.6874 18.8371 66.7874 18.0871 66.1499 18.5871C66.7374 18.4996 67.2498 19.6121 66.0748 20.0621C66.1276 19.8684 66.1238 19.6636 66.0637 19.472C66.0037 19.2804 65.8899 19.11 65.736 18.9811C65.5821 18.8522 65.3944 18.7701 65.1953 18.7446C64.9961 18.7191 64.7938 18.7512 64.6124 18.8371C65.1624 18.9996 65.7374 19.9371 64.4874 20.2871C63.6999 20.5121 62.5624 20.2246 61.7124 19.7121C60.8624 19.1996 56.0874 17.3371 57.1374 18.7371V18.7496Z" fill="white" stroke="black" stroke-width="0.05"/>
<path d="M62.325 17.9123C61.6875 18.1998 62.1 18.8748 61.1125 19.2623C60.1125 19.6373 59.4125 20.5248 59.6375 21.2873C60.3125 19.7998 61.5125 19.8748 61.925 19.2873C62.35 18.7123 62.9625 17.8623 62.325 17.9123Z" fill="white" stroke="black" stroke-width="0.05"/>
<path d="M62.5001 18C62.4751 19.175 61.5501 18.75 61.9126 20.4C62.0251 20.9125 62.2376 21.75 61.8751 22.5875C62.9126 21.8375 62.2501 20.25 62.7126 19.65C62.9376 19.35 63.2376 18.9 63.3376 18.525C63.1001 19.1875 63.1251 20.45 63.7751 20.775C63.2501 19.525 65.2126 18.4875 63.8626 17.025C63.6626 17.4 63.0501 18.025 62.5126 18H62.5001ZM59.2251 16.825C59.3876 17.075 59.5501 17.675 59.4001 18.025C59.7251 17.825 60.1876 17.325 60.3376 16.9875C61.0001 17.0875 61.2501 17.9 60.6251 18.2625C61.0001 18.2625 61.6751 18.2625 62.0376 17.825C61.5876 17.325 60.1876 16.55 59.2251 16.825Z" fill="white" stroke="black" stroke-width="0.05"/>
<path d="M49.2125 14.5129C49.038 14.3781 48.831 14.2919 48.6125 14.2629C47.6375 14.0629 48.15 13.1879 48.975 13.2004C50.75 11.2629 51.7375 12.7504 53.9 12.1504C54.65 11.9254 55.175 11.9879 55.575 12.1754C56.55 11.5254 57.675 11.7004 58.5 12.4629C58.5831 12.3195 58.7169 12.2125 58.875 12.1629C59.6375 11.9504 60.25 12.5879 60.4625 13.4254C61.05 13.3254 61.725 13.6129 62.175 14.0129C62.7875 13.7004 63.2 13.6879 63.3625 14.0129C63.9125 13.7629 64.6125 13.5879 64.975 14.4629C65.3375 15.3379 64.1375 15.0754 63.9375 16.9129C63.8125 18.0379 62.5625 18.4879 61.5625 17.8129C59.9625 16.7254 58.4 16.5629 57.625 18.1879C56.8625 19.8379 56.25 20.7879 54.375 20.2504C53.9857 20.162 53.5789 20.1922 53.2068 20.337C52.8348 20.4818 52.5146 20.7346 52.2875 21.0629C51.7375 21.8129 50.9125 21.1129 49.9125 21.1879C51.1625 21.0004 50.675 20.6879 51.775 20.6129C52.775 20.5504 52.5125 19.6129 53.15 19.4879C50.65 20.1254 50.7375 19.1879 48.675 19.8379C49.575 18.6754 51 19.3254 51.7 18.6504C49.8375 18.6129 49 17.4004 48.1625 17.9004C46.85 18.7129 47.4125 21.0004 43.975 20.8004C42.3 20.7129 41.2375 20.9254 40.25 21.9254C41.9875 18.3254 44.35 20.3004 45.5 19.1629C46.0967 18.6261 46.6143 18.0074 47.0375 17.3254C47.0869 17.2265 47.1571 17.1394 47.2435 17.0704C47.3298 17.0013 47.4301 16.9518 47.5375 16.9254C44.675 16.0254 46.4125 14.6129 49.2125 14.5129Z" fill="white" stroke="black" stroke-width="0.05"/>
<path d="M63.3625 14C63.4 14.1 63.425 14.225 63.425 14.375C63.425 15.075 62.3625 15.1 62.3 16.15C62.2625 16.7 62.2 17 61.8375 16.9375C61.4625 16.875 61.1375 16.3 61.4875 15.625" fill="white"/>
<path d="M63.3625 14C63.4 14.1 63.425 14.225 63.425 14.375C63.425 15.075 62.3625 15.1 62.3 16.15C62.2625 16.7 62.2 17 61.8375 16.9375C61.4625 16.875 61.1375 16.3 61.4875 15.625" stroke="black" stroke-width="0.05" stroke-linecap="round"/>
<path d="M49.7501 13.4621C49.5248 13.2973 49.2542 13.2056 48.9751 13.1996ZM55.5751 12.1621C56.4251 12.5371 56.8376 13.4121 58.0751 13.4621C59.2751 13.4996 60.0126 15.2371 62.0126 14.0996C62.0622 14.0737 62.1122 14.0487 62.1626 14.0246M58.5001 12.4621C58.3283 12.7744 58.2667 13.1355 58.3251 13.4871ZM54.6001 16.1121C53.1001 16.1121 52.7001 16.8746 52.7001 17.6121C52.7001 18.3621 53.4126 19.3246 54.6626 19.3246C55.9126 19.3246 56.6001 18.5496 56.6001 17.7121C56.6001 16.8746 55.8251 16.0996 54.6001 16.0996V16.1121Z" fill="white"/>
<path d="M49.7501 13.4621C49.5248 13.2973 49.2542 13.2056 48.9751 13.1996M55.5751 12.1621C56.4251 12.5371 56.8376 13.4121 58.0751 13.4621C59.2751 13.4996 60.0126 15.2371 62.0126 14.0996C62.0622 14.0737 62.1122 14.0487 62.1626 14.0246M58.5001 12.4621C58.3283 12.7744 58.2667 13.1355 58.3251 13.4871M54.6001 16.1121C53.1001 16.1121 52.7001 16.8746 52.7001 17.6121C52.7001 18.3621 53.4126 19.3246 54.6626 19.3246C55.9126 19.3246 56.6001 18.5496 56.6001 17.7121C56.6001 16.8746 55.8251 16.0996 54.6001 16.0996V16.1121Z" stroke="black" stroke-width="0.05"/>
<path d="M54.8749 19.287C54.8499 18.8745 54.0874 18.937 54.1249 18.612C54.1499 18.287 54.5374 18.162 54.5374 17.712C54.5374 17.262 55.2124 17.2245 55.4374 17.587C55.6624 17.937 56.3374 18.6245 56.4874 18.2745M55.4374 17.587C55.2309 17.807 55.1118 18.0948 55.1026 18.3963C55.0934 18.6979 55.1947 18.9924 55.3874 19.2245M55.9249 18.1245C55.7999 18.3745 55.7749 18.7495 55.9124 18.9745Z" fill="white"/>
<path d="M54.8749 19.287C54.8499 18.8745 54.0874 18.937 54.1249 18.612C54.1499 18.287 54.5374 18.162 54.5374 17.712C54.5374 17.262 55.2124 17.2245 55.4374 17.587M55.4374 17.587C55.6624 17.937 56.3374 18.6245 56.4874 18.2745M55.4374 17.587C55.2309 17.807 55.1118 18.0948 55.1026 18.3963C55.0934 18.6979 55.1947 18.9924 55.3874 19.2245M55.9249 18.1245C55.7999 18.3745 55.7749 18.7495 55.9124 18.9745" stroke="black" stroke-width="0.05"/>
<path d="M61.9376 16.9502C63.1251 17.0502 63.3126 15.7377 62.4376 15.6627M60.4751 13.4377C60.0751 12.9127 59.1251 12.7377 59.1001 13.8377" stroke="black" stroke-width="0.05"/>
<path d="M59.0002 15.1C58.6002 14.1 57.5627 13.9625 57.0252 14.4625C56.5627 14.875 56.5502 15.9625 57.5252 16.1875C57.8752 15.775 58.5252 15.25 59.0002 15.1ZM58.5627 14.475C57.9752 13.9625 57.1252 14.9375 57.9002 15.825ZM47.5252 16.9125C47.9252 16.825 48.4877 17.0125 49.3627 17.4125C49.9002 17.675 51.5502 18.225 52.5752 17.675C51.5127 18.0625 50.7002 16.4625 49.9002 16.65C49.1002 16.85 47.6252 17.15 47.0127 16.55C48.5127 16.65 49.3252 15.45 51.0627 16.4875C51.5538 16.792 52.1224 16.9483 52.7002 16.9375C51.2877 15.2375 49.4252 16.325 49.2252 14.9375C50.0752 15.8625 52.1627 14.7375 53.2252 16.45M49.5377 15.2C49.3377 14.95 49.4127 14.7 49.2127 14.5125Z" fill="white"/>
<path d="M58.5627 14.475C57.9752 13.9625 57.1252 14.9375 57.9002 15.825M47.5252 16.9125C47.9252 16.825 48.4877 17.0125 49.3627 17.4125C49.9002 17.675 51.5502 18.225 52.5752 17.675C51.5127 18.0625 50.7002 16.4625 49.9002 16.65C49.1002 16.85 47.6252 17.15 47.0127 16.55C48.5127 16.65 49.3252 15.45 51.0627 16.4875C51.5538 16.792 52.1224 16.9483 52.7002 16.9375C51.2877 15.2375 49.4252 16.325 49.2252 14.9375C50.0752 15.8625 52.1627 14.7375 53.2252 16.45M49.5377 15.2C49.3377 14.95 49.4127 14.7 49.2127 14.5125M59.0002 15.1C58.6002 14.1 57.5627 13.9625 57.0252 14.4625C56.5627 14.875 56.5502 15.9625 57.5252 16.1875C57.8752 15.775 58.5252 15.25 59.0002 15.1Z" stroke="black" stroke-width="0.05"/>
<path d="M60.4749 13.4372C60.1249 13.0622 59.3499 13.3497 59.5749 14.1122C59.6567 13.9323 59.7817 13.7755 59.9387 13.6556C60.0957 13.5356 60.2799 13.4563 60.4749 13.4247V13.4372ZM58.2874 15.4997C58.5027 15.3301 58.7431 15.1952 58.9999 15.0997C58.9016 14.8449 58.7377 14.6207 58.5249 14.4497C58.3374 14.3247 57.8124 15.0372 58.2874 15.4872V15.4997Z" fill="black"/>
<path d="M57.3374 14.187C56.7624 13.7995 56.2249 13.837 56.0499 14.1495C55.6374 14.1495 55.2874 14.4495 55.2749 15.0495M56.1624 15.312C55.4749 14.837 54.5249 15.012 54.5874 16.0745M54.1624 16.687C54.4999 16.412 54.9874 16.212 55.3624 16.687M59.3374 15.637C59.2124 15.812 59.1124 16.087 59.3249 16.512C59.0749 16.162 58.4249 16.162 57.7249 17.062M60.8624 15.587C60.0249 15.687 60.0499 16.237 60.7249 16.462M54.9124 13.537C54.1999 13.3995 53.6874 13.812 54.6624 14.162M56.2624 13.062C55.2624 12.812 54.8624 13.0745 55.3124 13.312M53.3749 17.062C53.3499 17.4245 53.5374 17.887 54.1249 17.362M53.5749 18.1245C53.5749 18.2245 53.5624 18.337 53.4874 18.4245M51.2499 13.4245C50.6374 13.237 50.5249 12.6745 51.2499 12.7245M51.0499 14.7245C50.3749 14.487 50.3749 13.837 50.9249 13.8995M52.2999 14.3745C51.5124 14.187 51.4874 13.637 52.0749 13.7245M52.3999 12.6995C51.9749 12.6745 51.3374 13.137 52.4124 13.412M53.5749 13.637C52.5874 13.4995 52.6124 13.887 53.1874 14.1495M54.3124 12.6995C53.5624 12.562 53.2999 13.012 53.8124 13.1995M51.9374 15.487C51.7499 15.337 51.5999 14.612 52.4749 14.8245M53.7624 15.262C53.1749 15.0995 52.6124 15.687 53.1499 16.012M54.5499 14.5745C53.9249 14.4495 53.3999 14.637 53.7374 14.862" stroke="black" stroke-width="0.05" stroke-linecap="round"/>
<path d="M60.4502 13.4375C60.2609 13.4717 60.0826 13.5508 59.9304 13.6683C59.7781 13.7858 59.6563 13.9381 59.5752 14.1125" fill="white"/>
<path d="M60.4502 13.4375C60.2609 13.4717 60.0826 13.5508 59.9304 13.6683C59.7781 13.7858 59.6563 13.9381 59.5752 14.1125" stroke="black" stroke-width="0.05"/>
</g>
<defs>
<clipPath id="clip0_6_1638">
<rect width="80" height="60" fill="white"/>
</clipPath>
</defs>
</svg>
