<svg width="81" height="61" viewBox="0 0 81 61" fill="none" xmlns="http://www.w3.org/2000/svg">
<g clip-path="url(#clip0_21_208)">
<mask id="mask0_21_208" style="mask-type:luminance" maskUnits="userSpaceOnUse" x="0" y="0" width="81" height="61">
<path d="M0.463013 0.5H80.6685V60.66H0.463013V0.5Z" fill="white"/>
</mask>
<g mask="url(#mask0_21_208)">
<path fill-rule="evenodd" clip-rule="evenodd" d="M0.463044 27.8775H99.915V52.0825H0.451294L0.463044 27.8775Z" fill="white"/>
<path fill-rule="evenodd" clip-rule="evenodd" d="M0.533569 0.5H99.9386V30.6505H0.533569V0.5ZM0.56882 45.8432H100.691V60.66H0.56882V45.8432Z" fill="#081873"/>
<path fill-rule="evenodd" clip-rule="evenodd" d="M0.568848 36.0555H99.9738V40.7085H0.568848V36.0555Z" fill="#DE3929"/>
<path fill-rule="evenodd" clip-rule="evenodd" d="M30.3551 47.406L31.1306 49.803H33.6451L31.6006 51.2953L32.3761 53.704L30.3551 52.2L28.3106 53.6923L29.0978 51.2835L27.0533 49.7913H29.5796M52.2101 29.922L52.9973 32.3308H55.5001L53.4556 33.8113L54.2311 36.22L52.1866 34.7278L50.1421 36.22L50.9176 33.8113L48.8731 32.3308H51.4111M25.3261 39.8978L26.1016 42.3065H28.6278L26.5951 43.8105L27.3823 46.2075L25.3378 44.727L23.2933 46.2075L24.0688 43.8105L22.0243 42.3183H24.5506M52.2101 39.2163L52.9973 41.6133H55.5001L53.4556 43.1055L54.2311 45.5025L52.1866 44.022L50.1421 45.5143L50.9176 43.1055L48.8731 41.6133H51.4111M46.6523 22.6135L47.4396 25.0105H49.9776L47.9331 26.5028L48.7086 28.9115L46.6641 27.4193L44.6196 28.9115L45.4068 26.5028L43.3506 25.0105H45.8886M38.3098 19.6995L39.0971 22.1083H41.6233L39.5788 23.5888L40.3543 25.9975L38.3098 24.517L36.2653 25.9975L37.0526 23.5888L35.0081 22.1083H37.5226M29.9438 22.449L30.7311 24.8578H33.2573L31.2128 26.3383L32.0001 28.747L29.9438 27.2548L27.8993 28.747L28.6866 26.3383L26.6421 24.8578H29.1801M25.0911 29.9338L25.8666 32.3425H28.4046L26.3483 33.823L27.1356 36.2318L25.0911 34.7395L23.0466 36.2318L23.8221 33.823L21.7776 32.3425H24.3038M38.3098 49.897L39.0971 52.3058H41.6233L39.5788 53.7863L40.3661 56.195L38.3098 54.7028L36.2653 56.195L37.0526 53.7863L35.0081 52.3058H37.5226M47.1811 47.406L47.9566 49.803H50.4828L48.4501 51.2953L49.2373 53.704L47.1928 52.2118L45.1366 53.704L45.9238 51.2953L43.8793 49.803H46.4056" fill="#FFCE08"/>
</g>
</g>
<defs>
<clipPath id="clip0_21_208">
<rect width="80" height="60" fill="white" transform="translate(0.5 0.5)"/>
</clipPath>
</defs>
</svg>
