<svg width="81" height="61" viewBox="0 0 81 61" fill="none" xmlns="http://www.w3.org/2000/svg">
<g clip-path="url(#clip0_21_221)">
<path d="M0.5 40.5H80.5V60.5H0.5V40.5Z" fill="black"/>
<path d="M0.5 20.5H80.5V40.5H0.5V20.5Z" fill="white"/>
<path d="M0.5 0.5H80.5V20.5H0.5V0.5Z" fill="#CE1126"/>
<path d="M40.5799 30.74L47.4299 37.1L46.9399 25.55C46.8699 23.8 45.3499 24.2 44.2399 24.83C43.1299 25.55 41.8399 25.55 40.4999 25.08C39.1499 25.55 37.8699 25.55 36.7599 24.83C35.6599 24.2 34.1299 23.8 34.0599 25.55L33.5699 37.1L40.5799 30.74Z" fill="white" stroke="#C09300" stroke-width="0.13" stroke-linejoin="round"/>
<path d="M34.8499 25.15L34.3699 36.38L33.5699 37.1L34.0599 25.55C34.2962 25.3688 34.5641 25.2332 34.8499 25.15ZM35.8099 25.95L35.4099 35.35L34.6099 36.17L35.0899 25.32C35.2499 25.48 35.7199 25.87 35.8099 25.95ZM36.6799 26.67L36.3699 34.51L35.7199 35.14L36.1199 26.2C36.2799 26.35 36.5999 26.58 36.6799 26.67ZM37.6299 27.07L37.3199 33.75L36.6899 34.26L36.9999 26.83C37.1599 26.9 37.4699 27.07 37.6299 27.07ZM38.5099 27.07L38.2799 32.64L37.6299 33.27L37.8799 27.14C38.0299 27.14 38.4399 27.14 38.5099 27.07Z" fill="#C09300"/>
<path d="M46.1499 25.15L46.6299 36.38L47.4299 37.1L46.9399 25.55C46.7037 25.3688 46.4358 25.2332 46.1499 25.15ZM45.1899 25.95L45.5899 35.35L46.3899 36.17L45.9099 25.32C45.7499 25.48 45.2799 25.87 45.1899 25.95ZM44.3199 26.67L44.6299 34.51L45.2799 35.14L44.8799 26.2C44.7199 26.35 44.3999 26.58 44.3199 26.67ZM43.3699 27.07L43.6799 33.75L44.3099 34.26L43.9999 26.83C43.8399 26.9 43.5299 27.07 43.3699 27.07ZM42.4899 27.07L42.7199 32.64L43.3699 33.27L43.1199 27.14C42.9699 27.14 42.5599 27.14 42.4899 27.07Z" fill="#C09300"/>
<path d="M40.82 32L41.78 36.38L41.46 36.7L41.13 36.45L40.59 32.55L40.82 36.45L40.5 36.85L40.19 36.45L40.42 32.55L39.87 36.45L39.54 36.7L39.22 36.38L40.18 32.01H40.82V32Z" fill="#C09300" stroke="#C09300" stroke-width="0.11"/>
<path d="M38.3499 30.08L36.4399 36.85L39.0699 37.25L40.1799 32.16L38.3499 30.08Z" fill="white" stroke="#C09300" stroke-width="0.12" stroke-linejoin="round"/>
<path d="M37.72 32.4L37.95 32.95L39.19 31.77" stroke="#C09300" stroke-width="0.13" stroke-linejoin="round"/>
<path d="M38.5799 31L38.8399 33.43L39.6299 32.39M39.3099 32.79L39.7399 34.29M39.9099 33.74L39.0399 35.06M39.3099 36.38L39.0299 35.06M39.0299 35.06L38.7899 33.72L38.1999 34.51L37.9499 33.6L37.1299 34.44L37.5399 35.96L38.1199 35.02L38.4299 35.98L39.0299 35.06Z" stroke="#C09300" stroke-width="0.13" stroke-linejoin="round"/>
<path d="M37 36.7L37.53 35.95L37.87 37.1L38.35 36.3L38.66 37.26" stroke="#C09300" stroke-width="0.13" stroke-linejoin="round"/>
<path d="M42.6499 30.08L44.5599 36.85L41.9299 37.25L40.8199 32.16L42.6499 30.08Z" fill="white" stroke="#C09300" stroke-width="0.12" stroke-linejoin="round"/>
<path d="M43.2799 32.4L43.0499 32.95L41.8099 31.77" stroke="#C09300" stroke-width="0.13" stroke-linejoin="round"/>
<path d="M42.42 31L42.16 33.43L41.37 32.39M41.69 32.79L41.26 34.29M41.09 33.74L41.96 35.06M41.69 36.38L41.97 35.06M41.97 35.06L42.21 33.72L42.8 34.51L43.05 33.6L43.87 34.44L43.46 35.96L42.88 35.02L42.57 35.98L41.97 35.06Z" stroke="#C09300" stroke-width="0.13" stroke-linejoin="round"/>
<path d="M43.9999 36.7L43.4699 35.95L43.1299 37.1L42.6499 36.3L42.3399 37.26" stroke="#C09300" stroke-width="0.13" stroke-linejoin="round"/>
<path d="M40.5 39.88C42.5 39.88 44.4 39.72 45.52 39.41C45.99 39.32 45.99 39.08 45.99 38.76C46.47 38.6 46.23 38.04 46.56 38.04C46.22 38.14 46.16 37.49 45.76 37.57C45.76 37.01 45.19 36.94 44.72 37.1C43.77 37.41 42.09 37.49 40.5 37.49C38.9 37.41 37.24 37.41 36.2799 37.09C35.8099 36.94 35.25 37.01 35.25 37.57C34.85 37.49 34.78 38.13 34.45 38.04C34.78 38.04 34.53 38.61 35.01 38.76C35.01 39.08 35.01 39.32 35.49 39.41C36.59 39.72 38.51 39.88 40.5 39.88Z" fill="white" stroke="#C09300" stroke-width="0.24" stroke-linecap="round" stroke-linejoin="round"/>
<path d="M37.7899 36.85C38.4299 36.94 39.1499 37.01 39.7099 36.94C40.0299 36.94 40.2599 37.49 39.6199 37.57C39.0699 37.64 38.1899 37.57 37.7199 37.49C37.1014 37.3817 36.4876 37.2483 35.8799 37.09C35.3199 36.85 35.7199 36.39 36.0399 36.45C36.6108 36.6329 37.1963 36.7667 37.7899 36.85ZM43.2099 36.85C42.5699 36.94 41.8499 37.01 41.3099 36.94C40.9699 36.94 40.7399 37.49 41.3799 37.57C41.9399 37.64 42.8099 37.57 43.2799 37.49C43.6799 37.41 44.5599 37.26 45.1199 37.09C45.6799 36.85 45.2799 36.39 44.9599 36.45C44.3891 36.633 43.8036 36.7668 43.2099 36.85Z" fill="white" stroke="#C09300" stroke-width="0.13" stroke-linecap="round" stroke-linejoin="round"/>
<path d="M35.7999 36.54C35.3199 36.45 35.0999 37.01 35.2499 37.33C35.3199 37.17 35.6499 37.17 35.7199 37.01C35.8099 36.77 35.6499 36.77 35.8099 36.54H35.7999ZM37.7199 38.01C37.7199 37.69 38.0299 37.73 38.0299 37.41C38.0299 37.26 37.9499 37.01 37.7899 37.01C37.7066 37.0148 37.628 37.05 37.569 37.109C37.51 37.168 37.4747 37.2467 37.4699 37.33C37.3999 37.64 37.7199 37.69 37.7199 38.01ZM39.9899 37.1C40.4599 37.1 40.4099 37.73 40.1899 38.05C40.1899 37.82 39.7899 37.73 39.7899 37.57C39.7899 37.33 40.1499 37.33 39.9899 37.1ZM45.1899 36.54C45.6799 36.45 45.9099 37.01 45.7499 37.33C45.6799 37.17 45.3499 37.17 45.2799 37.01C45.1899 36.77 45.3499 36.77 45.1899 36.54ZM43.2999 38C43.2999 37.68 42.9799 37.72 42.9799 37.4C42.9799 37.25 43.0599 37 43.2199 37C43.3033 37.0048 43.3819 37.04 43.4409 37.099C43.4999 37.158 43.5352 37.2367 43.5399 37.32C43.6099 37.63 43.2899 37.68 43.2899 38H43.2999ZM40.9999 37.1C40.5299 37.1 40.5799 37.73 40.7999 38.05C40.7999 37.82 41.1999 37.73 41.1999 37.57C41.1999 37.33 40.8399 37.33 40.9999 37.1Z" fill="white" stroke="#C09300" stroke-width="0.13" stroke-linecap="round" stroke-linejoin="round"/>
<path d="M35.97 36.7C36.13 36.7 36.37 36.77 36.44 36.86L35.97 36.7ZM36.76 36.94C36.84 36.94 37.16 37.01 37.31 37.1L36.76 36.94ZM39.62 37.26C39.47 37.26 39.15 37.26 39.07 37.33L39.62 37.25V37.26ZM38.75 37.26C38.66 37.17 38.35 37.17 38.19 37.26H38.75ZM45.03 36.7C44.8603 36.7021 44.6957 36.7582 44.56 36.86L45.03 36.7ZM44.25 36.94C44.15 36.94 43.85 37.01 43.69 37.1L44.25 36.94ZM41.38 37.26C41.53 37.26 41.85 37.26 41.94 37.33L41.38 37.25V37.26ZM42.25 37.26C42.34 37.17 42.65 37.17 42.81 37.26H42.25Z" fill="white" stroke="#C09300" stroke-width="0.09" stroke-linecap="round" stroke-linejoin="round"/>
<path d="M35.8299 37.96C35.7799 37.95 35.7499 37.9 35.7699 37.86C35.7799 37.79 35.8299 37.76 35.8699 37.78C35.9099 37.78 35.9599 37.84 35.9599 37.86L35.9199 37.93L35.8999 37.94C35.8999 37.96 35.8599 37.96 35.8299 37.96ZM41.3299 38.35C41.3099 38.35 41.2699 38.3 41.2699 38.28C41.2699 38.24 41.3299 38.18 41.3699 38.18L41.4499 38.22C41.4799 38.25 41.4799 38.31 41.4399 38.34C41.4199 38.36 41.3599 38.36 41.3299 38.34V38.35ZM41.3599 38.6C41.3199 38.58 41.3099 38.56 41.2999 38.52C41.2999 38.47 41.2999 38.46 41.3499 38.43L41.3899 38.41L41.4299 38.43C41.4699 38.45 41.4999 38.47 41.4999 38.51C41.4999 38.54 41.4699 38.57 41.4299 38.59C41.3999 38.61 41.3899 38.61 41.3599 38.59V38.6Z" fill="#C09300"/>
<path d="M36.28 37.5C36.24 37.5 36.19 37.54 36.16 37.56C36.1 37.57 36.02 37.61 35.96 37.56C35.9 37.55 35.82 37.56 35.81 37.64C35.82 37.71 35.91 37.74 35.97 37.7C36.01 37.65 36.12 37.61 36.14 37.7C36.09 37.78 36.1 37.87 36.06 37.94C36.06 37.99 36.03 38.03 36.01 38.07C35.96 38.07 35.91 38.07 35.87 38.1C35.8389 38.1 35.8083 38.1072 35.7806 38.1211C35.7528 38.135 35.7286 38.1552 35.71 38.18C35.67 38.24 35.63 38.3 35.62 38.38C35.63 38.44 35.72 38.46 35.78 38.47L35.98 38.53L36.3 38.62C36.46 38.67 36.62 38.69 36.78 38.73L36.83 38.74C36.9 38.76 36.93 38.69 36.93 38.64L37.03 38.28C37.05 38.23 37.08 38.13 36.99 38.15C36.94 38.18 36.89 38.23 36.83 38.23C36.74 38.23 36.79 38.33 36.83 38.36C36.83 38.42 36.81 38.49 36.78 38.54C36.72 38.57 36.66 38.54 36.6 38.52C36.55 38.52 36.43 38.49 36.48 38.42L36.53 38.24C36.56 38.18 36.56 38.11 36.58 38.04C36.54 37.97 36.48 38.07 36.43 38.08C36.39 38.1 36.27 38.11 36.33 38.18C36.39 38.22 36.35 38.29 36.33 38.35C36.33 38.42 36.25 38.45 36.19 38.42C36.13 38.42 36.04 38.37 36.09 38.31L36.14 38.13L36.21 37.93C36.21 37.86 36.24 37.81 36.27 37.75C36.27 37.68 36.32 37.62 36.32 37.55C36.32 37.52 36.3 37.51 36.28 37.51V37.5ZM35.91 38.23C35.9146 38.2274 35.9197 38.226 35.925 38.226C35.9303 38.226 35.9354 38.2274 35.94 38.23C35.96 38.25 35.96 38.27 35.94 38.29L35.91 38.31C35.86 38.31 35.85 38.3 35.85 38.28C35.85 38.27 35.85 38.26 35.88 38.25C35.8922 38.2412 35.9057 38.2345 35.92 38.23H35.91ZM35.81 38.73C35.76 38.69 35.77 38.66 35.84 38.6C35.88 38.58 35.89 38.58 35.93 38.61C35.99 38.66 35.99 38.69 35.93 38.74C35.91 38.76 35.9 38.76 35.88 38.76C35.85 38.76 35.84 38.76 35.81 38.74V38.73ZM36.11 38.83C36.0877 38.8231 36.0689 38.8077 36.0577 38.7872C36.0465 38.7666 36.0437 38.7425 36.05 38.72C36.07 38.68 36.08 38.67 36.14 38.67C36.21 38.67 36.22 38.68 36.23 38.74C36.23 38.78 36.23 38.79 36.2 38.81C36.1888 38.8188 36.1759 38.8252 36.1622 38.8286C36.1484 38.8321 36.134 38.8325 36.12 38.83H36.11ZM45.03 38.83C45.01 38.82 45 38.81 45 38.78C45 38.74 45.02 38.71 45.08 38.69C45.14 38.66 45.18 38.66 45.2 38.71C45.23 38.77 45.23 38.79 45.19 38.83C45.17 38.86 45.16 38.86 45.11 38.86C45.06 38.86 45.05 38.86 45.03 38.84V38.83ZM36.53 38.95C36.49 38.95 36.47 38.91 36.47 38.87C36.47 38.84 36.47 38.83 36.49 38.81L36.55 38.79L36.61 38.8C36.66 38.84 36.67 38.88 36.64 38.92C36.61 38.96 36.58 38.96 36.52 38.95H36.53ZM38.71 39.05L38.69 39.02C38.69 38.96 38.69 38.91 38.71 38.85C38.72 38.8 38.71 38.75 38.73 38.7L38.77 38.42C38.77 38.37 38.77 38.32 38.79 38.28C38.8 38.2 38.79 38.13 38.81 38.06C38.81 38.03 38.84 37.96 38.87 38C38.91 38.06 38.96 38.1 39.01 38.15C39.05 38.18 39.01 38.22 38.98 38.23C38.94 38.24 38.93 38.29 38.93 38.33L38.91 38.45C38.91 38.52 38.91 38.58 38.89 38.65L38.88 38.83L38.86 38.95C38.86 38.99 38.86 39.04 38.82 39.06C38.79 39.08 38.74 39.08 38.72 39.05H38.71ZM41.68 38.07L41.55 38.19C41.49 38.24 41.6 38.26 41.61 38.3C41.63 38.36 41.63 38.42 41.63 38.48C41.65 38.54 41.66 38.59 41.65 38.65C41.65 38.72 41.57 38.7 41.53 38.74C41.48 38.76 41.46 38.81 41.43 38.84C41.4062 38.8902 41.3926 38.9445 41.39 39C41.39 39.05 41.36 39.1 41.39 39.14L41.4 39.16H41.45L41.6 39.15C41.72 39.13 41.85 39.13 41.97 39.12L42.19 39.1C42.25 39.11 42.28 39.05 42.28 39C42.24 38.93 42.27 38.86 42.24 38.8C42.22 38.72 42.23 38.65 42.22 38.58C42.22 38.52 42.15 38.5 42.12 38.54C42.08 38.58 42.02 38.59 42 38.63C41.97 38.69 42.06 38.69 42.08 38.73L42.09 38.88C42.1 38.94 42.04 38.94 41.99 38.95C41.94 38.97 41.87 38.98 41.84 38.92C41.82 38.87 41.82 38.82 41.82 38.77C41.82 38.67 41.79 38.59 41.79 38.5C41.79 38.4 41.76 38.29 41.76 38.18C41.76 38.13 41.75 38.06 41.68 38.07ZM41.62 38.89H41.65V38.97L41.62 38.98C41.6069 38.9842 41.5935 38.9875 41.58 38.99C41.5733 38.9903 41.5667 38.9903 41.56 38.99C41.54 38.97 41.54 38.94 41.57 38.91L41.62 38.89ZM38.62 37.97C38.59 37.97 38.54 38.04 38.5 38.03C38.41 38.04 38.42 38.13 38.49 38.16V38.24C38.5 38.32 38.45 38.39 38.46 38.47C38.46 38.55 38.43 38.64 38.43 38.73C38.4 38.82 38.4 38.91 38.39 39C38.38 39.08 38.32 39.05 38.27 39.03V38.93C38.28 38.84 38.22 38.82 38.15 38.81C38.08 38.81 38.05 38.76 38.07 38.7C38.1 38.66 38.17 38.67 38.22 38.67C38.32 38.69 38.31 38.56 38.26 38.51C38.22 38.45 38.14 38.41 38.12 38.35C38.12 38.27 38.07 38.18 38 38.14C37.89 38.13 37.8 38.22 37.77 38.32C37.72 38.32 37.67 38.34 37.63 38.36C37.56 38.38 37.46 38.5 37.56 38.55C37.61 38.56 37.78 38.6 37.7 38.67C37.66 38.75 37.58 38.75 37.51 38.73C37.44 38.73 37.36 38.69 37.36 38.61C37.35 38.53 37.35 38.45 37.32 38.38C37.3 38.3 37.21 38.32 37.2 38.4C37.13 38.45 37.14 38.54 37.19 38.6C37.22 38.67 37.19 38.76 37.16 38.82C37.14 38.92 37.04 38.92 36.97 38.94C36.94 38.96 36.81 38.94 36.86 39.01C36.935 39.0445 37.0188 39.055 37.1 39.04C37.18 39.04 37.25 38.97 37.3 38.9C37.35 38.85 37.44 38.88 37.52 38.88C37.59 38.88 37.67 38.93 37.75 38.89C37.77 38.84 37.87 38.74 37.9 38.84C37.9 38.93 37.97 38.97 38.05 38.96C38.14 38.96 38.1 39.02 38.1 39.08C38.1 39.17 38.17 39.22 38.25 39.26H38.33C38.4 39.23 38.48 39.2 38.51 39.12C38.54 39.05 38.54 38.97 38.56 38.9C38.58 38.79 38.6 38.67 38.6 38.56C38.63 38.46 38.62 38.35 38.64 38.24L38.67 38.01C38.67 37.96 38.65 37.96 38.62 37.97ZM37.95 38.38C37.96 38.38 37.97 38.4 37.97 38.43C37.97 38.47 37.99 38.5 38.02 38.51V38.54L37.94 38.56C37.89 38.56 37.85 38.54 37.82 38.51L37.8 38.49L37.83 38.47L37.88 38.42C37.91 38.39 37.93 38.38 37.95 38.38ZM44.55 37.59C44.4924 37.5941 44.4355 37.6042 44.38 37.62C44.28 37.62 44.23 37.72 44.33 37.78C44.39 37.93 44.48 37.74 44.58 37.76C44.72 37.78 44.73 37.94 44.76 38.06C44.76 38.17 44.8 38.28 44.83 38.39C44.93 38.5 44.76 38.57 44.69 38.49C44.63 38.42 44.49 38.34 44.42 38.43C44.33 38.47 44.32 38.59 44.25 38.63C44.13 38.66 44.12 38.51 44.05 38.45C43.99 38.36 43.88 38.35 43.79 38.33C43.75 38.24 43.77 38.09 43.69 38.03C43.61 38.06 43.47 38.2 43.59 38.27C43.69 38.37 43.54 38.41 43.49 38.47C43.41 38.56 43.39 38.67 43.39 38.77C43.26 38.84 43.24 38.69 43.22 38.6C43.22 38.49 43.12 38.52 43.05 38.56C42.95 38.6 42.91 38.69 42.85 38.76V38.96C42.87 39.05 42.97 39.01 43.03 39C43.13 38.96 43.17 39.07 43.09 39.13C43.03 39.19 42.87 39.16 42.89 39.27H43.05C43.15 39.24 43.27 39.16 43.28 39.04C43.3 38.94 43.45 38.95 43.53 38.93C43.63 38.9 43.76 38.89 43.79 39.03C43.86 39.1 44.01 39.18 44.09 39.08C44.1281 39.0559 44.1586 39.0215 44.1781 38.9808C44.1975 38.9401 44.2051 38.8948 44.2 38.85C44.19 38.77 44.33 38.77 44.37 38.82C44.42 38.9 44.58 38.88 44.66 38.82C44.74 38.77 44.76 38.66 44.88 38.66L45.42 38.51C45.56 38.48 45.4 38.39 45.36 38.33C45.26 38.28 45.16 38.5 45.04 38.39C44.94 38.32 44.95 38.19 44.92 38.08C44.89 37.94 44.9 37.78 44.8 37.68C44.74 37.61 44.64 37.59 44.55 37.59ZM43.87 38.54C43.88 38.54 43.9 38.54 43.92 38.56C43.96 38.58 43.99 38.62 43.99 38.66C43.99 38.68 43.99 38.68 43.96 38.69L43.91 38.71C43.89 38.71 43.84 38.68 43.84 38.66V38.62C43.82 38.58 43.82 38.58 43.84 38.56L43.87 38.54ZM44.52 38.58C44.56 38.58 44.58 38.58 44.6 38.61C44.61 38.65 44.6 38.67 44.56 38.69L44.51 38.71L44.47 38.68C44.45 38.67 44.44 38.66 44.44 38.64C44.44 38.61 44.48 38.58 44.52 38.57V38.58ZM43.62 38.58C43.64 38.58 43.65 38.58 43.66 38.6C43.68 38.62 43.69 38.63 43.69 38.66V38.72C43.69 38.75 43.69 38.74 43.63 38.74C43.57 38.74 43.56 38.74 43.56 38.68C43.56 38.64 43.56 38.63 43.59 38.61C43.6 38.59 43.62 38.59 43.63 38.59L43.62 38.58ZM43.08 38.73C43.0894 38.7329 43.098 38.738 43.105 38.745C43.112 38.752 43.1171 38.7606 43.12 38.77C43.12 38.8 43.12 38.82 43.1 38.83C43.07 38.84 43.02 38.85 43 38.83C42.9997 38.8267 42.9997 38.8233 43 38.82C42.98 38.81 42.98 38.8 43 38.79V38.78L43.02 38.75C43.0262 38.7403 43.0355 38.733 43.0464 38.7293C43.0574 38.7257 43.0692 38.7259 43.08 38.73ZM44 38.85L44.05 38.86V38.92H43.93L43.92 38.9C43.92 38.88 43.92 38.87 43.94 38.86L44 38.85ZM42.29 39.33C42.28 39.33 42.26 39.32 42.28 39.31C42.29 39.28 42.33 39.27 42.36 39.25C42.4145 39.2292 42.4627 39.1948 42.5 39.15C42.5 39.11 42.54 39.09 42.54 39.05L42.53 38.91C42.5165 38.868 42.488 38.8324 42.45 38.81C42.42 38.8 42.38 38.79 42.37 38.75C42.37 38.72 42.4 38.69 42.41 38.66L42.47 38.54C42.5 38.51 42.54 38.54 42.55 38.56L42.6 38.66C42.63 38.69 42.65 38.72 42.66 38.76C42.68 38.8 42.7 38.83 42.7 38.86L42.72 38.99C42.72 39.04 42.72 39.1 42.7 39.15L42.64 39.23C42.61 39.26 42.58 39.29 42.54 39.3C42.51 39.31 42.49 39.34 42.45 39.34H42.3L42.29 39.33ZM41.6 39.37C41.58 39.35 41.57 39.34 41.57 39.31C41.57 39.28 41.57 39.28 41.6 39.25C41.64 39.21 41.66 39.21 41.74 39.25C41.81 39.29 41.84 39.29 41.84 39.26C41.85 39.24 41.89 39.21 41.94 39.21C41.9585 39.2107 41.9761 39.2178 41.99 39.23C42.01 39.25 42.02 39.26 42.02 39.3C42.02 39.35 42.02 39.35 41.99 39.38C41.96 39.4 41.96 39.4 41.92 39.4C41.9022 39.399 41.8851 39.3928 41.8709 39.3821C41.8567 39.3715 41.8459 39.3568 41.84 39.34C41.84 39.32 41.84 39.31 41.82 39.33L41.8 39.34C41.78 39.34 41.74 39.37 41.72 39.39L41.67 39.4C41.63 39.4 41.63 39.4 41.6 39.37ZM39.62 38.48C39.55 38.48 39.48 38.54 39.47 38.61C39.49 38.68 39.55 38.76 39.51 38.83C39.54 38.93 39.43 38.97 39.36 38.92C39.32 38.82 39.3 38.72 39.23 38.62C39.15 38.6 39.12 38.73 39.06 38.78C39.09 38.85 39.17 38.92 39.18 39.01C39.2 39.11 39.14 39.21 39.07 39.25C39 39.32 38.9 39.3 38.82 39.31C38.72 39.37 38.89 39.39 38.94 39.39C39.04 39.4 39.15 39.39 39.24 39.31C39.31 39.28 39.3 39.14 39.39 39.13L39.87 39.16C39.95 39.18 40.08 39.15 40.14 39.21C40.14 39.31 40.24 39.39 40.33 39.43C40.38 39.45 40.43 39.38 40.48 39.37C40.58 39.34 40.55 39.22 40.61 39.17H41.11C41.13 39.17 41.14 39.12 41.17 39.1L41.15 38.91C41.12 38.83 41.15 38.73 41.1 38.66C41.01 38.64 40.94 38.71 40.86 38.72C40.76 38.76 40.69 38.85 40.68 38.95C40.63 39.04 40.54 38.93 40.58 38.85L40.57 38.75C40.52 38.7 40.43 38.72 40.36 38.71L40.06 38.69C39.96 38.69 39.87 38.7 39.79 38.68C39.69 38.68 39.69 38.58 39.69 38.5C39.67 38.4848 39.645 38.4776 39.62 38.48ZM39.82 38.85L39.92 38.86H40.05C40.15 38.88 40.25 38.88 40.35 38.88C40.37 38.88 40.39 38.9 40.41 38.92V39.12C40.41 39.15 40.41 39.19 40.39 39.2C40.3848 39.208 40.378 39.2148 40.37 39.22C40.3553 39.2174 40.3415 39.2116 40.3293 39.2029C40.3172 39.1943 40.3072 39.183 40.3 39.17V39.03C40.2802 39.0132 40.2558 39.0028 40.23 39L39.97 38.99L39.77 38.98C39.74 38.97 39.7 38.98 39.68 38.94C39.66 38.92 39.69 38.88 39.72 38.87C39.7514 38.8559 39.7856 38.8491 39.82 38.85ZM40.95 38.88C40.96 38.88 40.97 38.88 40.97 38.91L40.99 38.96C40.99 38.97 40.99 38.98 40.97 38.98C40.92 39 40.87 39 40.85 38.98C40.85 38.97 40.85 38.93 40.87 38.92L40.95 38.88Z" fill="#C09300"/>
<path d="M40.5 33.22C43.76 30.72 43.48 27.04 43.48 27.04L43.23 27.06C42.54 27.06 40.91 26.66 40.53 26.17C40.13 26.62 38.45 27.07 37.77 27.07L37.52 27.04C37.52 27.04 37.23 30.71 40.5 33.22Z" fill="white" stroke="#C09300" stroke-width="0.11"/>
<path d="M43.2199 27.3H43.1399C42.5199 27.3 41.0799 26.99 40.5199 26.51C39.9399 26.95 38.4699 27.31 37.8599 27.31C37.833 27.309 37.8062 27.3056 37.7799 27.3C37.7854 27.9319 37.8728 28.5605 38.0399 29.17C38.441 30.6384 39.3034 31.939 40.4999 32.88C41.6971 31.9354 42.5594 30.6314 42.9599 29.16C43.1262 28.5538 43.2136 27.9286 43.2199 27.3Z" fill="white" stroke="#C09300" stroke-width="0.09"/>
<path d="M39.4399 27C38.9028 27.1749 38.3443 27.2758 37.7799 27.3L37.7899 27.71C37.8241 28.2005 37.9078 28.6863 38.0399 29.16C38.3087 30.1435 38.7862 31.0575 39.4399 31.84V27ZM41.4999 27V31.92C42.1851 31.1195 42.6838 30.1768 42.9599 29.16C43.0919 28.6863 43.1756 28.2005 43.2099 27.71L43.2199 27.31H43.1399C42.7599 27.31 42.0999 27.19 41.4999 26.99V27Z" fill="#C09300"/>
<path d="M41.73 25.8C41.8 25.81 41.64 25.45 41.64 25.45C41.82 25.63 42.48 25.68 42.48 25.68C42.08 25.5 41.68 24.17 41.73 23.1C41.77 22.04 41.58 21.62 41.43 21.46C41.23 21.26 40.58 21.08 40.16 21.06C39.91 21.05 39.96 21.24 39.96 21.24C39.51 21.13 39.06 21.08 38.86 21.22C38.68 21.34 38.64 21.97 38.78 21.86C39.11 21.59 39.4 21.84 39.6 22.13C39.78 22.38 39.77 23.1 39.51 23.95C39.2798 24.5926 38.9416 25.1912 38.51 25.72C38.91 25.72 39.47 25.37 39.47 25.37L39.34 25.92C39.76 25.72 40.09 25.41 40.09 25.41L40.49 25.83C40.62 25.65 40.89 25.41 40.89 25.41C40.89 25.41 41.22 25.76 41.73 25.81V25.8Z" fill="white" stroke="#C09300" stroke-width="0.12"/>
<path d="M40.11 23.26C40.11 23.26 39.89 24.9 39.47 25.36M40.47 23.21C40.47 23.21 40.37 24.88 40.09 25.41M40.78 23.28C40.78 23.28 40.78 25.1 40.88 25.41M41.18 23.37C41.18 23.37 41.26 24.9 41.64 25.45" stroke="#C09300" stroke-width="0.13"/>
<path d="M39.7 22.46C39.6911 22.344 39.657 22.2314 39.6 22.13C39.4 21.83 39.11 21.59 38.78 21.86C38.78 21.86 38.89 21.51 39.14 21.5C39.32 21.49 39.75 21.64 40.13 22.28C40.13 22.28 39.85 22.22 39.78 22.28C39.66 22.38 39.71 22.46 39.71 22.46H39.7Z" fill="#C09300" stroke="#C09300" stroke-width="0.03"/>
<path d="M38.74 21.43C38.77 21.33 38.81 21.25 38.87 21.22C39.07 21.08 39.51 21.12 39.96 21.24C39.96 21.24 39.92 21.05 40.16 21.06C40.58 21.08 41.22 21.26 41.42 21.46C41.484 21.5303 41.5348 21.6116 41.57 21.7C41.47 21.56 41.19 21.57 41.12 21.58C41.02 21.59 40.95 21.58 40.81 21.62C40.74 21.64 40.64 21.66 40.58 21.7C40.54 21.74 40.5 21.86 40.44 21.86C40.34 21.86 40.34 21.84 40.31 21.81C40.28 21.76 40.26 21.7 40.22 21.71C40.12 21.72 39.94 21.64 39.72 21.46C39.49 21.28 39.4 21.24 39.12 21.26C38.82 21.28 38.74 21.45 38.74 21.45V21.43Z" fill="#C09300" stroke="#C09300" stroke-width="0.03"/>
<path d="M40.38 21.69C40.4463 21.69 40.5 21.6363 40.5 21.57C40.5 21.5037 40.4463 21.45 40.38 21.45C40.3137 21.45 40.26 21.5037 40.26 21.57C40.26 21.6363 40.3137 21.69 40.38 21.69Z" fill="white"/>
</g>
<defs>
<clipPath id="clip0_21_221">
<rect width="80" height="60" fill="white" transform="translate(0.5 0.5)"/>
</clipPath>
</defs>
</svg>
